<svg width="11" height="15" viewBox="0 0 11 15" fill="none" xmlns="http://www.w3.org/2000/svg">
<path fill-rule="evenodd" clip-rule="evenodd" d="M4.84116 0.0411092C3.84378 0.166102 2.91692 0.562795 2.10196 1.21346C1.81442 1.44302 1.31726 1.96347 1.10509 2.25698C0.0676387 3.69224 -0.246609 5.41283 0.193097 7.25038C0.657958 9.19305 1.96684 11.4127 3.93252 13.5919C4.46906 14.1867 5.2046 14.913 5.32051 14.9625C5.44143 15.0141 5.56419 15.0125 5.69312 14.9574C5.81299 14.9062 6.89094 13.8127 7.36816 13.2582C9.17165 11.1626 10.3444 9.13002 10.7933 7.32162C11.2547 5.46291 10.939 3.68567 9.89299 2.25361C9.69304 1.97986 9.22302 1.48018 8.95713 1.25865C7.80383 0.297923 6.31235 -0.143288 4.84116 0.0411092ZM5.81746 2.51722C6.17167 2.55869 6.47369 2.64514 6.77658 2.79174C7.45938 3.1222 7.94933 3.62167 8.26883 4.31286C8.82008 5.50544 8.56251 6.93428 7.63012 7.85606C6.70654 8.7691 5.36287 9.00461 4.22095 8.45359C3.87412 8.28622 3.64044 8.12181 3.3716 7.85606C2.43921 6.93428 2.18164 5.50544 2.73289 4.31286C3.23665 3.22304 4.27479 2.52938 5.45784 2.49216C5.52094 2.49017 5.68277 2.50145 5.81746 2.51722Z" fill="#8CB110"/>
</svg>
