<svg width="48" height="59" viewBox="0 0 48 59" fill="#8CB110" xmlns="http://www.w3.org/2000/svg">
<circle cx="23.6607" cy="23.3477" r="21.7701" fill="white"/>
<path fill-rule="evenodd" clip-rule="evenodd" d="M20.877 0.128846C10.779 1.30202 2.51921 8.87948 0.502228 18.8202C0.0228207 21.183 -0.0289166 23.5535 0.0105942 41.3793C0.0474024 57.9677 0.0555102 58.4677 0.293605 58.73C0.428483 58.8785 0.658856 59 0.805574 59C0.986397 59 3.30119 56.7799 7.986 52.1131L14.8995 45.2262L16.2256 45.6366C22.3573 47.5347 28.3134 47.1123 33.8965 44.3835C44.4399 39.2305 49.5159 27.1222 45.7987 15.9922C44.2484 11.35 41.1544 7.16597 37.167 4.31918C34.8297 2.65043 31.0215 1.0017 28.2337 0.451485C25.9589 0.00261303 23.0589 -0.124646 20.877 0.128846ZM27.2041 8.11913C30.1027 8.84472 32.3511 10.0841 34.4796 12.1293C37.6117 15.1389 39.2473 18.9783 39.2539 23.3365C39.2579 25.9933 38.8005 27.973 37.6383 30.3281C34.6089 36.4674 27.9712 39.9449 21.2191 38.9303C16.1611 38.1704 11.7219 34.9683 9.47081 30.4564C7.59243 26.6913 7.26657 22.4489 8.55279 18.5025C10.2402 13.3248 14.724 9.26716 20.0613 8.0877C21.7871 7.70644 21.842 7.70169 23.9866 7.75185C25.5106 7.78751 26.1882 7.86487 27.2041 8.11913Z"/>
<path fill-rule="evenodd" clip-rule="evenodd" d="M18.9458 14.042C18.9006 14.0663 18.8386 14.1207 18.808 14.1629C18.771 14.2139 18.6317 15.0172 18.3932 16.5536C18.1957 17.8263 18.0231 18.9704 18.0098 19.0962C17.956 19.6025 18.1283 20.3019 18.4263 20.7867C18.6973 21.2278 19.2217 21.7023 19.6698 21.9119C19.8304 21.9871 19.8378 21.997 19.8238 22.1178C19.8157 22.1875 19.6766 24.0413 19.5146 26.2373C19.1837 30.7235 19.187 30.5386 19.4309 31.0161C19.6992 31.5413 20.2102 31.8988 20.8126 31.9827C21.5798 32.0896 22.3649 31.687 22.6991 31.0153C22.9391 30.533 22.9425 30.7268 22.6164 26.3077C22.4558 24.131 22.3163 22.271 22.3064 22.1743L22.2884 21.9984L22.5831 21.8409C23.2832 21.4665 23.8209 20.7818 24.0339 19.9932C24.1755 19.4687 24.1539 19.214 23.7466 16.6086C23.3685 14.1903 23.3514 14.1139 23.1689 14.0336C22.9885 13.9541 22.7619 14.0292 22.6717 14.1983C22.6366 14.2639 22.5668 14.9238 22.4513 16.282C22.3583 17.3751 22.267 18.3047 22.2485 18.3477C22.208 18.4414 22.056 18.4853 21.9251 18.441C21.8572 18.418 21.8222 18.3739 21.8022 18.2864C21.7868 18.2191 21.7007 17.298 21.6109 16.2396C21.521 15.1811 21.4331 14.2788 21.4156 14.2344C21.3582 14.0893 21.2353 14.013 21.0591 14.013C20.9211 14.013 20.88 14.0305 20.79 14.1279C20.7316 14.191 20.6835 14.2623 20.683 14.2862C20.6826 14.31 20.6032 15.2279 20.5066 16.326C20.315 18.5045 20.3231 18.463 20.0959 18.463C19.9923 18.463 19.8468 18.3575 19.8468 18.2823C19.8468 18.0652 19.5099 14.3669 19.481 14.2663C19.4176 14.0458 19.1487 13.9331 18.9458 14.042ZM29.1007 14.1896C27.5148 14.9739 26.4625 16.3422 26.1724 17.9975C26.1043 18.3861 26.1152 19.6339 26.1915 20.1755C26.3589 21.3644 26.7301 22.3728 27.2649 23.0913L27.4761 23.375L27.1937 23.6627C26.9557 23.9051 26.9079 23.9739 26.8899 24.1001C26.8782 24.1824 26.7303 25.5953 26.5614 27.2399C26.2321 30.4454 26.2325 30.4381 26.3905 30.8379C26.6995 31.6197 27.5358 32.1002 28.3824 31.9823C29.1657 31.8732 29.843 31.2353 29.9625 30.4939C29.9867 30.3444 29.9996 27.5078 29.9997 22.3051C30 13.5874 30.0149 14.1648 29.7863 14.0505C29.6125 13.9636 29.5194 13.9825 29.1007 14.1896Z"/>
</svg>
