<svg width="48" height="59" viewBox="0 0 48 59" fill="none" xmlns="http://www.w3.org/2000/svg">
<circle cx="23.6607" cy="23.3477" r="21.7701" fill="white"/>
<path fill-rule="evenodd" clip-rule="evenodd" d="M20.877 0.128846C10.779 1.30202 2.51921 8.87948 0.502228 18.8202C0.0228207 21.183 -0.0289166 23.5535 0.0105942 41.3793C0.0474024 57.9677 0.0555102 58.4677 0.293605 58.73C0.428483 58.8785 0.658856 59 0.805574 59C0.986397 59 3.30119 56.7799 7.986 52.1131L14.8995 45.2262L16.2256 45.6366C22.3573 47.5347 28.3134 47.1123 33.8965 44.3835C44.4399 39.2305 49.5159 27.1222 45.7987 15.9922C44.2484 11.35 41.1544 7.16597 37.167 4.31918C34.8297 2.65043 31.0215 1.0017 28.2337 0.451485C25.9589 0.00261303 23.0589 -0.124646 20.877 0.128846ZM27.2041 8.11913C30.1027 8.84472 32.3511 10.0841 34.4796 12.1293C37.6117 15.1389 39.2473 18.9783 39.2539 23.3365C39.2579 25.9933 38.8005 27.973 37.6383 30.3281C34.6089 36.4674 27.9712 39.9449 21.2191 38.9303C16.1611 38.1704 11.7219 34.9683 9.47081 30.4564C7.59243 26.6913 7.26657 22.4489 8.55279 18.5025C10.2402 13.3248 14.724 9.26716 20.0613 8.0877C21.7871 7.70644 21.842 7.70169 23.9866 7.75185C25.5106 7.78751 26.1882 7.86487 27.2041 8.11913Z" fill="#8CB110"/>
<path d="M20.6955 14.1325C20.6114 14.0477 20.4972 14 20.3782 14C20.2592 14 20.145 14.0477 20.0608 14.1325L12.1271 22.135C12.0659 22.1988 12.0244 22.2792 12.008 22.3665C11.9915 22.4537 12.0007 22.5439 12.0344 22.6259C12.0682 22.7079 12.125 22.7781 12.1979 22.8279C12.2707 22.8778 12.3565 22.905 12.4445 22.9062H14.9689V31.5471C14.9689 31.6672 15.0162 31.7824 15.1004 31.8673C15.1846 31.9523 15.2988 32 15.4178 32H21.7287C21.7877 32.0005 21.8462 31.9892 21.9008 31.9669C21.9555 31.9446 22.0052 31.9116 22.0473 31.8699C22.0893 31.8282 22.1228 31.7785 22.1458 31.7238C22.1688 31.669 22.1808 31.6102 22.1813 31.5508V31.5508V21.6749C22.1814 21.5548 22.2287 21.4397 22.3129 21.3548L24.886 18.3593L20.6955 14.1325ZM20.3782 28.3625H18.5751V26.5437H20.3782V28.3625ZM20.3782 24.725H18.5751V22.9062H20.3782V24.725ZM32.5492 17.4499H31.6477C31.5281 17.4499 31.4135 17.4978 31.3289 17.5831C31.2444 17.6684 31.1969 17.784 31.1969 17.9046V21.0874L28.8096 17.77C28.7254 17.6852 28.6112 17.6375 28.4922 17.6375C28.3732 17.6375 28.2591 17.6852 28.1749 17.77L24.0854 22.7825C24.0202 22.8625 23.9845 22.9627 23.9844 23.0663V31.5417C23.9837 31.6011 23.9946 31.6602 24.0165 31.7154C24.0384 31.7706 24.0709 31.8209 24.1121 31.8635C24.1533 31.9061 24.2024 31.94 24.2566 31.9634C24.3108 31.9869 24.369 31.9993 24.428 32H27.1327C27.1926 32.0002 27.2519 31.9886 27.3074 31.9657C27.3628 31.9428 27.4132 31.9091 27.4558 31.8665C27.4983 31.8239 27.5321 31.7733 27.5552 31.7176C27.5784 31.6619 27.5904 31.6021 27.5907 31.5417V28.3625H29.3938V31.5398C29.3938 31.6619 29.4418 31.7789 29.5274 31.8652C29.6129 31.9515 29.729 32 29.85 32H32.5546C32.6729 31.9986 32.7859 31.9503 32.8693 31.8655C32.9526 31.7808 32.9995 31.6665 33 31.5471V17.9046C33 17.784 32.9525 17.6684 32.868 17.5831C32.7834 17.4978 32.6688 17.4499 32.5492 17.4499ZM27.5907 26.5437H25.7875V24.725H27.5907V26.5437ZM31.1969 26.5437H29.3938V24.725H31.1969V26.5437Z" fill="#8CB110"/>
</svg>
