<svg x="0px" y="0px" viewBox="0 0 100 100" style="enable-background:new 0 0 100 100;" xml:space="preserve">
	<path d="M50,0C22.4,0,0,22.4,0,50s22.4,50,50,50s50-22.4,50-50S77.6,0,50,0z M50,93C26.2,93,7,73.8,7,50
		C7,26.2,26.2,7,50,7s43,19.3,43,43C93,73.8,73.8,93,50,93z"/>
	<path d="M76.4,31.3c-0.5-0.6-1.3-1-2.1-1H35.4L34.8,27c-0.2-1.4-1.4-2.3-2.8-2.3h-6.3c-1.5,0-2.8,1.3-2.8,2.8
		s1.3,2.8,2.8,2.8h3.9l5.2,31.4c0,0.1,0.1,0.3,0.1,0.3c0.1,0.1,0.1,0.3,0.1,0.5c0.1,0.2,0.2,0.3,0.3,0.5c0.1,0.1,0.2,0.2,0.3,0.3
		c0.2,0.1,0.3,0.3,0.5,0.4c0.1,0.1,0.2,0.1,0.3,0.2c0.3,0.1,0.6,0.2,1,0.2h31c1.5,0,2.8-1.3,2.8-2.8c0-1.5-1.3-2.8-2.8-2.8H40.1
		l-0.5-2.8h31.9c1.4,0,2.6-1,2.8-2.4l2.8-19.7C77.2,32.7,76.9,31.9,76.4,31.3z M46.2,50h-7.5l-0.9-5.6h8.4V50z M46.2,41.6h-8.4
		c-0.1,0-0.3,0.1-0.4,0.1l-1-5.7h9.8V41.6z M57.4,50H49v-5.6h8.4V50z M57.4,41.6H49v-5.6h8.4V41.6z M69.1,50h-8.8v-5.6h9.6L69.1,50z
		 M70.3,41.6H60.2v-5.6h10.8L70.3,41.6z"/>
	<circle cx="42" cy="71.1" r="4.2"/>
	<circle cx="67.2" cy="71.1" r="4.2"/>
</svg>
