<svg x="0px" y="0px" viewBox="0 0 100 100" style="enable-background:new 0 0 100 100;" xml:space="preserve">

	<path d="M50,0C22.4,0,0,22.4,0,50s22.4,50,50,50s50-22.4,50-50S77.6,0,50,0z M50,93C26.2,93,7,73.8,7,50
		C7,26.2,26.2,7,50,7s43,19.3,43,43C93,73.8,73.8,93,50,93z"/>
	<path d="M56.6,38.8l10.4-10.4l-1.2-1.2c-1.6-1.6-4.4-1.6-6,0l-4.5,4.5c-0.8,0.8-1.2,1.9-1.2,3s0.4,2.2,1.2,3L56.6,38.8
		z"/>
	<path d="M37.6,55.4c-1.6-1.6-4.4-1.6-6,0l-4.5,4.5c-0.8,0.8-1.2,1.9-1.2,3c0,1.1,0.4,2.2,1.2,3l1.2,1.2l10.4-10.4
		L37.6,55.4z"/>
	<path d="M70.9,32.3l-1-1L59.4,41.7l1.8,1.8c0.2,0.2,0.4,0.6,0.4,1c0,0.4-0.1,0.7-0.4,1L45.5,61.3c-0.5,0.5-1.5,0.5-2,0
		l-1.8-1.8L31.2,69.9l1,1c0.7,0.7,3.5,3.1,8.6,3.1c4.6,0,12-2,21.6-11.6C81.6,43.4,71.3,32.7,70.9,32.3z"/>
</svg>
