<svg x="0px" y="0px" viewBox="0 0 100 100" style="enable-background:new 0 0 100 100;" xml:space="preserve">

	<path d="M50,0C22.4,0,0,22.4,0,50s22.4,50,50,50s50-22.4,50-50S77.6,0,50,0z M50,93C26.2,93,7,73.8,7,50
		C7,26.2,26.2,7,50,7s43,19.3,43,43C93,73.8,73.8,93,50,93z"/>

	<path d="M56.9,26.5l-2.7,8l-2.6-8c-0.5-1.5,0.3-3,1.8-3.6s3,0.3,3.6,1.8C57.1,25.3,57,26,56.9,26.5z"/>
	<path d="M71.2,34.6l-7.6,3.8l3.7-7.6c0.7-1.4,2.4-1.9,3.7-1.2c1.4,0.7,1.9,2.4,1.2,3.7C72.2,34,71.7,34.4,71.2,34.6z"
		/>
	<path d="M75.6,50.5l-8-2.6l8-2.6c1.5-0.5,3,0.3,3.6,1.8c0.5,1.5-0.3,3-1.8,3.6C76.7,50.7,76.1,50.7,75.6,50.5z"/>
	<path d="M41,30.9l3.7,7.6l-7.6-3.7C35.8,34,35.3,32.3,36,31c0.7-1.4,2.4-1.9,3.7-1.2C40.3,29.9,40.7,30.4,41,30.9z"/>
	<path d="M65.6,51.4c0.4-1.2,0.6-2.3,0.6-3.6c0-6.6-5.4-12-12-12c-3.6,0-6.8,1.6-9,4.1c-0.1,0-0.3-0.1-0.4-0.1
		c-4.7,0-9,2.1-12,5.4c-0.6-0.2-1.2-0.3-1.9,0c-1.5,0.5-2.3,2.1-1.8,3.6c0.1,0.5,0.5,0.8,0.7,1.1c-0.8,1.9-1.2,3.9-1.2,6
		c0,0.1,0,0.2,0,0.3c-4.6,1.2-8,5.4-8,10.3c0,5.9,4.8,10.7,10.7,10.7h29.3c7.4,0,13.3-6,13.3-13.3C74.2,58.2,70.6,53.4,65.6,51.4z
		 M54.2,41.2c3.7,0,6.7,3,6.7,6.7c0,1-0.3,1.9-0.6,2.7c-1,0.1-1.9,0.2-3,0.5c-1.4-3.6-4.3-6.5-7.9-7.8C50.6,42,52.2,41.2,54.2,41.2z
		 M60.8,71.9H31.5c-3,0-5.4-2.4-5.4-5.4c0-3,2.4-5.4,5.1-5.4l3.8,0.1L34.4,58c-0.1-0.7-0.2-1.4-0.2-2.1c0-5.9,4.8-10.7,10.7-10.7
		c0.1,0,0.1-0.1,0.2-0.1c5.1,0.1,9.3,3.7,10.3,8.7c0.1,0.2,0.1,0.3,0.1,0.5c0.3,1.2,1.4,1.9,2.5,1.9c0.3,0,0.5,0,0.8-0.1
		c0.8-0.3,1.5-0.3,2.1-0.3c4.4,0,8,3.6,8,8C68.9,68.3,65.3,71.9,60.8,71.9z"/>
</svg>
