<svg width="48" height="59" viewBox="0 0 48 59" fill="none" xmlns="http://www.w3.org/2000/svg">
<circle cx="23.6607" cy="23.3477" r="21.7701" fill="white"/>
<path fill-rule="evenodd" clip-rule="evenodd" d="M20.877 0.128846C10.779 1.30202 2.51921 8.87948 0.502228 18.8202C0.0228207 21.183 -0.0289166 23.5535 0.0105942 41.3793C0.0474024 57.9677 0.0555102 58.4677 0.293605 58.73C0.428483 58.8785 0.658856 59 0.805574 59C0.986397 59 3.30119 56.7799 7.986 52.1131L14.8995 45.2262L16.2256 45.6366C22.3573 47.5347 28.3134 47.1123 33.8965 44.3835C44.4399 39.2305 49.5159 27.1222 45.7987 15.9922C44.2484 11.35 41.1544 7.16597 37.167 4.31918C34.8297 2.65043 31.0215 1.0017 28.2337 0.451485C25.9589 0.00261303 23.0589 -0.124646 20.877 0.128846ZM27.2041 8.11913C30.1027 8.84472 32.3511 10.0841 34.4796 12.1293C37.6117 15.1389 39.2473 18.9783 39.2539 23.3365C39.2579 25.9933 38.8005 27.973 37.6383 30.3281C34.6089 36.4674 27.9712 39.9449 21.2191 38.9303C16.1611 38.1704 11.7219 34.9683 9.47081 30.4564C7.59243 26.6913 7.26657 22.4489 8.55279 18.5025C10.2402 13.3248 14.724 9.26716 20.0613 8.0877C21.7871 7.70644 21.842 7.70169 23.9866 7.75185C25.5106 7.78751 26.1882 7.86487 27.2041 8.11913Z" fill="#242424"/>
<path fill-rule="evenodd" clip-rule="evenodd" d="M22.8774 15.0264C22.0035 15.0972 21.0304 15.363 20.2272 15.7504C18.0415 16.8047 16.5195 18.7892 16.1091 21.1199C15.8249 22.7339 16.0929 24.2935 16.9489 26.007C17.7531 27.6168 18.9825 29.2023 20.7394 30.8958C21.6959 31.8177 22.8256 32.7715 23.1602 32.9396C23.317 33.0184 23.6373 33.0204 23.8239 32.9438C24.0081 32.8682 24.7043 32.3131 25.4925 31.6136C27.5451 29.7918 29.3063 27.6089 30.1272 25.8694C31.0981 23.812 31.2548 21.9593 30.6182 20.0658C29.78 17.5731 27.6145 15.6741 25.0217 15.1581C24.2604 15.0067 23.6132 14.9669 22.8774 15.0264ZM24.3248 19.2037C25.5003 19.4981 26.402 20.3831 26.7262 21.5607C26.8387 21.9692 26.8474 22.7387 26.7439 23.1259C26.5808 23.7362 26.3309 24.1819 25.9079 24.6171C25.2154 25.3294 24.3315 25.6799 23.3494 25.6317C22.7481 25.6022 22.2743 25.4667 21.8126 25.1921C21.0087 24.714 20.5111 24.0562 20.2544 23.1322C20.1539 22.7706 20.1654 21.9138 20.2758 21.5355C20.6534 20.2416 21.695 19.333 23.0353 19.1283C23.3661 19.0778 23.9611 19.1126 24.3248 19.2037Z" fill="#242424"/>
</svg>
