<svg width="61" height="50" viewBox="0 0 61 50" fill="none" xmlns="http://www.w3.org/2000/svg">
<path d="M9.64209 7.25874L7.39012 10.2676C7.39012 10.2676 4.43558 5.68107 4.72062 5.27451C5.05903 4.79165 7.38462 6.16971 9.64209 7.25874Z" fill="#8CB110"/>
<path d="M11.9095 6.35258C18.9108 8.63278 15.3024 15.2538 19.8123 15.8204C24.3222 16.387 26.9523 11.5923 31.6824 8.62709C38.0111 4.65964 59.7448 4.58872 60.0698 9.18191C60.2764 12.0997 56.4122 12.3293 56.4122 12.3293C56.4122 12.3293 59.3269 13.9912 58.0967 16.323C57.0952 18.2217 53.8526 17.786 53.8526 17.786C53.8526 17.786 56.1642 19.8272 53.922 22.207C52.6532 23.5535 49.3849 22.6878 49.3849 22.6878C49.3849 22.6878 51.9933 23.8875 49.7721 25.9584C48.1459 27.4744 40.1223 25.6508 34.704 24.9058C31.7384 24.4981 29.6076 25.1411 29.6076 25.1411C29.6076 25.1411 34.323 27.9089 42.9049 31.5114C50.2079 34.577 56.3619 35.3247 56.5731 37.564C56.871 40.7181 53.5187 40.3321 53.5187 40.3321C53.5187 40.3321 56.9528 42.8295 54.626 44.7786C52.5862 46.487 50.6548 44.0695 50.6548 44.0695C50.6548 44.0695 51.8699 47.934 48.7841 48.737C46.546 49.3196 43.7494 45.4429 41.551 42.2251C39.3526 39.0074 34.8665 34.6616 34.8665 34.6616C34.8665 34.6616 24.1242 39.2302 17.4549 35.1356C10.7855 31.0409 9.06682 24.5565 9.02458 19.3681C8.99047 15.1749 6.62257 15.2842 6.04805 11.57C5.52731 8.20451 8.45911 5.22952 11.909 6.35297L11.9095 6.35258ZM9.6122 11.2101C9.7983 11.6745 10.4037 11.9635 10.8843 11.8515C11.3583 11.741 11.6961 11.3064 11.7646 10.8448C11.8678 10.1472 10.9138 9.07556 9.95943 9.91291C9.60985 10.2197 9.42924 10.7534 9.6122 11.2101Z" fill="#8CB110"/>
</svg>
