<svg width="1920" height="813" viewBox="0 0 1920 813" fill="none" xmlns="http://www.w3.org/2000/svg">
<path d="M69.5 789.636C33.5111 778.592 -12.439 762.241 -38.0193 756.982L-40 656.224L-40 576L2014.5 576L2023.5 803.187C2011.15 785.438 1944.59 746.784 1904.37 742.051C1854.09 736.135 1833.47 749.485 1767 781.136C1735.5 796.136 1668 803.187 1618.57 769.661C1550.56 723.529 1464.87 769.661 1431 769.661C1397.13 769.661 1329.26 752.839 1312.5 743.636C1282.51 729.174 1242.5 706.636 1148 732.636C1070.1 754.069 1014.5 759.636 928 759.636C827 759.636 731.5 698.136 656.238 729.193C596.852 753.698 532.871 778.931 474 773.136C427.25 768.534 338.937 749.376 275.091 794.125C223 830.636 114.486 803.441 69.5 789.636Z" fill="#EBEDE4"/>
<path d="M122.401 16.2879C86.4122 27.3319 26.2544 40.6109 0.674057 45.87L-4 232.276V312.5H1940.37L1988 103.062C1975.65 120.811 1980.59 141.716 1940.37 146.449C1890.09 152.365 1868.92 126.728 1808.06 85.3127C1759.36 52.1808 1715.25 63.7877 1654.57 118.839C1593.71 174.059 1508.5 164.198 1474.63 164.198C1440.76 164.198 1398.77 180.633 1382.01 189.836C1352.02 204.298 1272.99 226.518 1196.77 199.697C1120.56 172.876 1016.83 163.541 974.49 162.226C899.513 167.485 735.799 169.72 680.758 136.588C625.716 103.456 553.738 99.1176 524.629 101.09C477.879 105.691 370.618 101.09 315.577 45.87C246.774 -23.1548 167.387 2.48296 122.401 16.2879Z" fill="#EBEDE4"/>
<path d="M-6 291H1932V669L-6 635.244L-6 291Z" fill="#EBEDE4"/>
<path d="M781.577 698.767L781.536 679.991C772.567 674.217 765.559 665.702 761.596 655.691C767.311 661.299 774.027 665.951 781.452 669.274L781.411 650.499C771.733 644.268 764.307 634.88 760.594 623.789V623L743.408 623.042H743.116V623.831C739.445 634.922 732.019 644.309 722.383 650.582L722.425 669.357C729.933 665.993 736.691 661.257 742.448 655.525C738.527 665.66 731.519 674.217 722.508 680.074L722.591 698.85C730.392 695.319 737.4 690.376 743.282 684.311V724.204L760.72 727.586V684.145C766.685 690.251 773.735 695.236 781.577 698.767Z" fill="#DFE3D1"/>
<path d="M1697 779.396L1696.98 769.881C1692.59 766.955 1689.15 762.64 1687.21 757.567C1690.01 760.408 1693.3 762.766 1696.94 764.45L1696.92 754.935C1692.18 751.778 1688.54 747.02 1686.72 741.4V741L1678.3 741.021H1678.16V741.421C1676.36 747.041 1672.72 751.799 1668 754.977L1668.02 764.492C1671.7 762.787 1675.01 760.387 1677.83 757.482C1675.91 762.619 1672.48 766.955 1668.06 769.923L1668.1 779.438C1671.92 777.648 1675.36 775.143 1678.24 772.07V791.885L1686.78 792.871V771.986C1689.7 775.08 1693.16 777.606 1697 779.396Z" fill="#DFE3D1"/>
<path d="M1661 762.16L1660.97 749.234C1654.76 745.26 1649.9 739.397 1647.16 732.505C1651.12 736.366 1655.77 739.569 1660.91 741.857L1660.88 728.931C1654.18 724.641 1649.04 718.179 1646.47 710.543V710L1634.56 710.029H1634.36V710.572C1631.82 718.207 1626.67 724.67 1620 728.988L1620.03 741.914C1625.23 739.597 1629.91 736.337 1633.9 732.391C1631.18 739.369 1626.33 745.26 1620.09 749.292L1620.14 762.217C1625.55 759.787 1630.4 756.384 1634.48 752.208V778.843L1646.55 784V752.094C1650.68 756.298 1655.57 759.729 1661 762.16Z" fill="#DFE3D1"/>
<path d="M714.16 699.7L714.132 686.846C708.028 682.893 703.259 677.063 700.561 670.21C704.451 674.049 709.022 677.234 714.075 679.509L714.047 666.655C707.46 662.389 702.407 655.962 699.88 648.369V647.829L688.183 647.857H687.985V648.398C685.486 655.991 680.433 662.418 673.875 666.712L673.903 679.566C679.014 677.262 683.613 674.02 687.531 670.096C684.862 677.035 680.092 682.893 673.96 686.903L674.017 699.757C679.326 697.34 684.095 693.955 688.098 689.803V721.204L699.965 720.5V689.69C704.025 693.87 708.823 697.283 714.16 699.7Z" fill="#DFE3D1"/>
<path d="M589.77 544.105L597.145 542.577L597.776 545.621L590.4 547.148L589.77 544.105ZM614.612 548.711C614.201 548.014 613.783 547.329 613.357 546.655C612.932 545.98 612.511 545.286 612.096 544.571L604.09 546.229C603.993 547.05 603.885 547.863 603.766 548.669C603.662 549.453 603.557 550.238 603.453 551.022L599.861 551.765C600.154 549.589 600.442 547.575 600.726 545.725C601.01 543.874 601.295 542.118 601.58 540.458C601.883 538.794 602.193 537.205 602.509 535.691C602.824 534.177 603.162 532.677 603.521 531.192L606.784 530.516C607.704 531.736 608.609 532.979 609.5 534.243C610.391 535.507 611.297 536.845 612.218 538.255C613.158 539.662 614.125 541.158 615.121 542.744C616.135 544.326 617.208 546.057 618.341 547.939L614.612 548.711ZM605.845 534.542C605.625 535.598 605.385 536.877 605.124 538.38C604.882 539.879 604.637 541.503 604.389 543.251L610.64 541.956C609.718 540.45 608.837 539.051 607.997 537.757C607.158 536.463 606.44 535.391 605.845 534.542ZM628.968 530.783C628.616 536.537 627.919 541.828 626.88 546.657C626.684 547.555 626.455 548.336 626.193 549.001C625.93 549.665 625.601 550.238 625.205 550.721C624.809 551.203 624.336 551.587 623.785 551.873C623.238 552.176 622.58 552.408 621.813 552.567C621.301 552.673 620.778 552.724 620.243 552.72C619.727 552.713 619.328 552.672 619.045 552.597L619.098 549.812C619.809 549.932 620.484 549.925 621.124 549.793C621.983 549.615 622.607 549.267 622.995 548.748C623.405 548.244 623.704 547.524 623.892 546.589C622.434 544.794 620.974 542.809 619.513 540.633C618.071 538.454 616.698 536.107 615.396 533.594L618.933 532.861C619.275 533.591 619.667 534.378 620.108 535.22C620.568 536.059 621.049 536.912 621.553 537.78C622.053 538.63 622.571 539.476 623.108 540.318C623.644 541.16 624.168 541.938 624.678 542.652C624.926 540.904 625.117 539.063 625.25 537.129C625.379 535.177 625.476 533.298 625.541 531.493L628.968 530.783ZM631.031 535.56L638.407 534.033L639.037 537.076L631.662 538.604L631.031 535.56ZM651.835 526.048C651.482 531.802 650.786 537.093 649.746 541.922C649.551 542.82 649.322 543.601 649.059 544.266C648.796 544.93 648.467 545.503 648.071 545.986C647.676 546.468 647.202 546.852 646.651 547.137C646.104 547.441 645.447 547.673 644.679 547.832C644.167 547.938 643.644 547.989 643.11 547.985C642.593 547.978 642.194 547.937 641.912 547.862L641.964 545.077C642.675 545.197 643.351 545.19 643.99 545.058C644.85 544.88 645.473 544.532 645.861 544.013C646.272 543.508 646.571 542.789 646.758 541.854C645.3 540.059 643.84 538.074 642.38 535.898C640.937 533.719 639.565 531.372 638.263 528.859L641.8 528.126C642.141 528.856 642.533 529.642 642.974 530.485C643.434 531.324 643.916 532.177 644.419 533.045C644.919 533.895 645.438 534.741 645.974 535.583C646.511 536.425 647.034 537.203 647.544 537.917C647.792 536.169 647.983 534.328 648.116 532.394C648.246 530.442 648.343 528.563 648.407 526.758L651.835 526.048ZM658.302 525.167C658.616 526.684 658.849 528.084 659 529.368C659.152 530.652 659.278 531.951 659.378 533.265L657.02 533.753C656.573 532.511 656.163 531.271 655.792 530.033C655.418 528.776 655.075 527.398 654.765 525.899L653.709 520.799L657.246 520.067L658.302 525.167ZM661.217 537.173C661.349 537.813 661.247 538.377 660.91 538.866C660.573 539.356 660.094 539.664 659.472 539.793C658.869 539.918 658.306 539.825 657.784 539.514C657.281 539.199 656.963 538.721 656.83 538.081C656.698 537.442 656.8 536.877 657.137 536.388C657.489 535.877 657.966 535.559 658.569 535.434C659.191 535.305 659.755 535.407 660.263 535.741C660.766 536.056 661.084 536.533 661.217 537.173Z" fill="#DFE3D1"/>
<path d="M585.652 511.113C586.862 509.56 589.452 506.568 590.851 505.15C602.632 493.236 630.675 481.867 657.669 486.568C673.397 489.311 712.947 498.422 708.822 539.473C706.339 564.264 688.034 578.845 671.207 586.353C670.399 586.664 669.501 586.645 668.706 586.301C667.912 585.956 667.285 585.313 666.96 584.511L666.872 584.256C666.704 583.788 666.717 583.274 666.909 582.815C667.101 582.356 667.457 581.985 667.908 581.774C668.44 581.497 668.969 581.204 669.493 580.895C679.036 575.722 705.237 561.506 704.449 537.088C703.332 502.297 680.987 492.932 655.714 489.971C626.332 486.505 603.212 501.032 596.28 507.947C567.643 536.503 578.199 552.921 588.798 566.211C602.149 582.957 620.334 584.273 646.385 585.708C647.399 585.706 648.695 585.684 650.266 585.609L650.88 585.45C649.847 582.14 649.232 578.714 649.051 575.251C648.994 574.612 649.149 573.972 649.491 573.429C649.833 572.886 650.343 572.47 650.944 572.245C651.545 572.02 652.204 571.998 652.818 572.182C653.433 572.367 653.97 572.748 654.347 573.267C654.599 573.631 654.773 574.043 654.859 574.477C655.381 576.766 654.273 588.208 666.716 602.642C672.523 609.398 679.639 612.267 687.271 612.797C685.049 611.498 684.136 610.873 683.521 610.094C683.334 609.846 683.199 609.563 683.124 609.262C683.048 608.961 683.034 608.648 683.081 608.341C683.128 608.034 683.237 607.74 683.4 607.476C683.563 607.211 683.777 606.983 684.03 606.802L684.094 606.793C684.42 606.55 684.805 606.401 685.21 606.361C685.614 606.32 686.021 606.391 686.389 606.564C688.504 607.41 690.691 610.275 695.096 610.32C697.393 610.352 697.861 611.242 696.998 613.714C695.37 618.365 690.705 622.567 685.972 623.99L685.93 623.997C685.341 624.216 684.689 624.192 684.117 623.93C683.546 623.669 683.102 623.191 682.883 622.602C682.664 622.013 682.688 621.361 682.949 620.79C683.211 620.218 683.688 619.774 684.277 619.555C684.344 619.528 684.411 619.505 684.48 619.486L684.618 619.465L684.736 619.447C685.654 619.194 686.526 618.795 687.317 618.264C687.067 618.271 686.817 618.239 686.577 618.169C681.008 617.433 672.385 616.169 664.643 608.354C658.803 602.459 655.459 596.365 653.102 591.234C652.46 591.392 649.205 591.194 647.105 591.055C551.512 586.947 574.117 525.936 585.652 511.113Z" fill="#DFE3D1"/>
<path d="M229.592 742.702C233.046 742.799 249.454 741.222 251.232 739.892C252.425 738.999 244.085 731.595 241.572 729.595C238.977 727.53 231.727 720.346 231.143 718.584C230.425 716.409 231.56 715.756 233.019 715.69C234.862 715.608 235.775 717.349 236.157 716.988C236.498 716.664 235.166 714.872 236.777 713.435C238.222 712.148 240.73 714.794 241.137 714.42C241.471 714.113 240.041 712.308 241.177 711.241C242.625 709.88 244.742 712.532 245.238 712.174C245.703 711.839 244.352 711.203 244.678 709.938C244.96 708.841 246.373 708.485 247.66 708.885C249.326 709.403 252.615 711.198 256.396 714.731C258.43 716.632 260.407 718.417 262.232 720.513C265.013 723.708 265.669 725.857 268.36 725.521C269.608 725.366 269.56 724.429 273.548 722.655C276.079 721.528 278.79 721.06 282.083 721.005C286.457 720.933 287.367 721.539 287.077 721.763C285.371 723.076 282.965 723.926 280.841 726.21C278.697 728.515 278.245 730.741 279.388 732.855C280.423 734.766 282.788 735.57 284.774 737.936C287.13 740.745 289.688 745.249 284.825 752.104C280.517 758.177 262.653 766.649 259.681 767.766C256.668 768.898 253.58 769.921 250.375 770.34C249.531 770.451 247.739 770.698 247.752 769.309C247.76 768.455 249.124 768.103 249.277 767.712C249.519 767.098 248.797 766.868 248.765 766.412C248.655 764.863 250.699 765.185 250.634 764.397C250.566 763.57 250.122 763.46 250.116 762.761C250.104 761.412 252.4 761.036 252.38 760.284C252.369 759.823 252.039 759.788 251.773 759.452C251.461 759.056 251.48 758.531 251.59 758.075C251.869 756.921 253.705 755.314 253.789 754.739C253.873 754.163 253.113 754.493 252.969 753.24C252.825 751.988 257.386 749.675 256.931 748.341C255.936 745.421 251.972 747.697 248.024 749.32C245.953 750.17 238.731 753.376 237.343 753.627C236.428 753.792 235.427 753.797 234.513 753.647C233.649 753.506 232.471 753.178 232.642 752.022C232.748 751.306 233.849 751.461 233.78 750.99C233.742 750.72 231.532 751.038 231.115 750.126C230.821 749.485 231.925 748.895 231.871 748.621C231.796 748.239 230.336 748.886 229.762 747.721C229.352 746.889 230.506 746.304 230.497 745.853C230.479 745.009 228.887 745.494 227.989 744.86C226.752 743.987 227.245 742.636 229.592 742.701L229.592 742.702ZM278.605 724.415C278.872 724.717 279.417 724.775 279.759 724.563C280.096 724.353 280.243 723.934 280.174 723.566C280.069 723.01 279.047 722.453 278.53 723.341C278.341 723.666 278.343 724.118 278.605 724.415Z" fill="#DFE3D1"/>
<path d="M329.768 691.787C331.139 693.091 338.396 698.453 339.606 698.562C340.418 698.635 339.732 692.569 339.441 690.836C339.14 689.045 338.817 683.468 339.225 682.537C339.728 681.389 340.429 681.538 341.047 682.046C341.827 682.686 341.562 683.729 341.85 683.722C342.107 683.715 342.22 682.498 343.402 682.503C344.461 682.507 344.514 684.502 344.817 684.498C345.065 684.496 345.143 683.238 345.996 683.219C347.084 683.195 346.975 685.049 347.308 685.085C347.619 685.119 347.303 684.366 347.898 683.97C348.414 683.626 349.12 683.998 349.497 684.632C349.986 685.453 350.668 687.387 350.914 690.208C351.047 691.726 351.199 693.176 351.175 694.698C351.138 697.016 350.619 698.131 351.837 698.979C352.402 699.372 352.725 698.973 354.997 699.71C356.44 700.178 357.715 700.979 359.076 702.161C360.883 703.733 361.031 704.312 360.832 704.297C359.656 704.208 358.366 703.674 356.666 703.826C354.95 703.98 353.951 704.721 353.643 706C353.365 707.156 354.034 708.349 353.976 710.039C353.908 712.044 353.301 714.814 348.813 715.825C344.837 716.721 334.465 713.633 332.846 713.001C331.205 712.359 329.574 711.646 328.116 710.644C327.732 710.38 326.912 709.825 327.425 709.264C327.741 708.919 328.425 709.275 328.63 709.172C328.954 709.01 328.744 708.653 328.898 708.455C329.42 707.784 330.134 708.664 330.396 708.319C330.671 707.957 330.531 707.75 330.784 707.463C331.273 706.91 332.345 707.597 332.612 707.283C332.776 707.092 332.654 706.957 332.669 706.723C332.687 706.447 332.887 706.24 333.099 706.095C333.634 705.727 334.97 705.745 335.214 705.541C335.459 705.338 335.029 705.194 335.429 704.632C335.828 704.069 338.531 704.796 338.834 704.087C339.498 702.534 337.051 702.01 334.85 701.226C333.696 700.815 329.583 699.477 328.926 699.071C328.493 698.804 328.084 698.439 327.766 698.044C327.466 697.671 327.107 697.106 327.6 696.698C327.905 696.445 328.296 696.911 328.441 696.694C328.524 696.57 327.508 695.891 327.672 695.367C327.787 694.999 328.452 695.163 328.53 695.031C328.639 694.848 327.808 694.577 328.001 693.893C328.138 693.405 328.823 693.588 328.983 693.402C329.285 693.051 328.46 692.667 328.326 692.08C328.142 691.272 328.837 690.902 329.768 691.788L329.768 691.787ZM356.412 702.277C356.41 702.498 356.611 702.721 356.828 702.759C357.042 702.797 357.255 702.681 357.362 702.506C357.522 702.241 357.31 701.64 356.775 701.812C356.579 701.876 356.414 702.06 356.412 702.277Z" fill="#DFE3D1"/>
</svg>
