<svg width="46" height="44" viewBox="0 0 46 44" fill="none" xmlns="http://www.w3.org/2000/svg">
<path d="M15 30.1403L14.9894 25.3972C12.7167 23.9386 10.9408 21.7874 9.93657 19.2585C11.3848 20.6751 13.0867 21.8504 14.9683 22.6899L14.9577 17.9468C12.5053 16.3727 10.6237 14.0012 9.68287 11.1994V11L5.3277 11.0105H5.2537V11.2099C4.32347 14.0117 2.44186 16.3832 0 17.9677L0.0105709 22.7108C1.91332 21.8609 3.62579 20.6646 5.08457 19.2165C4.09091 21.7769 2.31501 23.9386 0.0317126 25.4182L0.0528541 30.1613C2.0296 29.2693 3.8055 28.0206 5.29598 26.4885L5.30655 38L9.72516 37.9895L9.71459 26.4466C11.2262 27.9891 13.0127 29.2483 15 30.1403Z" fill="#8CB110"/>
<path d="M46 31.1916L45.9824 23.4621C42.1945 21.0851 39.2347 17.5795 37.561 13.4582C39.9746 15.7668 42.8111 17.6821 45.9471 19.0501L45.9295 11.3206C41.8421 8.75554 38.7061 4.89079 37.1381 0.324913V0L29.8795 0.0171007H29.7562V0.342013C28.2058 4.90789 25.0698 8.77264 21 11.3548L21.0176 19.0843C24.1889 17.6992 27.043 15.7497 29.4743 13.3898C27.8182 17.5624 24.8584 21.0851 21.0529 23.4963L21.0881 31.2258C24.3827 29.7722 27.3425 27.7373 29.8266 25.2406L29.8443 44L37.2086 43.9829L37.191 25.1722C39.7104 27.686 42.6878 29.738 46 31.1916Z" fill="#8CB110"/>
</svg>
