<svg width="506" height="234" viewBox="0 0 506 234" fill="none" xmlns="http://www.w3.org/2000/svg">
<g opacity="0.25" clip-path="url(#clip0_405_11999)">
<path d="M385.953 98.7468C396.757 114.905 402.159 132.859 402.759 152.01C402.759 154.404 406.961 155.003 406.961 152.01C406.361 131.662 400.958 113.11 390.154 96.3529C388.353 94.5575 384.752 96.9514 385.953 98.7468Z" fill="#D1DCB6"/>
<path d="M165.665 152.609C167.466 59.8465 280.911 23.9386 351.739 67.6266C354.14 68.8235 355.941 65.2327 354.14 64.0358C279.71 18.5524 163.264 56.8542 161.464 152.609C161.464 155.003 165.665 155.003 165.665 152.609Z" fill="#D1DCB6"/>
<path d="M350.539 123.284C348.138 162.184 289.314 162.783 289.314 123.284C289.314 83.7852 348.138 83.7852 350.539 123.284C350.539 125.678 354.74 126.276 354.74 123.284C353.54 104.731 339.734 88.5729 319.926 88.5729C301.319 88.5729 285.113 104.133 285.113 123.284C285.113 141.238 299.518 156.798 318.126 157.995C338.534 159.192 353.54 143.033 354.74 123.284C354.74 120.292 350.539 120.292 350.539 123.284Z" fill="#D1DCB6"/>
<path d="M285.713 150.215C243.696 150.215 201.08 150.215 159.063 150.215C156.062 150.215 156.062 154.404 159.063 154.404C201.08 154.404 243.696 154.404 285.713 154.404C288.714 154.404 288.714 150.215 285.713 150.215Z" fill="#D1DCB6"/>
<path d="M387.753 154.404C426.168 154.404 465.184 154.404 503.599 154.404C506.6 154.404 506.6 150.215 503.599 150.215C465.184 150.215 426.168 150.215 387.753 150.215C385.352 150.215 385.352 154.404 387.753 154.404Z" fill="#D1DCB6"/>
<path d="M252.1 109.519C250.299 87.9744 218.486 83.1867 214.285 105.928C213.084 112.512 214.885 121.489 214.885 128.67C214.885 136.45 214.885 144.23 214.885 152.609C214.885 153.806 216.085 155.003 217.286 155.003C228.09 155.003 238.894 155.003 249.699 155.003C250.899 155.003 251.499 153.806 251.499 152.609C250.899 138.246 250.899 123.882 252.1 109.519C252.1 107.125 247.898 107.125 247.898 109.519C246.698 121.489 247.298 133.458 247.298 145.427C247.298 147.223 247.298 149.616 247.298 151.412C247.298 150.813 250.299 151.412 246.698 150.215C241.295 148.419 231.692 150.215 226.289 150.215C223.889 150.215 220.887 149.616 218.486 150.215C216.085 150.813 218.486 152.609 219.087 150.813C219.687 144.829 219.087 138.246 219.087 132.261C219.087 126.276 219.687 120.89 219.087 114.905C219.087 111.315 218.486 109.519 219.087 105.928C223.288 89.1714 246.097 93.3606 247.898 109.519C247.898 111.913 252.1 112.512 252.1 109.519Z" fill="#D1DCB6"/>
<path d="M293.516 85.5806C295.317 89.7698 297.117 93.3606 298.918 97.5499C300.119 99.9437 303.72 98.1483 302.52 95.156C300.719 90.9668 298.918 87.376 297.117 83.1867C296.517 80.7928 292.916 83.1867 293.516 85.5806Z" fill="#D1DCB6"/>
<path d="M219.087 63.4373C220.887 65.8312 222.088 68.2251 223.888 70.6189C225.089 73.0128 228.69 70.6189 227.49 68.2251C225.689 65.8312 224.489 63.4373 222.688 61.0435C220.887 59.2481 217.286 61.0435 219.087 63.4373Z" fill="#D1DCB6"/>
<path d="M225.689 59.8465C227.49 62.2404 228.69 64.6343 230.491 67.0281C231.692 69.422 235.293 67.0281 234.092 64.6343C232.292 62.2404 231.091 59.8465 229.291 57.4527C228.09 55.6573 224.489 57.4527 225.689 59.8465Z" fill="#D1DCB6"/>
<path d="M235.293 56.2558C236.493 58.6496 237.694 61.6419 238.894 64.0358C240.095 66.4297 243.696 64.6343 242.496 61.6419C241.295 59.8465 240.095 56.8542 238.894 54.4604C237.694 52.0665 234.093 53.8619 235.293 56.2558Z" fill="#D1DCB6"/>
<path d="M285.113 47.2788C285.113 50.2711 285.113 53.2634 285.113 55.6573C285.113 58.6496 289.314 58.6496 289.314 55.6573C289.314 52.665 289.314 49.6726 289.314 47.2788C289.314 44.8849 285.113 44.8849 285.113 47.2788Z" fill="#D1DCB6"/>
<path d="M276.109 47.2788C276.109 50.2711 276.109 53.2634 276.109 55.6573C276.109 58.6496 280.311 58.6496 280.311 55.6573C280.311 52.665 280.311 49.6726 280.311 47.2788C280.311 44.8849 276.109 44.8849 276.109 47.2788Z" fill="#D1DCB6"/>
<path d="M179.471 101.141C181.872 102.338 184.273 104.133 186.674 105.33C189.075 106.527 190.875 102.936 189.075 101.739C186.674 100.542 184.273 98.7468 181.872 97.5499C179.471 96.3529 177.07 99.9437 179.471 101.141Z" fill="#D1DCB6"/>
<path d="M190.275 86.7775C192.076 88.5729 194.477 90.9668 196.278 92.7622C198.078 94.5576 201.079 91.5652 199.279 89.7698C197.478 87.9744 195.077 85.5806 193.276 83.7852C190.875 81.9898 187.874 84.9821 190.275 86.7775Z" fill="#D1DCB6"/>
<path d="M195.677 81.3913C197.478 82.5882 198.679 84.3836 200.479 85.5806C202.28 87.376 205.281 84.3836 203.48 82.5882C201.68 81.3913 200.479 79.5959 198.679 78.399C196.878 76.6036 193.877 79.5959 195.677 81.3913Z" fill="#D1DCB6"/>
<path d="M168.667 124.481C171.068 125.079 172.868 125.678 175.269 126.276C177.67 126.875 178.871 122.685 176.47 122.087C174.069 121.489 172.268 120.89 169.867 120.292C167.466 119.693 166.266 123.882 168.667 124.481Z" fill="#D1DCB6"/>
<path d="M172.268 117.299C174.069 117.898 176.47 119.095 178.27 119.693C180.671 120.89 181.872 116.701 179.471 115.504C177.67 114.905 175.269 113.708 173.469 113.11C170.467 111.913 169.867 116.102 172.268 117.299Z" fill="#D1DCB6"/>
<path d="M168.066 129.867C170.467 130.465 172.268 131.064 174.669 131.662C177.07 132.261 178.27 128.072 175.87 127.473C173.469 126.875 171.668 126.276 169.267 125.678C166.266 125.079 165.666 129.269 168.066 129.867Z" fill="#D1DCB6"/>
<path d="M326.529 52.665C325.329 55.0588 324.128 58.0511 322.928 60.445C321.727 62.8389 325.329 65.2327 326.529 62.8389C327.73 60.445 328.93 57.4527 330.13 55.0588C331.331 52.665 327.73 50.2711 326.529 52.665Z" fill="#D1DCB6"/>
<path d="M335.533 56.8542C334.332 59.2481 333.132 62.2404 331.931 64.6343C330.731 67.0281 334.332 69.422 335.533 67.0281C336.733 64.6343 337.934 61.6419 339.134 59.2481C340.335 56.8542 336.733 54.4604 335.533 56.8542Z" fill="#D1DCB6"/>
<path d="M207.682 71.8159C209.483 74.2097 211.284 76.0051 213.084 78.399C214.885 80.7928 217.886 77.8005 216.085 75.4067C214.285 73.0128 212.484 71.2174 210.683 68.8235C209.483 66.4297 206.482 69.422 207.682 71.8159Z" fill="#D1DCB6"/>
<path d="M311.523 81.3913C311.523 84.3836 312.123 86.7775 312.123 89.7698C312.123 92.1637 316.325 92.1637 316.325 89.7698C316.325 86.7775 315.725 84.3836 315.725 81.3913C315.725 78.9975 311.523 78.9975 311.523 81.3913Z" fill="#D1DCB6"/>
<path d="M346.337 102.936C348.738 99.9437 351.139 96.9514 354.14 93.9591C355.941 92.1637 352.939 89.1714 351.139 90.9668C348.738 93.9591 346.337 96.9514 343.336 99.9437C342.135 102.338 345.136 105.33 346.337 102.936Z" fill="#D1DCB6"/>
<path d="M334.332 92.7622C335.533 89.1714 337.333 84.9821 338.534 81.3913C339.734 78.9975 335.533 77.8005 334.332 80.1944C333.132 83.7852 331.331 87.9744 330.13 91.5652C329.53 94.5576 333.132 95.7545 334.332 92.7622Z" fill="#D1DCB6"/>
<path d="M325.929 91.5652C326.529 87.376 327.73 83.7852 328.33 79.5959C328.93 77.2021 324.728 76.0051 324.128 78.399C323.528 82.5882 322.327 86.179 321.727 90.3683C321.727 92.7622 325.929 93.9591 325.929 91.5652Z" fill="#D1DCB6"/>
<path d="M297.117 99.3453C294.116 96.3529 291.115 93.9591 288.114 90.9668C286.313 89.1714 283.312 92.1637 285.113 93.9591C288.114 96.9514 291.115 99.3453 294.116 102.338C295.917 104.731 298.918 101.739 297.117 99.3453Z" fill="#D1DCB6"/>
<path d="M349.938 108.921C353.54 107.125 356.541 105.33 360.142 103.535C362.543 102.338 360.142 98.7468 357.741 99.9438C354.14 101.739 351.139 103.535 347.537 105.33C345.737 106.527 347.537 110.118 349.938 108.921Z" fill="#D1DCB6"/>
<path d="M291.115 106.527C287.514 104.731 283.312 102.936 279.711 101.141C277.31 99.9437 274.909 103.535 277.31 104.731C280.911 106.527 285.113 108.322 288.714 110.118C291.715 111.315 294.116 107.724 291.115 106.527Z" fill="#D1DCB6"/>
<path d="M277.31 116.102C280.911 116.701 283.912 117.898 287.514 118.496C289.915 119.095 291.115 114.905 288.714 114.307C285.113 113.708 282.111 112.512 278.51 111.913C275.509 111.315 274.308 115.504 277.31 116.102Z" fill="#D1DCB6"/>
<path d="M276.709 126.875C280.311 127.473 283.912 127.473 287.514 128.072C289.915 128.67 289.915 124.481 287.514 123.882C283.912 123.284 280.311 123.284 276.709 122.685C273.708 122.685 273.708 126.875 276.709 126.875Z" fill="#D1DCB6"/>
<path d="M276.709 141.238C280.911 141.238 284.512 140.639 288.714 140.639C291.115 140.639 291.715 136.45 288.714 136.45C284.512 136.45 280.911 137.049 276.709 137.049C274.308 137.049 274.308 141.238 276.709 141.238Z" fill="#D1DCB6"/>
<path d="M389.554 153.806C390.154 153.806 390.154 153.806 390.754 153.806C393.756 153.806 393.756 149.616 390.754 149.616C388.954 149.616 389.554 153.207 389.554 147.821C390.154 143.033 389.554 138.246 389.554 133.458C389.554 118.496 389.554 104.133 389.554 89.1714C389.554 67.0281 389.554 45.4834 389.554 23.3402C389.554 22.1432 388.353 20.9463 387.153 20.9463C375.748 20.9463 364.944 20.9463 353.54 20.9463C352.339 20.9463 351.139 22.1432 351.139 23.3402C351.139 46.6803 351.139 70.0205 351.139 93.3606C352.339 92.7622 353.54 92.1637 354.74 92.1637C337.333 74.8082 310.323 70.6189 290.515 86.7775C269.506 103.535 267.105 132.859 282.712 153.806C284.512 156.199 288.114 153.806 286.313 151.412C253.3 107.125 313.324 55.6573 351.739 95.156C352.939 96.3529 355.34 95.7545 355.34 93.9591C355.34 73.0128 357.141 50.8696 355.34 29.9233C355.34 28.7263 354.74 26.9309 355.34 25.734C355.941 23.3402 351.739 27.5294 354.74 26.9309C358.942 25.734 367.345 26.9309 371.547 26.9309C375.748 26.9309 382.951 25.1355 386.553 26.9309C382.951 25.734 385.352 25.1355 384.752 29.3248C383.551 38.3018 384.752 49.6726 384.752 58.6496C384.752 72.4143 384.752 85.5806 384.752 99.3453C384.752 117.299 384.752 135.253 384.752 153.207C384.752 154.404 385.952 155.601 386.553 155.601C387.753 155.601 388.954 155.601 389.554 155.601C392.555 155.601 392.555 151.412 389.554 151.412C388.954 151.412 388.954 151.412 388.353 151.412C386.553 149.616 386.553 153.806 389.554 153.806Z" fill="#D1DCB6"/>
<path d="M175.869 152.609C177.67 63.4373 289.915 32.9156 354.14 80.1944C356.541 81.9898 358.342 78.399 356.541 76.6036C289.314 27.5294 174.069 61.0435 172.268 152.609C171.668 155.003 175.869 155.003 175.869 152.609Z" fill="#D1DCB6"/>
<path d="M216.686 116.102C227.49 116.102 238.294 116.102 249.098 116.102C252.1 116.102 252.1 111.913 249.098 111.913C238.294 111.913 227.49 111.913 216.686 111.913C214.285 111.913 214.285 116.102 216.686 116.102Z" fill="#D1DCB6"/>
<path d="M362.543 86.179C362.543 78.399 361.943 70.0205 361.943 62.2404C361.343 62.8389 360.743 63.4374 359.542 64.6343C361.943 64.6343 364.344 64.6343 367.345 64.6343C366.745 64.0358 366.145 64.0358 365.544 63.4374C369.146 71.2174 370.947 77.2021 373.348 85.5806C373.948 84.9821 374.548 83.7852 375.148 83.1867C370.346 83.7852 364.944 84.3836 360.142 84.9821C357.741 84.9821 357.741 89.1714 360.142 89.1714C364.944 88.5729 370.346 87.9744 375.148 87.376C376.349 87.376 377.549 86.179 376.949 84.9821C374.548 77.2021 371.547 69.422 368.546 62.2404C368.546 61.642 367.345 61.0435 366.745 61.0435C364.344 61.0435 361.943 61.0435 358.942 61.0435C357.741 61.0435 356.541 62.2404 357.141 63.4374C357.141 71.2174 357.741 79.5959 357.741 87.376C358.942 89.1714 363.143 89.1714 362.543 86.179Z" fill="#D1DCB6"/>
<path d="M361.943 102.338C361.343 98.1484 361.343 93.9591 360.743 89.7698C360.142 90.3683 359.542 90.9668 358.342 91.5652C361.343 91.5652 364.344 92.1637 367.345 92.1637C369.146 92.1637 371.547 92.7622 373.348 92.7622C373.948 92.7622 373.948 92.7622 374.548 92.7622C372.747 92.7622 373.348 92.1637 373.948 92.7622C375.148 93.9591 376.349 95.7545 378.149 96.9514C379.35 98.1484 378.75 98.1484 378.75 96.353C378.75 96.9514 378.75 97.5499 378.75 97.5499C378.149 100.542 378.75 104.133 378.75 107.724C379.35 107.125 379.95 106.527 380.55 105.33C376.349 105.33 372.147 104.731 367.945 105.33C366.145 105.33 367.345 104.731 367.945 105.928C367.345 105.33 366.745 104.731 365.544 104.133C363.744 102.936 362.543 101.141 360.743 99.9438C358.942 98.1484 355.941 101.141 357.741 102.936C360.142 105.33 363.143 108.921 366.745 109.519C370.947 110.118 375.748 109.519 380.55 109.519C381.751 109.519 382.951 108.322 382.951 107.125C382.951 103.535 383.552 99.9438 382.951 96.353C382.951 93.3606 379.35 90.9668 377.549 89.1714C375.748 87.376 372.747 87.376 370.346 87.376C366.745 86.7775 363.143 86.7775 358.942 86.179C357.741 86.179 356.541 87.376 357.141 88.5729C357.741 92.7622 357.741 96.9514 358.342 101.141C358.342 104.731 362.543 104.731 361.943 102.338Z" fill="#D1DCB6"/>
<path d="M378.75 72.4143C378.149 68.2251 376.949 64.0358 376.349 59.8466C375.748 60.445 375.148 61.6419 375.148 62.2404C378.149 61.6419 380.55 60.445 383.551 59.8466C382.951 59.2481 381.751 58.6496 381.151 58.6496C381.151 59.8466 381.751 61.6419 381.751 62.8389C381.751 62.8389 381.751 62.2404 381.751 63.4373C381.751 64.0358 381.751 65.2327 381.751 65.8312C381.751 68.8235 381.151 71.8159 381.151 74.8082C381.751 74.2097 382.951 73.6113 383.551 73.0128C381.751 72.4143 379.35 71.8159 377.549 71.2174C375.148 70.6189 373.948 74.8082 376.349 75.4067C378.149 76.0051 380.55 76.6036 382.351 77.2021C383.551 77.8005 384.752 76.6036 384.752 75.4067C384.752 72.4143 385.352 68.8235 385.352 65.8312C385.352 63.4373 385.352 61.0435 384.752 58.6496C384.752 57.4527 382.951 56.8542 382.351 57.4527C379.35 58.0512 376.949 59.2481 373.948 59.8466C372.747 58.6496 372.147 59.8466 372.147 61.0435C372.747 65.2327 373.948 69.422 374.548 73.6113C375.148 76.0051 379.35 74.8082 378.75 72.4143Z" fill="#D1DCB6"/>
<path d="M361.343 136.45C361.343 132.261 361.943 127.473 360.743 123.882C360.142 121.489 361.343 124.481 359.542 124.481C360.142 124.481 361.343 123.284 361.943 123.284C363.744 122.087 365.544 120.89 367.945 119.693C367.345 119.693 366.745 119.693 365.544 119.693C367.345 120.292 368.546 121.488 370.346 122.087C371.547 122.685 372.747 123.284 373.948 123.882C376.949 125.079 372.747 124.481 374.548 123.284C373.948 123.882 375.148 132.859 375.148 134.655C375.148 135.253 374.548 137.049 375.148 137.049C373.948 135.852 377.549 135.253 375.148 136.45C372.747 137.647 370.947 139.442 368.546 140.639C367.945 141.238 366.745 141.836 366.145 142.435C365.544 142.435 367.345 142.435 365.544 142.435C363.744 142.435 361.343 142.435 359.542 142.435C360.142 143.033 360.743 143.632 361.343 144.23C361.343 140.639 361.343 138.844 361.343 136.45C361.343 133.458 357.141 133.458 357.141 136.45C357.141 138.844 357.141 141.238 357.141 143.033C357.141 144.23 358.342 145.427 358.942 145.427C363.744 145.427 366.145 146.026 370.346 143.632C373.948 141.238 378.75 140.041 379.35 135.253C379.35 131.662 379.95 125.678 378.75 122.087C377.549 119.095 370.947 116.701 367.945 115.504C367.345 114.905 366.745 114.905 365.544 115.504C362.543 117.299 360.142 119.095 357.141 120.89C356.541 121.489 355.941 122.087 355.941 122.685C355.941 127.473 356.541 132.261 356.541 137.049C357.141 138.844 361.343 138.844 361.343 136.45Z" fill="#D1DCB6"/>
<path d="M361.943 53.2634C361.943 50.2711 361.343 47.8772 361.343 44.8849C360.743 45.4834 360.142 46.0818 359.542 46.6803C360.743 46.0818 362.543 45.4834 363.744 44.8849C364.944 44.2864 365.544 44.2864 366.745 43.688C366.745 43.688 367.345 43.688 367.345 43.0895C367.945 43.0895 366.145 43.0895 366.745 43.0895C369.746 43.688 373.348 44.8849 376.349 46.0818C375.748 45.4834 375.148 44.8849 375.148 44.8849C375.748 48.4757 375.748 49.6726 375.748 52.665C376.349 52.0665 376.949 51.468 377.549 50.8696C374.548 52.0665 370.947 53.2634 367.945 54.4604C367.945 54.4604 366.145 55.0588 367.345 55.0588C366.745 55.0588 365.544 55.0588 364.944 55.0588C363.143 55.0588 361.343 55.0588 359.542 55.0588C360.142 55.6573 360.743 56.2558 361.343 57.4527C361.943 56.2558 361.943 54.4604 361.943 53.2634C361.943 50.2711 357.741 50.2711 357.741 53.2634C357.741 54.4604 357.741 55.6573 357.741 57.4527C357.741 58.6496 358.942 59.2481 359.542 59.2481C362.543 59.2481 365.544 59.8465 368.546 58.6496C372.147 58.0511 375.148 56.8542 378.149 55.6573C378.75 55.0588 379.95 54.4604 379.95 53.8619C379.95 50.8696 379.35 47.8772 379.35 44.8849C379.35 44.2864 378.75 43.688 378.149 43.688C375.148 42.491 371.547 40.6956 368.546 40.6956C365.544 40.6956 361.943 43.0895 358.942 43.688C358.342 44.2864 357.141 44.8849 357.141 45.4834C357.141 48.4757 357.741 50.8696 357.741 53.8619C357.741 56.2557 361.943 56.2557 361.943 53.2634Z" fill="#D1DCB6"/>
<path d="M175.269 139.442C208.282 139.442 241.295 139.442 274.308 139.442C277.31 139.442 277.31 135.253 274.308 135.253C241.295 135.253 208.282 135.253 175.269 135.253C172.868 135.253 172.868 139.442 175.269 139.442Z" fill="#D1DCB6"/>
<path d="M185.473 152.609C185.473 147.821 185.473 142.435 185.473 137.647C185.473 134.655 181.272 134.655 181.272 137.647C181.272 142.435 181.272 147.821 181.272 152.609C181.272 155.003 185.473 155.003 185.473 152.609Z" fill="#D1DCB6"/>
<path d="M202.88 152.609C202.88 147.821 202.88 142.435 202.88 137.647C202.88 134.655 198.678 134.655 198.678 137.647C198.678 142.435 198.678 147.821 198.678 152.609C198.678 155.003 202.88 155.003 202.88 152.609C202.88 147.821 202.88 142.435 202.88 137.647C202.88 134.655 198.678 134.655 198.678 137.647C198.678 142.435 198.678 147.821 198.678 152.609C198.678 155.003 202.88 155.003 202.88 152.609Z" fill="#D1DCB6"/>
<path d="M194.477 152.609C194.477 147.821 194.477 142.435 194.477 137.647C194.477 134.655 190.275 134.655 190.275 137.647C190.275 142.435 190.275 147.821 190.275 152.609C190.275 155.003 194.477 155.003 194.477 152.609C194.477 147.821 194.477 142.435 194.477 137.647C194.477 134.655 190.275 134.655 190.275 137.647C190.275 142.435 190.275 147.821 190.275 152.609C190.275 155.003 194.477 155.003 194.477 152.609Z" fill="#D1DCB6"/>
<path d="M211.283 152.609C211.283 147.821 211.283 142.435 211.283 137.647C211.283 134.655 207.082 134.655 207.082 137.647C207.082 142.435 207.082 147.821 207.082 152.609C207.082 155.003 211.283 155.003 211.283 152.609C211.283 147.821 211.283 142.435 211.283 137.647C211.283 134.655 207.082 134.655 207.082 137.647C207.082 142.435 207.082 147.821 207.082 152.609C207.082 155.003 211.283 155.003 211.283 152.609Z" fill="#D1DCB6"/>
<path d="M226.289 152.609C226.289 147.821 226.289 142.435 226.289 137.647C226.289 134.655 222.088 134.655 222.088 137.647C222.088 142.435 222.088 147.821 222.088 152.609C222.088 155.003 226.289 155.003 226.289 152.609Z" fill="#D1DCB6"/>
<path d="M243.696 152.609C243.696 147.821 243.696 142.435 243.696 137.647C243.696 134.655 239.495 134.655 239.495 137.647C239.495 142.435 239.495 147.821 239.495 152.609C239.495 155.003 243.696 155.003 243.696 152.609C243.696 147.821 243.696 142.435 243.696 137.647C243.696 134.655 239.495 134.655 239.495 137.647C239.495 142.435 239.495 147.821 239.495 152.609C239.495 155.003 243.696 155.003 243.696 152.609Z" fill="#D1DCB6"/>
<path d="M235.293 152.609C235.293 147.821 235.293 142.435 235.293 137.647C235.293 134.655 231.091 134.655 231.091 137.647C231.091 142.435 231.091 147.821 231.091 152.609C231.091 155.003 235.293 155.003 235.293 152.609C235.293 147.821 235.293 142.435 235.293 137.647C235.293 134.655 231.091 134.655 231.091 137.647C231.091 142.435 231.091 147.821 231.091 152.609C231.091 155.003 235.293 155.003 235.293 152.609Z" fill="#D1DCB6"/>
<path d="M258.702 152.609C258.702 147.821 258.702 142.435 258.702 137.647C258.702 134.655 254.501 134.655 254.501 137.647C254.501 142.435 254.501 147.821 254.501 152.609C254.501 155.003 258.702 155.003 258.702 152.609C258.702 147.821 258.702 142.435 258.702 137.647C258.702 134.655 254.501 134.655 254.501 137.647C254.501 142.435 254.501 147.821 254.501 152.609C254.501 155.003 258.702 155.003 258.702 152.609Z" fill="#D1DCB6"/>
<path d="M267.105 152.609C267.105 147.821 267.105 142.435 267.105 137.647C267.105 134.655 262.904 134.655 262.904 137.647C262.904 142.435 262.904 147.821 262.904 152.609C262.904 155.003 267.105 155.003 267.105 152.609C267.105 147.821 267.105 142.435 267.105 137.647C267.105 134.655 262.904 134.655 262.904 137.647C262.904 142.435 262.904 147.821 262.904 152.609C262.904 155.003 267.105 155.003 267.105 152.609Z" fill="#D1DCB6"/>
<path d="M276.109 152.609C276.109 147.821 276.109 142.435 276.109 137.647C276.109 134.655 271.907 134.655 271.907 137.647C271.907 142.435 271.907 147.821 271.907 152.609C271.907 155.003 276.109 155.003 276.109 152.609C276.109 147.821 276.109 142.435 276.109 137.647C276.109 134.655 271.907 134.655 271.907 137.647C271.907 142.435 271.907 147.821 271.907 152.609C271.907 155.003 276.109 155.003 276.109 152.609Z" fill="#D1DCB6"/>
<path d="M388.954 8.97698C376.349 8.97698 363.744 8.97698 351.139 8.97698C351.739 9.57545 352.339 10.7724 352.939 11.3708C353.54 8.37852 354.14 5.38619 354.14 2.39386C353.54 2.99233 352.939 3.59079 352.339 4.18926C363.744 4.18926 375.748 4.18926 387.153 4.18926C386.553 3.59079 385.952 2.99233 385.352 2.39386C385.952 5.38619 386.553 8.37852 386.553 11.3708C387.153 13.7647 390.754 13.1662 390.754 10.1739C390.154 7.18159 389.554 4.18926 389.554 1.19693C389.554 0.598466 388.353 -0.598465 387.753 -0.598465C376.349 -0.598465 364.344 -0.598465 352.939 -0.598465C352.339 -0.598465 351.139 5.96046e-07 351.139 1.19693C350.538 4.18926 349.938 7.18159 349.938 10.1739C349.938 11.3708 350.538 12.5678 351.739 12.5678C364.344 12.5678 376.949 12.5678 389.554 12.5678C391.355 13.1662 391.355 8.97698 388.954 8.97698Z" fill="#D1DCB6"/>
<path d="M354.74 12.5678C354.74 15.5601 354.74 18.5524 354.74 21.5448C354.74 24.5371 358.942 24.5371 358.942 21.5448C358.942 18.5524 358.942 15.5601 358.942 12.5678C358.942 10.1739 354.74 10.1739 354.74 12.5678Z" fill="#D1DCB6"/>
<path d="M380.55 12.5678C380.55 15.5601 380.55 18.5524 380.55 21.5448C380.55 24.5371 384.752 24.5371 384.752 21.5448C384.752 18.5524 384.752 15.5601 384.752 12.5678C384.752 10.1739 380.55 10.1739 380.55 12.5678Z" fill="#D1DCB6"/>
<path d="M368.546 14.3632C368.546 17.3555 368.546 20.3478 368.546 23.3402C368.546 26.3325 372.747 26.3325 372.747 23.3402C372.747 20.3478 372.747 17.3555 372.747 14.3632C372.747 11.3708 368.546 11.3708 368.546 14.3632Z" fill="#D1DCB6"/>
<path d="M311.523 119.095C306.121 119.095 302.52 114.905 301.319 111.913L300.119 109.519L302.52 108.921C306.721 107.724 314.524 107.724 316.925 115.504L317.526 117.299L315.725 117.898C313.924 119.095 312.724 119.095 311.523 119.095ZM306.721 113.11C307.922 114.307 309.722 114.905 312.123 114.905C310.323 113.11 308.522 113.11 306.721 113.11Z" fill="#D1DCB6"/>
<path d="M328.93 119.095C327.73 119.095 325.929 119.095 324.728 118.496L322.928 117.898L323.528 116.102C325.929 108.921 333.732 108.322 337.934 109.519L340.335 110.118L339.134 112.512C337.934 114.905 334.332 119.095 328.93 119.095ZM328.33 114.905C330.731 114.905 332.531 114.307 333.732 113.11C331.331 113.11 329.53 113.11 328.33 114.905Z" fill="#D1DCB6"/>
<path d="M319.926 138.844L318.126 134.655C318.126 134.056 315.725 128.67 315.125 125.079C315.125 123.284 315.725 121.489 316.925 120.89C318.126 119.693 319.926 119.693 321.727 120.89C323.528 121.489 324.728 123.284 324.728 125.678C324.728 128.67 322.327 133.458 321.727 135.253L319.926 138.844ZM319.926 125.079C319.926 126.276 320.527 127.473 320.527 128.67C321.127 127.473 321.127 126.875 321.127 126.276C321.127 125.678 320.527 125.079 320.527 125.079C320.527 124.481 319.926 124.481 319.926 125.079H318.126H319.926Z" fill="#D1DCB6"/>
<path d="M371.547 36.5064C370.947 33.5141 370.346 31.1202 369.746 28.1279C369.146 28.7263 369.146 29.3248 368.546 30.5217C369.746 30.5217 370.346 29.9233 371.547 29.9233C372.147 29.9233 372.747 29.9233 373.348 29.3248C374.548 28.7264 373.348 29.3248 373.348 29.3248C375.148 29.9233 378.15 29.9233 379.95 30.5217C379.35 29.9233 379.35 29.9233 378.75 29.3248C378.75 29.9233 379.35 31.1202 379.35 31.7187C379.35 32.3171 379.95 32.9156 379.95 33.5141C379.95 34.1125 379.95 34.1125 379.95 33.5141C379.95 35.3095 379.35 37.7033 379.35 39.4987C379.95 38.9003 381.151 38.3018 381.751 37.7033C378.15 37.1049 373.948 35.9079 370.346 35.3095C367.945 34.711 367.345 38.3018 369.146 38.9003C372.747 40.0972 376.949 40.6957 380.55 41.8926C381.751 42.4911 382.951 41.2941 382.951 40.0972C382.951 38.3018 383.552 35.9079 383.552 33.5141C383.552 31.7187 382.351 28.1279 380.55 27.5294C378.75 26.931 375.749 25.734 373.948 25.734C372.147 25.734 369.146 26.931 367.345 26.931C366.145 26.931 366.145 28.1279 366.145 29.3248C366.745 32.3171 367.345 34.711 367.945 37.7033C368.546 39.4987 372.147 38.9003 371.547 36.5064Z" fill="#D1DCB6"/>
<path d="M373.948 119.693C373.348 116.701 372.747 114.307 372.147 111.315C371.547 111.913 371.547 112.512 370.947 113.708C372.147 113.708 372.747 113.11 373.948 113.11C374.548 113.11 375.148 113.11 375.749 112.512C376.949 111.913 375.749 112.512 375.749 112.512C377.549 113.708 379.95 113.708 381.751 114.307C381.151 113.708 381.151 113.708 380.55 113.11C380.55 113.708 381.151 114.905 381.151 115.504C381.151 116.102 381.751 116.701 381.751 117.299C381.751 117.898 381.751 117.898 381.751 117.299C381.751 119.095 381.151 121.489 381.151 123.284C381.751 122.685 382.951 122.087 383.552 121.489C379.95 120.292 375.749 119.693 372.147 118.496C369.746 117.898 369.146 121.489 370.947 122.087C374.548 123.284 378.75 123.882 382.351 125.079C383.552 125.678 384.752 124.481 384.752 123.284C384.752 121.489 385.352 119.095 385.352 116.701C385.352 114.905 384.152 111.315 382.351 110.716C380.55 110.118 377.549 108.921 375.749 108.921C373.948 108.921 370.947 110.118 369.146 110.118C367.945 110.118 367.945 111.315 367.945 112.512C368.546 115.504 369.146 117.898 369.746 120.89C370.947 122.685 374.548 122.087 373.948 119.693Z" fill="#D1DCB6"/>
<path d="M375.748 171.76C376.349 178.941 366.745 185.524 361.943 188.517C333.132 207.069 292.315 210.66 258.702 213.652C210.683 217.841 163.264 211.857 115.246 209.463C76.2301 207.668 42.0166 234.598 3.00115 229.212C-3.53493e-05 228.614 -1.20051 232.803 1.80068 233.402C18.6073 235.795 34.8137 232.205 51.0201 227.417C66.6263 222.629 82.2325 214.849 98.4389 213.652C134.453 210.66 172.268 219.038 208.282 219.637C247.298 220.834 287.514 217.243 325.329 207.668C341.535 203.478 360.743 198.092 373.348 186.123C376.949 182.532 381.151 177.146 381.151 171.76C379.95 169.366 375.748 169.366 375.748 171.76Z" fill="#D1DCB6"/>
<path d="M42.0166 210.061C54.0213 205.274 65.4258 198.691 77.4306 194.501C90.6358 189.714 105.642 190.312 119.447 190.312C153.661 189.714 187.874 192.706 222.088 189.714C240.695 187.918 271.307 184.926 283.912 168.767C285.113 166.972 284.512 165.176 282.111 165.176C250.899 161.586 220.287 164.578 189.075 165.775C157.262 166.373 125.45 163.98 94.2372 160.987C88.2348 160.389 82.2325 159.79 76.8303 159.192C73.8291 158.593 60.0237 159.192 57.6228 155.601C55.822 152.609 75.0296 146.624 77.4306 143.632C89.4353 126.875 36.6145 122.685 28.8114 122.685C1.7976 122.685 11.2342 127.473 28.8114 127.473C37.8149 127.473 46.2182 129.269 55.2218 131.064C58.223 131.662 61.8244 132.261 64.8256 133.458C67.2266 134.056 69.6275 135.253 72.0284 136.45C73.8292 141.836 72.0285 144.829 66.6263 145.427C61.8244 148.419 49.2194 150.813 53.4211 158.593C58.223 166.373 86.4341 165.176 95.4377 166.373C126.65 168.767 157.862 171.76 189.075 171.161C220.287 170.563 250.899 166.972 282.111 170.563C281.511 169.366 280.911 168.169 280.311 166.972C276.709 171.161 271.307 174.153 266.505 175.949C247.298 184.926 224.489 186.721 203.48 187.918C171.068 189.115 139.255 186.721 106.842 187.918C97.2384 188.517 86.4341 188.517 76.8303 191.509C64.2253 195.698 52.8209 202.88 40.8161 207.668C37.8149 206.471 39.0154 210.66 42.0166 210.061Z" fill="#D1DCB6"/>
<path d="M391.355 175.35C388.954 170.563 386.553 166.373 383.552 161.586C382.351 159.192 378.149 161.586 379.95 163.98C382.351 168.767 384.752 172.957 387.753 177.744C388.954 180.138 392.555 177.744 391.355 175.35Z" fill="#D1DCB6"/>
<path d="M400.358 173.555C399.758 168.767 399.158 164.578 398.558 159.79C397.957 156.798 393.756 156.798 393.756 159.79C394.356 164.578 394.956 168.767 395.556 173.555C396.157 175.949 400.958 175.949 400.358 173.555Z" fill="#D1DCB6"/>
<path d="M408.161 167.57C408.762 164.578 409.962 161.586 410.562 158.593C411.163 155.601 406.961 154.404 406.361 157.396C405.76 160.389 404.56 163.381 403.96 166.373C402.759 168.767 407.561 169.964 408.161 167.57Z" fill="#D1DCB6"/>
<path d="M417.765 177.146C418.365 173.555 418.966 170.563 419.566 166.972C420.166 163.98 415.364 162.783 415.364 165.775C414.764 169.366 414.164 172.358 413.563 175.949C412.963 178.941 417.165 180.138 417.765 177.146Z" fill="#D1DCB6"/>
<path d="M432.771 160.389C430.97 164.578 429.77 168.767 427.969 172.358C426.769 175.35 431.571 175.949 432.171 173.555C433.972 169.366 435.172 165.176 436.973 161.586C438.173 159.192 433.972 157.995 432.771 160.389Z" fill="#D1DCB6"/>
<path d="M440.574 173.555C442.375 169.964 443.575 166.972 445.376 163.381C446.576 160.987 442.375 158.593 441.775 160.987C439.974 164.578 438.773 167.57 436.973 171.161C435.772 174.153 439.974 176.547 440.574 173.555Z" fill="#D1DCB6"/>
<path d="M213.684 58.6496C210.083 57.4527 207.082 55.6573 204.081 54.4604C201.68 53.2634 199.279 56.8542 201.68 58.0512C204.681 59.2481 208.282 61.0435 211.283 62.2404C213.684 64.0358 216.085 59.8466 213.684 58.6496Z" fill="#D1DCB6"/>
<path d="M222.088 54.4604C220.887 52.0665 219.087 50.2711 217.886 47.8772C216.085 45.4834 212.484 47.8772 214.285 50.2711C215.485 52.665 217.286 54.4604 218.486 56.8542C219.687 59.2481 223.889 57.4527 222.088 54.4604Z" fill="#D1DCB6"/>
<path d="M228.09 49.6726C228.09 47.8772 228.09 46.0818 228.69 44.2865C228.69 41.2941 224.489 41.2941 223.888 44.2865C223.888 46.0818 223.888 47.8772 223.288 49.6726C223.288 52.665 228.09 52.665 228.09 49.6726Z" fill="#D1DCB6"/>
<path d="M239.495 51.468C239.495 49.6726 238.894 47.2788 238.894 45.4834C238.294 42.4911 234.093 42.4911 234.093 45.4834C234.093 47.2788 234.693 49.6726 234.693 51.468C235.293 54.4604 239.495 54.4604 239.495 51.468Z" fill="#D1DCB6"/>
<path d="M249.699 35.9079C249.098 38.3018 248.498 41.2941 247.898 43.688C247.298 46.6803 252.1 47.8772 252.7 44.8849C253.3 42.491 253.9 39.4987 254.501 37.1049C255.101 34.1125 250.899 32.9156 249.699 35.9079Z" fill="#D1DCB6"/>
<path d="M259.903 41.8926C260.503 39.4987 261.103 37.1049 262.304 34.711C262.904 31.7187 258.702 30.5217 258.102 33.5141C257.502 35.9079 256.902 38.3018 255.701 40.6957C255.101 43.688 259.303 44.8849 259.903 41.8926Z" fill="#D1DCB6"/>
<path d="M465.184 148.419C463.383 144.23 462.183 140.639 460.382 136.45C459.181 134.056 454.98 134.655 456.18 137.647C457.981 141.836 459.181 145.427 460.982 149.616C461.582 152.609 466.384 151.412 465.184 148.419Z" fill="#D1DCB6"/>
<path d="M473.587 152.01C475.388 147.223 477.189 143.033 478.989 138.246C480.19 135.253 475.388 134.655 474.788 137.049C472.987 141.836 471.186 146.026 469.386 150.813C468.185 153.207 472.387 154.404 473.587 152.01Z" fill="#D1DCB6"/>
<path d="M483.791 153.806C482.591 153.806 481.39 152.609 481.99 151.412L482.591 143.033C482.591 141.836 483.791 141.238 484.992 141.238C486.192 141.238 486.792 142.435 486.792 143.632L486.192 152.01C486.192 153.207 484.992 153.806 483.791 153.806Z" fill="#D1DCB6"/>
<path d="M452.579 152.01C451.378 148.419 450.778 144.829 449.578 141.238C448.978 138.246 444.176 139.442 445.376 142.435C446.577 146.026 447.177 149.616 448.377 153.207C448.977 156.199 453.179 155.003 452.579 152.01Z" fill="#D1DCB6"/>
<path d="M493.995 134.655C492.194 140.041 490.994 145.427 489.193 150.813C488.593 153.806 492.795 155.003 493.395 152.01C495.196 146.624 496.396 141.238 498.197 135.852C498.797 133.458 494.595 132.261 493.995 134.655Z" fill="#D1DCB6"/>
<path d="M175.87 214.251C174.069 210.66 171.668 207.069 169.867 203.478C168.667 201.084 164.465 203.478 166.266 205.872C168.066 209.463 170.467 213.054 172.268 216.645C173.469 219.038 177.67 216.645 175.87 214.251Z" fill="#D1DCB6"/>
<path d="M184.273 217.243C183.072 213.054 181.872 209.463 180.671 205.274C180.071 202.281 175.269 203.478 176.47 206.471C177.67 210.66 178.871 214.251 180.071 218.44C181.272 220.834 185.473 219.637 184.273 217.243Z" fill="#D1DCB6"/>
<path d="M191.476 218.44C191.476 214.849 191.476 210.66 191.476 207.069C191.476 204.077 186.674 204.077 186.674 207.069C186.674 210.66 186.674 214.849 186.674 218.44C186.674 221.432 191.476 221.432 191.476 218.44Z" fill="#D1DCB6"/>
<path d="M166.866 220.834C163.865 216.046 161.464 211.258 158.463 206.471C157.262 204.077 153.06 206.471 154.861 208.865C157.862 213.652 160.263 218.44 163.265 223.228C164.465 225.622 168.667 223.228 166.866 220.834Z" fill="#D1DCB6"/>
<path d="M152.46 221.432C151.86 219.637 151.26 217.841 150.66 216.046C150.059 213.054 145.257 214.251 146.458 217.243C147.058 219.038 147.658 220.834 148.259 222.629C148.859 225.621 153.06 224.424 152.46 221.432Z" fill="#D1DCB6"/>
<path d="M209.483 223.826C212.484 219.637 216.085 216.046 219.087 211.857C220.887 209.463 217.886 206.471 216.085 208.864C213.084 213.054 209.483 216.645 206.482 220.834C204.681 222.629 207.682 226.22 209.483 223.826Z" fill="#D1DCB6"/>
<path d="M300.119 41.2941C298.918 38.9003 297.718 36.5064 296.517 34.1125C295.317 31.7187 291.715 33.5141 292.916 36.5064C294.116 38.9003 295.317 41.2941 296.517 43.688C297.117 46.0819 301.319 44.2865 300.119 41.2941Z" fill="#D1DCB6"/>
<path d="M305.521 43.688C304.92 41.2941 304.32 38.3018 303.72 35.9079C303.12 32.9156 298.918 34.1125 299.518 37.1049C300.119 39.4987 300.719 42.491 301.319 44.8849C301.319 47.8772 306.121 46.6803 305.521 43.688Z" fill="#D1DCB6"/>
<path d="M309.722 45.4834C309.722 43.0895 310.323 40.6957 310.323 38.3018C310.323 35.3095 306.121 35.3095 305.521 38.3018C305.521 40.6957 304.921 43.0895 304.921 45.4834C304.921 48.4757 309.722 48.4757 309.722 45.4834Z" fill="#D1DCB6"/>
<path d="M321.127 48.4757C323.528 46.0818 325.929 43.688 328.33 41.2941C330.13 39.4987 327.129 35.9079 325.329 38.3018C322.928 40.6957 320.527 43.0895 318.126 45.4834C315.725 47.8772 318.726 50.8696 321.127 48.4757Z" fill="#D1DCB6"/>
<path d="M290.333 190.772C293.334 188.977 295.735 186.583 298.737 184.788C300.537 183.591 298.136 184.189 299.937 184.189C301.138 184.189 302.938 184.189 304.139 184.189C310.741 184.189 317.944 184.788 324.547 184.788C323.947 183.591 323.947 181.795 323.346 180.598C317.344 184.788 310.141 185.386 303.538 187.78C302.338 188.379 300.537 188.977 299.337 188.977C297.536 188.977 300.537 189.575 298.136 188.977C295.135 188.379 292.734 187.182 289.733 186.583C286.732 185.985 285.531 190.174 288.533 190.772C291.534 191.371 294.535 193.166 297.536 193.765C299.937 193.765 301.738 193.166 303.538 192.568C311.342 190.174 318.544 189.575 325.147 184.788C326.948 183.591 326.347 180.598 323.947 180.598C316.744 180.598 309.541 180 301.738 180C295.735 180 292.134 183.591 287.332 187.182C285.531 188.379 287.932 192.568 290.333 190.772Z" fill="#D1DCB6"/>
<path d="M298.884 206.662C302.486 203.071 306.087 199.48 309.689 195.889C309.088 195.889 308.488 196.488 307.288 196.488C311.489 197.685 315.691 198.882 319.893 200.079C319.293 199.48 318.692 198.882 318.092 197.685C318.092 199.48 317.492 201.874 317.492 203.669C318.092 203.071 319.293 201.874 319.893 201.275C312.09 201.275 304.887 201.874 297.084 201.874C294.083 201.874 294.083 206.662 297.084 206.662C304.887 206.662 312.09 206.063 319.893 206.063C321.093 206.063 321.693 204.866 322.294 203.669C322.294 201.874 322.894 199.48 322.894 197.685C322.894 196.488 322.294 195.889 321.093 195.291C316.892 194.094 312.69 192.897 308.488 191.7C307.888 191.7 306.688 191.7 306.087 192.298C302.486 195.889 298.884 199.48 295.283 203.071C293.482 205.465 297.084 208.457 298.884 206.662Z" fill="#D1DCB6"/>
<path d="M293.89 198.498C291.489 196.703 288.488 194.309 285.487 193.112C283.086 191.915 279.485 193.112 276.483 193.711C274.082 193.711 271.681 193.711 269.281 194.908C266.279 196.703 263.878 199.097 260.877 200.892C259.677 202.089 259.076 203.885 260.877 204.483C264.479 206.877 268.08 209.869 272.882 209.869C278.884 209.869 284.887 209.869 290.889 209.869C292.09 209.869 292.69 209.271 293.29 208.074C293.89 205.081 294.49 202.688 295.091 199.695C295.691 196.703 291.489 195.506 290.889 198.498C290.289 201.491 289.689 203.885 289.088 206.877C289.689 206.278 290.289 205.68 291.489 205.081C286.087 205.081 280.085 205.081 274.683 205.081C274.082 205.081 272.882 205.081 272.282 205.081C273.482 205.081 272.282 205.081 271.681 204.483C269.281 202.688 266.88 201.491 264.479 200.294C264.479 201.491 264.479 202.688 264.479 203.885C266.88 202.089 269.881 200.294 271.681 198.498C272.282 197.9 272.282 197.9 272.882 197.301C273.482 196.703 271.681 197.9 272.282 197.301C273.482 196.703 275.283 196.703 277.084 196.703C278.884 196.703 280.685 196.104 282.486 196.104C283.086 196.104 283.686 196.104 284.286 196.104C285.487 196.104 282.486 195.506 284.286 196.104C286.687 197.301 289.689 199.695 292.09 200.892C293.89 203.885 296.291 200.294 293.89 198.498Z" fill="#D1DCB6"/>
<path d="M121.248 197.494C118.847 197.494 116.446 196.895 113.445 196.895C112.244 196.895 111.644 197.494 111.044 198.691C110.444 200.486 109.243 202.88 108.643 204.675C108.043 206.471 109.243 207.069 111.044 207.668C117.046 208.266 123.649 209.463 129.651 210.061C131.452 210.061 132.652 207.668 131.452 206.471C128.451 204.077 125.45 201.683 122.448 198.691C120.047 196.895 117.046 199.887 119.447 201.683C122.448 204.077 125.45 206.471 128.451 209.463C129.051 208.266 129.651 207.069 130.251 205.872C124.249 205.274 117.647 204.077 111.644 203.478C112.244 204.675 112.845 205.274 114.045 206.471C114.645 204.675 115.846 202.281 116.446 200.486C115.846 201.084 115.246 201.683 114.045 202.281C116.446 202.281 118.847 202.88 121.848 202.88C124.249 202.281 124.249 197.494 121.248 197.494Z" fill="#D1DCB6"/>
<path d="M133.853 196.895C130.251 195.1 126.05 193.903 122.448 192.107C122.448 193.304 122.448 195.1 122.448 196.297C124.249 195.698 126.05 195.698 127.85 195.1C128.451 195.1 133.853 194.501 134.453 193.903C133.853 194.501 132.052 192.706 134.453 194.501C135.654 195.1 136.254 195.698 137.454 196.895C139.255 198.092 141.056 199.289 142.856 200.486C143.457 199.289 143.457 197.494 144.057 196.297C140.455 196.895 136.854 196.895 133.853 196.895C130.251 196.895 130.251 201.084 133.253 201.084C136.854 201.084 140.455 201.084 144.057 201.084C146.458 201.084 147.058 198.092 145.257 196.895C143.457 195.698 141.656 194.501 139.855 193.304C138.655 192.107 136.254 190.312 134.453 190.312C132.652 190.312 130.251 190.91 128.451 191.509C126.05 192.107 123.649 192.107 121.848 192.706C119.447 193.304 120.047 196.297 121.848 196.895C125.45 198.691 129.651 199.887 133.253 201.683C135.654 202.281 136.854 198.092 133.853 196.895Z" fill="#D1DCB6"/>
<path d="M147.058 149.018C147.058 145.427 147.058 141.836 147.058 137.647C147.058 134.655 142.256 134.655 142.256 137.647C142.256 141.238 142.256 144.829 142.256 149.018C142.856 152.01 147.058 152.01 147.058 149.018Z" fill="#D1DCB6"/>
<path d="M156.662 152.01C155.461 147.821 154.261 144.23 153.061 140.041C152.46 137.049 147.658 138.246 148.859 141.238C150.059 145.427 151.26 149.018 152.46 153.207C153.061 155.601 157.862 154.404 156.662 152.01Z" fill="#D1DCB6"/>
<path d="M160.263 152.01C160.263 148.419 160.263 144.23 160.263 140.639C160.263 137.647 155.461 137.647 155.461 140.639C155.461 144.23 155.461 148.419 155.461 152.01C155.461 154.404 160.263 154.404 160.263 152.01Z" fill="#D1DCB6"/>
<path d="M142.256 151.412C139.255 147.821 136.854 143.632 133.853 140.041C132.052 137.647 128.451 140.041 130.252 142.435C133.253 146.026 135.654 150.215 138.655 153.806C139.855 156.199 144.057 153.806 142.256 151.412Z" fill="#D1DCB6"/>
<path d="M129.651 150.215C129.051 149.018 128.451 147.223 127.851 146.026C126.65 143.033 122.448 144.23 123.649 147.223C124.249 148.419 124.849 150.215 125.45 151.412C126.05 154.404 130.251 153.207 129.651 150.215Z" fill="#D1DCB6"/>
</g>
<defs>
<clipPath id="clip0_405_11999">
<rect width="506" height="234" fill="white"/>
</clipPath>
</defs>
</svg>
