<svg width="48" height="59" viewBox="0 0 48 59" fill="none" xmlns="http://www.w3.org/2000/svg">
<circle cx="23.6607" cy="23.3477" r="21.7701" fill="white"/>
<path fill-rule="evenodd" clip-rule="evenodd" d="M20.877 0.128846C10.779 1.30202 2.51921 8.87948 0.502228 18.8202C0.0228207 21.183 -0.0289166 23.5535 0.0105942 41.3793C0.0474024 57.9677 0.0555102 58.4677 0.293605 58.73C0.428483 58.8785 0.658856 59 0.805574 59C0.986397 59 3.30119 56.7799 7.986 52.1131L14.8995 45.2262L16.2256 45.6366C22.3573 47.5347 28.3134 47.1123 33.8965 44.3835C44.4399 39.2305 49.5159 27.1222 45.7987 15.9922C44.2484 11.35 41.1544 7.16597 37.167 4.31918C34.8297 2.65043 31.0215 1.0017 28.2337 0.451485C25.9589 0.00261303 23.0589 -0.124646 20.877 0.128846ZM27.2041 8.11913C30.1027 8.84472 32.3511 10.0841 34.4796 12.1293C37.6117 15.1389 39.2473 18.9783 39.2539 23.3365C39.2579 25.9933 38.8005 27.973 37.6383 30.3281C34.6089 36.4674 27.9712 39.9449 21.2191 38.9303C16.1611 38.1704 11.7219 34.9683 9.47081 30.4564C7.59243 26.6913 7.26657 22.4489 8.55279 18.5025C10.2402 13.3248 14.724 9.26716 20.0613 8.0877C21.7871 7.70644 21.842 7.70169 23.9866 7.75185C25.5106 7.78751 26.1882 7.86487 27.2041 8.11913Z" fill="#242424"/>
<path d="M15.6083 17.7898V19.0765H16.2516V17.7898C16.2516 17.7045 16.2855 17.6227 16.3458 17.5624C16.4062 17.502 16.488 17.4682 16.5733 17.4682H17.2166V16.8248H16.5733C16.488 16.8248 16.4062 16.791 16.3458 16.7306C16.2855 16.6703 16.2516 16.5885 16.2516 16.5032V15.8599H15.6083V16.5032C15.6083 16.5885 15.5744 16.6703 15.5141 16.7306C15.4538 16.791 15.372 16.8248 15.2866 16.8248H14.6433V17.4682H15.2866C15.372 17.4682 15.4538 17.502 15.5141 17.5624C15.5744 17.6227 15.6083 17.7045 15.6083 17.7898Z" fill="#242424"/>
<path d="M14 19.7198V30.6563H17.2166V20.6848C17.2166 20.6359 17.2278 20.5876 17.2493 20.5436C17.2708 20.4996 17.3021 20.4611 17.3408 20.431L18.2549 19.7198H14Z" fill="#242424"/>
<path d="M21.0765 27.8946V30.6563H25.5797V27.8946L23.3281 25.6429L21.0765 27.8946Z" fill="#242424"/>
<path d="M23.6498 20.6848H24.2931V21.6498H23.6498V20.6848Z" fill="#242424"/>
<path d="M23.0065 14.2516V16.0243L23.1306 15.9278C23.1871 15.8839 23.2566 15.86 23.3281 15.86C23.3997 15.86 23.4692 15.8839 23.5256 15.9278L23.6498 16.0243V14.2516C23.6498 14.1663 23.6837 14.0845 23.744 14.0242C23.8043 13.9638 23.8861 13.93 23.9714 13.93H24.6148V13.2866H23.9714C23.8861 13.2866 23.8043 13.2527 23.744 13.1924C23.6837 13.1321 23.6498 13.0503 23.6498 12.965V12H23.0065V12.965C23.0065 13.0503 22.9726 13.1321 22.9123 13.1924C22.8519 13.2527 22.7701 13.2866 22.6848 13.2866H22.0415V13.93H22.6848C22.7701 13.93 22.8519 13.9638 22.9123 14.0242C22.9726 14.0845 23.0065 14.1663 23.0065 14.2516Z" fill="#242424"/>
<path d="M30.4046 17.7898V19.0765H31.0479V17.7898C31.0479 17.7045 31.0818 17.6227 31.1422 17.5624C31.2025 17.502 31.2843 17.4682 31.3696 17.4682H32.0129V16.8248H31.3696C31.2843 16.8248 31.2025 16.791 31.1422 16.7306C31.0818 16.6703 31.0479 16.5885 31.0479 16.5032V15.8599H30.4046V16.5032C30.4046 16.5885 30.3707 16.6703 30.3104 16.7306C30.2501 16.791 30.1683 16.8248 30.083 16.8248H29.4397V17.4682H30.083C30.1683 17.4682 30.2501 17.502 30.3104 17.5624C30.3707 17.6227 30.4046 17.7045 30.4046 17.7898Z" fill="#242424"/>
<path d="M17.8599 20.8421V30.6562H20.4332V27.7613C20.4332 27.676 20.4671 27.5942 20.5274 27.5339L23.1007 24.9606C23.161 24.9003 23.2428 24.8664 23.3281 24.8664C23.4134 24.8664 23.4952 24.9003 23.5555 24.9606L26.1288 27.5339C26.1891 27.5942 26.223 27.676 26.2231 27.7613V30.6562H28.7963V20.8421L23.3281 16.5891L17.8599 20.8421ZM24.9364 20.3631V23.5797C24.9364 23.665 24.9025 23.7469 24.8422 23.8072C24.7819 23.8675 24.7001 23.9014 24.6148 23.9014H22.0415C21.9562 23.9014 21.8744 23.8675 21.814 23.8072C21.7537 23.7469 21.7198 23.665 21.7198 23.5797V20.3631C21.7198 20.2778 21.7537 20.196 21.814 20.1357C21.8744 20.0754 21.9562 20.0415 22.0415 20.0415H24.6148C24.7001 20.0415 24.7819 20.0754 24.8422 20.1357C24.9025 20.196 24.9364 20.2778 24.9364 20.3631Z" fill="#242424"/>
<path d="M28.4013 19.7198L29.3155 20.431C29.3541 20.4611 29.3854 20.4996 29.4069 20.5436C29.4284 20.5876 29.4396 20.6359 29.4397 20.6848V30.6563H32.6562V19.7198H28.4013Z" fill="#242424"/>
<path d="M22.3631 22.2931H23.0065V23.2581H22.3631V22.2931Z" fill="#242424"/>
<path d="M22.3631 20.6848H23.0065V21.6498H22.3631V20.6848Z" fill="#242424"/>
<path d="M23.6498 22.2931H24.2931V23.2581H23.6498V22.2931Z" fill="#242424"/>
</svg>
