<svg id="mark-logo" xmlns="http://www.w3.org/2000/svg" width="48" height="59" viewBox="0 0 48 59" fill="none">
  <circle cx="23.6607" cy="23.3477" r="21.7701" fill="white"/>
  <path fill-rule="evenodd" clip-rule="evenodd" d="M20.877 0.128846C10.779 1.30202 2.51921 8.87948 0.502228 18.8202C0.0228207 21.183 -0.0289166 23.5535 0.0105942 41.3793C0.0474024 57.9677 0.0555102 58.4677 0.293605 58.73C0.428483 58.8785 0.658856 59 0.805574 59C0.986397 59 3.30119 56.7799 7.986 52.1131L14.8995 45.2262L16.2256 45.6366C22.3573 47.5347 28.3134 47.1123 33.8965 44.3835C44.4399 39.2305 49.5159 27.1222 45.7987 15.9922C44.2484 11.35 41.1544 7.16597 37.167 4.31918C34.8297 2.65043 31.0215 1.0017 28.2337 0.451485C25.9589 0.00261303 23.0589 -0.124646 20.877 0.128846ZM27.2041 8.11913C30.1027 8.84472 32.3511 10.0841 34.4796 12.1293C37.6117 15.1389 39.2473 18.9783 39.2539 23.3365C39.2579 25.9933 38.8005 27.973 37.6383 30.3281C34.6089 36.4674 27.9712 39.9449 21.2191 38.9303C16.1611 38.1704 11.7219 34.9683 9.47081 30.4564C7.59243 26.6913 7.26657 22.4489 8.55279 18.5025C10.2402 13.3248 14.724 9.26716 20.0613 8.0877C21.7871 7.70644 21.842 7.70169 23.9866 7.75185C25.5106 7.78751 26.1882 7.86487 27.2041 8.11913Z" fill="#8CB110"/>
  <path d="M14.0972 33.7135L14 22.7443L14.8893 22.728C16.1495 22.7067 17.1813 22.9286 17.9832 23.3953C18.785 23.8619 19.3649 24.508 19.7196 25.332C20.0209 26.0156 20.1505 26.7743 20.1068 27.6097C20.0744 28.3586 19.9124 29.1173 19.6224 29.8891C19.1802 30.9953 18.5404 31.9155 17.6997 32.6481C16.859 33.3807 15.9487 33.7413 14.9687 33.7298L14.0956 33.7135H14.0972ZM15.8093 24.5831L15.8741 31.7116C16.305 31.5158 16.7003 31.196 17.0615 30.7505C17.4227 30.3051 17.7159 29.7961 17.9427 29.2201C18.1581 28.6572 18.2812 28.0927 18.3152 27.5281C18.3363 26.975 18.2553 26.4872 18.0722 26.0629C17.7062 25.2276 16.9513 24.7332 15.811 24.5815L15.8093 24.5831Z" fill="#8CB110"/>
  <path d="M20.9302 22.8206L22.7234 22.8858L22.239 33.7735L20.4297 33.6919L20.9302 22.8206V22.8206Z" fill="#8CB110"/>
  <path d="M23.3566 22.5762L25.1498 22.5925L25.0688 32.1455L28.1384 32.1945V34.0007L23.2578 33.9517L23.355 22.5762H23.3566Z" fill="#8CB110"/>
  <path d="M33.0032 30.4648L32.9562 28.5574C32.0426 27.9913 31.3169 27.1461 30.8974 26.1345C31.4854 26.6925 32.169 27.1477 32.9238 27.4675L32.8768 25.5602C31.8904 24.95 31.1242 24.0151 30.7241 22.8974V22.8191L28.999 22.8615H28.9714V22.9398C28.6296 24.0754 27.9088 25.0479 26.9531 25.7054L27.0001 27.6127C27.7452 27.2522 28.4126 26.7578 28.9763 26.1622C28.6086 27.1999 27.9218 28.0875 27.0309 28.701L27.0779 30.6084C27.8537 30.2331 28.5454 29.7126 29.1221 29.0844L29.2338 33.7133L30.9865 33.6709L30.8731 29.0306C31.4838 29.6343 32.203 30.1238 33.0016 30.4632L33.0032 30.4648Z" fill="#8CB110"/>
  <path d="M29.3702 21.4357C31.6931 21.4113 31.7935 17.0614 29.0787 17.1038C26.8287 17.1397 26.8174 21.4635 29.3702 21.4357ZM28.9442 20.2789C28.1537 20.1419 28.1505 18.3471 29.1127 18.3471C30.0749 18.3471 29.7784 20.4225 28.9442 20.2789Z" fill="#242424"/>
  <path d="M21.0795 17.5983C20.5968 17.9344 20.2129 18.3211 19.8112 18.7127C19.7804 17.2932 19.6946 16.4839 19.6184 16.0238C19.5634 15.6942 19.2864 15.4397 18.943 15.4397C18.5996 15.4397 18.3096 15.7056 18.2659 16.0467C18.206 16.5133 18.1509 16.807 18.0343 17.1431C17.0607 16.6455 15.8378 16.5443 15.1623 17.5624C14.5792 18.4402 14.3896 19.894 14.8221 20.868C15.1915 21.6985 16.0824 21.7067 16.6995 21.2058C17.5127 20.545 18.0472 19.3409 18.4748 18.4076C18.4748 18.4076 18.5591 19.5693 18.5315 19.9658C16.6477 21.9351 16.0564 22.9108 16.3431 24.1198C16.3431 24.1263 16.382 24.2552 16.3901 24.2765C16.5618 24.7937 17.0413 25.1673 17.6115 25.1673C18.0861 25.1673 18.4765 24.8948 18.7211 24.5245C18.7697 24.4494 18.8377 24.3548 18.9235 24.1981C18.9916 24.0774 19.1714 23.6744 19.1778 23.6613C19.2669 23.4476 19.3366 23.2404 19.3884 23.0642C19.6735 22.082 19.7885 21.0247 19.8128 19.9919C19.978 19.832 20.1546 19.6623 20.3457 19.4747C20.336 20.5841 20.7944 21.7246 22.2345 21.6561C24.0633 21.568 24.4666 18.3668 23.2177 17.4221C22.7301 17.0534 22.0417 16.9342 21.0811 17.6016L21.0795 17.5983ZM16.1666 20.1991C15.7114 20.1991 15.9512 19.0292 16.1828 18.5512C16.4792 17.9393 17.0413 17.7142 17.6568 17.9948C17.4608 18.3913 16.7821 20.1991 16.1666 20.1991V20.1991ZM18.5105 21.2759C18.4927 21.5419 18.4797 21.8095 18.4262 22.0591C18.2416 22.8961 17.882 23.5504 17.537 23.7217C17.2778 23.118 17.686 22.3512 18.5121 21.2759H18.5105ZM21.742 20.4096C20.9013 20.3215 21.1265 18.4908 21.8376 18.326C22.9925 18.0568 22.9213 20.5336 21.742 20.4096V20.4096Z" fill="#242424"/>
  <path d="M30.4576 23.8569C29.7303 23.3037 29.7141 22.5548 29.4646 22.1535C29.3545 21.9756 29.2022 21.9055 29.0532 21.9087C29.0484 21.9087 29.0435 21.9087 29.0386 21.9087C28.7697 21.9087 28.5446 22.1274 28.5527 22.3982C28.5592 22.6054 28.6353 22.8224 28.8475 23.3152C27.6359 22.2856 26.9377 20.9803 26.8195 19.1301C26.7498 18.0516 26.9312 16.8883 27.1159 15.9664C27.124 15.9468 27.1305 15.9256 27.1386 15.9044C28.4587 16.1769 29.5132 15.9371 29.8874 15.8702C30.5094 15.7608 30.5224 14.8031 29.8874 14.8716C29.604 14.9026 29.3302 14.9173 29.0597 14.9189C28.517 14.9043 27.9614 14.808 27.4366 14.6709C27.5905 14.1619 27.9339 13.3298 28.1267 12.8794C28.1623 12.7962 28.1898 12.7097 28.1898 12.6135C28.1898 12.2741 27.9177 12 27.5808 12C27.3605 12 27.171 12.1191 27.0624 12.2937C26.7806 12.7522 26.4339 13.3102 26.1197 14.2337C25.2418 13.8845 24.7752 13.6153 24.7752 13.6153C24.2763 13.3314 23.7774 13.9547 24.1759 14.3985C24.3266 14.5665 25.0571 15.162 25.7909 15.4655C25.5576 16.6191 25.3697 18.0549 25.6224 19.7648C25.9593 22.0327 27.2374 23.3054 28.0829 24.1163C28.117 24.1571 28.1526 24.1962 28.1947 24.224C27.976 24.2093 27.7752 24.1718 27.6197 24.1049C27.6099 24.1 27.6051 24.1 27.5954 24.0967C27.5856 24.0934 27.5759 24.0902 27.5678 24.0869C27.5533 24.082 27.5354 24.0755 27.5257 24.0739C27.4868 24.0641 27.4447 24.0559 27.4026 24.0559C27.1305 24.0559 26.9102 24.2778 26.9102 24.5519C26.9102 24.7754 27.0576 24.9615 27.2584 25.0235C27.2617 25.0235 27.2633 25.0267 27.2649 25.0283C28.2287 25.3726 29.5213 25.2405 30.362 24.6596C30.8091 24.3512 30.8383 24.144 30.4592 23.8552L30.4576 23.8569Z" fill="#242424"/>
</svg>
