<svg width="48" height="59" viewBox="0 0 48 59" fill="none" xmlns="http://www.w3.org/2000/svg">
<circle cx="23.6607" cy="23.3477" r="21.7701" fill="white"/>
<path fill-rule="evenodd" clip-rule="evenodd" d="M20.877 0.128846C10.779 1.30202 2.51921 8.87948 0.502228 18.8202C0.0228207 21.183 -0.0289166 23.5535 0.0105942 41.3793C0.0474024 57.9677 0.0555102 58.4677 0.293605 58.73C0.428483 58.8785 0.658856 59 0.805574 59C0.986397 59 3.30119 56.7799 7.986 52.1131L14.8995 45.2262L16.2256 45.6366C22.3573 47.5347 28.3134 47.1123 33.8965 44.3835C44.4399 39.2305 49.5159 27.1222 45.7987 15.9922C44.2484 11.35 41.1544 7.16597 37.167 4.31918C34.8297 2.65043 31.0215 1.0017 28.2337 0.451485C25.9589 0.00261303 23.0589 -0.124646 20.877 0.128846ZM27.2041 8.11913C30.1027 8.84472 32.3511 10.0841 34.4796 12.1293C37.6117 15.1389 39.2473 18.9783 39.2539 23.3365C39.2579 25.9933 38.8005 27.973 37.6383 30.3281C34.6089 36.4674 27.9712 39.9449 21.2191 38.9303C16.1611 38.1704 11.7219 34.9683 9.47081 30.4564C7.59243 26.6913 7.26657 22.4489 8.55279 18.5025C10.2402 13.3248 14.724 9.26716 20.0613 8.0877C21.7871 7.70644 21.842 7.70169 23.9866 7.75185C25.5106 7.78751 26.1882 7.86487 27.2041 8.11913Z" fill="#242424"/>
<path d="M23.5 14L21.6667 17V25.4H25.3333V17L23.5 14ZM18 27.8V32H29V27.8L27.1667 26H19.8333L18 27.8Z" fill="black"/>
</svg>
