<svg x="0px" y="0px" viewBox="0 0 100 100" style="enable-background:new 0 0 100 100;" xml:space="preserve">
	<path d="M50,0C22.4,0,0,22.4,0,50s22.4,50,50,50s50-22.4,50-50S77.6,0,50,0z M50,93C26.2,93,7,73.8,7,50
		C7,26.2,26.2,7,50,7s43,19.3,43,43C93,73.8,73.8,93,50,93z"/>
  <path d="M78.4,27.9H21.6c-1.2,0-2.2,1-2.2,2.2v39.8c0,1.2,1,2.2,2.2,2.2h56.8c1.2,0,2.2-1,2.2-2.2V30.1
    C80.6,28.9,79.6,27.9,78.4,27.9z M24.1,32.6h51.9v1.9L51.6,55.7c-0.9,0.8-2.4,0.8-3.3,0L24.1,34.5V32.6z M24.1,39.7l12.6,11
    L24.1,63.4V39.7z M25.3,67.7l0.3-0.3l14.1-14.1l-0.2-0.2l6.3,5.5c1.2,1.1,2.7,1.6,4.3,1.6c1.6,0,3-0.5,4.3-1.6l6.3-5.5l-0.2,0.2
    l14.1,14.1l0.3,0.3H25.3z M63.4,50.7l12.6-11v23.7L63.4,50.7z"/>
</svg>
