<svg x="0px" y="0px" viewBox="0 0 100 100" style="enable-background:new 0 0 100 100;" xml:space="preserve">
<path d="M50,0C22.4,0,0,22.4,0,50s22.4,50,50,50s50-22.4,50-50S77.6,0,50,0z M50,93C26.2,93,7,73.8,7,50
		C7,26.2,26.2,7,50,7s43,19.3,43,43C93,73.8,73.8,93,50,93z"/>
<path d="M55,50.7c-1.3,1.4-3.1,2.1-5,2.1c-1.9,0-3.7-0.7-5-2.1c-2.8-2.8-2.8-7.2,0-10c1.4-1.4,3.1-2.1,5-2.1
  c1.9,0,3.7,0.7,5,2.1C57.7,43.5,57.7,48,55,50.7z"/>
<path d="M65.9,29.8c-8.8-8.6-23-8.6-31.8,0c-8.8,8.6-8.8,22.7,0,31.3L50,76.7l15.9-15.6C74.7,52.4,74.7,38.4,65.9,29.8
  z M61.4,56.5L50,67.7L38.6,56.5c-3-2.9-4.6-6.9-4.6-11.1s1.6-8.1,4.6-11.1c3-3,7.1-4.6,11.4-4.6c4.3,0,8.3,1.6,11.4,4.6
  c3,3,4.6,6.9,4.6,11.1S64.4,53.5,61.4,56.5z"/>
</svg>
