<svg width="18" height="37" viewBox="0 0 18 37" fill="none" xmlns="http://www.w3.org/2000/svg">
<path fill-rule="evenodd" clip-rule="evenodd" d="M8.20808 0.112371C7.28123 0.340667 6.24749 1.16806 5.82558 2.01925C5.37505 2.92824 5.39813 2.32929 5.39813 13.1085V22.9349L4.9687 23.3398C4.06245 24.1943 3.19399 25.6176 2.85916 26.7973C2.41488 28.3622 2.42625 30.1199 2.88978 31.5329C3.45481 33.2553 4.56434 34.734 6.02616 35.7128C6.79547 36.2277 7.49162 36.5396 8.44709 36.797C9.33998 37.0375 10.9244 37.0693 11.8617 36.8656C14.79 36.229 17.036 34.0275 17.8448 31.001C17.9798 30.4958 18.0014 30.233 17.9999 29.1121C17.9984 27.9177 17.9821 27.7502 17.8028 27.0867C17.4279 25.6997 16.6939 24.4317 15.6834 23.4255L15.2029 22.947L15.1837 12.9727C15.1624 1.87559 15.2072 2.88455 14.6925 1.91682C14.2293 1.04581 13.1489 0.251548 12.186 0.0741047C11.5533 -0.0425027 8.72644 -0.015304 8.20808 0.112371ZM12.2393 1.70299C12.6652 1.85078 13.1996 2.341 13.4252 2.79072L13.6019 3.14308L13.6374 13.3426C13.6569 18.9523 13.6981 23.5934 13.7289 23.656C13.7598 23.7186 14.0605 24.0266 14.3972 24.3404C15.128 25.0216 15.5414 25.5746 15.9067 26.3599C17.3956 29.5601 16.1453 33.2238 13.0209 34.8166C12.1999 35.2351 11.6014 35.379 10.5122 35.4194C9.42294 35.46 8.90863 35.3776 7.98647 35.0155C6.23094 34.326 4.73388 32.6078 4.22965 30.7035C4.0692 30.0975 4.00932 28.7881 4.11373 28.1685C4.39827 26.4803 5.04868 25.3526 6.51846 23.9989L6.88639 23.6601L6.90585 13.4739L6.92524 3.28775L7.11084 2.8899C7.3882 2.29529 7.89633 1.82748 8.45192 1.65539C8.54979 1.62508 9.36732 1.59745 10.2687 1.59405C11.5931 1.58899 11.9711 1.60989 12.2393 1.70299ZM0.426169 4.38467C0.36757 4.40818 0.247746 4.49405 0.159813 4.5755C0.0191776 4.70578 0 4.79395 0 5.30972C0 5.99518 0.0888566 6.17545 0.4815 6.28656C0.821582 6.38269 1.6644 6.38269 2.00448 6.28656C2.39286 6.17668 2.48598 5.99309 2.48598 5.33728C2.48598 4.85132 2.46375 4.75236 2.31473 4.57579C2.14753 4.37765 2.12424 4.37245 1.3381 4.3574C0.895096 4.34894 0.484767 4.36123 0.426169 4.38467ZM9.41122 6.46458C9.1465 6.58495 8.84079 6.91155 8.741 7.18057C8.68915 7.32025 8.66543 10.0816 8.66543 15.9766V24.569L8.36356 24.7034C6.38273 25.5847 5.21751 27.8614 5.6419 30.0209C6.26063 33.1693 9.61315 34.8387 12.4299 33.4011C13.5903 32.8089 14.5478 31.6008 14.8834 30.3057C15.0437 29.6872 15.043 28.5456 14.882 27.9198C14.5468 26.6167 13.6282 25.4411 12.4736 24.8373L11.9334 24.5549L11.9326 16.0552C11.9321 10.4326 11.9071 7.46457 11.8586 7.28662C11.7645 6.94179 11.4704 6.58654 11.1748 6.46075C10.8714 6.3317 9.69803 6.33423 9.41122 6.46458ZM0.174374 8.70978C0.0167628 8.87022 0.00021292 8.94509 0.00227273 9.4874C0.00561105 10.3868 0.128064 10.4853 1.24299 10.4853C2.35792 10.4853 2.48037 10.3868 2.48371 9.4874C2.48577 8.94509 2.46922 8.87022 2.31161 8.70978C2.14498 8.54 2.09781 8.53219 1.24299 8.53219C0.388168 8.53219 0.341006 8.54 0.174374 8.70978ZM0.426169 12.7034C0.36757 12.7269 0.247746 12.8128 0.159813 12.8943C0.0183963 13.0253 0 13.112 0 13.6479C0 14.1943 0.0169758 14.2707 0.174374 14.4309C0.341006 14.6007 0.388168 14.6085 1.24299 14.6085C2.09781 14.6085 2.14498 14.6007 2.31161 14.4309C2.46901 14.2707 2.48598 14.1943 2.48598 13.6479C2.48598 13.0907 2.47135 13.0283 2.30287 12.8669C2.13418 12.7053 2.05761 12.6903 1.32624 12.6762C0.88984 12.6677 0.484767 12.68 0.426169 12.7034ZM0.174374 17.0285C0.0167628 17.189 0.00021292 17.2639 0.00227273 17.8062C0.00568208 18.7099 0.125152 18.8041 1.26842 18.8041C2.00448 18.8041 2.06138 18.7934 2.26743 18.6168C2.47973 18.4348 2.48598 18.4121 2.48598 17.8178C2.48598 17.2647 2.46929 17.1891 2.31161 17.0285C2.14498 16.8588 2.09781 16.851 1.24299 16.851C0.388168 16.851 0.341006 16.8588 0.174374 17.0285ZM0.361604 21.05C0.0659143 21.1756 0.00468769 21.3329 0.00227273 21.9721C0.00021292 22.5144 0.0167628 22.5892 0.174374 22.7497C0.341006 22.9195 0.388168 22.9273 1.24299 22.9273C2.09781 22.9273 2.14498 22.9195 2.31161 22.7497C2.46901 22.5895 2.48598 22.5131 2.48598 21.9666C2.48598 21.4094 2.47135 21.3471 2.30287 21.1857C2.13432 21.0243 2.05676 21.009 1.32624 20.9938C0.88984 20.9847 0.455716 21.0099 0.361604 21.05ZM9.27236 26.7648C9.49312 27.0132 9.4424 27.3556 9.13329 27.7041C8.70762 28.1839 8.5684 28.5753 8.57451 29.2746C8.58097 30.0125 8.45639 30.2333 8.03342 30.2333C7.65271 30.2333 7.48011 30.019 7.42158 29.4738C7.32818 28.6028 7.65356 27.635 8.26952 26.9517C8.53253 26.66 8.60875 26.6165 8.85621 26.6165C9.05267 26.6165 9.1813 26.6623 9.27236 26.7648Z" fill="#CCDB9A"/>
</svg>
