<svg width="1920" height="345" viewBox="0 0 1920 345" fill="none" xmlns="http://www.w3.org/2000/svg">
<path d="M1874.82 14.2732C1978.98 97.4137 2005.02 38.2916 2050 93.7185V260C1609.68 258.152 991.494 257.758 999.069 232.631C1006.64 207.504 1119.88 160.515 1210.62 164.21C1307.68 166.674 1331.77 206.051 1413.2 189.792C1514.99 169.469 1503.16 117.737 1543.4 112.194C1583.64 106.652 1600.22 123.279 1723.31 54.9196C1842.69 -11.3735 1847.49 -7.53954 1874.55 14.0587L1874.82 14.2732Z" fill="#8CB110"/>
<path d="M68.1541 16.1634C171.524 98.6644 197.366 39.9971 242 94.9976V260C-194.964 258.166 -808.449 257.775 -800.931 232.842C-793.414 207.908 -681.043 161.28 -590.987 164.947C-494.667 167.392 -470.768 206.466 -389.953 190.332C-288.935 170.165 -300.681 118.831 -260.743 113.331C-220.806 107.831 -204.361 124.331 -82.1991 56.4972C36.2698 -9.28599 41.0362 -5.48154 67.8875 15.9506L68.1541 16.1634Z" fill="#8CB110"/>
<path d="M102.401 48.2877C66.4122 59.3316 6.25437 72.6107 -19.3259 77.8697L-24 264.276V344.5H1920.37L1968 135.062C1955.65 152.811 1960.59 173.716 1920.37 178.449C1870.09 184.365 1848.92 158.727 1788.06 117.312C1739.36 84.1806 1695.25 95.7874 1634.57 150.839C1573.71 206.059 1488.5 196.198 1454.63 196.198C1420.76 196.198 1378.77 212.632 1362.01 221.836C1332.02 236.298 1252.99 258.517 1176.77 231.696C1100.56 204.875 996.83 195.541 954.49 194.226C879.513 199.485 715.799 201.72 660.758 168.588C605.716 135.456 533.738 131.117 504.629 133.09C457.879 137.691 350.618 133.09 295.577 77.8697C226.774 8.84496 147.387 34.4827 102.401 48.2877Z" fill="#F4F6E9"/>
<path d="M1096.79 71.6747L1094.26 75.6388C1094.26 75.6388 1090.15 70.1806 1090.47 69.6468C1090.84 69.0127 1093.87 70.5211 1096.79 71.6747Z" fill="#F4F6E9"/>
<path d="M1099.54 70.3353C1108.5 72.5426 1104.6 81.1422 1110.28 81.4372C1115.97 81.7322 1118.81 75.5031 1124.45 71.3668C1131.99 65.8324 1159.13 63.7551 1159.95 69.4622C1160.48 73.0875 1155.67 73.7279 1155.67 73.7279C1155.67 73.7279 1159.47 75.5368 1158.14 78.5618C1157.07 81.0247 1152.98 80.7773 1152.98 80.7773C1152.98 80.7773 1156.05 83.1152 1153.47 86.2927C1152.01 88.0905 1147.84 87.3083 1147.84 87.3083C1147.84 87.3083 1151.21 88.568 1148.63 91.3578C1146.74 93.4 1136.55 91.8567 1129.71 91.4219C1125.97 91.184 1123.37 92.1821 1123.37 92.1821C1123.37 92.1821 1129.51 95.2076 1140.56 98.9218C1149.96 102.082 1157.72 102.453 1158.18 105.231C1158.84 109.143 1154.62 108.967 1154.62 108.967C1154.62 108.967 1159.14 111.772 1156.41 114.42C1154.02 116.74 1151.39 113.897 1151.39 113.897C1151.39 113.897 1153.26 118.613 1149.48 119.898C1146.74 120.83 1142.89 116.244 1139.85 112.427C1136.81 108.609 1130.81 103.592 1130.81 103.592C1130.81 103.592 1117.81 110.281 1109.1 105.777C1100.4 101.273 1097.66 93.3316 1097.13 86.8553C1096.71 81.6213 1093.76 81.9745 1092.7 77.388C1091.74 73.2323 1095.13 69.2484 1099.54 70.3359L1099.54 70.3353ZM1097.12 76.6124C1097.39 77.1754 1098.18 77.481 1098.77 77.2971C1099.35 77.1157 1099.73 76.542 1099.77 75.9592C1099.84 75.0785 1098.55 73.8273 1097.43 74.9605C1097.03 75.3757 1096.85 76.0588 1097.12 76.6124Z" fill="#F4F6E9"/>
<path d="M1051.03 117.334C1049.25 118.722 1040.03 124.242 1038.58 124.232C1037.61 124.225 1039.12 117.113 1039.67 115.091C1040.23 113.004 1041.26 106.429 1040.88 105.278C1040.42 103.859 1039.57 103.955 1038.78 104.485C1037.78 105.155 1037.97 106.422 1037.63 106.38C1037.33 106.342 1037.33 104.886 1035.93 104.756C1034.68 104.639 1034.38 106.998 1034.03 106.959C1033.73 106.927 1033.78 105.427 1032.77 105.306C1031.49 105.152 1031.4 107.363 1031 107.367C1030.63 107.371 1031.09 106.515 1030.43 105.977C1029.86 105.51 1028.98 105.87 1028.46 106.578C1027.79 107.494 1026.76 109.709 1026.14 113.025C1025.81 114.81 1025.46 116.511 1025.31 118.317C1025.09 121.07 1025.58 122.451 1024.03 123.316C1023.32 123.718 1022.98 123.207 1020.2 123.819C1018.44 124.207 1016.83 125.01 1015.09 126.255C1012.76 127.909 1012.52 128.579 1012.76 128.584C1014.16 128.614 1015.75 128.129 1017.75 128.506C1019.77 128.886 1020.87 129.88 1021.08 131.431C1021.28 132.835 1020.35 134.171 1020.22 136.181C1020.07 138.566 1020.47 141.92 1025.68 143.636C1030.29 145.156 1042.94 142.692 1044.93 142.128C1046.95 141.557 1048.97 140.899 1050.81 139.879C1051.3 139.61 1052.33 139.047 1051.79 138.323C1051.45 137.878 1050.6 138.221 1050.37 138.075C1050.01 137.846 1050.3 137.447 1050.14 137.195C1049.59 136.339 1048.65 137.299 1048.38 136.86C1048.09 136.4 1048.28 136.17 1048.01 135.802C1047.5 135.089 1046.15 135.78 1045.87 135.377C1045.7 135.131 1045.86 134.985 1045.86 134.706C1045.88 134.377 1045.66 134.109 1045.43 133.913C1044.84 133.415 1043.25 133.282 1042.98 133.012C1042.72 132.743 1043.24 132.621 1042.83 131.909C1042.43 131.196 1039.14 131.746 1038.86 130.871C1038.25 128.953 1041.21 128.614 1043.91 127.938C1045.33 127.584 1050.36 126.472 1051.18 126.066C1051.73 125.8 1052.26 125.415 1052.68 124.982C1053.08 124.574 1053.57 123.946 1053.03 123.406C1052.7 123.071 1052.18 123.578 1052.03 123.305C1051.95 123.148 1053.23 122.46 1053.1 121.82C1053 121.37 1052.2 121.488 1052.12 121.322C1052.01 121.093 1053.03 120.868 1052.88 120.034C1052.77 119.44 1051.94 119.579 1051.77 119.339C1051.45 118.888 1052.48 118.528 1052.7 117.848C1053.01 116.911 1052.23 116.392 1051.02 117.335L1051.03 117.334ZM1018.23 126.699C1018.21 126.961 1017.94 127.202 1017.68 127.223C1017.42 127.243 1017.18 127.08 1017.08 126.86C1016.92 126.528 1017.24 125.84 1017.85 126.106C1018.08 126.204 1018.25 126.442 1018.23 126.699Z" fill="#F4F6E9"/>
<path d="M1665 75.1432L1664.96 56.5221C1656.17 50.7957 1649.3 42.3503 1645.42 32.4218C1651.02 37.9834 1657.6 42.5975 1664.88 45.8933L1664.84 27.2722C1655.35 21.0926 1648.08 11.7821 1644.44 0.7825V-0.000244141L1627.6 0.0409531H1627.31V0.823697C1623.72 11.8233 1616.44 21.1338 1607 27.3546L1607.04 45.9757C1614.4 42.6387 1621.02 37.9422 1626.66 32.257C1622.82 42.3091 1615.95 50.7957 1607.12 56.6045L1607.2 75.2256C1614.85 71.7238 1621.71 66.8214 1627.48 60.8066L1627.52 106L1644.6 105.959L1644.56 60.6418C1650.41 66.6978 1657.32 71.6414 1665 75.1432Z" fill="#8BB01A"/>
<path d="M383 98.5474L382.967 83.791C375.846 79.2532 370.281 72.5606 367.135 64.6927C371.672 69.1 377.005 72.7565 382.901 75.3682L382.868 60.6119C375.183 55.7149 369.288 48.3367 366.34 39.62V38.9998L352.693 39.0324H352.462V39.6527C349.547 48.3694 343.651 55.7475 336 60.6772L336.033 75.4335C341.995 72.7891 347.361 69.0674 351.932 64.5621C348.818 72.5279 343.254 79.2532 336.099 83.8563L336.166 98.6127C342.359 95.8377 347.924 91.9527 352.594 87.1863L352.627 123L366.472 122.967L366.439 87.0557C371.175 91.8548 376.773 95.7724 383 98.5474Z" fill="#F4F6E9"/>
<path d="M429 115.205L428.973 103.259C423.216 99.5858 418.717 94.168 416.173 87.7988C419.841 91.3666 424.153 94.3266 428.92 96.4409L428.893 84.4953C422.68 80.531 417.913 74.5582 415.53 67.5019V66.9998L404.497 67.0262H404.309V67.5283C401.953 74.5847 397.186 80.5575 391 84.5481L391.027 96.4937C395.847 94.353 400.185 91.3402 403.881 87.6931C401.364 94.1416 396.865 99.5858 391.08 103.312L391.134 115.258C396.142 113.011 400.641 109.866 404.416 106.008L404.443 135L415.637 134.973L415.61 105.902C419.44 109.787 423.965 112.959 429 115.205Z" fill="#F4F6E9"/>
<path d="M1276 236.698L1275.98 226.861C1271.28 223.835 1267.61 219.374 1265.54 214.128C1268.53 217.067 1272.05 219.504 1275.93 221.245L1275.91 211.408C1270.84 208.143 1266.96 203.224 1265.01 197.413V197L1256.01 197.022H1255.86V197.435C1253.94 203.246 1250.05 208.165 1245 211.451L1245.02 221.289C1248.95 219.526 1252.49 217.045 1255.51 214.041C1253.45 219.352 1249.78 223.835 1245.07 226.904L1245.11 236.742C1249.19 234.892 1252.86 232.302 1255.95 229.124L1255.97 253L1265.1 252.978L1265.08 229.037C1268.2 232.236 1271.89 234.848 1276 236.698Z" fill="#F4F6E9"/>
<path d="M1597 100.092L1596.97 84.4572C1589.54 79.6492 1583.74 72.5582 1580.46 64.2221C1585.19 68.8917 1590.75 72.7658 1596.9 75.533L1596.86 59.8983C1588.85 54.7098 1582.7 46.8925 1579.63 37.657V36.9998L1565.4 37.0343H1565.16V37.6916C1562.12 46.9271 1555.98 54.7444 1548 59.9675L1548.03 75.6022C1554.25 72.8004 1559.84 68.8571 1564.61 64.0837C1561.36 72.5237 1555.56 79.6492 1548.1 84.5264L1548.17 100.161C1554.63 97.2209 1560.43 93.1047 1565.3 88.0546L1565.33 126L1579.77 125.965L1579.73 87.9162C1584.67 93.0009 1590.51 97.1517 1597 100.092Z" fill="#8BB01A"/>
<path d="M1308 233.647L1307.98 226.796C1304.65 224.689 1302.05 221.582 1300.57 217.929C1302.7 219.975 1305.19 221.673 1307.95 222.885L1307.94 216.034C1304.34 213.76 1301.58 210.335 1300.2 206.288V206L1293.81 206.015H1293.71V206.303C1292.34 210.35 1289.58 213.776 1286 216.064L1286.02 222.915C1288.81 221.688 1291.32 219.96 1293.46 217.868C1292 221.566 1289.4 224.689 1286.05 226.826L1286.08 233.677C1288.98 232.389 1291.58 230.585 1293.77 228.372L1293.78 245L1300.26 244.985L1300.25 228.311C1302.47 230.54 1305.09 232.358 1308 233.647Z" fill="#F4F6E9"/>
<path d="M1235 236.558L1234.99 231.463C1232.56 229.897 1230.67 227.586 1229.6 224.87C1231.14 226.392 1232.96 227.654 1234.97 228.556L1234.95 223.461C1232.34 221.77 1230.33 219.223 1229.33 216.214V216L1224.68 216.011H1224.6V216.225C1223.61 219.235 1221.6 221.782 1219 223.484L1219.01 228.578C1221.04 227.665 1222.87 226.38 1224.42 224.825C1223.36 227.575 1221.47 229.897 1219.03 231.486L1219.06 236.58C1221.16 235.622 1223.06 234.281 1224.65 232.636L1224.66 245L1229.37 244.988L1229.36 232.591C1230.97 234.247 1232.88 235.6 1235 236.558Z" fill="#F4F6E9"/>
<path d="M1556 188.558L1555.99 183.463C1553.56 181.897 1551.67 179.586 1550.6 176.87C1552.14 178.392 1553.96 179.654 1555.97 180.556L1555.95 175.461C1553.34 173.77 1551.33 171.223 1550.33 168.214V168L1545.68 168.011H1545.6V168.225C1544.61 171.235 1542.6 173.782 1540 175.484L1540.01 180.578C1542.04 179.665 1543.87 178.38 1545.42 176.825C1544.36 179.575 1542.47 181.897 1540.03 183.486L1540.06 188.58C1542.16 187.622 1544.06 186.281 1545.65 184.636L1545.66 197L1550.37 196.988L1550.36 184.591C1551.97 186.247 1553.88 187.6 1556 188.558Z" fill="#F4F6E9"/>
</svg>
