<svg width="2057" height="172" viewBox="0 0 2057 172" fill="none" xmlns="http://www.w3.org/2000/svg">
<path d="M59.091 52.0642C36.2364 65.1819 14.7073 77.5388 1.9807 80.1553L0.175171 172H2057V41.0124C2035.82 60.3451 1979.85 90.9108 1944.37 95.0857C1903.99 99.8373 1882.38 84.2358 1843.91 56.4542C1834.48 49.6443 1824.04 42.1026 1812.06 33.9495C1763.36 0.817585 1719.25 12.4245 1658.57 67.4758C1604.73 116.327 1531.83 114.244 1492.28 113.113C1487.13 112.966 1482.54 112.835 1478.63 112.835C1446.11 112.835 1406.1 127.987 1388.13 137.341L1388.12 126.171C1389.63 127.885 1391.42 129.284 1393.41 130.275L1393.4 125.005C1391.12 123.384 1389.35 120.994 1388.34 118.184C1389.79 119.758 1391.49 121.064 1393.37 121.997L1393.36 116.726C1390.91 114.977 1389.03 112.342 1388.09 109.229V109.008L1383.73 109.019H1383.66V109.241C1382.73 112.354 1380.85 114.989 1378.41 116.75L1378.42 122.02C1380.32 121.075 1382.03 119.746 1383.49 118.137C1382.5 120.982 1380.72 123.384 1378.44 125.028L1378.46 130.298C1380.44 129.307 1382.21 127.92 1383.7 126.217L1383.71 139.008L1384.89 139.005C1369 146.471 1340.51 155.774 1306.32 159.385L1306.3 142.752C1308.62 145.323 1311.36 147.422 1314.41 148.908L1314.39 141.003C1310.91 138.572 1308.18 134.987 1306.64 130.772C1308.86 133.133 1311.47 135.092 1314.36 136.491L1314.34 128.586C1310.58 125.962 1307.7 122.01 1306.25 117.34V117.008L1299.58 117.025H1299.46V117.358C1298.04 122.027 1295.15 125.98 1291.41 128.621L1291.42 136.526C1294.34 135.109 1296.97 133.115 1299.2 130.702C1297.68 134.969 1294.96 138.572 1291.45 141.038L1291.49 148.943C1294.52 147.457 1297.24 145.375 1299.53 142.822L1299.54 160.017C1291.12 160.701 1282.39 161.025 1273.45 160.883L1273.43 135.766C1276.85 139.537 1280.9 142.615 1285.41 144.795L1285.38 133.201C1280.23 129.635 1276.21 124.377 1273.93 118.195C1277.21 121.658 1281.07 124.531 1285.33 126.583L1285.31 114.989C1279.75 111.141 1275.49 105.344 1273.35 98.4952V98.0078L1263.48 98.0335H1263.31V98.5208C1261.21 105.37 1256.94 111.167 1251.41 115.04L1251.43 126.634C1255.74 124.557 1259.62 121.632 1262.93 118.093C1260.68 124.351 1256.65 129.635 1251.48 133.252L1251.53 144.847C1256.01 142.666 1260.03 139.614 1263.41 135.869L1263.43 160.528C1243.06 159.403 1221.81 155.736 1200.77 148.333C1124.56 121.512 1020.83 112.178 978.49 110.863C963.689 111.901 945.878 113.707 926.398 115.681C847.197 123.711 740.414 134.536 696.238 107.944C641.196 74.8126 557.738 47.7544 528.629 49.7266C518.141 50.7589 504.382 53.7692 488.726 57.1946C434.595 69.038 357.784 85.8433 315.091 43.0117C251.216 -21.0693 180.613 1.44668 134.831 16.0468L134.829 16.0476C131.298 17.1737 127.914 18.2527 124.693 19.2412C106.609 24.7906 82.1739 38.8154 59.091 52.0642Z" fill="#F4F6E9"/>
<path fill-rule="evenodd" clip-rule="evenodd" d="M1447.96 45.7766C1445.86 43.1873 1443.37 40.1064 1437.33 40.8142C1435.29 41.0542 1433.71 42.0446 1432.69 43.4144L1432.21 43.396C1429.38 43.2865 1426.96 43.1927 1426.83 43.8647C1426.75 44.3176 1429.35 46.165 1431.36 47.5167C1431.35 48.9125 1431.76 50.3485 1432.61 51.6355C1434.03 53.783 1435.46 54.6121 1436.85 55.4178C1438.52 56.3811 1440.12 57.3109 1441.59 60.4201C1444.91 67.485 1451.34 75.2659 1463.04 76.6635C1474.73 78.0612 1486.54 65.0537 1486.54 65.0537C1486.54 65.0537 1495.4 68.1691 1500.43 71.1831C1505.46 74.197 1511.73 77.7351 1514.42 75.5297C1518.13 72.4893 1514.04 67.9723 1514.04 67.9723C1514.04 67.9723 1518.2 70.0607 1519.91 66.4414C1521.87 62.3124 1515.6 61.061 1515.6 61.061C1515.6 61.061 1520.42 59.4781 1518.03 55.3546C1516.95 53.4908 1512.96 53.9695 1507.13 54.6687C1503.8 55.0679 1499.87 55.539 1495.54 55.6872C1481.54 56.1663 1473.35 55.3519 1473.35 55.3519C1473.35 55.3519 1475.86 53.1315 1480.17 51.8217C1481.91 51.2923 1483.86 50.7547 1485.86 50.205L1485.86 50.2047L1485.86 50.2042C1492.88 48.2695 1500.44 46.1843 1501.43 43.7738C1503.16 39.5448 1498.84 39.5472 1498.84 39.5472C1498.84 39.5472 1503.85 38.6729 1504.74 36.0337C1506.31 31.3693 1501.86 30.0347 1501.86 30.0347C1501.86 30.0347 1506.57 28.5887 1506.74 25.3631C1506.95 21.4014 1501.92 20.965 1501.92 20.965C1501.92 20.965 1507.06 18.2184 1504.94 14.3604C1501.61 8.287 1471.94 22.0671 1465.79 31.4742C1464.21 33.9009 1463.1 36.4679 1462.06 38.8743C1460.09 43.4399 1458.37 47.4271 1454.1 48.7793C1451.15 49.7125 1449.69 47.9117 1447.96 45.7766ZM1439.4 48.9755C1438.81 49.4312 1437.8 49.4173 1437.25 48.8997C1436.72 48.3907 1436.63 47.5475 1436.91 46.9081C1437.69 45.1628 1439.67 46.0269 1439.97 47.0453C1440.16 47.7193 1439.97 48.526 1439.4 48.9755Z" fill="#F4F6E9"/>
</svg>
