<svg width="1984" height="244" viewBox="0 0 1984 244" fill="none" xmlns="http://www.w3.org/2000/svg">
<path d="M0 0V66H36.3052C65.7408 59.6814 113.805 48.677 144.401 39.288L146.259 38.7172C191.549 24.8018 269.712 0.785889 337.577 68.87C392.618 124.09 499.879 128.691 546.629 124.09C575.738 122.118 647.716 126.456 702.758 159.588C757.799 192.72 921.513 190.485 996.49 185.226C1038.83 186.541 1142.56 195.875 1218.77 222.697C1294.99 249.518 1374.02 227.298 1404.01 212.836C1420.77 203.633 1462.76 187.198 1496.63 187.198C1500.54 187.198 1505.12 187.329 1510.28 187.477L1510.28 187.477C1549.83 188.607 1622.73 190.69 1676.57 141.839C1737.25 86.7877 1781.36 75.1808 1830.06 108.313C1842.04 116.466 1852.48 124.008 1861.91 130.818C1900.38 158.599 1921.99 174.201 1962.37 169.449C1971.79 168.34 1978.73 166.345 1984 163.71V0H0Z" fill="#F4F6E9"/>
<path d="M1984 240.384L1983.18 244H1984V240.384Z" fill="#F4F6E9"/>
</svg>
