<svg width="2064" height="125" viewBox="0 0 2064 125" fill="none" xmlns="http://www.w3.org/2000/svg">
<path d="M2064 0H0V50.5151C22.3754 69.8556 77.1811 99.1479 112.2 103.225C157.774 108.532 179.199 98.3138 231.707 73.2717C237.647 70.439 243.984 67.4165 250.8 64.2054C282.582 49.2304 350.687 42.1908 400.556 75.6613C450.571 109.229 510.062 93.8646 551.879 83.0648C567.435 79.0472 580.545 75.6613 589.812 75.6613C623.987 75.6613 692.465 92.455 709.374 101.643C710.612 102.234 711.866 102.837 713.141 103.451C743.028 117.841 783.901 137.52 875.349 112.625C953.946 91.2279 1010.05 85.6696 1097.32 85.6696C1140.02 85.6696 1181.74 96.4482 1221.4 106.693C1276.39 120.898 1327.4 134.077 1371.52 116.063C1431.44 91.5976 1495.99 66.4071 1555.39 72.1921C1561.68 72.8044 1568.71 73.6749 1576.33 74.6181C1625.88 80.7513 1700.25 89.9583 1756.08 51.2378C1808.64 14.7882 1918.13 41.9375 1963.52 55.7194C1975.01 59.2081 1987.5 63.2272 2000.04 67.2581C2023.3 74.7398 2046.68 82.2622 2064 86.5091V0Z" fill="#F4F6E9"/>
</svg>
