<svg width="1920" height="237" viewBox="0 0 1920 237" fill="none" xmlns="http://www.w3.org/2000/svg">
<path d="M18.5 213.636C-17.4889 202.592 -63.439 186.241 -89.0193 180.982L-91 80.2242L-91 0.000289917L1963.5 0.000110307L1972.5 227.187C1960.15 209.438 1893.59 170.784 1853.37 166.051C1803.09 160.135 1782.47 173.485 1716 205.136C1684.5 220.136 1617 227.187 1567.57 193.661C1499.56 147.529 1413.87 193.661 1380 193.661C1346.13 193.661 1278.26 176.839 1261.5 167.636C1231.51 153.174 1191.5 130.636 1097 156.636C1019.1 178.069 963.5 183.636 877 183.636C776 183.636 680.5 122.136 605.238 153.193C545.852 177.698 481.871 202.931 423 197.136C376.25 192.534 287.937 173.376 224.091 218.125C172 254.636 63.4861 227.441 18.5 213.636Z" fill="#EBEDE4"/>
</svg>
