<svg width="2064" height="237" viewBox="0 0 2064 237" fill="none" xmlns="http://www.w3.org/2000/svg">
<path fill-rule="evenodd" clip-rule="evenodd" d="M73.3071 202.078C85.7282 206.116 98.1127 210.142 109.5 213.636C154.486 227.441 263 254.636 315.091 218.125C370.427 179.34 444.143 188.563 493.248 194.706C500.799 195.651 507.769 196.523 514 197.136C572.871 202.931 636.852 177.698 696.238 153.192C739.966 135.148 790.526 148.349 845.026 162.578C884.329 172.839 925.682 183.636 968 183.636C1054.5 183.636 1110.1 178.068 1188 156.636C1278.64 131.699 1319.15 151.411 1348.77 165.825C1350.03 166.439 1351.27 167.044 1352.5 167.636C1369.26 176.839 1437.13 193.661 1471 193.661C1480.18 193.661 1493.18 190.269 1508.6 186.245C1550.04 175.427 1609 160.037 1658.57 193.661C1708 227.187 1775.5 220.136 1807 205.136C1813.75 201.92 1820.04 198.892 1825.92 196.055C1877.96 170.971 1899.2 160.736 1944.37 166.051C1984.59 170.784 2051.15 209.438 2063.5 227.187L2059.17 118H0.742606L1.98073 180.982C19.4672 184.577 46.4722 193.355 73.3071 202.078ZM0 80.2248V0L-2.06828e-05 0.000167847L-1.36495e-05 80.2241L0 80.2248Z" fill="white"/>
</svg>
