<?xml version="1.0" encoding="utf-8"?>
<!-- Generator: Adobe Illustrator 27.0.1, SVG Export Plug-In . SVG Version: 6.00 Build 0)  -->
<svg version="1.1" id="Layer_1" xmlns="http://www.w3.org/2000/svg" xmlns:xlink="http://www.w3.org/1999/xlink" x="0px" y="0px"
	 viewBox="0 0 34 34" style="enable-background:new 0 0 34 34;" xml:space="preserve">
<style type="text/css">
	.st0{fill:#FFFFFF;}
</style>
<path class="st0" d="M7.1,0.6L1.7,9.9c-0.1,0.2-0.2,0.5-0.2,0.7c0,0.2,0.1,0.5,0.3,0.7l17.5,22.2c0.2,0.2,0.4,0.3,0.6,0.4
	c0.2,0.1,0.5,0.1,0.7,0l10.3-3c0.2-0.1,0.4-0.2,0.5-0.3c0.1-0.1,0.3-0.3,0.3-0.5c0.1-0.2,0.1-0.4,0-0.6c0-0.2-0.1-0.4-0.2-0.5
	l-4.7-6c-0.2-0.2-0.4-0.4-0.6-0.4c-0.3-0.1-0.5-0.1-0.8,0l-5.3,1.9l-9.2-11.8L14,8c0.1-0.2,0.2-0.5,0.2-0.7c0-0.3-0.1-0.5-0.3-0.7
	l-4.7-6C9,0.3,8.9,0.2,8.7,0.1C8.5,0,8.3,0,8.1,0C7.9,0,7.7,0.1,7.5,0.2C7.4,0.3,7.2,0.4,7.1,0.6z"/>
</svg>
