<svg width="48" height="59" viewBox="0 0 48 59" fill="none" xmlns="http://www.w3.org/2000/svg">
<circle cx="23.6607" cy="23.3477" r="21.7701" fill="white"/>
<path fill-rule="evenodd" clip-rule="evenodd" d="M20.877 0.128846C10.779 1.30202 2.51921 8.87948 0.502228 18.8202C0.0228207 21.183 -0.0289166 23.5535 0.0105942 41.3793C0.0474024 57.9677 0.0555102 58.4677 0.293605 58.73C0.428483 58.8785 0.658856 59 0.805574 59C0.986397 59 3.30119 56.7799 7.986 52.1131L14.8995 45.2262L16.2256 45.6366C22.3573 47.5347 28.3134 47.1123 33.8965 44.3835C44.4399 39.2305 49.5159 27.1222 45.7987 15.9922C44.2484 11.35 41.1544 7.16597 37.167 4.31918C34.8297 2.65043 31.0215 1.0017 28.2337 0.451485C25.9589 0.00261303 23.0589 -0.124646 20.877 0.128846ZM27.2041 8.11913C30.1027 8.84472 32.3511 10.0841 34.4796 12.1293C37.6117 15.1389 39.2473 18.9783 39.2539 23.3365C39.2579 25.9933 38.8005 27.973 37.6383 30.3281C34.6089 36.4674 27.9712 39.9449 21.2191 38.9303C16.1611 38.1704 11.7219 34.9683 9.47081 30.4564C7.59243 26.6913 7.26657 22.4489 8.55279 18.5025C10.2402 13.3248 14.724 9.26716 20.0613 8.0877C21.7871 7.70644 21.842 7.70169 23.9866 7.75185C25.5106 7.78751 26.1882 7.86487 27.2041 8.11913Z" fill="#7FB539"/>
<path fill-rule="evenodd" clip-rule="evenodd" d="M19.0068 15.0533C18.9158 15.0858 18.7893 15.1541 18.7256 15.2051C18.5831 15.3191 18.4191 15.5562 18.3765 15.7101C18.357 15.7801 18.3445 16.3535 18.3444 17.1771C18.3442 18.4662 18.3472 18.5372 18.4086 18.7015C18.5271 19.0187 18.8631 19.2781 19.2227 19.3301C19.3159 19.3435 19.4343 19.3336 19.5579 19.3018C19.8938 19.2157 20.0933 19.0472 20.2475 18.7193L20.3284 18.5472V17.1861C20.3284 15.6189 20.3288 15.6219 20.0608 15.3282C19.7931 15.035 19.3681 14.9242 19.0068 15.0533ZM28.3903 15.0378C28.185 15.1059 28.0815 15.1713 27.946 15.3185C27.6607 15.6285 27.6494 15.7065 27.6617 17.28L27.6716 18.5472L27.762 18.7431C28.116 19.5108 29.1912 19.5231 29.5645 18.7638L29.6402 18.6098V17.1549V15.6999L29.5685 15.5656C29.3861 15.2235 29.0889 15.0269 28.725 15.0075C28.6035 15.0011 28.4626 15.0138 28.3903 15.0378ZM16.17 17.3784C16.1342 17.3958 16.0815 17.4498 16.0528 17.4984C16.0057 17.5783 16.0006 17.7596 16.0006 19.3577V21.1285H24H31.9994V19.3577C31.9994 17.7617 31.9942 17.5782 31.9473 17.4987C31.9187 17.4502 31.8618 17.3952 31.8209 17.3765C31.7744 17.3554 31.4828 17.3426 31.0449 17.3426H30.3433L30.3426 17.851C30.3418 18.5205 30.3086 18.7375 30.1596 19.0478C30.0174 19.3438 29.8476 19.5449 29.6017 19.7083C28.9249 20.1581 28.0621 20.0745 27.4989 19.5045C27.0949 19.0957 27.0009 18.7988 27.0002 17.9292L26.9998 17.3426H24H21.0002L20.9998 17.9292C20.9993 18.5927 20.9644 18.8034 20.805 19.1075C20.6769 19.3518 20.3507 19.6784 20.1065 19.8068C19.2975 20.232 18.2529 19.9032 17.8582 19.0992C17.6976 18.7721 17.6814 18.6795 17.6647 17.9918L17.649 17.3426L16.942 17.3447C16.5348 17.3459 16.2074 17.3602 16.17 17.3784ZM16.0081 26.306L16.0162 30.8265L16.1029 30.9132L16.1895 31H24H31.8105L31.8971 30.9132L31.9837 30.8265L31.9919 26.306L32 21.7856H24H16L16.0081 26.306ZM24.2594 22.748C24.2925 22.778 24.5274 23.218 24.7812 23.7258L25.2427 24.6492L26.2228 24.7861C26.7618 24.8614 27.2465 24.9428 27.2999 24.9671C27.4503 25.0353 27.5202 25.2114 27.4571 25.3628C27.4328 25.4209 27.1077 25.7628 26.6887 26.1708L25.9623 26.8781L26.1364 27.9021C26.2941 28.8302 26.3064 28.9356 26.2678 29.0281C26.2444 29.0842 26.1925 29.1531 26.1524 29.1812C26.0014 29.2871 25.9083 29.2539 24.9781 28.7629C24.4892 28.5047 24.0755 28.2935 24.0588 28.2935C24.0421 28.2935 23.6289 28.5047 23.1407 28.7629C22.1357 29.2942 22.0702 29.3139 21.9033 29.135C21.8524 29.0805 21.812 29.0015 21.8111 28.9551C21.8102 28.9096 21.884 28.4237 21.9751 27.8754L22.1408 26.8784L21.3827 26.1389C20.6344 25.409 20.6246 25.3977 20.6249 25.2706C20.6253 25.1274 20.7084 24.995 20.8214 24.9577C20.8596 24.9451 21.3338 24.8703 21.8752 24.7916L22.8595 24.6484L23.3314 23.7098C23.7494 22.8783 23.8154 22.7648 23.9094 22.7152C24.0303 22.6514 24.1663 22.6642 24.2594 22.748Z" fill="#7FB539"/>
</svg>
