<svg width="48" height="59" viewBox="0 0 48 59" fill="none" xmlns="http://www.w3.org/2000/svg">
<circle cx="23.6607" cy="23.3477" r="21.7701" fill="white"/>
<path fill-rule="evenodd" clip-rule="evenodd" d="M20.877 0.128846C10.779 1.30202 2.51921 8.87948 0.502228 18.8202C0.0228207 21.183 -0.0289166 23.5535 0.0105942 41.3793C0.0474024 57.9677 0.0555102 58.4677 0.293605 58.73C0.428483 58.8785 0.658856 59 0.805574 59C0.986397 59 3.30119 56.7799 7.986 52.1131L14.8995 45.2262L16.2256 45.6366C22.3573 47.5347 28.3134 47.1123 33.8965 44.3835C44.4399 39.2305 49.5159 27.1222 45.7987 15.9922C44.2484 11.35 41.1544 7.16597 37.167 4.31918C34.8297 2.65043 31.0215 1.0017 28.2337 0.451485C25.9589 0.00261303 23.0589 -0.124646 20.877 0.128846ZM27.2041 8.11913C30.1027 8.84472 32.3511 10.0841 34.4796 12.1293C37.6117 15.1389 39.2473 18.9783 39.2539 23.3365C39.2579 25.9933 38.8005 27.973 37.6383 30.3281C34.6089 36.4674 27.9712 39.9449 21.2191 38.9303C16.1611 38.1704 11.7219 34.9683 9.47081 30.4564C7.59243 26.6913 7.26657 22.4489 8.55279 18.5025C10.2402 13.3248 14.724 9.26716 20.0613 8.0877C21.7871 7.70644 21.842 7.70169 23.9866 7.75185C25.5106 7.78751 26.1882 7.86487 27.2041 8.11913Z" fill="#242424"/>
<path fill-rule="evenodd" clip-rule="evenodd" d="M21.9043 14.0421C21.547 14.1423 21.187 14.4576 21.022 14.8148C20.9374 14.9979 20.9363 15.0292 20.9253 17.6633L20.914 20.3267H17.6969C15.184 20.3267 14.4656 20.3376 14.4151 20.3762C14.3795 20.4035 14.0465 20.8066 13.6752 21.2722C13.1699 21.9058 13 22.1461 13 22.2277C13 22.3093 13.1699 22.5496 13.6752 23.1832C14.0465 23.6488 14.3795 24.052 14.4151 24.0792C14.4656 24.1178 15.1843 24.1287 17.6982 24.1287H20.9167V28.2475V32.3663H20.3805C19.864 32.3663 19.8408 32.3699 19.7472 32.4636C19.6186 32.5922 19.6186 32.7742 19.7472 32.9028L19.8443 33H22.5H25.1557L25.2528 32.9028C25.3814 32.7742 25.3814 32.5922 25.2528 32.4636C25.1592 32.3699 25.136 32.3663 24.6195 32.3663H24.0833V30.7822V29.198H27.3018C29.8157 29.198 30.5344 29.1872 30.5849 29.1485C30.6205 29.1213 30.9535 28.7181 31.3248 28.2525C31.8301 27.619 32 27.3786 32 27.297C32 27.2154 31.8301 26.9751 31.3248 26.3415C30.9535 25.8759 30.6205 25.4728 30.5849 25.4455C30.5344 25.4069 29.8157 25.396 27.3018 25.396H24.0833V22.2277V19.0594H27.3018C29.8157 19.0594 30.5344 19.0485 30.5849 19.0099C30.6205 18.9827 30.9535 18.5794 31.3248 18.1139C31.8301 17.4803 32 17.24 32 17.1584C32 17.0768 31.8301 16.8364 31.3248 16.2029C30.9535 15.7373 30.6205 15.3341 30.5849 15.3069C30.5344 15.2682 29.8166 15.2574 27.3062 15.2574H24.0922L24.0652 15.1089C23.9885 14.6852 23.6892 14.298 23.2975 14.1154C23.0989 14.0228 23.0187 14.01 22.5792 14.0013C22.2689 13.9952 22.0172 14.0104 21.9043 14.0421Z" fill="#242424"/>
</svg>
