<svg id="mark-hotel" width="48" height="59" viewBox="0 0 48 59" fill="none" xmlns="http://www.w3.org/2000/svg">
  <circle cx="23.6607" cy="23.3477" r="21.7701" fill="white"/>
  <path fill-rule="evenodd" clip-rule="evenodd" d="M20.877 0.128846C10.779 1.30202 2.51921 8.87948 0.502228 18.8202C0.0228207 21.183 -0.0289166 23.5535 0.0105942 41.3793C0.0474024 57.9677 0.0555102 58.4677 0.293605 58.73C0.428483 58.8785 0.658856 59 0.805574 59C0.986397 59 3.30119 56.7799 7.986 52.1131L14.8995 45.2262L16.2256 45.6366C22.3573 47.5347 28.3134 47.1123 33.8965 44.3835C44.4399 39.2305 49.5159 27.1222 45.7987 15.9922C44.2484 11.35 41.1544 7.16597 37.167 4.31918C34.8297 2.65043 31.0215 1.0017 28.2337 0.451485C25.9589 0.00261303 23.0589 -0.124646 20.877 0.128846ZM27.2041 8.11913C30.1027 8.84472 32.3511 10.0841 34.4796 12.1293C37.6117 15.1389 39.2473 18.9783 39.2539 23.3365C39.2579 25.9933 38.8005 27.973 37.6383 30.3281C34.6089 36.4674 27.9712 39.9449 21.2191 38.9303C16.1611 38.1704 11.7219 34.9683 9.47081 30.4564C7.59243 26.6913 7.26657 22.4489 8.55279 18.5025C10.2402 13.3248 14.724 9.26716 20.0613 8.0877C21.7871 7.70644 21.842 7.70169 23.9866 7.75185C25.5106 7.78751 26.1882 7.86487 27.2041 8.11913Z" fill="#8CB110"/>
  <path fill-rule="evenodd" clip-rule="evenodd" d="M22.5938 15.6864C20.9863 15.7892 19.4285 16.0433 17.875 16.4562C17.1957 16.6367 17.0704 16.6975 16.9766 16.892L16.9062 17.0377V19.8879C16.9062 21.5012 16.9182 22.7381 16.9337 22.7381C16.9488 22.7381 16.9793 22.7153 17.0014 22.6873C17.0802 22.5882 17.6896 22.1848 17.9754 22.0426C18.135 21.9632 18.3947 21.8505 18.5524 21.7921L18.8392 21.686L18.8493 21.0439L18.8594 20.4017L18.9622 20.1835C19.0797 19.9346 19.2452 19.7673 19.5 19.6402L19.6719 19.5545H21.1875H22.7031L22.8787 19.6405C23.1257 19.7615 23.2952 19.9342 23.4138 20.1857C23.5147 20.3996 23.5157 20.4069 23.5261 20.9495L23.5365 21.4973H24H24.4635L24.4739 20.9504C24.4837 20.4397 24.4898 20.3913 24.5667 20.2199C24.6826 19.9618 24.8478 19.7848 25.0887 19.6609L25.2956 19.5545H26.8118H28.3281L28.5061 19.6416C28.7334 19.753 28.9509 19.9803 29.0569 20.2174C29.1358 20.394 29.1408 20.4361 29.156 21.0498L29.1719 21.6962L29.4375 21.7899C29.9406 21.9673 30.3352 22.1808 30.79 22.5218L31.0323 22.7034L31.0239 19.817C31.0157 16.9595 31.015 16.9297 30.9512 16.8405C30.832 16.6737 30.7369 16.6326 30.0469 16.4501C28.6638 16.0845 27.4052 15.8632 25.9567 15.7312C25.3161 15.6728 23.239 15.6452 22.5938 15.6864ZM19.8303 20.569C19.7904 20.6108 19.7812 20.7056 19.7812 21.079V21.5376L19.8516 21.5179C19.8902 21.5071 20.5231 21.498 21.2578 21.4978L22.5938 21.4973V21.0616C22.5938 20.6809 22.5865 20.619 22.5366 20.5718C22.4853 20.5233 22.3453 20.5177 21.1795 20.5177C20.0393 20.5177 19.8734 20.524 19.8303 20.569ZM25.4553 20.569C25.4156 20.6106 25.4062 20.7037 25.4062 21.0588V21.4973L26.7422 21.4978C27.4769 21.498 28.1097 21.5071 28.1484 21.5179L28.2188 21.5376V21.0817C28.2188 20.6815 28.2118 20.6192 28.1616 20.5718C28.1103 20.5233 27.9703 20.5177 26.8045 20.5177C25.6643 20.5177 25.4984 20.524 25.4553 20.569ZM19.6964 22.5122C18.4191 22.6708 17.2312 23.5011 16.5577 24.7058C16.3261 25.1203 16.1085 25.7717 16.0451 26.2402L16.0242 26.3953H24H31.9758L31.9549 26.2402C31.9203 25.9849 31.7861 25.4848 31.6768 25.2048C31.2246 24.0458 30.2112 23.0676 29.0775 22.6956C28.4275 22.4823 28.7855 22.4972 24.1406 22.4904C21.8203 22.487 19.8204 22.4969 19.6964 22.5122ZM16 28.6679C16 30.0971 16.0016 30.1099 16.1992 30.2572C16.2718 30.3113 16.341 30.33 16.4688 30.33C16.5965 30.33 16.6657 30.3113 16.7383 30.2572C16.8929 30.142 16.9375 30.0055 16.9375 29.6475V29.3341H24H31.0625V29.6475C31.0625 30.0055 31.1071 30.142 31.2617 30.2572C31.398 30.3588 31.6645 30.3588 31.8008 30.2572C31.9984 30.1099 32 30.0971 32 28.6679V27.3749H24H16V28.6679Z" fill="#8CB110"/>
</svg>
