<svg width="48" height="59" viewBox="0 0 48 59" fill="none" xmlns="http://www.w3.org/2000/svg">
<circle cx="23.6607" cy="23.3477" r="21.7701" fill="white"/>
<path fill-rule="evenodd" clip-rule="evenodd" d="M20.877 0.128846C10.779 1.30202 2.51921 8.87948 0.502228 18.8202C0.0228207 21.183 -0.0289166 23.5535 0.0105942 41.3793C0.0474024 57.9677 0.0555102 58.4677 0.293605 58.73C0.428483 58.8785 0.658856 59 0.805574 59C0.986397 59 3.30119 56.7799 7.986 52.1131L14.8995 45.2262L16.2256 45.6366C22.3573 47.5347 28.3134 47.1123 33.8965 44.3835C44.4399 39.2305 49.5159 27.1222 45.7987 15.9922C44.2484 11.35 41.1544 7.16597 37.167 4.31918C34.8297 2.65043 31.0215 1.0017 28.2337 0.451485C25.9589 0.00261303 23.0589 -0.124646 20.877 0.128846ZM27.2041 8.11913C30.1027 8.84472 32.3511 10.0841 34.4796 12.1293C37.6117 15.1389 39.2473 18.9783 39.2539 23.3365C39.2579 25.9933 38.8005 27.973 37.6383 30.3281C34.6089 36.4674 27.9712 39.9449 21.2191 38.9303C16.1611 38.1704 11.7219 34.9683 9.47081 30.4564C7.59243 26.6913 7.26657 22.4489 8.55279 18.5025C10.2402 13.3248 14.724 9.26716 20.0613 8.0877C21.7871 7.70644 21.842 7.70169 23.9866 7.75185C25.5106 7.78751 26.1882 7.86487 27.2041 8.11913Z" fill="#242424"/>
<path fill-rule="evenodd" clip-rule="evenodd" d="M22.5938 15.6863C20.9863 15.7891 19.4285 16.0432 17.875 16.4561C17.1957 16.6366 17.0704 16.6974 16.9766 16.8919L16.9062 17.0375V19.8878C16.9062 21.5011 16.9182 22.738 16.9337 22.738C16.9488 22.738 16.9793 22.7152 17.0014 22.6872C17.0802 22.588 17.6896 22.1847 17.9754 22.0425C18.135 21.9631 18.3947 21.8504 18.5524 21.792L18.8392 21.6859L18.8493 21.0437L18.8594 20.4016L18.9622 20.1834C19.0797 19.9344 19.2452 19.7671 19.5 19.64L19.6719 19.5543H21.1875H22.7031L22.8787 19.6404C23.1257 19.7614 23.2952 19.9341 23.4138 20.1855C23.5147 20.3995 23.5157 20.4068 23.5261 20.9494L23.5365 21.4972H24H24.4635L24.4739 20.9503C24.4837 20.4396 24.4898 20.3911 24.5667 20.2198C24.6826 19.9617 24.8478 19.7846 25.0887 19.6608L25.2956 19.5543H26.8118H28.3281L28.5061 19.6415C28.7334 19.7528 28.9509 19.9802 29.0569 20.2173C29.1358 20.3939 29.1408 20.436 29.156 21.0497L29.1719 21.6961L29.4375 21.7898C29.9406 21.9672 30.3352 22.1807 30.79 22.5217L31.0323 22.7033L31.0239 19.8169C31.0157 16.9594 31.015 16.9296 30.9512 16.8404C30.832 16.6735 30.7369 16.6325 30.0469 16.45C28.6638 16.0843 27.4052 15.8631 25.9567 15.7311C25.3161 15.6727 23.239 15.6451 22.5938 15.6863ZM19.8303 20.5689C19.7904 20.6107 19.7812 20.7055 19.7812 21.0788V21.5375L19.8516 21.5178C19.8902 21.507 20.5231 21.4979 21.2578 21.4977L22.5938 21.4972V21.0614C22.5938 20.6808 22.5865 20.6189 22.5366 20.5716C22.4853 20.5232 22.3452 20.5176 21.1795 20.5176C20.0393 20.5176 19.8734 20.5239 19.8303 20.5689ZM25.4553 20.5689C25.4156 20.6105 25.4062 20.7036 25.4062 21.0587V21.4972L26.7422 21.4977C27.4769 21.4979 28.1097 21.507 28.1484 21.5178L28.2188 21.5375V21.0816C28.2188 20.6814 28.2118 20.6191 28.1616 20.5716C28.1103 20.5232 27.9703 20.5176 26.8045 20.5176C25.6643 20.5176 25.4984 20.5239 25.4553 20.5689ZM19.6964 22.5121C18.4191 22.6707 17.2312 23.5009 16.5577 24.7057C16.3261 25.1202 16.1085 25.7715 16.0451 26.2401L16.0242 26.3952H24H31.9758L31.9549 26.2401C31.9203 25.9847 31.7861 25.4847 31.6768 25.2046C31.2246 24.0457 30.2112 23.0675 29.0775 22.6955C28.4275 22.4822 28.7855 22.497 24.1406 22.4903C21.8203 22.4869 19.8204 22.4967 19.6964 22.5121ZM16 28.6678C16 30.0969 16.0016 30.1098 16.1992 30.2571C16.2718 30.3112 16.341 30.3299 16.4688 30.3299C16.5965 30.3299 16.6657 30.3112 16.7383 30.2571C16.8929 30.1418 16.9375 30.0054 16.9375 29.6474V29.334H24H31.0625V29.6474C31.0625 30.0054 31.1071 30.1418 31.2617 30.2571C31.398 30.3587 31.6645 30.3587 31.8008 30.2571C31.9984 30.1098 32 30.0969 32 28.6678V27.3748H24H16V28.6678Z" fill="#242424"/>
</svg>
