<svg id="mark-eat" width="48" height="59" viewBox="0 0 48 59" fill="none" xmlns="http://www.w3.org/2000/svg">
    <style>
        #mark-eat {
            cursor: pointer;
        }
        #mark-eat:hover path{
            fill: #242424;
        }
    </style>
<circle cx="23.6607" cy="23.3477" r="21.7701" fill="white"/>
<path fill-rule="evenodd" clip-rule="evenodd" d="M20.877 0.128846C10.779 1.30202 2.51921 8.87948 0.502228 18.8202C0.0228207 21.183 -0.0289166 23.5535 0.0105942 41.3793C0.0474024 57.9677 0.0555102 58.4677 0.293605 58.73C0.428483 58.8785 0.658856 59 0.805574 59C0.986397 59 3.30119 56.7799 7.986 52.1131L14.8995 45.2262L16.2256 45.6366C22.3573 47.5347 28.3134 47.1123 33.8965 44.3835C44.4399 39.2305 49.5159 27.1222 45.7987 15.9922C44.2484 11.35 41.1544 7.16597 37.167 4.31918C34.8297 2.65043 31.0215 1.0017 28.2337 0.451485C25.9589 0.00261303 23.0589 -0.124646 20.877 0.128846ZM27.2041 8.11913C30.1027 8.84472 32.3511 10.0841 34.4796 12.1293C37.6117 15.1389 39.2473 18.9783 39.2539 23.3365C39.2579 25.9933 38.8005 27.973 37.6383 30.3281C34.6089 36.4674 27.9712 39.9449 21.2191 38.9303C16.1611 38.1704 11.7219 34.9683 9.47081 30.4564C7.59243 26.6913 7.26657 22.4489 8.55279 18.5025C10.2402 13.3248 14.724 9.26716 20.0613 8.0877C21.7871 7.70644 21.842 7.70169 23.9866 7.75185C25.5106 7.78751 26.1882 7.86487 27.2041 8.11913Z" fill="#8CB110"/>
<path fill-rule="evenodd" clip-rule="evenodd" d="M18.2611 13.056C18.2008 13.0884 18.1182 13.1609 18.0774 13.2172C18.0281 13.2853 17.8422 14.3563 17.5243 16.4048C17.2609 18.1017 17.0308 19.6272 17.013 19.7949C16.9413 20.47 17.171 21.4025 17.5684 22.049C17.9298 22.6371 18.6289 23.2697 19.2264 23.5493C19.4406 23.6495 19.4504 23.6627 19.4317 23.8237C19.421 23.9167 19.2354 26.3885 19.0194 29.3164C18.5783 35.298 18.5826 35.0514 18.9079 35.6881C19.2656 36.3884 19.947 36.8651 20.7501 36.9769C21.7731 37.1194 22.8199 36.5826 23.2654 35.687C23.5854 35.0439 23.5899 35.3024 23.1552 29.4102C22.9411 26.5081 22.7551 24.028 22.7419 23.899L22.7179 23.6645L23.1107 23.4545C24.0443 22.9554 24.7613 22.0424 25.0452 20.991C25.234 20.2916 25.2052 19.952 24.6621 16.4782C24.158 13.2537 24.1352 13.1519 23.8919 13.0447C23.6513 12.9388 23.3492 13.0389 23.2289 13.2643C23.1822 13.3519 23.0891 14.2317 22.935 16.0426C22.8111 17.5001 22.6894 18.7396 22.6646 18.7969C22.6107 18.9219 22.4081 18.9803 22.2335 18.9213C22.143 18.8906 22.0963 18.8319 22.0696 18.7152C22.0491 18.6254 21.9343 17.3973 21.8145 15.9861C21.6947 14.5748 21.5775 13.3717 21.5541 13.3126C21.4776 13.1191 21.3137 13.0173 21.0789 13.0173C20.8948 13.0173 20.84 13.0407 20.72 13.1705C20.6422 13.2547 20.578 13.3497 20.5774 13.3816C20.5768 13.4134 20.4709 14.6373 20.3422 16.1013C20.0867 19.006 20.0974 18.9507 19.7946 18.9507C19.6563 18.9507 19.4625 18.81 19.4625 18.7097C19.4625 18.4203 19.0132 13.4891 18.9747 13.3551C18.8901 13.0611 18.5316 12.9108 18.2611 13.056ZM31.801 13.2528C29.6864 14.2985 28.2834 16.1229 27.8965 18.33C27.8057 18.8482 27.8203 20.5119 27.922 21.2339C28.1452 22.8192 28.6401 24.1638 29.3531 25.1217L29.6348 25.5L29.2582 25.8835C28.941 26.2067 28.8772 26.2985 28.8532 26.4667C28.8376 26.5765 28.6405 28.4604 28.4152 30.6532C27.9762 34.9272 27.9766 34.9174 28.1873 35.4506C28.5993 36.493 29.7143 37.1336 30.8431 36.9764C31.8876 36.8309 32.7906 35.9804 32.9501 34.9918C32.9822 34.7926 32.9994 31.0104 32.9996 24.0734C33 12.4499 33.0199 13.2197 32.7151 13.0673C32.4833 12.9514 32.3593 12.9766 31.801 13.2528Z" fill="#8CB110"/>
</svg>