<?xml version="1.0" encoding="utf-8"?>
<!-- Generator: Adobe Illustrator 27.0.1, SVG Export Plug-In . SVG Version: 6.00 Build 0)  -->
<svg version="1.1" id="Layer_1" xmlns="http://www.w3.org/2000/svg" xmlns:xlink="http://www.w3.org/1999/xlink" x="0px" y="0px"
	 viewBox="0 0 100 100" style="enable-background:new 0 0 100 100;" xml:space="preserve">
<style type="text/css">
	.st0{fill:#FFFFFF;}
</style>
<circle cx="17" cy="17" r="17"/>
<path fill="#ffffff" d="M19.7,18L19.7,18L19.7,18L19.7,18z"/>
<path fill="#ffffff" d="M23.9,8.7H10c-0.7,0-1.2,0.5-1.2,1.2v14.2c0,0.7,0.5,1.2,1.2,1.2h14c0.7,0,1.2-0.5,1.2-1.2V9.9
	C25.2,9.2,24.6,8.7,23.9,8.7z M13.7,22.5h-2.5V15h2.5V22.5z M12.5,14L12.5,14c-0.8,0-1.4-0.6-1.4-1.3c0-0.8,0.6-1.3,1.4-1.3
	c0.8,0,1.3,0.6,1.4,1.3C13.9,13.4,13.3,14,12.5,14z M22.7,22.5h-2.5v-4c0-1-0.3-1.7-1.3-1.7c-0.7,0-1.1,0.5-1.3,0.9
	c-0.1,0.2-0.1,0.4-0.1,0.6v4.2H15c0,0,0-6.8,0-7.5h2.5v1.1c0.3-0.5,0.9-1.3,2.3-1.3c1.6,0,2.9,1.1,2.9,3.4V22.5L22.7,22.5z"/>
</svg>
