<?xml version="1.0" encoding="utf-8"?>
<!-- Generator: Adobe Illustrator 27.0.1, SVG Export Plug-In . SVG Version: 6.00 Build 0)  -->
<svg version="1.1" id="Layer_1" xmlns="http://www.w3.org/2000/svg" xmlns:xlink="http://www.w3.org/1999/xlink" x="0px" y="0px"
	 viewBox="0 0 38 38" style="enable-background:new 0 0 38 38;" xml:space="preserve">
<style type="text/css">
	.st0{opacity:0.25;fill:#8CB110;enable-background:new    ;}
	.st1{fill:#8CB110;}
</style>
<circle class="st0" cx="19" cy="19" r="19"/>
<path class="st1" d="M19.7,18L19.7,18C19.7,18,19.7,18,19.7,18L19.7,18z"/>
<path class="st1" d="M27.3,9.2H10.7c-0.8,0-1.4,0.6-1.4,1.4v16.9c0,0.8,0.6,1.4,1.4,1.4h16.7c0.8,0,1.4-0.6,1.4-1.4V10.6
	C28.8,9.8,28.1,9.2,27.3,9.2z M15.1,25.6h-3v-8.9h3V25.6z M13.7,15.5L13.7,15.5c-1,0-1.7-0.7-1.7-1.5c0-0.9,0.7-1.5,1.7-1.5
	c1,0,1.6,0.7,1.7,1.5C15.3,14.8,14.7,15.5,13.7,15.5z M25.8,25.6h-3v-4.8c0-1.2-0.4-2-1.5-2c-0.8,0-1.3,0.6-1.5,1.1
	c-0.1,0.2-0.1,0.5-0.1,0.7v5h-3c0,0,0-8.1,0-8.9h3V18c0.4-0.6,1.1-1.5,2.7-1.5c1.9,0,3.4,1.3,3.4,4L25.8,25.6L25.8,25.6z"/>

</svg>
