<svg x="0px" y="0px" viewBox="0 0 38 38" style="enable-background:new 0 0 38 38;" xml:space="preserve">
<style type="text/css">
	.st0{opacity:0.25;fill:#8CB110;enable-background:new    ;}
	.st1{fill:#8CB110;}
</style>
<circle class="st0" cx="19" cy="19" r="19"/>
<g>
	<path class="st1" d="M19.6,9.3h3.2c0,0.1,0.1,0.3,0.1,0.4c0.2,2.3,2.1,4.1,4.5,4.1v3C27.2,17,27,17,26.9,17
		c-0.8-0.1-1.5-0.2-2.2-0.4c-0.6-0.2-1.2-0.5-1.8-0.9v0.4c0,1.6,0,3.3,0,4.9c0,0.7,0,1.3-0.1,2c-0.3,2.2-1.7,4.2-3.8,5.1
		c-0.6,0.2-1.2,0.4-1.8,0.5H16c0,0-0.1,0-0.1-0.1c-2.3-0.3-4.2-2-4.8-4.2c-0.1-0.5-0.2-1-0.3-1.5V22c0.1-0.4,0.2-0.9,0.3-1.3
		c0.7-2.4,2.9-4.1,5.3-4.3c0.4-0.1,0.7-0.1,1.1-0.1c0,1.1,0,2,0,3c0,0.2-0.1,0.3-0.3,0.3c-0.6,0.1-1.2,0.3-1.8,0.6
		c-0.9,0.4-1.5,1.3-1.5,2.2c-0.1,1.1,0.5,2.2,1.6,2.7c0.9,0.6,2.1,0.5,3-0.1c0.7-0.5,1.1-1.2,1.2-2c0.1-0.8,0.1-1.6,0.1-2.4
		c0-3.6,0-7.2,0-10.8C19.6,9.6,19.6,9.5,19.6,9.3z"/>
</g>
</svg>
