<?xml version="1.0" standalone="no"?>
<!DOCTYPE svg PUBLIC "-//W3C//DTD SVG 20010904//EN"
 "http://www.w3.org/TR/2001/REC-SVG-20010904/DTD/svg10.dtd">
<svg version="1.0" xmlns="http://www.w3.org/2000/svg"
 width="1408.000000pt" height="1408.000000pt" viewBox="0 0 1408.000000 1408.000000"
 preserveAspectRatio="xMidYMid meet">
<metadata>
Created by potrace 1.14, written by Peter Selinger 2001-2017
</metadata>
<g transform="translate(0.000000,1408.000000) scale(0.100000,-0.100000)"
fill="#000000" stroke="none">
<path d="M5845 14072 c-3 -3 -5 -30 -5 -59 0 -62 -51 -206 -177 -507 -499
-1180 -1391 -2244 -2497 -2977 l-127 -84 3 -1227 c2 -674 6 -1229 10 -1233 9
-9 221 88 463 210 741 376 1461 878 2080 1453 77 71 142 128 144 126 7 -6
-112 -276 -204 -463 -409 -827 -966 -1545 -1670 -2151 -213 -183 -561 -444
-737 -553 l-68 -42 1 -870 c1 -478 5 -1035 8 -1237 l6 -367 100 45 c910 411
1767 990 2528 1709 l152 144 6 -157 c4 -86 7 -1434 8 -2995 l1 -2839 1178 4
1177 3 -4 3010 -4 3009 166 -156 c755 -709 1564 -1262 2449 -1674 l203 -94 3
1027 c2 566 0 1123 -4 1238 l-6 210 -168 112 c-368 247 -662 487 -988 808
-534 523 -948 1086 -1283 1740 -98 191 -215 443 -234 504 -5 16 45 -24 152
-120 648 -587 1317 -1046 2088 -1432 178 -89 409 -197 421 -197 2 0 4 555 4
1233 l0 1232 -168 111 c-900 600 -1639 1397 -2175 2350 -204 362 -477 1001
-477 1116 l0 50 -1175 -3 c-646 -1 -1177 -5 -1180 -7z"/>
</g>
</svg>
