<svg width="1920" height="340" viewBox="0 0 1920 340" fill="none" xmlns="http://www.w3.org/2000/svg">
<path d="M1810.44 249.627C1847.49 242.952 1969.01 197.974 1994.34 191.627L1928.11 82.7776L1924.69 2.62684L-127.939 90.3684L-127.228 317.733C-115.648 299.472 -138.648 263.074 -98.6644 256.627C-48.6844 248.569 -65.8151 247.76 50.3357 278.627C107.254 293.753 217.625 324.536 275.897 266.944C334.346 209.175 380.339 213.941 419.839 213.941C453.711 213.941 505.802 228.842 555.839 213.941C617.339 195.627 660.551 190.399 737.839 213.941C815.126 237.483 877.839 252.127 953.839 236.42C1027.44 221.209 1057.84 165.627 1235.84 213.941C1297.84 230.77 1376.57 239.634 1405.57 236.42C1457.84 236.42 1520.84 196.626 1619.2 234.009C1710.3 268.633 1743.84 261.627 1810.44 249.627Z" fill="#EBEDE4"/>
<path d="M222 258.397L222.043 238.722C231.285 232.671 238.507 223.748 242.591 213.257C236.702 219.134 229.781 224.009 222.129 227.491L222.172 207.816C232.145 201.287 239.797 191.449 243.623 179.827V179L261.334 179.044H261.635V179.871C265.418 191.493 273.07 201.33 283 207.903L282.957 227.578C275.219 224.052 268.255 219.09 262.323 213.083C266.364 223.704 273.586 232.671 282.871 238.809L282.785 258.484C274.746 254.784 267.524 249.604 261.463 243.249L261.42 291L243.451 290.956L243.494 243.075C237.347 249.473 230.082 254.697 222 258.397Z" fill="#F6F6F6"/>
<path d="M183 287.825L183.023 277.461C188.023 274.273 191.93 269.572 194.14 264.046C190.953 267.142 187.209 269.71 183.07 271.544L183.093 261.18C188.488 257.74 192.628 252.558 194.698 246.436V246L204.279 246.023H204.442V246.459C206.488 252.581 210.628 257.763 216 261.226L215.977 271.59C211.791 269.733 208.023 267.119 204.814 263.955C207 269.55 210.907 274.273 215.93 277.506L215.884 287.871C211.535 285.922 207.628 283.193 204.349 279.845L204.326 305L194.605 304.977L194.628 279.754C191.302 283.124 187.372 285.876 183 287.825Z" fill="#F6F6F6"/>
<path d="M780 217.065L780.016 209.862C783.501 207.647 786.224 204.381 787.764 200.541C785.543 202.692 782.934 204.476 780.049 205.751L780.065 198.549C783.825 196.159 786.71 192.557 788.153 188.303V188L794.831 188.016H794.944V188.319C796.371 192.573 799.256 196.175 803 198.581L802.984 205.783C800.066 204.492 797.44 202.676 795.204 200.477C796.727 204.365 799.45 207.647 802.951 209.894L802.919 217.097C799.888 215.742 797.165 213.846 794.879 211.52L794.863 229L788.088 228.984L788.104 211.456C785.786 213.798 783.047 215.71 780 217.065Z" fill="#F6F6F6"/>
</svg>
