<svg width="26" height="30" viewBox="0 0 26 30" fill="none" xmlns="http://www.w3.org/2000/svg">
<g clip-path="url(#clip0_203_5151)">
<path d="M2.36786 0C1.06786 0 0 1.07812 0 2.39062V27.6094C0 28.9219 1.06786 30 2.36786 30H23.6321C24.9321 30 26 28.9219 26 27.6094V9.51562L17.225 0H2.36786Z" fill="#8CB110"/>
<path d="M26.0037 9.5625V10.0312H20.0609C20.0609 10.0312 17.1359 9.42188 17.2287 6.89062C17.2287 6.89062 17.3216 9.5625 20.0144 9.5625H26.0037Z" fill="#6C880D"/>
<path opacity="0.5" d="M17.2266 0V6.84375C17.2266 7.64062 17.7373 9.5625 20.0587 9.5625H26.0016L17.2266 0Z" fill="white"/>
<path d="M6.69837 23.2H4.84324V25.5917C4.84324 25.825 4.67459 26 4.39351 26C4.16865 26 4 25.825 4 25.5917V19.6417C4 19.2917 4.28108 19 4.61838 19H6.69837C8.04755 19 8.83457 19.9917 8.83457 21.1C8.83457 22.2667 8.04755 23.2 6.69837 23.2ZM6.64215 19.7583H4.84324V22.4417H6.64215C7.42917 22.4417 7.99133 21.9167 7.99133 21.1C7.99133 20.2833 7.42917 19.7583 6.64215 19.7583ZM12.4886 26H10.8021C10.4648 26 10.1838 25.7083 10.1838 25.3583V19.6417C10.1838 19.2917 10.4648 19 10.8021 19H12.4886C14.5686 19 15.974 20.5167 15.974 22.5C15.974 24.4833 14.6248 26 12.4886 26ZM12.4886 19.7583H11.027V25.1833H12.4886C14.1189 25.1833 15.0745 23.9583 15.0745 22.4417C15.1308 20.9833 14.1751 19.7583 12.4886 19.7583ZM21.6518 19.7583H18.3913V22.0333H21.5956C21.8205 22.0333 21.9329 22.2083 21.9329 22.4417C21.9329 22.675 21.7642 22.7917 21.5956 22.7917H18.3913V25.5917C18.3913 25.825 18.2226 26 17.9416 26C17.7167 26 17.548 25.825 17.548 25.5917V19.6417C17.548 19.2917 17.8291 19 18.1664 19H21.6518C21.8767 19 21.9891 19.175 21.9891 19.4083C22.0453 19.5833 21.8767 19.7583 21.6518 19.7583Z" fill="white"/>
</g>
<defs>
<clipPath id="clip0_203_5151">
<rect width="26" height="30" fill="white"/>
</clipPath>
</defs>
</svg>
