<?xml version="1.0" encoding="utf-8"?>
<!-- Generator: Adobe Illustrator 27.0.1, SVG Export Plug-In . SVG Version: 6.00 Build 0)  -->
<svg version="1.1" id="Layer_1" xmlns="http://www.w3.org/2000/svg" xmlns:xlink="http://www.w3.org/1999/xlink" x="0px" y="0px"
	 viewBox="0 0 86 99" style="enable-background:new 0 0 86 99;" xml:space="preserve">
<style type="text/css">
	.st0{fill:#FFFFFF;}
</style>
<path class="st0" d="M0.4,97.7L0,48.3l4-0.1c5.7-0.1,10.3,0.9,13.9,3s6.2,5,7.8,8.7c1.4,3.1,1.9,6.5,1.7,10.2
	c-0.1,3.4-0.9,6.8-2.2,10.3c-2,5-4.9,9.1-8.7,12.4s-7.9,4.9-12.3,4.9L0.4,97.7L0.4,97.7z M8.1,56.6l0.3,32.1
	c1.9-0.9,3.7-2.3,5.3-4.3s2.9-4.3,4-6.9c1-2.5,1.5-5.1,1.7-7.6c0.1-2.5-0.3-4.7-1.1-6.6C16.7,59.5,13.3,57.3,8.1,56.6L8.1,56.6z"/>
<path class="st0" d="M31.2,48.7l8.1,0.3l-2.2,49L29,97.6L31.2,48.7z"/>
<path class="st0" d="M42.1,47.6l8.1,0.1l-0.4,43l13.8,0.2V99l-22-0.2L42.1,47.6L42.1,47.6z"/>
<path class="st0" d="M85.5,83.1l-0.2-8.6c-4.1-2.5-7.4-6.4-9.3-10.9c2.6,2.5,5.7,4.6,9.1,6L85,61c-4.4-2.7-7.9-7-9.7-12v-0.4
	l-7.8,0.2h-0.1v0.4c-1.5,5.1-4.8,9.5-9.1,12.4l0.2,8.6c3.4-1.6,6.4-3.8,8.9-6.5c-1.7,4.7-4.7,8.7-8.8,11.4l0.2,8.6
	c3.5-1.7,6.6-4,9.2-6.9l0.5,20.8l7.9-0.2L76,76.6C78.7,79.4,81.9,81.6,85.5,83.1L85.5,83.1z"/>
<path d="M69.2,42.5c10.5-0.1,10.9-19.7-1.3-19.5C57.7,23.1,57.7,42.6,69.2,42.5z M67.2,37.3c-3.6-0.6-3.6-8.7,0.8-8.7
	C72.3,28.6,71,37.9,67.2,37.3z"/>
<path d="M31.9,25.2c-2.2,1.5-3.9,3.3-5.7,5c-0.1-6.4-0.5-10-0.9-12.1c-0.2-1.5-1.5-2.6-3-2.6s-2.9,1.2-3,2.7c-0.3,2.1-0.5,3.4-1,4.9
	c-4.4-2.2-9.9-2.7-12.9,1.9c-2.6,4-3.5,10.5-1.5,14.9c1.7,3.7,5.7,3.8,8.4,1.5c3.7-3,6.1-8.4,8-12.6c0,0,0.4,5.2,0.3,7
	c-8.5,8.9-11.1,13.3-9.8,18.7c0,0,0.2,0.6,0.2,0.7c0.8,2.3,2.9,4,5.5,4c2.1,0,3.9-1.2,5-2.9c0.2-0.3,0.5-0.8,0.9-1.5
	c0.3-0.5,1.1-2.4,1.1-2.4c0.4-1,0.7-1.9,0.9-2.7c1.3-4.4,1.8-9.2,1.9-13.8c0.7-0.7,1.5-1.5,2.4-2.3c0,5,2,10.1,8.5,9.8
	c8.2-0.4,10-14.8,4.4-19.1C39.3,22.7,36.2,22.2,31.9,25.2L31.9,25.2z M9.8,36.9c-2,0-1-5.3,0.1-7.4c1.3-2.8,3.9-3.8,6.6-2.5
	C15.6,28.8,12.5,36.9,9.8,36.9z M20.3,41.7c-0.1,1.2-0.1,2.4-0.4,3.5c-0.8,3.8-2.4,6.7-4,7.5C14.8,50,16.6,46.6,20.3,41.7L20.3,41.7
	z M34.8,37.8c-3.8-0.4-2.8-8.6,0.4-9.4C40.5,27.3,40.1,38.4,34.8,37.8z"/>
<path d="M74.1,53.4c-3.3-2.5-3.3-5.9-4.5-7.7c-0.5-0.8-1.2-1.1-1.9-1.1c0,0,0,0-0.1,0c-1.2,0-2.2,1-2.2,2.2c0,0.9,0.4,1.9,1.3,4.1
	c-5.5-4.6-8.6-10.5-9.1-18.8C57.4,27.2,58.2,22,59,17.8c0-0.1,0.1-0.2,0.1-0.3c5.9,1.2,10.7,0.1,12.4-0.2c2.8-0.5,2.9-4.8,0-4.5
	C70.2,12.9,69,13,67.8,13c-2.4-0.1-4.9-0.5-7.3-1.1c0.7-2.3,2.2-6,3.1-8.1c0.2-0.4,0.3-0.8,0.3-1.2c0-1.5-1.2-2.8-2.7-2.8
	c-1,0-1.8,0.5-2.3,1.3c-1.3,2.1-2.8,4.6-4.2,8.7c-4-1.6-6-2.8-6-2.8c-2.4-1-4.7,1.8-2.9,3.8c0.7,0.8,4,3.4,7.3,4.8
	c-1,5.2-1.9,11.7-0.8,19.3c1.5,10.2,7.3,15.9,11.1,19.6c0.2,0.2,0.3,0.4,0.5,0.5c-1-0.1-1.9-0.2-2.6-0.5h-0.1h-0.1
	c-0.1,0-0.1-0.1-0.2-0.1c-0.2,0-0.4-0.1-0.6-0.1c-1.2,0-2.2,1-2.2,2.2c0,1,0.7,1.8,1.6,2.1l0,0c4.3,1.5,10.2,1,13.9-1.7
	C75.6,55.6,75.8,54.6,74.1,53.4L74.1,53.4z"/>
</svg>
