<svg xmlns="http://www.w3.org/2000/svg">

<!--items-->

<!--  arrow-nav-->
  <symbol id="arrow-nav-prev" viewBox="0 0 32 29">
    <path d="M13.5 27.9675H13.3964L13.3232 27.8942L0.823223 15.3942L0.75 15.321V15.2175V13.45V13.3464L0.823223 13.2732L13.3232 0.773174L13.5 0.596398L13.6768 0.773174L15.4443 2.54067L15.621 2.71743L15.4443 2.89421L5.50595 12.835H31H31.25V13.085V15.585V15.835H31H5.50376L15.4467 25.7731L15.6236 25.9499L15.4468 26.1267L13.6793 27.8942L13.6061 27.9675H13.5025H13.5Z" stroke-width="0.5"/>
  </symbol>

  <symbol id="arrow-nav-next" width="32" height="29" viewBox="0 0 32 29">
    <path d="M18.5 27.9675H18.6036L18.6768 27.8942L31.1768 15.3942L31.25 15.321V15.2175V13.45V13.3464L31.1768 13.2732L18.6768 0.773174L18.5 0.596398L18.3232 0.773175L16.5557 2.54067L16.379 2.71743L16.5557 2.89421L26.494 12.835H1H0.75V13.085V15.585V15.835H1H26.4962L16.5533 25.7731L16.3764 25.9499L16.5532 26.1267L18.3207 27.8942L18.3939 27.9675H18.4975H18.5Z" stroke-width="0.5"/>
  </symbol>

  <symbol id="arrow-nav-small" viewBox="0 0 18 16" fill="#8CB110" stroke="#8CB110">
    <path fill-rule="evenodd" clip-rule="evenodd" d="M10.5234 15.7221L17.3984 8.84712V7.875L10.5234 1L9.55131 1.97213L15.2521 7.67425H0.898438V9.04925H15.2534L9.54994 14.75L10.5221 15.7221H10.5234Z" stroke-width="0.5"/>
  </symbol>

  <!--icon-date-->
  <symbol id="icon-date" viewBox="0 0 20 21">
    <path fill-rule="evenodd" clip-rule="evenodd" d="M3.7585 0.613511C3.64475 0.654186 3.48656 0.739526 3.40696 0.803237C3.22885 0.945756 3.0239 1.24217 2.97059 1.43444C2.94625 1.52205 2.93059 2.23871 2.93047 3.2683C2.93024 4.87957 2.93399 4.96843 3.01074 5.1738C3.15889 5.57031 3.57882 5.89453 4.02832 5.95946C4.14487 5.97627 4.29283 5.96384 4.44735 5.92418C4.8672 5.81647 5.11659 5.60582 5.30935 5.19598L5.41051 4.98087V3.27956C5.41051 1.32051 5.41106 1.32427 5.07601 0.957176C4.74143 0.590632 4.21018 0.452063 3.7585 0.613511ZM15.4879 0.594152C15.2313 0.679295 15.1019 0.761036 14.9325 0.945012C14.5759 1.33244 14.5618 1.43002 14.5771 3.39689L14.5895 4.98087L14.7024 5.22578C15.145 6.18536 16.4891 6.20077 16.9556 5.25163L17.0502 5.05909V3.24045V1.42181L16.9607 1.25383C16.7327 0.826273 16.3612 0.580541 15.9062 0.556293C15.7544 0.548197 15.5783 0.564154 15.4879 0.594152ZM0.212483 3.5199C0.167799 3.5416 0.101906 3.60911 0.0660105 3.66992C0.00714788 3.76973 0.000781189 3.99642 0.000781189 5.99399V8.20749H10H19.9992V5.99399C19.9992 3.99904 19.9928 3.76962 19.9342 3.67028C19.8984 3.60962 19.8273 3.5409 19.7761 3.51755C19.718 3.49107 19.3534 3.47511 18.8061 3.47511H17.9291L17.9283 4.11066C17.9273 4.94755 17.8858 5.21878 17.6995 5.60664C17.5218 5.97666 17.3095 6.22799 17.0021 6.4323C16.1562 6.99452 15.0776 6.88997 14.3736 6.1775C13.8686 5.66644 13.7512 5.2954 13.7503 4.20844L13.7497 3.47511H10H6.25029L6.24971 4.20844C6.24908 5.0377 6.20553 5.30107 6.00625 5.68122C5.84614 5.98664 5.43832 6.39491 5.13308 6.55534C4.12183 7.08686 2.81607 6.67592 2.32271 5.67086C2.12198 5.262 2.10175 5.14619 2.08093 4.28666L2.06124 3.47511L1.17749 3.47777C0.668541 3.4793 0.259277 3.49713 0.212483 3.5199ZM0.0101555 14.6794L0.0203109 20.33L0.128623 20.4384L0.236896 20.5469H10H19.7631L19.8714 20.4384L19.9797 20.33L19.9898 14.6794L20 9.02881H10H0L0.0101555 14.6794ZM10.3242 10.2319C10.3657 10.2693 10.6592 10.8193 10.9765 11.4541L11.5534 12.6084L12.7785 12.7795C13.4523 12.8736 14.0582 12.9754 14.1249 13.0057C14.3129 13.091 14.4003 13.3111 14.3213 13.5004C14.291 13.573 13.8847 14.0004 13.3609 14.5104L12.4529 15.3945L12.6705 16.6745C12.8676 17.8347 12.883 17.9664 12.8347 18.082C12.8054 18.1522 12.7406 18.2383 12.6905 18.2733C12.5017 18.4058 12.3854 18.3643 11.2227 17.7505C10.6115 17.4278 10.0944 17.1638 10.0735 17.1638C10.0526 17.1638 9.53617 17.4278 8.92586 17.7505C7.66963 18.4146 7.58777 18.4392 7.37915 18.2157C7.31556 18.1475 7.26498 18.0488 7.26385 17.9908C7.26279 17.9339 7.35505 17.3265 7.46891 16.6411L7.67596 15.3949L6.72834 14.4705C5.79302 13.5581 5.78072 13.544 5.78115 13.3851C5.78162 13.2061 5.88552 13.0407 6.02672 12.994C6.07449 12.9782 6.66725 12.8848 7.34396 12.7864L8.57433 12.6074L9.16421 11.4341C9.68674 10.3947 9.7692 10.2528 9.88681 10.1908C10.0379 10.1112 10.2079 10.1271 10.3242 10.2319Z"/>
  </symbol>

<!-- header -->

  <!--  logo-->
  <symbol id="header-logo" viewBox="0 0 86 99">
      <path d="M0.437343 97.7087L0 48.3482L4.00169 48.2748C9.67257 48.1794 14.3157 49.1779 17.9238 51.2777C21.5318 53.3775 24.1413 56.285 25.7376 59.9927C27.0934 63.069 27.6765 66.483 27.4797 70.2422C27.3339 73.6122 26.605 77.0262 25.3003 80.499C23.3104 85.4769 20.4312 89.6178 16.6482 92.9144C12.8652 96.2109 8.76872 97.8335 4.35885 97.7821L0.430054 97.7087H0.437343ZM8.14187 56.6227L8.43343 88.7C10.3723 87.819 12.1508 86.3799 13.7763 84.3756C15.4018 82.3712 16.7211 80.0805 17.7415 77.4888C18.711 74.9557 19.265 72.4154 19.418 69.8751C19.5128 67.3861 19.1483 65.1908 18.3247 63.2819C16.6773 59.5228 13.2806 57.2982 8.14916 56.6153L8.14187 56.6227Z" fill="white"/>
      <path d="M31.2133 48.6924L39.2822 48.9861L37.1028 97.9794L28.9609 97.6123L31.2133 48.6924Z" fill="white"/>
      <path d="M42.1165 47.5918L50.1855 47.6652L49.821 90.6528L63.6338 90.8731V99.0007L41.6719 98.7804L42.1092 47.5918H42.1165Z" fill="white"/>
      <path d="M85.5371 83.0893L85.3257 74.5065C81.2147 71.9588 77.9492 68.1556 76.0613 63.6036C78.7073 66.1146 81.7832 68.163 85.1799 69.602L84.9685 61.0192C80.5295 58.2733 77.0818 54.0663 75.2814 49.037V48.6846L67.5186 48.8755H67.3947V49.2279C65.8567 54.3379 62.613 58.7138 58.3125 61.6726L58.5239 70.2555C61.8768 68.6329 64.8799 66.4082 67.4165 63.7284C65.7619 68.3979 62.6714 72.392 58.6624 75.1526L58.8738 83.7354C62.3652 82.0468 65.4776 79.7047 68.0725 76.878L68.5755 97.7073L76.4622 97.5164L75.952 76.6357C78.7 79.3522 81.9363 81.5549 85.5298 83.082L85.5371 83.0893Z" fill="white"/>
      <path d="M69.1502 42.4593C79.6027 42.3492 80.0547 22.7753 67.8382 22.9662C57.7137 23.1278 57.6627 42.5841 69.1502 42.4593ZM67.2332 37.2538C63.6762 36.6371 63.6616 28.5609 67.9913 28.5609C72.321 28.5609 70.9871 37.8999 67.2332 37.2538Z" />
      <path d="M31.8611 25.191C29.6889 26.7035 27.9614 28.4436 26.1537 30.2057C26.0152 23.8181 25.6289 20.1764 25.2863 18.106C25.0385 16.6229 23.7921 15.4775 22.2468 15.4775C20.7015 15.4775 19.3968 16.6743 19.2 18.2088C18.9303 20.3086 18.6825 21.6302 18.1576 23.1426C13.7769 20.9033 8.2737 20.4481 5.23417 25.0295C2.61011 28.9795 1.75729 35.5213 3.70347 39.9045C5.36537 43.6416 9.37435 43.6783 12.1515 41.4243C15.8106 38.4508 18.216 33.0323 20.1403 28.8327C20.1403 28.8327 20.5193 34.0602 20.3954 35.8443C11.9182 44.7062 9.25772 49.0967 10.5479 54.5371C10.5479 54.5665 10.7228 55.1465 10.7593 55.242C11.5319 57.5694 13.6895 59.2507 16.2552 59.2507C18.3909 59.2507 20.1476 58.0246 21.2482 56.358C21.4669 56.0202 21.773 55.5944 22.1593 54.8896C22.4655 54.3463 23.2746 52.5328 23.3037 52.474C23.7046 51.5122 24.018 50.5798 24.2513 49.7868C25.5342 45.3669 26.0517 40.6093 26.161 35.9618C26.9045 35.2423 27.699 34.4787 28.5591 33.6344C28.5154 38.627 30.5782 43.759 37.0581 43.4507C45.2875 43.0542 47.1025 28.6491 41.4826 24.3981C39.2886 22.7388 36.1908 22.2028 31.8683 25.2057L31.8611 25.191ZM9.75338 36.8942C7.70515 36.8942 8.78393 31.63 9.82627 29.4788C11.1602 26.7255 13.6895 25.7123 16.4593 26.9752C15.5773 28.7593 12.5232 36.8942 9.75338 36.8942ZM20.3006 41.74C20.2204 42.9367 20.1621 44.1408 19.9216 45.2642C19.0906 49.0306 17.4725 51.9748 15.9199 52.7457C14.7537 50.0291 16.5905 46.5784 20.3079 41.74H20.3006ZM34.8423 37.8414C31.0593 37.4449 32.0724 29.2071 35.2723 28.4656C40.4694 27.2542 40.1487 38.3994 34.8423 37.8414Z"/>
      <path d="M74.0663 53.3545C70.7935 50.8656 70.7206 47.4956 69.5981 45.6895C69.1025 44.8892 68.4173 44.5735 67.7467 44.5882C67.7248 44.5882 67.703 44.5882 67.6811 44.5882C66.4711 44.5882 65.458 45.572 65.4944 46.7908C65.5236 47.7232 65.8661 48.6997 66.821 50.917C61.3688 46.2842 58.2272 40.4105 57.6951 32.0847C57.3817 27.2316 58.1981 21.9967 59.029 17.8485C59.0655 17.7604 59.0946 17.6649 59.1311 17.5695C65.0716 18.7956 69.8168 17.7163 71.5006 17.4153C74.2996 16.9234 74.3579 12.6136 71.5006 12.922C70.225 13.0615 68.9931 13.1276 67.7759 13.1349C65.334 13.0688 62.8339 12.6356 60.4722 12.0189C61.1647 9.72819 62.71 5.98376 63.5774 3.95736C63.7377 3.58291 63.8617 3.19378 63.8617 2.7606C63.8617 1.23346 62.6371 0 61.121 0C60.1297 0 59.2768 0.535968 58.7885 1.32157C57.5202 3.38468 55.9603 5.89565 54.5462 10.0512C50.5956 8.48005 48.4963 7.26861 48.4963 7.26861C46.2513 5.9911 44.0063 8.79575 45.7994 10.7928C46.4773 11.549 49.7646 14.2289 53.0666 15.5945C52.0169 20.7853 51.1714 27.2463 52.3085 34.9407C53.8246 45.1462 59.5757 50.8729 63.3806 54.5219C63.5336 54.7055 63.694 54.8817 63.8835 55.0065C62.8995 54.9404 61.9957 54.7716 61.2959 54.4705C61.2522 54.4485 61.2303 54.4485 61.1866 54.4338C61.1428 54.4191 61.0991 54.4045 61.0627 54.3898C60.9971 54.3677 60.9169 54.3384 60.8731 54.331C60.6982 54.287 60.5087 54.2503 60.3192 54.2503C59.0946 54.2503 58.1033 55.2488 58.1033 56.4823C58.1033 57.4881 58.7666 58.3251 59.6704 58.6041C59.685 58.6041 59.6923 58.6188 59.6996 58.6261C64.0366 60.1753 69.8532 59.5806 73.6363 56.9668C75.648 55.5792 75.7792 54.6467 74.0736 53.3472L74.0663 53.3545Z"/>
  </symbol>>

  <!--  phone-->
  <symbol id="header-phone" viewBox="0 0 17 20">
      <path d="M3.33807 0.98078L0.3727 6.10906C0.304077 6.22793 0.272608 6.36463 0.282344 6.50154C0.292079 6.63845 0.342575 6.76932 0.427328 6.87729L10.0459 19.1185C10.1308 19.2263 10.246 19.3064 10.3767 19.3482C10.5074 19.3901 10.6477 19.3918 10.7794 19.3533L16.4636 17.6851C16.5714 17.6535 16.6698 17.596 16.7502 17.5175C16.8307 17.4391 16.8907 17.3422 16.9249 17.2352C16.9592 17.1282 16.9668 17.0144 16.9469 16.9039C16.9271 16.7933 16.8804 16.6893 16.8111 16.6009L14.2038 13.2843C14.1146 13.1711 13.992 13.0887 13.8533 13.049C13.7147 13.0092 13.5671 13.0141 13.4313 13.0629L10.4879 14.1181L5.39167 7.63075L7.11187 5.02033C7.19137 4.89999 7.231 4.75771 7.22518 4.61361C7.21935 4.46951 7.16836 4.33089 7.07941 4.21737L4.47233 0.899439C4.40282 0.811443 4.31284 0.741786 4.21024 0.69654C4.10763 0.651295 3.99552 0.631834 3.88367 0.639855C3.77182 0.647876 3.66363 0.683136 3.56853 0.742559C3.47343 0.801982 3.39431 0.883766 3.33807 0.98078Z" />
  </symbol>>


<!--share-->

  <!--facebook-->
  <symbol id="share-instagram" viewBox="0 0 38 38" fill="none">
    <circle opacity="0.25" cx="19" cy="19.0002" r="19" fill="#8CB110"/>
    <path d="M17.5899 27.6859H20.5722V19.7602H23.0659L23.4425 16.6767H20.5722V14.7007C20.5722 13.8105 20.8063 13.2025 22.0074 13.2025H23.5443V10.4339C23.2797 10.4013 22.3738 10.3145 21.3152 10.3145C19.0963 10.3145 17.5899 11.7585 17.5899 14.3967V16.6767H15.0859V19.7602H17.5899V27.6859Z" fill="#8CB110"/>
  </symbol>

  <!--instagram in button-->
  <symbol id="instagram-button" viewBox="0 0 17 19" fill="none">
    <path d="M16.3029 5.75362C16.2941 5.09211 16.1703 4.43717 15.937 3.81811C15.7346 3.29594 15.4256 2.82171 15.0296 2.42573C14.6337 2.02975 14.1594 1.72072 13.6372 1.51839C13.0261 1.28899 12.3805 1.16495 11.7279 1.15155C10.8877 1.114 10.6213 1.10352 8.48842 1.10352C6.35553 1.10352 6.08214 1.10352 5.24803 1.15155C4.59572 1.16505 3.95042 1.28909 3.3396 1.51839C2.81734 1.72058 2.34304 2.02956 1.94704 2.42556C1.55104 2.82156 1.24206 3.29586 1.03988 3.81811C0.810018 4.42875 0.686247 5.07419 0.673912 5.72654C0.636354 6.56765 0.625 6.83404 0.625 8.96694C0.625 11.0998 0.625 11.3723 0.673912 12.2073C0.687013 12.8607 0.810165 13.5052 1.03988 14.1175C1.2424 14.6396 1.55161 15.1137 1.94774 15.5096C2.34387 15.9054 2.81822 16.2142 3.34047 16.4164C3.94963 16.655 4.59503 16.7879 5.2489 16.8094C6.09001 16.847 6.3564 16.8583 8.4893 16.8583C10.6222 16.8583 10.8956 16.8583 11.7297 16.8094C12.3823 16.7965 13.0279 16.6728 13.639 16.4434C14.161 16.2409 14.6351 15.9318 15.0311 15.5358C15.427 15.1399 15.7362 14.6658 15.9387 14.1437C16.1684 13.5323 16.2916 12.8877 16.3047 12.2335C16.3422 11.3933 16.3536 11.1269 16.3536 8.99314C16.3518 6.86024 16.3518 6.58948 16.3029 5.75362ZM8.48318 13.0004C6.25246 13.0004 4.44535 11.1933 4.44535 8.96257C4.44535 6.73185 6.25246 4.92474 8.48318 4.92474C9.55408 4.92474 10.5811 5.35015 11.3384 6.10739C12.0956 6.86463 12.521 7.89167 12.521 8.96257C12.521 10.0335 12.0956 11.0605 11.3384 11.8177C10.5811 12.575 9.55408 13.0004 8.48318 13.0004ZM12.6817 5.71693C12.558 5.71705 12.4356 5.69277 12.3213 5.6455C12.207 5.59822 12.1031 5.52887 12.0157 5.44142C11.9282 5.35396 11.8589 5.25012 11.8116 5.13584C11.7643 5.02155 11.7401 4.89906 11.7402 4.77538C11.7402 4.6518 11.7645 4.52942 11.8118 4.41524C11.8591 4.30105 11.9284 4.19731 12.0158 4.10992C12.1032 4.02253 12.207 3.9532 12.3211 3.90591C12.4353 3.85861 12.5577 3.83427 12.6813 3.83427C12.8049 3.83427 12.9273 3.85861 13.0414 3.90591C13.1556 3.9532 13.2594 4.02253 13.3468 4.10992C13.4341 4.19731 13.5035 4.30105 13.5508 4.41524C13.5981 4.52942 13.6224 4.6518 13.6224 4.77538C13.6224 5.29594 13.2014 5.71693 12.6817 5.71693Z" fill="white"/>
    <path d="M8.48226 11.5856C9.93084 11.5856 11.1052 10.4113 11.1052 8.96273C11.1052 7.51415 9.93084 6.33984 8.48226 6.33984C7.03368 6.33984 5.85938 7.51415 5.85938 8.96273C5.85938 10.4113 7.03368 11.5856 8.48226 11.5856Z" fill="white"/>
  </symbol>

  <!--vk-->
  <symbol id="share-vk" viewBox="0 0 38 38" fill="none">
    <circle opacity="0.25" cx="19" cy="19" r="19" fill="#8CB110"/>
    <g clip-path="url(#clip0_203_5684)">
      <path d="M20.7062 26.3081C13.2159 26.3081 8.94364 21.3705 8.76562 13.1543H12.5176C12.6408 19.1848 15.4068 21.7392 17.5978 22.2659V13.1543H21.1308V18.3553C23.2944 18.1314 25.5672 15.7614 26.334 13.1543H29.867C29.2782 16.367 26.8133 18.7371 25.0606 19.7115C26.8133 20.5015 29.6206 22.5687 30.6887 26.3081H26.7997C25.9644 23.8064 23.8832 21.8709 21.1308 21.6075V26.3081H20.7062Z" fill="#8CB110"/>
    </g>
    <defs>
      <clipPath id="clip0_203_5684">
        <rect width="23.3846" height="23.3846" fill="white" transform="translate(7.30469 7.30835)"/>
      </clipPath>
    </defs>
  </symbol>


<!--footer-->

  <!--pdf-->
  <symbol id="footer-pdf" viewBox="0 0 26 30" fill="none">
    <g clip-path="url(#clip0_203_5151)">
      <path d="M2.36786 0C1.06786 0 0 1.07812 0 2.39062V27.6094C0 28.9219 1.06786 30 2.36786 30H23.6321C24.9321 30 26 28.9219 26 27.6094V9.51562L17.225 0H2.36786Z" fill="#8CB110"/>
      <path d="M26.0037 9.5625V10.0312H20.0609C20.0609 10.0312 17.1359 9.42188 17.2287 6.89062C17.2287 6.89062 17.3216 9.5625 20.0144 9.5625H26.0037Z" fill="#6C880D"/>
      <path opacity="0.5" d="M17.2266 0V6.84375C17.2266 7.64062 17.7373 9.5625 20.0587 9.5625H26.0016L17.2266 0Z" fill="white"/>
      <path d="M6.69837 23.2H4.84324V25.5917C4.84324 25.825 4.67459 26 4.39351 26C4.16865 26 4 25.825 4 25.5917V19.6417C4 19.2917 4.28108 19 4.61838 19H6.69837C8.04755 19 8.83457 19.9917 8.83457 21.1C8.83457 22.2667 8.04755 23.2 6.69837 23.2ZM6.64215 19.7583H4.84324V22.4417H6.64215C7.42917 22.4417 7.99133 21.9167 7.99133 21.1C7.99133 20.2833 7.42917 19.7583 6.64215 19.7583ZM12.4886 26H10.8021C10.4648 26 10.1838 25.7083 10.1838 25.3583V19.6417C10.1838 19.2917 10.4648 19 10.8021 19H12.4886C14.5686 19 15.974 20.5167 15.974 22.5C15.974 24.4833 14.6248 26 12.4886 26ZM12.4886 19.7583H11.027V25.1833H12.4886C14.1189 25.1833 15.0745 23.9583 15.0745 22.4417C15.1308 20.9833 14.1751 19.7583 12.4886 19.7583ZM21.6518 19.7583H18.3913V22.0333H21.5956C21.8205 22.0333 21.9329 22.2083 21.9329 22.4417C21.9329 22.675 21.7642 22.7917 21.5956 22.7917H18.3913V25.5917C18.3913 25.825 18.2226 26 17.9416 26C17.7167 26 17.548 25.825 17.548 25.5917V19.6417C17.548 19.2917 17.8291 19 18.1664 19H21.6518C21.8767 19 21.9891 19.175 21.9891 19.4083C22.0453 19.5833 21.8767 19.7583 21.6518 19.7583Z" fill="white"/>
    </g>
    <defs>
      <clipPath id="clip0_203_5151">
        <rect width="26" height="30" fill="white"/>
      </clipPath>
    </defs>
  </symbol>


</svg>
