<svg xmlns="http://www.w3.org/2000/svg">

<!-- header -->

  <!--  logo-->
  <symbol id="header-logo" viewBox="0 0 86 99">
      <path d="M0.437343 97.7087L0 48.3482L4.00169 48.2748C9.67257 48.1794 14.3157 49.1779 17.9238 51.2777C21.5318 53.3775 24.1413 56.285 25.7376 59.9927C27.0934 63.069 27.6765 66.483 27.4797 70.2422C27.3339 73.6122 26.605 77.0262 25.3003 80.499C23.3104 85.4769 20.4312 89.6178 16.6482 92.9144C12.8652 96.2109 8.76872 97.8335 4.35885 97.7821L0.430054 97.7087H0.437343ZM8.14187 56.6227L8.43343 88.7C10.3723 87.819 12.1508 86.3799 13.7763 84.3756C15.4018 82.3712 16.7211 80.0805 17.7415 77.4888C18.711 74.9557 19.265 72.4154 19.418 69.8751C19.5128 67.3861 19.1483 65.1908 18.3247 63.2819C16.6773 59.5228 13.2806 57.2982 8.14916 56.6153L8.14187 56.6227Z" fill="white"/>
      <path d="M31.2133 48.6924L39.2822 48.9861L37.1028 97.9794L28.9609 97.6123L31.2133 48.6924Z" fill="white"/>
      <path d="M42.1165 47.5918L50.1855 47.6652L49.821 90.6528L63.6338 90.8731V99.0007L41.6719 98.7804L42.1092 47.5918H42.1165Z" fill="white"/>
      <path d="M85.5371 83.0893L85.3257 74.5065C81.2147 71.9588 77.9492 68.1556 76.0613 63.6036C78.7073 66.1146 81.7832 68.163 85.1799 69.602L84.9685 61.0192C80.5295 58.2733 77.0818 54.0663 75.2814 49.037V48.6846L67.5186 48.8755H67.3947V49.2279C65.8567 54.3379 62.613 58.7138 58.3125 61.6726L58.5239 70.2555C61.8768 68.6329 64.8799 66.4082 67.4165 63.7284C65.7619 68.3979 62.6714 72.392 58.6624 75.1526L58.8738 83.7354C62.3652 82.0468 65.4776 79.7047 68.0725 76.878L68.5755 97.7073L76.4622 97.5164L75.952 76.6357C78.7 79.3522 81.9363 81.5549 85.5298 83.082L85.5371 83.0893Z" fill="white"/>
      <path d="M69.1502 42.4593C79.6027 42.3492 80.0547 22.7753 67.8382 22.9662C57.7137 23.1278 57.6627 42.5841 69.1502 42.4593ZM67.2332 37.2538C63.6762 36.6371 63.6616 28.5609 67.9913 28.5609C72.321 28.5609 70.9871 37.8999 67.2332 37.2538Z" />
      <path d="M31.8611 25.191C29.6889 26.7035 27.9614 28.4436 26.1537 30.2057C26.0152 23.8181 25.6289 20.1764 25.2863 18.106C25.0385 16.6229 23.7921 15.4775 22.2468 15.4775C20.7015 15.4775 19.3968 16.6743 19.2 18.2088C18.9303 20.3086 18.6825 21.6302 18.1576 23.1426C13.7769 20.9033 8.2737 20.4481 5.23417 25.0295C2.61011 28.9795 1.75729 35.5213 3.70347 39.9045C5.36537 43.6416 9.37435 43.6783 12.1515 41.4243C15.8106 38.4508 18.216 33.0323 20.1403 28.8327C20.1403 28.8327 20.5193 34.0602 20.3954 35.8443C11.9182 44.7062 9.25772 49.0967 10.5479 54.5371C10.5479 54.5665 10.7228 55.1465 10.7593 55.242C11.5319 57.5694 13.6895 59.2507 16.2552 59.2507C18.3909 59.2507 20.1476 58.0246 21.2482 56.358C21.4669 56.0202 21.773 55.5944 22.1593 54.8896C22.4655 54.3463 23.2746 52.5328 23.3037 52.474C23.7046 51.5122 24.018 50.5798 24.2513 49.7868C25.5342 45.3669 26.0517 40.6093 26.161 35.9618C26.9045 35.2423 27.699 34.4787 28.5591 33.6344C28.5154 38.627 30.5782 43.759 37.0581 43.4507C45.2875 43.0542 47.1025 28.6491 41.4826 24.3981C39.2886 22.7388 36.1908 22.2028 31.8683 25.2057L31.8611 25.191ZM9.75338 36.8942C7.70515 36.8942 8.78393 31.63 9.82627 29.4788C11.1602 26.7255 13.6895 25.7123 16.4593 26.9752C15.5773 28.7593 12.5232 36.8942 9.75338 36.8942ZM20.3006 41.74C20.2204 42.9367 20.1621 44.1408 19.9216 45.2642C19.0906 49.0306 17.4725 51.9748 15.9199 52.7457C14.7537 50.0291 16.5905 46.5784 20.3079 41.74H20.3006ZM34.8423 37.8414C31.0593 37.4449 32.0724 29.2071 35.2723 28.4656C40.4694 27.2542 40.1487 38.3994 34.8423 37.8414Z"/>
      <path d="M74.0663 53.3545C70.7935 50.8656 70.7206 47.4956 69.5981 45.6895C69.1025 44.8892 68.4173 44.5735 67.7467 44.5882C67.7248 44.5882 67.703 44.5882 67.6811 44.5882C66.4711 44.5882 65.458 45.572 65.4944 46.7908C65.5236 47.7232 65.8661 48.6997 66.821 50.917C61.3688 46.2842 58.2272 40.4105 57.6951 32.0847C57.3817 27.2316 58.1981 21.9967 59.029 17.8485C59.0655 17.7604 59.0946 17.6649 59.1311 17.5695C65.0716 18.7956 69.8168 17.7163 71.5006 17.4153C74.2996 16.9234 74.3579 12.6136 71.5006 12.922C70.225 13.0615 68.9931 13.1276 67.7759 13.1349C65.334 13.0688 62.8339 12.6356 60.4722 12.0189C61.1647 9.72819 62.71 5.98376 63.5774 3.95736C63.7377 3.58291 63.8617 3.19378 63.8617 2.7606C63.8617 1.23346 62.6371 0 61.121 0C60.1297 0 59.2768 0.535968 58.7885 1.32157C57.5202 3.38468 55.9603 5.89565 54.5462 10.0512C50.5956 8.48005 48.4963 7.26861 48.4963 7.26861C46.2513 5.9911 44.0063 8.79575 45.7994 10.7928C46.4773 11.549 49.7646 14.2289 53.0666 15.5945C52.0169 20.7853 51.1714 27.2463 52.3085 34.9407C53.8246 45.1462 59.5757 50.8729 63.3806 54.5219C63.5336 54.7055 63.694 54.8817 63.8835 55.0065C62.8995 54.9404 61.9957 54.7716 61.2959 54.4705C61.2522 54.4485 61.2303 54.4485 61.1866 54.4338C61.1428 54.4191 61.0991 54.4045 61.0627 54.3898C60.9971 54.3677 60.9169 54.3384 60.8731 54.331C60.6982 54.287 60.5087 54.2503 60.3192 54.2503C59.0946 54.2503 58.1033 55.2488 58.1033 56.4823C58.1033 57.4881 58.7666 58.3251 59.6704 58.6041C59.685 58.6041 59.6923 58.6188 59.6996 58.6261C64.0366 60.1753 69.8532 59.5806 73.6363 56.9668C75.648 55.5792 75.7792 54.6467 74.0736 53.3472L74.0663 53.3545Z"/>
  </symbol>>

  <!--  phone-->
  <symbol id="header-phone" viewBox="0 0 17 20">
      <path d="M3.33807 0.98078L0.3727 6.10906C0.304077 6.22793 0.272608 6.36463 0.282344 6.50154C0.292079 6.63845 0.342575 6.76932 0.427328 6.87729L10.0459 19.1185C10.1308 19.2263 10.246 19.3064 10.3767 19.3482C10.5074 19.3901 10.6477 19.3918 10.7794 19.3533L16.4636 17.6851C16.5714 17.6535 16.6698 17.596 16.7502 17.5175C16.8307 17.4391 16.8907 17.3422 16.9249 17.2352C16.9592 17.1282 16.9668 17.0144 16.9469 16.9039C16.9271 16.7933 16.8804 16.6893 16.8111 16.6009L14.2038 13.2843C14.1146 13.1711 13.992 13.0887 13.8533 13.049C13.7147 13.0092 13.5671 13.0141 13.4313 13.0629L10.4879 14.1181L5.39167 7.63075L7.11187 5.02033C7.19137 4.89999 7.231 4.75771 7.22518 4.61361C7.21935 4.46951 7.16836 4.33089 7.07941 4.21737L4.47233 0.899439C4.40282 0.811443 4.31284 0.741786 4.21024 0.69654C4.10763 0.651295 3.99552 0.631834 3.88367 0.639855C3.77182 0.647876 3.66363 0.683136 3.56853 0.742559C3.47343 0.801982 3.39431 0.883766 3.33807 0.98078Z" />
  </symbol>>


</svg>
