<svg xmlns="http://www.w3.org/2000/svg">

<!--ITEMS-->

  <!--  arrow-nav-->
  <symbol id="arrow-nav-prev" viewBox="0 0 32 29">
    <path d="M13.5 27.9675H13.3964L13.3232 27.8942L0.823223 15.3942L0.75 15.321V15.2175V13.45V13.3464L0.823223 13.2732L13.3232 0.773174L13.5 0.596398L13.6768 0.773174L15.4443 2.54067L15.621 2.71743L15.4443 2.89421L5.50595 12.835H31H31.25V13.085V15.585V15.835H31H5.50376L15.4467 25.7731L15.6236 25.9499L15.4468 26.1267L13.6793 27.8942L13.6061 27.9675H13.5025H13.5Z" stroke-width="0.5"/>
  </symbol>

  <symbol id="arrow-nav-next" width="32" height="29" viewBox="0 0 32 29">
    <path d="M18.5 27.9675H18.6036L18.6768 27.8942L31.1768 15.3942L31.25 15.321V15.2175V13.45V13.3464L31.1768 13.2732L18.6768 0.773174L18.5 0.596398L18.3232 0.773175L16.5557 2.54067L16.379 2.71743L16.5557 2.89421L26.494 12.835H1H0.75V13.085V15.585V15.835H1H26.4962L16.5533 25.7731L16.3764 25.9499L16.5532 26.1267L18.3207 27.8942L18.3939 27.9675H18.4975H18.5Z" stroke-width="0.5"/>
  </symbol>

  <symbol id="arrow-nav-small" viewBox="0 0 18 16">
    <path fill-rule="evenodd" clip-rule="evenodd" d="M10.5234 15.7221L17.3984 8.84712V7.875L10.5234 1L9.55131 1.97213L15.2521 7.67425H0.898438V9.04925H15.2534L9.54994 14.75L10.5221 15.7221H10.5234Z" stroke-width="0.5"/>
  </symbol>

  <!--icon-date-->
  <symbol id="icon-date" viewBox="0 0 20 21">
    <path fill-rule="evenodd" clip-rule="evenodd" d="M3.7585 0.613511C3.64475 0.654186 3.48656 0.739526 3.40696 0.803237C3.22885 0.945756 3.0239 1.24217 2.97059 1.43444C2.94625 1.52205 2.93059 2.23871 2.93047 3.2683C2.93024 4.87957 2.93399 4.96843 3.01074 5.1738C3.15889 5.57031 3.57882 5.89453 4.02832 5.95946C4.14487 5.97627 4.29283 5.96384 4.44735 5.92418C4.8672 5.81647 5.11659 5.60582 5.30935 5.19598L5.41051 4.98087V3.27956C5.41051 1.32051 5.41106 1.32427 5.07601 0.957176C4.74143 0.590632 4.21018 0.452063 3.7585 0.613511ZM15.4879 0.594152C15.2313 0.679295 15.1019 0.761036 14.9325 0.945012C14.5759 1.33244 14.5618 1.43002 14.5771 3.39689L14.5895 4.98087L14.7024 5.22578C15.145 6.18536 16.4891 6.20077 16.9556 5.25163L17.0502 5.05909V3.24045V1.42181L16.9607 1.25383C16.7327 0.826273 16.3612 0.580541 15.9062 0.556293C15.7544 0.548197 15.5783 0.564154 15.4879 0.594152ZM0.212483 3.5199C0.167799 3.5416 0.101906 3.60911 0.0660105 3.66992C0.00714788 3.76973 0.000781189 3.99642 0.000781189 5.99399V8.20749H10H19.9992V5.99399C19.9992 3.99904 19.9928 3.76962 19.9342 3.67028C19.8984 3.60962 19.8273 3.5409 19.7761 3.51755C19.718 3.49107 19.3534 3.47511 18.8061 3.47511H17.9291L17.9283 4.11066C17.9273 4.94755 17.8858 5.21878 17.6995 5.60664C17.5218 5.97666 17.3095 6.22799 17.0021 6.4323C16.1562 6.99452 15.0776 6.88997 14.3736 6.1775C13.8686 5.66644 13.7512 5.2954 13.7503 4.20844L13.7497 3.47511H10H6.25029L6.24971 4.20844C6.24908 5.0377 6.20553 5.30107 6.00625 5.68122C5.84614 5.98664 5.43832 6.39491 5.13308 6.55534C4.12183 7.08686 2.81607 6.67592 2.32271 5.67086C2.12198 5.262 2.10175 5.14619 2.08093 4.28666L2.06124 3.47511L1.17749 3.47777C0.668541 3.4793 0.259277 3.49713 0.212483 3.5199ZM0.0101555 14.6794L0.0203109 20.33L0.128623 20.4384L0.236896 20.5469H10H19.7631L19.8714 20.4384L19.9797 20.33L19.9898 14.6794L20 9.02881H10H0L0.0101555 14.6794ZM10.3242 10.2319C10.3657 10.2693 10.6592 10.8193 10.9765 11.4541L11.5534 12.6084L12.7785 12.7795C13.4523 12.8736 14.0582 12.9754 14.1249 13.0057C14.3129 13.091 14.4003 13.3111 14.3213 13.5004C14.291 13.573 13.8847 14.0004 13.3609 14.5104L12.4529 15.3945L12.6705 16.6745C12.8676 17.8347 12.883 17.9664 12.8347 18.082C12.8054 18.1522 12.7406 18.2383 12.6905 18.2733C12.5017 18.4058 12.3854 18.3643 11.2227 17.7505C10.6115 17.4278 10.0944 17.1638 10.0735 17.1638C10.0526 17.1638 9.53617 17.4278 8.92586 17.7505C7.66963 18.4146 7.58777 18.4392 7.37915 18.2157C7.31556 18.1475 7.26498 18.0488 7.26385 17.9908C7.26279 17.9339 7.35505 17.3265 7.46891 16.6411L7.67596 15.3949L6.72834 14.4705C5.79302 13.5581 5.78072 13.544 5.78115 13.3851C5.78162 13.2061 5.88552 13.0407 6.02672 12.994C6.07449 12.9782 6.66725 12.8848 7.34396 12.7864L8.57433 12.6074L9.16421 11.4341C9.68674 10.3947 9.7692 10.2528 9.88681 10.1908C10.0379 10.1112 10.2079 10.1271 10.3242 10.2319Z"/>
  </symbol>

  <!-- icon-location-->
  <symbol id="icon-location" viewBox="0 0 11 14">
    <path fill-rule="evenodd" clip-rule="evenodd" d="M4.84116 0.0383686C3.84378 0.155028 2.91692 0.525276 2.10196 1.13256C1.81442 1.34682 1.31726 1.83258 1.10509 2.10651C0.0676387 3.44609 -0.246609 5.05197 0.193097 6.76702C0.657958 8.58018 1.96684 10.6519 3.93252 12.6857C4.46906 13.2409 5.2046 13.9188 5.32051 13.965C5.44143 14.0132 5.56419 14.0116 5.69312 13.9603C5.81299 13.9125 6.89094 12.8919 7.36816 12.3743C9.17165 10.4185 10.3444 8.52135 10.7933 6.83352C11.2547 5.09872 10.939 3.43996 9.89299 2.10337C9.69304 1.84787 9.22302 1.3815 8.95713 1.17474C7.80383 0.278061 6.31235 -0.133735 4.84116 0.0383686ZM5.81746 2.34941C6.17167 2.38811 6.47369 2.4688 6.77658 2.60562C7.45938 2.91405 7.94933 3.38022 8.26883 4.02534C8.82008 5.13841 8.56251 6.47199 7.63012 7.33232C6.70654 8.1845 5.36287 8.4043 4.22095 7.89002C3.87412 7.73381 3.64044 7.58036 3.3716 7.33232C2.43921 6.47199 2.18164 5.13841 2.73289 4.02534C3.23665 3.00817 4.27479 2.36076 5.45784 2.32602C5.52094 2.32416 5.68277 2.33469 5.81746 2.34941Z"/>
  </symbol>

  <!-- icon-home-->
  <symbol id="home" viewBox="0 0 20 18">
    <path d="M19.35 6.96359L10.2 1.45801L0.625 6.96359" stroke-width="2" stroke-miterlimit="10"/>
    <path d="M10.1625 4.22363L2.5 8.59793V18.0127H17.4375V8.59793L10.1625 4.22363ZM12.5 14.1915H7.5V9.25157H12.5V14.1915Z"/>
  </symbol>

  <!-- icon-bus-->
  <symbol id="bus" viewBox="0 0 20 18">
    <g clip-path="url(#clip0_320_21729)">
      <path d="M1.65746 5.17505H0V8.21255H1.65746V5.17505Z"/>
      <path d="M20.0012 5.17505H18.3438V8.21255H20.0012V5.17505Z"/>
      <path d="M15.0275 0H5.08274C3.53578 0 2.32031 1.2375 2.32031 2.7V12.375V13.1625V16.3125H4.86175V18H7.40319V16.2H12.7071V18H15.2485V16.2H17.6794V13.05V12.375V2.7C17.6794 1.2375 16.464 0 15.0275 0ZM7.29269 1.125H12.7071V2.25H7.29269V1.125ZM6.07722 14.625C5.41424 14.625 4.86175 14.0625 4.86175 13.3875C4.86175 12.7125 5.41424 12.15 6.07722 12.15C6.7402 12.15 7.29269 12.7125 7.29269 13.3875C7.18219 14.175 6.6297 14.625 6.07722 14.625ZM13.812 14.625C13.149 14.625 12.5966 14.0625 12.5966 13.3875C12.5966 12.7125 13.149 12.15 13.812 12.15C14.475 12.15 15.0275 12.7125 15.0275 13.3875C15.0275 14.175 14.475 14.625 13.812 14.625ZM14.736 10.575H5.26234V3.2625H14.736V10.575Z"/>
    </g>
    <defs>
      <clipPath id="clip0_320_21729">
        <rect width="20" height="18" fill="white"/>
      </clipPath>
    </defs>
  </symbol>

  <!--arrow-link 45'-->
  <symbol id="arrow-link" viewBox="0 0 14 14">
    <path d="M3.25 13.25V12H11.1187L0.75 1.63125L1.63125 0.75L12 11.1187V3.25H13.25V13.25H3.25Z" stroke-width="0.5"/>
  </symbol>

  <!--icon-height-->
  <symbol id="icon-height" viewBox="0 0 18 33">
    <path opacity="0.4" fill-rule="evenodd" clip-rule="evenodd" d="M0 1.28906V2.57812H4.4532H8.90646L5.74138 5.86523L2.57636 9.15228L3.46053 10.0704L4.34464 10.9885L6.02063 9.24909L7.69655 7.50969V16.5322V25.5548L6.00455 23.7987L4.31255 22.0425L3.4447 22.9454L2.57692 23.8483L5.74169 27.1351L8.90646 30.4219H4.4532H0V31.7109V33H9H18V31.7109V30.4219H13.4847H8.9694L12.1342 27.1351L15.2989 23.8483L14.4312 22.9454L13.5633 22.0425L11.8713 23.7987L10.1793 25.5548V16.5322V7.50969L11.8552 9.24909L13.5312 10.9885L14.4153 10.0704L15.2995 9.15228L12.1345 5.86523L8.9694 2.57812H13.4847H18V1.28906V0H9H0V1.28906Z"/>
  </symbol>

  <!--icon-temp-->
  <symbol id="icon-temp" viewBox="0 0 18 37">
    <path fill-rule="evenodd" clip-rule="evenodd" d="M8.20808 0.112371C7.28123 0.340667 6.24749 1.16806 5.82558 2.01925C5.37505 2.92824 5.39813 2.32929 5.39813 13.1085V22.9349L4.9687 23.3398C4.06245 24.1943 3.19399 25.6176 2.85916 26.7973C2.41488 28.3622 2.42625 30.1199 2.88978 31.5329C3.45481 33.2553 4.56434 34.734 6.02616 35.7128C6.79547 36.2277 7.49162 36.5396 8.44709 36.797C9.33998 37.0375 10.9244 37.0693 11.8617 36.8656C14.79 36.229 17.036 34.0275 17.8448 31.001C17.9798 30.4958 18.0014 30.233 17.9999 29.1121C17.9984 27.9177 17.9821 27.7502 17.8028 27.0867C17.4279 25.6997 16.6939 24.4317 15.6834 23.4255L15.2029 22.947L15.1837 12.9727C15.1624 1.87559 15.2072 2.88455 14.6925 1.91682C14.2293 1.04581 13.1489 0.251548 12.186 0.0741047C11.5533 -0.0425027 8.72644 -0.015304 8.20808 0.112371ZM12.2393 1.70299C12.6652 1.85078 13.1996 2.341 13.4252 2.79072L13.6019 3.14308L13.6374 13.3426C13.6569 18.9523 13.6981 23.5934 13.7289 23.656C13.7598 23.7186 14.0605 24.0266 14.3972 24.3404C15.128 25.0216 15.5414 25.5746 15.9067 26.3599C17.3956 29.5601 16.1453 33.2238 13.0209 34.8166C12.1999 35.2351 11.6014 35.379 10.5122 35.4194C9.42294 35.46 8.90863 35.3776 7.98647 35.0155C6.23094 34.326 4.73388 32.6078 4.22965 30.7035C4.0692 30.0975 4.00932 28.7881 4.11373 28.1685C4.39827 26.4803 5.04868 25.3526 6.51846 23.9989L6.88639 23.6601L6.90585 13.4739L6.92524 3.28775L7.11084 2.8899C7.3882 2.29529 7.89633 1.82748 8.45192 1.65539C8.54979 1.62508 9.36732 1.59745 10.2687 1.59405C11.5931 1.58899 11.9711 1.60989 12.2393 1.70299ZM0.426169 4.38467C0.36757 4.40818 0.247746 4.49405 0.159813 4.5755C0.0191776 4.70578 0 4.79395 0 5.30972C0 5.99518 0.0888566 6.17545 0.4815 6.28656C0.821582 6.38269 1.6644 6.38269 2.00448 6.28656C2.39286 6.17668 2.48598 5.99309 2.48598 5.33728C2.48598 4.85132 2.46375 4.75236 2.31473 4.57579C2.14753 4.37765 2.12424 4.37245 1.3381 4.3574C0.895096 4.34894 0.484767 4.36123 0.426169 4.38467ZM9.41122 6.46458C9.1465 6.58495 8.84079 6.91155 8.741 7.18057C8.68915 7.32025 8.66543 10.0816 8.66543 15.9766V24.569L8.36356 24.7034C6.38273 25.5847 5.21751 27.8614 5.6419 30.0209C6.26063 33.1693 9.61315 34.8387 12.4299 33.4011C13.5903 32.8089 14.5478 31.6008 14.8834 30.3057C15.0437 29.6872 15.043 28.5456 14.882 27.9198C14.5468 26.6167 13.6282 25.4411 12.4736 24.8373L11.9334 24.5549L11.9326 16.0552C11.9321 10.4326 11.9071 7.46457 11.8586 7.28662C11.7645 6.94179 11.4704 6.58654 11.1748 6.46075C10.8714 6.3317 9.69803 6.33423 9.41122 6.46458ZM0.174374 8.70978C0.0167628 8.87022 0.00021292 8.94509 0.00227273 9.4874C0.00561105 10.3868 0.128064 10.4853 1.24299 10.4853C2.35792 10.4853 2.48037 10.3868 2.48371 9.4874C2.48577 8.94509 2.46922 8.87022 2.31161 8.70978C2.14498 8.54 2.09781 8.53219 1.24299 8.53219C0.388168 8.53219 0.341006 8.54 0.174374 8.70978ZM0.426169 12.7034C0.36757 12.7269 0.247746 12.8128 0.159813 12.8943C0.0183963 13.0253 0 13.112 0 13.6479C0 14.1943 0.0169758 14.2707 0.174374 14.4309C0.341006 14.6007 0.388168 14.6085 1.24299 14.6085C2.09781 14.6085 2.14498 14.6007 2.31161 14.4309C2.46901 14.2707 2.48598 14.1943 2.48598 13.6479C2.48598 13.0907 2.47135 13.0283 2.30287 12.8669C2.13418 12.7053 2.05761 12.6903 1.32624 12.6762C0.88984 12.6677 0.484767 12.68 0.426169 12.7034ZM0.174374 17.0285C0.0167628 17.189 0.00021292 17.2639 0.00227273 17.8062C0.00568208 18.7099 0.125152 18.8041 1.26842 18.8041C2.00448 18.8041 2.06138 18.7934 2.26743 18.6168C2.47973 18.4348 2.48598 18.4121 2.48598 17.8178C2.48598 17.2647 2.46929 17.1891 2.31161 17.0285C2.14498 16.8588 2.09781 16.851 1.24299 16.851C0.388168 16.851 0.341006 16.8588 0.174374 17.0285ZM0.361604 21.05C0.0659143 21.1756 0.00468769 21.3329 0.00227273 21.9721C0.00021292 22.5144 0.0167628 22.5892 0.174374 22.7497C0.341006 22.9195 0.388168 22.9273 1.24299 22.9273C2.09781 22.9273 2.14498 22.9195 2.31161 22.7497C2.46901 22.5895 2.48598 22.5131 2.48598 21.9666C2.48598 21.4094 2.47135 21.3471 2.30287 21.1857C2.13432 21.0243 2.05676 21.009 1.32624 20.9938C0.88984 20.9847 0.455716 21.0099 0.361604 21.05ZM9.27236 26.7648C9.49312 27.0132 9.4424 27.3556 9.13329 27.7041C8.70762 28.1839 8.5684 28.5753 8.57451 29.2746C8.58097 30.0125 8.45639 30.2333 8.03342 30.2333C7.65271 30.2333 7.48011 30.019 7.42158 29.4738C7.32818 28.6028 7.65356 27.635 8.26952 26.9517C8.53253 26.66 8.60875 26.6165 8.85621 26.6165C9.05267 26.6165 9.1813 26.6623 9.27236 26.7648Z"/>
  </symbol>


  <!--cross-->
  <symbol id="cross" viewBox="0 0 12 11">
    <path fill-rule="evenodd" clip-rule="evenodd" d="M5.11269 5.49962L0.554688 10.0576L1.43869 10.9416L5.99669 6.38362L10.5547 10.9416L11.4387 10.0576L6.88069 5.49962L11.4387 0.941617L10.5547 0.0576172L5.99669 4.61562L1.43869 0.0576172L0.554688 0.941617L5.11269 5.49962Z" />
  </symbol>



<!--marks-->

  <!--eat-->
  <symbol id="mark-eat" width="48" height="59" viewBox="0 0 48 59" fill="#8CB110">
    <circle cx="23.6607" cy="23.3477" r="21.7701" fill="white"/>
    <path fill-rule="evenodd" clip-rule="evenodd" d="M20.877 0.128846C10.779 1.30202 2.51921 8.87948 0.502228 18.8202C0.0228207 21.183 -0.0289166 23.5535 0.0105942 41.3793C0.0474024 57.9677 0.0555102 58.4677 0.293605 58.73C0.428483 58.8785 0.658856 59 0.805574 59C0.986397 59 3.30119 56.7799 7.986 52.1131L14.8995 45.2262L16.2256 45.6366C22.3573 47.5347 28.3134 47.1123 33.8965 44.3835C44.4399 39.2305 49.5159 27.1222 45.7987 15.9922C44.2484 11.35 41.1544 7.16597 37.167 4.31918C34.8297 2.65043 31.0215 1.0017 28.2337 0.451485C25.9589 0.00261303 23.0589 -0.124646 20.877 0.128846ZM27.2041 8.11913C30.1027 8.84472 32.3511 10.0841 34.4796 12.1293C37.6117 15.1389 39.2473 18.9783 39.2539 23.3365C39.2579 25.9933 38.8005 27.973 37.6383 30.3281C34.6089 36.4674 27.9712 39.9449 21.2191 38.9303C16.1611 38.1704 11.7219 34.9683 9.47081 30.4564C7.59243 26.6913 7.26657 22.4489 8.55279 18.5025C10.2402 13.3248 14.724 9.26716 20.0613 8.0877C21.7871 7.70644 21.842 7.70169 23.9866 7.75185C25.5106 7.78751 26.1882 7.86487 27.2041 8.11913Z"/>
    <path fill-rule="evenodd" clip-rule="evenodd" d="M18.2611 13.056C18.2008 13.0884 18.1182 13.1609 18.0774 13.2172C18.0281 13.2853 17.8422 14.3563 17.5243 16.4048C17.2609 18.1017 17.0308 19.6272 17.013 19.7949C16.9413 20.47 17.171 21.4025 17.5684 22.049C17.9298 22.6371 18.6289 23.2697 19.2264 23.5493C19.4406 23.6495 19.4504 23.6627 19.4317 23.8237C19.421 23.9167 19.2354 26.3885 19.0194 29.3164C18.5783 35.298 18.5826 35.0514 18.9079 35.6881C19.2656 36.3884 19.947 36.8651 20.7501 36.9769C21.7731 37.1194 22.8199 36.5826 23.2654 35.687C23.5854 35.0439 23.5899 35.3024 23.1552 29.4102C22.9411 26.5081 22.7551 24.028 22.7419 23.899L22.7179 23.6645L23.1107 23.4545C24.0443 22.9554 24.7613 22.0424 25.0452 20.991C25.234 20.2916 25.2052 19.952 24.6621 16.4782C24.158 13.2537 24.1352 13.1519 23.8919 13.0447C23.6513 12.9388 23.3492 13.0389 23.2289 13.2643C23.1822 13.3519 23.0891 14.2317 22.935 16.0426C22.8111 17.5001 22.6894 18.7396 22.6646 18.7969C22.6107 18.9219 22.4081 18.9803 22.2335 18.9213C22.143 18.8906 22.0963 18.8319 22.0696 18.7152C22.0491 18.6254 21.9343 17.3973 21.8145 15.9861C21.6947 14.5748 21.5775 13.3717 21.5541 13.3126C21.4776 13.1191 21.3137 13.0173 21.0789 13.0173C20.8948 13.0173 20.84 13.0407 20.72 13.1705C20.6422 13.2547 20.578 13.3497 20.5774 13.3816C20.5768 13.4134 20.4709 14.6373 20.3422 16.1013C20.0867 19.006 20.0974 18.9507 19.7946 18.9507C19.6563 18.9507 19.4625 18.81 19.4625 18.7097C19.4625 18.4203 19.0132 13.4891 18.9747 13.3551C18.8901 13.0611 18.5316 12.9108 18.2611 13.056ZM31.801 13.2528C29.6864 14.2985 28.2834 16.1229 27.8965 18.33C27.8057 18.8482 27.8203 20.5119 27.922 21.2339C28.1452 22.8192 28.6401 24.1638 29.3531 25.1217L29.6348 25.5L29.2582 25.8835C28.941 26.2067 28.8772 26.2985 28.8532 26.4667C28.8376 26.5765 28.6405 28.4604 28.4152 30.6532C27.9762 34.9272 27.9766 34.9174 28.1873 35.4506C28.5993 36.493 29.7143 37.1336 30.8431 36.9764C31.8876 36.8309 32.7906 35.9804 32.9501 34.9918C32.9822 34.7926 32.9994 31.0104 32.9996 24.0734C33 12.4499 33.0199 13.2197 32.7151 13.0673C32.4833 12.9514 32.3593 12.9766 31.801 13.2528Z"/>
  </symbol>




  <!---social-->

  <!--instagram-->
  <symbol id="instagram">
    <circle cx="17" cy="17" r="17"/>
    <path d="M24.7972 13.7782C24.7884 13.1179 24.6648 12.4642 24.4319 11.8463C24.2299 11.3251 23.9215 10.8517 23.5262 10.4565C23.131 10.0612 22.6576 9.75277 22.1364 9.55082C21.5265 9.32185 20.8821 9.19804 20.2307 9.18467C19.392 9.14718 19.1261 9.13672 16.9972 9.13672C14.8683 9.13672 14.5954 9.13672 13.7628 9.18467C13.1118 9.19814 12.4677 9.32195 11.858 9.55082C11.3367 9.75263 10.8633 10.061 10.468 10.4563C10.0728 10.8516 9.76435 11.325 9.56254 11.8463C9.33311 12.4558 9.20957 13.1 9.19726 13.7511C9.15977 14.5907 9.14844 14.8566 9.14844 16.9855C9.14844 19.1144 9.14844 19.3864 9.19726 20.2198C9.21033 20.872 9.33326 21.5153 9.56254 22.1265C9.76469 22.6476 10.0733 23.1208 10.4687 23.5159C10.8641 23.911 11.3376 24.2193 11.8588 24.421C12.4669 24.6592 13.1111 24.7919 13.7637 24.8133C14.6033 24.8508 14.8692 24.8622 16.9981 24.8622C19.127 24.8622 19.3999 24.8622 20.2324 24.8133C20.8838 24.8005 21.5282 24.677 22.1382 24.4481C22.6592 24.2459 23.1325 23.9373 23.5277 23.5421C23.9229 23.1469 24.2314 22.6737 24.4336 22.1526C24.6629 21.5424 24.7858 20.899 24.7989 20.246C24.8364 19.4073 24.8477 19.1414 24.8477 17.0116C24.846 14.8827 24.846 14.6125 24.7972 13.7782ZM16.992 21.0114C14.7654 21.0114 12.9617 19.2077 12.9617 16.9811C12.9617 14.7546 14.7654 12.9508 16.992 12.9508C18.0609 12.9508 19.086 13.3754 19.8418 14.1313C20.5977 14.8871 21.0223 15.9122 21.0223 16.9811C21.0223 18.05 20.5977 19.0752 19.8418 19.831C19.086 20.5868 18.0609 21.0114 16.992 21.0114ZM21.1827 13.7415C21.0592 13.7417 20.937 13.7174 20.8229 13.6702C20.7088 13.623 20.6052 13.5538 20.5179 13.4665C20.4306 13.3792 20.3614 13.2756 20.3142 13.1615C20.267 13.0475 20.2428 12.9252 20.2429 12.8017C20.2429 12.6784 20.2672 12.5562 20.3144 12.4423C20.3616 12.3283 20.4308 12.2247 20.518 12.1375C20.6053 12.0503 20.7088 11.9811 20.8228 11.9339C20.9368 11.8867 21.0589 11.8624 21.1823 11.8624C21.3056 11.8624 21.4278 11.8867 21.5417 11.9339C21.6557 11.9811 21.7593 12.0503 21.8465 12.1375C21.9337 12.2247 22.0029 12.3283 22.0501 12.4423C22.0973 12.5562 22.1216 12.6784 22.1216 12.8017C22.1216 13.3213 21.7014 13.7415 21.1827 13.7415Z" fill="white"/>
    <path d="M16.993 19.5993C18.4389 19.5993 19.611 18.4272 19.611 16.9813C19.611 15.5354 18.4389 14.3633 16.993 14.3633C15.5471 14.3633 14.375 15.5354 14.375 16.9813C14.375 18.4272 15.5471 19.5993 16.993 19.5993Z" fill="white"/>
  </symbol>

  <!--vk-->
  <symbol id="vk">
    <circle cx="17" cy="17" r="17"/>
    <g clip-path="url(#clip0_320_12112)">
      <path d="M18.5273 23.5387C11.8255 23.5387 8.00302 19.1208 7.84375 11.7695H11.2008C11.311 17.1652 13.7858 19.4507 15.7461 19.9219V11.7695H18.9072V16.423C20.843 16.2227 22.8766 14.1022 23.5627 11.7695H26.7237C26.1969 14.6441 23.9916 16.7646 22.4233 17.6364C23.9916 18.3433 26.5033 20.1929 27.459 23.5387H23.9793C23.232 21.3003 21.3699 19.5685 18.9072 19.3329V23.5387H18.5273Z" fill="white"/>
    </g>
    <defs>
      <clipPath id="clip0_320_12112">
        <rect width="20.9229" height="20.9229" fill="white" transform="translate(6.53906 6.53906)"/>
      </clipPath>
    </defs>
  </symbol>

  <!--facebook-->
  <symbol id="facebook">
    <circle cx="17" cy="17" r="17"/>
    <path d="M15.7404 24.7714H18.4088V17.6799H20.64L20.977 14.9211H18.4088V13.1531C18.4088 12.3565 18.6182 11.8125 19.6929 11.8125H21.068V9.33537C20.8313 9.30623 20.0207 9.22852 19.0736 9.22852C17.0882 9.22852 15.7404 10.5205 15.7404 12.8811V14.9211H13.5V17.6799H15.7404V24.7714Z" fill="white"/>
  </symbol>


  <!-- tiktok -->
  <symbol id="tiktok">
    <circle cx="17" cy="17" r="17"/>
    <path fill="#ffffff" d="M17.5,7.3h3.2c0,0.1,0.1,0.3,0.1,0.4c0.2,2.3,2.1,4.1,4.5,4.1v3C25.1,15,24.9,15,24.8,15
	c-0.8-0.1-1.5-0.2-2.2-0.4c-0.6-0.2-1.2-0.5-1.8-0.9v0.4c0,1.6,0,3.3,0,4.9c0,0.7,0,1.3-0.1,2c-0.3,2.2-1.7,4.2-3.8,5.1
	c-0.6,0.2-1.2,0.4-1.8,0.5h-1.2c0,0-0.1,0-0.1-0.1c-2.3-0.3-4.2-2-4.8-4.2c-0.1-0.5-0.2-1-0.3-1.5V20c0.1-0.4,0.2-0.9,0.3-1.3
	c0.7-2.4,2.9-4.1,5.3-4.3c0.4-0.1,0.7-0.1,1.1-0.1c0,1.1,0,2,0,3c0,0.2-0.1,0.3-0.3,0.3c-0.6,0.1-1.2,0.3-1.8,0.6
	c-0.9,0.4-1.5,1.3-1.5,2.2c-0.1,1.1,0.5,2.2,1.6,2.7c0.9,0.6,2.1,0.5,3-0.1c0.7-0.5,1.1-1.2,1.2-2s0.1-1.6,0.1-2.4
	c0-3.6,0-7.2,0-10.8C17.5,7.7,17.5,7.5,17.5,7.3z"/>
  </symbol>

  <!-- linkedin -->
  <symbol id="linkedin">
    <circle cx="17" cy="17" r="17"/>
    <path fill="#ffffff" d="M19.7,18L19.7,18L19.7,18L19.7,18z"/>
    <path fill="#ffffff" d="M23.9,8.7H10c-0.7,0-1.2,0.5-1.2,1.2v14.2c0,0.7,0.5,1.2,1.2,1.2h14c0.7,0,1.2-0.5,1.2-1.2V9.9
	C25.2,9.2,24.6,8.7,23.9,8.7z M13.7,22.5h-2.5V15h2.5V22.5z M12.5,14L12.5,14c-0.8,0-1.4-0.6-1.4-1.3c0-0.8,0.6-1.3,1.4-1.3
	c0.8,0,1.3,0.6,1.4,1.3C13.9,13.4,13.3,14,12.5,14z M22.7,22.5h-2.5v-4c0-1-0.3-1.7-1.3-1.7c-0.7,0-1.1,0.5-1.3,0.9
	c-0.1,0.2-0.1,0.4-0.1,0.6v4.2H15c0,0,0-6.8,0-7.5h2.5v1.1c0.3-0.5,0.9-1.3,2.3-1.3c1.6,0,2.9,1.1,2.9,3.4V22.5L22.7,22.5z"/>
  </symbol>



<!-- HEADER -->

  <!--arrow select-->
  <symbol id="arrow-select" viewBox="0 0 10 6">
    <path d="M5.17735 5.2234L5.5547 4.86757L9.64397 1.07175L8.88944 0.116211L5.17745 3.56268L1.46547 0.116211L0.710938 1.07175L4.80021 4.86757L5.17756 5.2234H5.17735Z"/>
  </symbol>

  <!--phone-->
  <symbol id="header-phone" viewBox="0 0 100 100">
    <path d="M60.9,31.7L78,14.6l-2-2c-2.6-2.6-7.2-2.6-9.8,0l-7.3,7.3c-1.3,1.3-2,3.1-2,4.9s0.7,3.6,2,4.9L60.9,31.7z"/>
    <path d="M29.8,58.8c-2.6-2.6-7.2-2.6-9.8,0l-7.3,7.3c-1.3,1.3-2,3.1-2,4.9s0.7,3.6,2,4.9l2,2l17.1-17.1L29.8,58.8z"/>
    <path d="M84.3,20.9l-1.6-1.6L65.5,36.4l3,3c0.4,0.4,0.7,1,0.7,1.6c0,0.6-0.2,1.2-0.7,1.6L42.7,68.5c-0.9,0.9-2.4,0.9-3.3,0l-3-3
		L19.3,82.6l1.6,1.6c1.2,1.2,5.8,5.1,14.1,5.1c7.5,0,19.7-3.3,35.4-19C101.8,39.1,85,21.6,84.3,20.9z"/>
  </symbol>

  <!--email-->
  <symbol id="email" viewBox="0 0 100 100">
    <path d="M80.8,21.4H19.2c-4.9,0-8.8,3.9-8.8,8.8v39.6c0,4.9,3.9,8.8,8.8,8.8h61.6c4.9,0,8.8-3.9,8.8-8.8V30.2C89.6,25.3,85.7,21.4,80.8,21.4z M38.2,53.6l7.1,6.2c1.3,1.2,3,1.8,4.8,1.8s3.4-0.6,4.8-1.8l7.1-6.2l-0.2,0.2l16.1,16.1H22.3l16.1-16.1L38.2,53.6z M19.2,66.7V37L35,50.8L19.2,66.7z M65,50.8L80.8,37v29.7L65,50.8z M80.8,30.2v0.9l-29,25.3c-1,0.9-2.7,0.9-3.7,0l-29-25.3v-0.9H80.8z"/>
  </symbol>

  <!--weather-->
  <symbol id="weather" viewBox="0 0 100 100">
    <path d="M60.6,13.6L56.4,26l-4.1-12.4c-0.8-2.3,0.5-4.7,2.8-5.5c2.3-0.8,4.7,0.5,5.5,2.8C60.9,11.8,60.8,12.8,60.6,13.6z"/>
    <path d="M82.7,26.2L71,32.1l5.8-11.7c1.1-2.2,3.7-3,5.8-1.9c2.2,1.1,3,3.7,1.9,5.8C84.2,25.2,83.5,25.8,82.7,26.2z"/>
    <path d="M89.5,50.8l-12.4-4.1l12.4-4.1c2.3-0.8,4.7,0.5,5.5,2.8c0.8,2.3-0.5,4.7-2.8,5.5C91.3,51.1,90.3,51.1,89.5,50.8z"/>
    <path d="M36,20.4l5.8,11.7l-11.7-5.8c-2.2-1.1-3-3.7-1.9-5.8c1.1-2.2,3.7-3,5.8-1.9C34.9,18.9,35.6,19.6,36,20.4z"/>
    <path d="M74.1,52.2c0.6-1.8,0.9-3.6,0.9-5.5c0-10.2-8.3-18.6-18.6-18.6c-5.5,0-10.5,2.5-13.9,6.3c-0.2,0-0.4-0.1-0.6-0.1c-7.3,0-13.9,3.2-18.5,8.3c-1-0.3-1.9-0.4-2.9,0c-2.3,0.8-3.5,3.2-2.8,5.5c0.2,0.7,0.7,1.2,1.1,1.7c-1.2,2.9-1.8,6-1.8,9.3c0,0.2,0,0.3,0,0.5c-7.1,1.8-12.4,8.3-12.4,16c0,9.1,7.4,16.5,16.5,16.5h45.4c11.4,0,20.6-9.3,20.6-20.6C87.4,62.7,81.8,55.2,74.1,52.2z M56.4,36.3c5.7,0,10.3,4.6,10.3,10.3c0,1.5-0.4,2.9-1,4.2c-1.5,0.1-3,0.3-4.6,0.8c-2.2-5.6-6.6-10-12.3-12C50.8,37.6,53.4,36.3,56.4,36.3z M66.7,83.8H21.3c-4.6,0-8.3-3.7-8.3-8.3c0-4.6,3.7-8.3,7.9-8.3l5.9,0.1l-1-5c-0.2-1.1-0.3-2.2-0.3-3.3c0-9.1,7.4-16.5,16.5-16.5c0.1,0,0.2-0.1,0.3-0.1c7.9,0.2,14.4,5.8,15.9,13.5c0.1,0.3,0.1,0.5,0.2,0.8c0.5,1.8,2.1,2.9,3.9,2.9c0.4,0,0.8,0,1.2-0.1c1.3-0.4,2.3-0.5,3.3-0.5c6.8,0,12.4,5.6,12.4,12.4C79.1,78.3,73.6,83.8,66.7,83.8z"/>
  </symbol>

  <!--map-->
  <svg id="header-map" viewBox="0 0 100 100">
    <path d="M74.7,18.6c-13.6-13.4-35.7-13.4-49.4,0c-13.6,13.4-13.6,35.2,0,48.6L50,91.5l24.7-24.3C88.3,53.8,88.3,32,74.7,18.6zM50,54.4c-2.9,0-5.7-1.1-7.7-3.2C38,46.9,38,40,42.3,35.7c2.1-2.1,4.8-3.2,7.7-3.2s5.7,1.1,7.7,3.2c4.3,4.3,4.3,11.2,0,15.4C55.7,53.2,52.9,54.4,50,54.4z"/>
  </svg>

  <!--cart-->
  <symbol id="header-cart" viewBox="0 0 100 100">
    <path d="M90.9,21c-0.8-1-2-1.5-3.3-1.5H27.3l-0.9-5.1c-0.3-2.1-2.2-3.6-4.3-3.6h-9.8c-2.4,0-4.4,2-4.4,4.4s2,4.4,4.4,4.4h6.1l8.1,48.7c0,0.2,0.1,0.4,0.2,0.5c0.1,0.2,0.1,0.4,0.2,0.7c0.1,0.3,0.3,0.5,0.5,0.8c0.1,0.2,0.3,0.3,0.4,0.5c0.3,0.2,0.5,0.4,0.8,0.6c0.2,0.1,0.3,0.2,0.5,0.3c0.5,0.2,1,0.3,1.6,0.3c0,0,48,0,48,0c2.4,0,4.4-2,4.4-4.4s-2-4.4-4.4-4.4H34.6l-0.7-4.4h49.4c2.2,0,4-1.6,4.3-3.7l4.4-30.5C92.1,23.2,91.7,21.9,90.9,21z M44,50H32.4L31,41.3h13V50z M44,36.9H30.9c-0.2,0-0.4,0.1-0.6,0.1l-1.5-8.9H44V36.9z M61.5,50H48.4v-8.7h13.1V50z M61.5,36.9H48.4v-8.7h13.1V36.9z M79.5,50H65.8v-8.7h14.9L79.5,50z M81.4,36.9H65.8v-8.7h16.8L81.4,36.9z"/>
    <circle cx="37.5" cy="82.7" r="6.5"/>
    <circle cx="76.7" cy="82.7" r="6.5"/>
  </symbol>


<!--WHAT-TO-DO-->

  <!--eat-->
  <symbol id="eat" viewBox="0 0 50 50">
    <circle cx="25" cy="25" r="25"/>
    <path fill-rule="evenodd" clip-rule="evenodd" d="M18.2611 13.056C18.2008 13.0884 18.1182 13.1609 18.0774 13.2172C18.0281 13.2853 17.8422 14.3563 17.5243 16.4048C17.2609 18.1017 17.0308 19.6272 17.013 19.7949C16.9413 20.47 17.171 21.4025 17.5684 22.049C17.9298 22.6371 18.6289 23.2697 19.2264 23.5493C19.4406 23.6495 19.4504 23.6627 19.4317 23.8237C19.421 23.9167 19.2354 26.3885 19.0194 29.3164C18.5783 35.298 18.5826 35.0514 18.9079 35.6881C19.2656 36.3884 19.947 36.8651 20.7501 36.9769C21.7731 37.1194 22.8199 36.5826 23.2654 35.687C23.5854 35.0439 23.5899 35.3024 23.1552 29.4102C22.9411 26.5081 22.7551 24.028 22.7419 23.899L22.7179 23.6645L23.1107 23.4545C24.0443 22.9554 24.7613 22.0424 25.0452 20.991C25.234 20.2916 25.2052 19.952 24.6621 16.4782C24.158 13.2537 24.1352 13.1519 23.8919 13.0447C23.6513 12.9388 23.3492 13.0389 23.2289 13.2643C23.1822 13.3519 23.0891 14.2317 22.935 16.0426C22.8111 17.5001 22.6894 18.7396 22.6646 18.7969C22.6107 18.9219 22.4081 18.9803 22.2335 18.9213C22.143 18.8906 22.0963 18.8319 22.0696 18.7152C22.0491 18.6254 21.9343 17.3973 21.8145 15.9861C21.6947 14.5748 21.5775 13.3717 21.5541 13.3126C21.4776 13.1191 21.3137 13.0173 21.0789 13.0173C20.8948 13.0173 20.84 13.0407 20.72 13.1705C20.6422 13.2547 20.578 13.3497 20.5774 13.3816C20.5768 13.4134 20.4709 14.6373 20.3422 16.1013C20.0867 19.006 20.0974 18.9507 19.7946 18.9507C19.6563 18.9507 19.4625 18.81 19.4625 18.7097C19.4625 18.4203 19.0132 13.4891 18.9747 13.3551C18.8901 13.0611 18.5316 12.9108 18.2611 13.056ZM31.801 13.2528C29.6864 14.2985 28.2834 16.1229 27.8965 18.33C27.8057 18.8482 27.8203 20.5119 27.922 21.2339C28.1452 22.8192 28.6401 24.1638 29.3531 25.1217L29.6348 25.5L29.2582 25.8835C28.941 26.2067 28.8772 26.2985 28.8532 26.4667C28.8376 26.5765 28.6405 28.4604 28.4152 30.6532C27.9762 34.9272 27.9766 34.9174 28.1873 35.4506C28.5993 36.493 29.7143 37.1336 30.8431 36.9764C31.8876 36.8309 32.7906 35.9804 32.9501 34.9918C32.9822 34.7926 32.9994 31.0104 32.9996 24.0734C33 12.4499 33.0199 13.2197 32.7151 13.0673C32.4833 12.9514 32.3593 12.9766 31.801 13.2528Z" fill="white"/>
  </symbol>

  <!--hotel-->
  <symbol id="hotel" viewBox="0 0 50 50">
    <circle cx="25" cy="25" r="25"/>
    <path fill-rule="evenodd" clip-rule="evenodd" d="M22.8906 14.0295C20.4795 14.1837 18.1428 14.5649 15.8125 15.1842C14.7936 15.4549 14.6056 15.5461 14.4648 15.8378L14.3594 16.0564V20.3317C14.3594 22.7516 14.3772 24.6071 14.4005 24.6071C14.4231 24.6071 14.4689 24.5728 14.5022 24.5309C14.6203 24.3821 15.5344 23.7771 15.9632 23.5638C16.2025 23.4447 16.592 23.2756 16.8286 23.188L17.2587 23.0289L17.2739 22.0657L17.2891 21.1024L17.4434 20.7752C17.6195 20.4017 17.8678 20.1508 18.25 19.9601L18.5078 19.8316H20.7812H23.0547L23.3181 19.9606C23.6885 20.1421 23.9428 20.4012 24.1206 20.7784C24.272 21.0994 24.2736 21.1103 24.2891 21.9242L24.3048 22.7459H25H25.6952L25.7109 21.9254C25.7255 21.1595 25.7348 21.0868 25.8501 20.8298C26.0238 20.4426 26.2717 20.177 26.633 19.9912L26.9433 19.8316H29.2178H31.4922L31.7592 19.9623C32.1001 20.1293 32.4264 20.4704 32.5853 20.826C32.7038 21.0909 32.7113 21.1541 32.734 22.0746L32.7578 23.0442L33.1562 23.1847C33.9109 23.4508 34.5027 23.7711 35.185 24.2826L35.5484 24.555L35.5359 20.2254C35.5236 15.9392 35.5225 15.8945 35.4268 15.7606C35.248 15.5104 35.1053 15.4488 34.0703 15.1751C31.9958 14.6266 30.1077 14.2947 27.9351 14.0967C26.9742 14.0091 23.8585 13.9677 22.8906 14.0295ZM18.7455 21.3534C18.6856 21.4161 18.6719 21.5582 18.6719 22.1183V22.8062L18.7773 22.7767C18.8353 22.7605 19.7846 22.7469 20.8867 22.7465L22.8906 22.7459V22.0922C22.8906 21.5212 22.8798 21.4283 22.8049 21.3575C22.728 21.2848 22.5179 21.2765 20.7692 21.2765C19.059 21.2765 18.8102 21.2859 18.7455 21.3534ZM27.183 21.3534C27.1234 21.4158 27.1094 21.5555 27.1094 22.0881V22.7459L29.1133 22.7465C30.2154 22.7469 31.1646 22.7605 31.2227 22.7767L31.3281 22.8062V22.1224C31.3281 21.5221 31.3177 21.4287 31.2424 21.3575C31.1655 21.2848 30.9554 21.2765 29.2067 21.2765C27.4965 21.2765 27.2477 21.2859 27.183 21.3534ZM18.5447 24.2682C16.6287 24.506 14.8467 25.7515 13.8366 27.5586C13.4891 28.1804 13.1627 29.1574 13.0677 29.8602L13.0362 30.0928H25H36.9638L36.9323 29.8602C36.8805 29.4772 36.6791 28.7271 36.5152 28.307C35.8369 26.5686 34.3169 25.1013 32.6163 24.5433C31.6412 24.2233 32.1782 24.2456 25.2109 24.2355C21.7305 24.2304 18.7306 24.2452 18.5447 24.2682ZM13 33.5018C13 35.6455 13.0024 35.6648 13.2987 35.8857C13.4077 35.9668 13.5115 35.9949 13.7031 35.9949C13.8947 35.9949 13.9986 35.9668 14.1075 35.8857C14.3394 35.7128 14.4062 35.5082 14.4062 34.9712V34.501H25H35.5938V34.9712C35.5938 35.5082 35.6606 35.7128 35.8925 35.8857C36.097 36.0381 36.4967 36.0381 36.7013 35.8857C36.9976 35.6648 37 35.6455 37 33.5018V31.5622H25H13V33.5018Z" fill="white"/>
  </symbol>

  <!--route-->
  <symbol id="route" viewBox="0 0 50 50">
    <circle cx="25" cy="25" r="25"/>
    <path fill-rule="evenodd" clip-rule="evenodd" d="M24.2476 13.0532C23.7962 13.1797 23.3414 13.578 23.133 14.0292C23.0262 14.2606 23.0248 14.3001 23.0108 17.6274L22.9966 20.9916H18.9329C15.7588 20.9916 14.8513 21.0053 14.7875 21.0542C14.7425 21.0886 14.3219 21.5978 13.8528 22.1859C13.2145 22.9862 13 23.2898 13 23.3929C13 23.4959 13.2145 23.7995 13.8528 24.5998C14.3219 25.1879 14.7425 25.6972 14.7875 25.7316C14.8513 25.7804 15.7591 25.7941 18.9345 25.7941H23V30.9969V36.1996H22.3228C21.6703 36.1996 21.641 36.2041 21.5227 36.3224C21.3604 36.4848 21.3604 36.7148 21.5227 36.8772L21.6454 37H25H28.3546L28.4773 36.8772C28.6397 36.7148 28.6397 36.4848 28.4773 36.3224C28.3591 36.2041 28.3297 36.1996 27.6773 36.1996H27V34.1985V32.1975H31.0655C34.2409 32.1975 35.1488 32.1838 35.2126 32.135C35.2575 32.1006 35.678 31.5913 36.1472 31.0032C36.7854 30.2029 37 29.8993 37 29.7962C37 29.6932 36.7854 29.3896 36.1472 28.5893C35.678 28.0012 35.2575 27.4919 35.2126 27.4575C35.1488 27.4087 34.2409 27.395 31.0655 27.395H27V23.3929V19.3908H31.0655C34.2409 19.3908 35.1488 19.3771 35.2126 19.3283C35.2575 19.2939 35.678 18.7846 36.1472 18.1965C36.7854 17.3962 37 17.0926 37 16.9895C37 16.8865 36.7854 16.5829 36.1472 15.7826C35.678 15.1945 35.2575 14.6852 35.2126 14.6508C35.1488 14.602 34.242 14.5883 31.071 14.5883H27.0111L26.9771 14.4007C26.8801 13.8655 26.5022 13.3764 26.0074 13.1457C25.7565 13.0288 25.6553 13.0126 25.1 13.0017C24.708 12.9939 24.3902 13.0131 24.2476 13.0532Z" fill="white"/>
  </symbol>

  <!--place-->
  <svg id="place" viewBox="0 0 50 50">
    <circle cx="25" cy="25" r="25"/>
    <path fill-rule="evenodd" clip-rule="evenodd" d="M23.7113 13.0353C22.6044 13.1296 21.3718 13.484 20.3544 14.0006C17.5859 15.4063 15.658 18.0523 15.1382 21.1598C14.7782 23.3119 15.1177 25.3914 16.2019 27.676C17.2206 29.8224 18.7778 31.9365 21.0032 34.1944C22.2148 35.4236 23.6457 36.6953 24.0695 36.9195C24.2682 37.0245 24.6739 37.0272 24.9103 36.9251C25.1436 36.8242 26.0255 36.0841 27.0238 35.1514C29.6237 32.7224 31.8546 29.8119 32.8945 27.4925C34.1242 24.7493 34.3228 22.279 33.5163 19.7543C32.4547 16.4308 29.7117 13.8988 26.4275 13.2109C25.4632 13.0089 24.6433 12.9559 23.7113 13.0353ZM25.5447 18.6049C27.0337 18.9974 28.1759 20.1775 28.5866 21.7475C28.729 22.2922 28.74 23.3182 28.6089 23.8346C28.4024 24.6483 28.0858 25.2425 27.55 25.8227C26.6728 26.7725 25.5533 27.2399 24.3092 27.1757C23.5476 27.1363 22.9475 26.9556 22.3626 26.5894C21.3443 25.952 20.714 25.0749 20.3889 23.8429C20.2617 23.3608 20.2762 22.2184 20.416 21.714C20.8943 19.9888 22.2136 18.7773 23.9114 18.5044C24.3304 18.437 25.084 18.4834 25.5447 18.6049Z" fill="white"/>
  </svg>

  <!--event-->
  <symbol id="event" viewBox="0 0 50 50" >
    <circle cx="25" cy="25" r="25"/>
    <path fill-rule="evenodd" clip-rule="evenodd" d="M18.1343 14.0733C18.0092 14.118 17.8352 14.2119 17.7477 14.282C17.5517 14.4388 17.3263 14.7648 17.2676 14.9763C17.2409 15.0727 17.2236 15.861 17.2235 16.9936C17.2233 18.766 17.2274 18.8637 17.3118 19.0896C17.4748 19.5258 17.9367 19.8824 18.4311 19.9538C18.5594 19.9723 18.7221 19.9587 18.8921 19.915C19.3539 19.7966 19.6283 19.5648 19.8403 19.114L19.9516 18.8774V17.006C19.9516 14.851 19.9522 14.8551 19.5836 14.4513C19.2156 14.0481 18.6312 13.8957 18.1343 14.0733ZM31.0366 14.052C30.7544 14.1457 30.6121 14.2356 30.4258 14.438C30.0335 14.8641 30.0179 14.9715 30.0348 17.135L30.0484 18.8774L30.1727 19.1468C30.6595 20.2023 32.138 20.2193 32.6511 19.1752L32.7553 18.9634V16.9629V14.9624L32.6567 14.7776C32.4059 14.3073 31.9973 14.037 31.4968 14.0104C31.3299 14.0015 31.1361 14.019 31.0366 14.052ZM14.2337 17.2703C14.1846 17.2942 14.1121 17.3685 14.0726 17.4354C14.0079 17.5451 14.0009 17.7945 14.0009 19.9918V22.4267H25H35.9991V19.9918C35.9991 17.7974 35.9921 17.545 35.9276 17.4357C35.8882 17.369 35.81 17.2934 35.7537 17.2677C35.6898 17.2386 35.2888 17.2211 34.6867 17.2211H33.722L33.7211 17.9202C33.72 18.8407 33.6744 19.1391 33.4694 19.5657C33.2739 19.9728 33.0404 20.2492 32.7023 20.474C31.7718 21.0924 30.5854 20.9774 29.811 20.1937C29.2555 19.6315 29.1263 19.2234 29.1253 18.0277L29.1247 17.2211H25H20.8753L20.8747 18.0277C20.874 18.9399 20.8261 19.2296 20.6069 19.6478C20.4308 19.9837 19.9822 20.4328 19.6464 20.6093C18.534 21.194 17.0977 20.742 16.555 19.6364C16.3342 19.1866 16.3119 19.0592 16.289 18.1138L16.2674 17.2211L15.2952 17.224C14.7354 17.2257 14.2852 17.2453 14.2337 17.2703ZM14.0112 29.5458L14.0223 35.7614L14.1415 35.8807L14.2606 36H25H35.7394L35.8585 35.8807L35.9777 35.7614L35.9888 29.5458L36 23.3301H25H14L14.0112 29.5458ZM25.3566 24.6536C25.4022 24.6947 25.7251 25.2997 26.0741 25.998L26.7087 27.2677L28.0563 27.4559C28.7975 27.5594 29.464 27.6714 29.5374 27.7047C29.7442 27.7986 29.8403 28.0407 29.7535 28.2489C29.7201 28.3288 29.2731 28.7988 28.697 29.3599L27.6982 30.3324L27.9375 31.7403C28.1543 33.0166 28.1713 33.1614 28.1182 33.2886C28.086 33.3658 28.0146 33.4605 27.9596 33.4991C27.7519 33.6448 27.6239 33.5992 26.3449 32.924C25.6726 32.569 25.1038 32.2786 25.0808 32.2786C25.0579 32.2786 24.4898 32.569 23.8185 32.924C22.4366 33.6545 22.3465 33.6816 22.1171 33.4357C22.0471 33.3607 21.9915 33.2521 21.9902 33.1883C21.9891 33.1257 22.0906 32.4576 22.2158 31.7037L22.4436 30.3328L21.4012 29.316C20.3723 28.3123 20.3588 28.2968 20.3593 28.1221C20.3598 27.9252 20.4741 27.7432 20.6294 27.6918C20.6819 27.6745 21.334 27.5717 22.0784 27.4634L23.4318 27.2666L24.0806 25.976C24.6554 24.8326 24.7461 24.6765 24.8755 24.6083C25.0417 24.5207 25.2287 24.5383 25.3566 24.6536Z" fill="white"/>
  </symbol>

  <!--monument-->
  <symbol id="monument" viewBox="0 0 50 50">
    <circle cx="25" cy="25" r="25"/>
    <path d="M25 12L22.3333 16.3333V28.4667H27.6667V16.3333L25 12ZM17 31.9333V38H33V31.9333L30.3333 29.3333H19.6667L17 31.9333Z" fill="white"/>
  </symbol>

  <!--suburb-->
  <symbol id="suburb" viewBox="0 0 50 50" >
    <circle cx="25" cy="25" r="25"/>
    <path d="M22.18 13.1693C22.0717 13.0609 21.925 13 21.772 13C21.6189 13 21.4722 13.0609 21.3639 13.1693L11.1635 23.3948C11.0847 23.4762 11.0314 23.579 11.0102 23.6905C10.9891 23.8019 11.0009 23.9172 11.0443 24.022C11.0877 24.1267 11.1607 24.2165 11.2544 24.2801C11.3481 24.3438 11.4583 24.3786 11.5715 24.3801H14.8171V35.4213C14.8171 35.5748 14.8779 35.722 14.9862 35.8305C15.0944 35.939 15.2413 36 15.3944 36H23.5084C23.5842 36.0006 23.6594 35.9862 23.7296 35.9577C23.7999 35.9292 23.8639 35.8871 23.9179 35.8338C23.9719 35.7805 24.015 35.717 24.0445 35.6471C24.0741 35.5771 24.0897 35.502 24.0903 35.426V35.426V22.8068C24.0903 22.6534 24.1512 22.5063 24.2595 22.3978L27.5677 18.5702L22.18 13.1693ZM21.772 31.352H19.4537V29.0281H21.772V31.352ZM21.772 26.7041H19.4537V24.3801H21.772V26.7041ZM37.4204 17.4082H36.2613C36.1076 17.4082 35.9602 17.4695 35.8515 17.5784C35.7428 17.6874 35.6817 17.8351 35.6817 17.9892V22.0562L32.6123 17.8173C32.504 17.7088 32.3573 17.6479 32.2043 17.6479C32.0513 17.6479 31.9045 17.7088 31.7963 17.8173L26.5384 24.2221C26.4546 24.3243 26.4087 24.4524 26.4085 24.5847V35.4143C26.4076 35.4903 26.4217 35.5658 26.4498 35.6363C26.478 35.7069 26.5197 35.7712 26.5727 35.8256C26.6257 35.88 26.6888 35.9234 26.7585 35.9533C26.8282 35.9832 26.903 35.9991 26.9788 36H30.4563C30.5333 36.0003 30.6096 35.9854 30.6809 35.9561C30.7522 35.9269 30.817 35.8838 30.8717 35.8294C30.9264 35.775 30.9698 35.7104 30.9996 35.6392C31.0294 35.568 31.0448 35.4916 31.0451 35.4143V31.352H33.3634V35.412C33.3634 35.568 33.4252 35.7175 33.5352 35.8278C33.6452 35.938 33.7944 36 33.9499 36H37.4274C37.5795 35.9982 37.7248 35.9365 37.8319 35.8282C37.939 35.7199 37.9994 35.5738 38 35.4213V17.9892C38 17.8351 37.9389 17.6874 37.8302 17.5784C37.7216 17.4695 37.5741 17.4082 37.4204 17.4082ZM31.0451 29.0281H28.7268V26.7041H31.0451V29.0281ZM35.6817 29.0281H33.3634V26.7041H35.6817V29.0281Z" fill="white"/>
  </symbol>


    <!--monastery-->
  <symbol id="monastery" viewBox="0 0 50 50">
    <circle cx="25" cy="25" r="25"/>
    <path d="M14.1552 19.7586V21.4827H15.0172V19.7586C15.0172 19.6443 15.0627 19.5346 15.1435 19.4538C15.2243 19.3729 15.334 19.3275 15.4483 19.3275H16.3103V18.4655H15.4483C15.334 18.4655 15.2243 18.4201 15.1435 18.3392C15.0627 18.2584 15.0172 18.1487 15.0172 18.0344V17.1724H14.1552V18.0344C14.1552 18.1487 14.1098 18.2584 14.0289 18.3392C13.9481 18.4201 13.8385 18.4655 13.7241 18.4655H12.8621V19.3275H13.7241C13.8385 19.3275 13.9481 19.3729 14.0289 19.4538C14.1098 19.5346 14.1552 19.6443 14.1552 19.7586Z" fill="white"/>
    <path d="M12 22.3448V37H16.3103V23.638C16.3104 23.5723 16.3254 23.5076 16.3542 23.4487C16.383 23.3897 16.4249 23.3382 16.4767 23.2979L17.7017 22.3448H12Z" fill="white"/>
    <path d="M21.4828 33.2992V37.0001H27.5172V33.2992L24.5 30.282L21.4828 33.2992Z" fill="white"/>
    <path d="M24.931 23.6379H25.7931V24.931H24.931V23.6379Z" fill="white"/>
    <path d="M24.069 15.0172V17.3927L24.2353 17.2634C24.311 17.2045 24.4041 17.1725 24.5 17.1725C24.5959 17.1725 24.689 17.2045 24.7647 17.2634L24.931 17.3927V15.0172C24.931 14.9029 24.9764 14.7933 25.0573 14.7125C25.1381 14.6316 25.2478 14.5862 25.3621 14.5862H26.2241V13.7241H25.3621C25.2478 13.7241 25.1381 13.6787 25.0573 13.5979C24.9764 13.5171 24.931 13.4074 24.931 13.2931V12H24.069V13.2931C24.069 13.4074 24.0236 13.5171 23.9427 13.5979C23.8619 13.6787 23.7522 13.7241 23.6379 13.7241H22.7759V14.5862H23.6379C23.7522 14.5862 23.8619 14.6316 23.9427 14.7125C24.0236 14.7933 24.069 14.9029 24.069 15.0172Z" fill="white"/>
    <path d="M33.9828 19.7586V21.4827H34.8448V19.7586C34.8448 19.6443 34.8902 19.5346 34.9711 19.4538C35.0519 19.3729 35.1615 19.3275 35.2759 19.3275H36.1379V18.4655H35.2759C35.1615 18.4655 35.0519 18.4201 34.9711 18.3392C34.8902 18.2584 34.8448 18.1487 34.8448 18.0344V17.1724H33.9828V18.0344C33.9828 18.1487 33.9373 18.2584 33.8565 18.3392C33.7757 18.4201 33.666 18.4655 33.5517 18.4655H32.6897V19.3275H33.5517C33.666 19.3275 33.7757 19.3729 33.8565 19.4538C33.9373 19.5346 33.9828 19.6443 33.9828 19.7586Z" fill="white"/>
    <path d="M17.1724 23.8487V37H20.6207V33.1207C20.6207 33.0063 20.6661 32.8967 20.747 32.8159L24.1953 29.3676C24.2761 29.2868 24.3857 29.2414 24.5 29.2414C24.6143 29.2414 24.7239 29.2868 24.8047 29.3676L28.253 32.8159C28.3339 32.8967 28.3793 33.0063 28.3793 33.1207V37H31.8276V23.8487L24.5 18.1495L17.1724 23.8487ZM26.6552 23.2069V27.5172C26.6552 27.6315 26.6098 27.7412 26.5289 27.822C26.4481 27.9028 26.3385 27.9482 26.2241 27.9482H22.7759C22.6615 27.9482 22.5519 27.9028 22.4711 27.822C22.3902 27.7412 22.3448 27.6315 22.3448 27.5172V23.2069C22.3448 23.0925 22.3902 22.9829 22.4711 22.9021C22.5519 22.8212 22.6615 22.7758 22.7759 22.7758H26.2241C26.3385 22.7758 26.4481 22.8212 26.5289 22.9021C26.6098 22.9829 26.6552 23.0925 26.6552 23.2069Z" fill="white"/>
    <path d="M31.2983 22.3448L32.5233 23.2979C32.5751 23.3382 32.617 23.3897 32.6458 23.4487C32.6746 23.5076 32.6896 23.5723 32.6897 23.638V37H37V22.3448H31.2983Z" fill="white"/>
    <path d="M23.2069 25.7931H24.069V27.0862H23.2069V25.7931Z" fill="white"/>
    <path d="M23.2069 23.6379H24.069V24.931H23.2069V23.6379Z" fill="white"/>
    <path d="M24.931 25.7931H25.7931V27.0862H24.931V25.7931Z" fill="white"/>
  </symbol>


<!--SHARE-->

  <!--facebook-->
  <symbol id="share-facebook" viewBox="0 0 38 38" fill="none">
    <circle opacity="0.25" cx="19" cy="19.0002" r="19" fill="#8CB110"/>
    <path d="M17.5899 27.6859H20.5722V19.7602H23.0659L23.4425 16.6767H20.5722V14.7007C20.5722 13.8105 20.8063 13.2025 22.0074 13.2025H23.5443V10.4339C23.2797 10.4013 22.3738 10.3145 21.3152 10.3145C19.0963 10.3145 17.5899 11.7585 17.5899 14.3967V16.6767H15.0859V19.7602H17.5899V27.6859Z" fill="#8CB110"/>
  </symbol>

  <!-- instagram -->
  <symbol id="share-instagram" viewBox="0 0 38 38" fill="none">
    <circle opacity="0.25" fill="#8CB110" cx="19" cy="19" r="19"/>
    <path fill="#8CB110" d="M19,12c2.3,0,2.5,0,3.4,0c0.8,0,1.3,0.2,1.6,0.3c0.4,0.1,0.7,0.4,1,0.6c0.3,0.3,0.5,0.6,0.6,1
		c0.1,0.3,0.3,0.8,0.3,1.6c0,0.9,0,1.2,0,3.4s0,2.5,0,3.4c0,0.8-0.2,1.3-0.3,1.6c-0.3,0.7-0.9,1.3-1.6,1.6c-0.3,0.1-0.8,0.3-1.6,0.3
		c-0.9,0-1.2,0-3.4,0s-2.5,0-3.4,0c-0.8,0-1.3-0.2-1.6-0.3c-0.4-0.1-0.7-0.4-1-0.6c-0.3-0.3-0.5-0.6-0.6-1c-0.1-0.3-0.3-0.8-0.3-1.6
		c0-0.9,0-1.2,0-3.4s0-2.5,0-3.4c0-0.8,0.2-1.3,0.3-1.6c0.1-0.4,0.4-0.7,0.6-1c0.3-0.3,0.6-0.5,1-0.6c0.3-0.1,0.8-0.3,1.6-0.3
		C16.5,12,16.7,12,19,12 M19,10.5c-2.3,0-2.6,0-3.5,0.1c-0.9,0-1.5,0.2-2.1,0.4c-0.6,0.2-1.1,0.5-1.5,1c-0.4,0.4-0.8,0.9-1,1.5
		c-0.2,0.5-0.4,1.2-0.4,2.1c0,0.9-0.1,1.2-0.1,3.5s0,2.6,0.1,3.5c0,0.9,0.2,1.5,0.4,2.1c0.2,0.6,0.5,1.1,1,1.5
		c0.4,0.4,0.9,0.8,1.5,1c0.5,0.2,1.2,0.4,2.1,0.4c0.9,0,1.2,0.1,3.5,0.1s2.6,0,3.5-0.1c0.9,0,1.5-0.2,2.1-0.4
		c1.1-0.4,2.1-1.3,2.5-2.5c0.2-0.5,0.4-1.2,0.4-2.1c0-0.9,0.1-1.2,0.1-3.5s0-2.6-0.1-3.5c0-0.9-0.2-1.5-0.4-2.1
		c-0.2-0.6-0.5-1.1-1-1.5c-0.4-0.4-0.9-0.8-1.5-1c-0.5-0.2-1.2-0.4-2.1-0.4C21.6,10.5,21.3,10.5,19,10.5L19,10.5L19,10.5z"/>
    <path fill="#8CB110" d="M19,14.6c-2.4,0-4.4,2-4.4,4.4s2,4.4,4.4,4.4s4.4-2,4.4-4.4l0,0C23.4,16.6,21.4,14.6,19,14.6z M19,21.8
		c-1.6,0-2.8-1.3-2.8-2.8c0-1.6,1.3-2.8,2.8-2.8c1.6,0,2.8,1.3,2.8,2.8C21.8,20.6,20.6,21.8,19,21.8z"/>
    <circle fill="#8CB110" cx="23.6" cy="14.4" r="1"/>
  </symbol>

  <!--instagram in button-->
  <symbol id="instagram-button" viewBox="0 0 17 19" fill="none">
    <path d="M16.3029 5.75362C16.2941 5.09211 16.1703 4.43717 15.937 3.81811C15.7346 3.29594 15.4256 2.82171 15.0296 2.42573C14.6337 2.02975 14.1594 1.72072 13.6372 1.51839C13.0261 1.28899 12.3805 1.16495 11.7279 1.15155C10.8877 1.114 10.6213 1.10352 8.48842 1.10352C6.35553 1.10352 6.08214 1.10352 5.24803 1.15155C4.59572 1.16505 3.95042 1.28909 3.3396 1.51839C2.81734 1.72058 2.34304 2.02956 1.94704 2.42556C1.55104 2.82156 1.24206 3.29586 1.03988 3.81811C0.810018 4.42875 0.686247 5.07419 0.673912 5.72654C0.636354 6.56765 0.625 6.83404 0.625 8.96694C0.625 11.0998 0.625 11.3723 0.673912 12.2073C0.687013 12.8607 0.810165 13.5052 1.03988 14.1175C1.2424 14.6396 1.55161 15.1137 1.94774 15.5096C2.34387 15.9054 2.81822 16.2142 3.34047 16.4164C3.94963 16.655 4.59503 16.7879 5.2489 16.8094C6.09001 16.847 6.3564 16.8583 8.4893 16.8583C10.6222 16.8583 10.8956 16.8583 11.7297 16.8094C12.3823 16.7965 13.0279 16.6728 13.639 16.4434C14.161 16.2409 14.6351 15.9318 15.0311 15.5358C15.427 15.1399 15.7362 14.6658 15.9387 14.1437C16.1684 13.5323 16.2916 12.8877 16.3047 12.2335C16.3422 11.3933 16.3536 11.1269 16.3536 8.99314C16.3518 6.86024 16.3518 6.58948 16.3029 5.75362ZM8.48318 13.0004C6.25246 13.0004 4.44535 11.1933 4.44535 8.96257C4.44535 6.73185 6.25246 4.92474 8.48318 4.92474C9.55408 4.92474 10.5811 5.35015 11.3384 6.10739C12.0956 6.86463 12.521 7.89167 12.521 8.96257C12.521 10.0335 12.0956 11.0605 11.3384 11.8177C10.5811 12.575 9.55408 13.0004 8.48318 13.0004ZM12.6817 5.71693C12.558 5.71705 12.4356 5.69277 12.3213 5.6455C12.207 5.59822 12.1031 5.52887 12.0157 5.44142C11.9282 5.35396 11.8589 5.25012 11.8116 5.13584C11.7643 5.02155 11.7401 4.89906 11.7402 4.77538C11.7402 4.6518 11.7645 4.52942 11.8118 4.41524C11.8591 4.30105 11.9284 4.19731 12.0158 4.10992C12.1032 4.02253 12.207 3.9532 12.3211 3.90591C12.4353 3.85861 12.5577 3.83427 12.6813 3.83427C12.8049 3.83427 12.9273 3.85861 13.0414 3.90591C13.1556 3.9532 13.2594 4.02253 13.3468 4.10992C13.4341 4.19731 13.5035 4.30105 13.5508 4.41524C13.5981 4.52942 13.6224 4.6518 13.6224 4.77538C13.6224 5.29594 13.2014 5.71693 12.6817 5.71693Z" fill="white"/>
    <path d="M8.48226 11.5856C9.93084 11.5856 11.1052 10.4113 11.1052 8.96273C11.1052 7.51415 9.93084 6.33984 8.48226 6.33984C7.03368 6.33984 5.85938 7.51415 5.85938 8.96273C5.85938 10.4113 7.03368 11.5856 8.48226 11.5856Z" fill="white"/>
  </symbol>

  <!--vk-->
  <symbol id="share-vk" viewBox="0 0 38 38" fill="none">
    <circle opacity="0.25" cx="19" cy="19" r="19" fill="#8CB110"/>
    <g clip-path="url(#clip0_203_5684)">
      <path d="M20.7062 26.3081C13.2159 26.3081 8.94364 21.3705 8.76562 13.1543H12.5176C12.6408 19.1848 15.4068 21.7392 17.5978 22.2659V13.1543H21.1308V18.3553C23.2944 18.1314 25.5672 15.7614 26.334 13.1543H29.867C29.2782 16.367 26.8133 18.7371 25.0606 19.7115C26.8133 20.5015 29.6206 22.5687 30.6887 26.3081H26.7997C25.9644 23.8064 23.8832 21.8709 21.1308 21.6075V26.3081H20.7062Z" fill="#8CB110"/>
    </g>
    <defs>
      <clipPath id="clip0_203_5684">
        <rect width="23.3846" height="23.3846" fill="white" transform="translate(7.30469 7.30835)"/>
      </clipPath>
    </defs>
  </symbol>

  <!-- tiktok -->
  <symbol id="share-tiktok" viewBox="0 0 38 38" fill="none">
    <circle opacity="0.25" cx="19" cy="19" r="19" fill="#8CB110"/>
    <path fill="#8CB110" d="M19.6,9.3h3.2c0,0.1,0.1,0.3,0.1,0.4c0.2,2.3,2.1,4.1,4.5,4.1v3C27.2,17,27,17,26.9,17
        c-0.8-0.1-1.5-0.2-2.2-0.4c-0.6-0.2-1.2-0.5-1.8-0.9v0.4c0,1.6,0,3.3,0,4.9c0,0.7,0,1.3-0.1,2c-0.3,2.2-1.7,4.2-3.8,5.1
        c-0.6,0.2-1.2,0.4-1.8,0.5H16c0,0-0.1,0-0.1-0.1c-2.3-0.3-4.2-2-4.8-4.2c-0.1-0.5-0.2-1-0.3-1.5V22c0.1-0.4,0.2-0.9,0.3-1.3
        c0.7-2.4,2.9-4.1,5.3-4.3c0.4-0.1,0.7-0.1,1.1-0.1c0,1.1,0,2,0,3c0,0.2-0.1,0.3-0.3,0.3c-0.6,0.1-1.2,0.3-1.8,0.6
        c-0.9,0.4-1.5,1.3-1.5,2.2c-0.1,1.1,0.5,2.2,1.6,2.7c0.9,0.6,2.1,0.5,3-0.1c0.7-0.5,1.1-1.2,1.2-2c0.1-0.8,0.1-1.6,0.1-2.4
        c0-3.6,0-7.2,0-10.8C19.6,9.6,19.6,9.5,19.6,9.3z"/>
  </symbol>

  <!-- linkedin -->
  <symbol id="share-linkedin" viewBox="0 0 38 38" fill="none">
    <circle opacity="0.25" cx="19" cy="19" r="19" fill="#8CB110"/>
    <path fill="#8CB110" d="M19.7,18L19.7,18C19.7,18,19.7,18,19.7,18L19.7,18z"/>
    <path fill="#8CB110" d="M27.3,9.2H10.7c-0.8,0-1.4,0.6-1.4,1.4v16.9c0,0.8,0.6,1.4,1.4,1.4h16.7c0.8,0,1.4-0.6,1.4-1.4V10.6
      C28.8,9.8,28.1,9.2,27.3,9.2z M15.1,25.6h-3v-8.9h3V25.6z M13.7,15.5L13.7,15.5c-1,0-1.7-0.7-1.7-1.5c0-0.9,0.7-1.5,1.7-1.5
      c1,0,1.6,0.7,1.7,1.5C15.3,14.8,14.7,15.5,13.7,15.5z M25.8,25.6h-3v-4.8c0-1.2-0.4-2-1.5-2c-0.8,0-1.3,0.6-1.5,1.1
      c-0.1,0.2-0.1,0.5-0.1,0.7v5h-3c0,0,0-8.1,0-8.9h3V18c0.4-0.6,1.1-1.5,2.7-1.5c1.9,0,3.4,1.3,3.4,4L25.8,25.6L25.8,25.6z"/>
  </symbol>


<!--FOOTER-->

  <!--pdf-->
  <symbol id="footer-pdf" viewBox="0 0 26 30" fill="none">
    <g clip-path="url(#clip0_203_5151)">
      <path d="M2.36786 0C1.06786 0 0 1.07812 0 2.39062V27.6094C0 28.9219 1.06786 30 2.36786 30H23.6321C24.9321 30 26 28.9219 26 27.6094V9.51562L17.225 0H2.36786Z" fill="#8CB110"/>
      <path d="M26.0037 9.5625V10.0312H20.0609C20.0609 10.0312 17.1359 9.42188 17.2287 6.89062C17.2287 6.89062 17.3216 9.5625 20.0144 9.5625H26.0037Z" fill="#6C880D"/>
      <path opacity="0.5" d="M17.2266 0V6.84375C17.2266 7.64062 17.7373 9.5625 20.0587 9.5625H26.0016L17.2266 0Z" fill="white"/>
      <path d="M6.69837 23.2H4.84324V25.5917C4.84324 25.825 4.67459 26 4.39351 26C4.16865 26 4 25.825 4 25.5917V19.6417C4 19.2917 4.28108 19 4.61838 19H6.69837C8.04755 19 8.83457 19.9917 8.83457 21.1C8.83457 22.2667 8.04755 23.2 6.69837 23.2ZM6.64215 19.7583H4.84324V22.4417H6.64215C7.42917 22.4417 7.99133 21.9167 7.99133 21.1C7.99133 20.2833 7.42917 19.7583 6.64215 19.7583ZM12.4886 26H10.8021C10.4648 26 10.1838 25.7083 10.1838 25.3583V19.6417C10.1838 19.2917 10.4648 19 10.8021 19H12.4886C14.5686 19 15.974 20.5167 15.974 22.5C15.974 24.4833 14.6248 26 12.4886 26ZM12.4886 19.7583H11.027V25.1833H12.4886C14.1189 25.1833 15.0745 23.9583 15.0745 22.4417C15.1308 20.9833 14.1751 19.7583 12.4886 19.7583ZM21.6518 19.7583H18.3913V22.0333H21.5956C21.8205 22.0333 21.9329 22.2083 21.9329 22.4417C21.9329 22.675 21.7642 22.7917 21.5956 22.7917H18.3913V25.5917C18.3913 25.825 18.2226 26 17.9416 26C17.7167 26 17.548 25.825 17.548 25.5917V19.6417C17.548 19.2917 17.8291 19 18.1664 19H21.6518C21.8767 19 21.9891 19.175 21.9891 19.4083C22.0453 19.5833 21.8767 19.7583 21.6518 19.7583Z" fill="white"/>
    </g>
    <defs>
      <clipPath id="clip0_203_5151">
        <rect width="26" height="30" fill="white"/>
      </clipPath>
    </defs>
  </symbol>

  <symbol viewBox="0 0 86 99" id="footer-logo" fill="#8CB110">
    <path d="M0.437343 97.7087L0 48.3482L4.00169 48.2748C9.67257 48.1794 14.3157 49.1779 17.9238 51.2777C21.5318 53.3775 24.1413 56.285 25.7376 59.9927C27.0934 63.069 27.6765 66.483 27.4797 70.2422C27.3339 73.6122 26.605 77.0262 25.3003 80.499C23.3104 85.4769 20.4312 89.6178 16.6482 92.9144C12.8652 96.2109 8.76872 97.8335 4.35885 97.7821L0.430054 97.7087H0.437343ZM8.14187 56.6227L8.43343 88.7C10.3723 87.819 12.1508 86.3799 13.7763 84.3756C15.4018 82.3712 16.7211 80.0805 17.7415 77.4888C18.711 74.9557 19.265 72.4154 19.418 69.8751C19.5128 67.3861 19.1483 65.1908 18.3247 63.2819C16.6773 59.5228 13.2806 57.2982 8.14916 56.6153L8.14187 56.6227Z" fill="white"/>
    <path d="M31.2133 48.6924L39.2822 48.9861L37.1028 97.9794L28.9609 97.6123L31.2133 48.6924Z" fill="white"/>
    <path d="M42.1165 47.5918L50.1855 47.6652L49.821 90.6528L63.6338 90.8731V99.0007L41.6719 98.7804L42.1092 47.5918H42.1165Z" fill="white"/>
    <path d="M85.5371 83.0893L85.3257 74.5065C81.2147 71.9588 77.9492 68.1556 76.0613 63.6036C78.7073 66.1146 81.7832 68.163 85.1799 69.602L84.9685 61.0192C80.5295 58.2733 77.0818 54.0663 75.2814 49.037V48.6846L67.5186 48.8755H67.3947V49.2279C65.8567 54.3379 62.613 58.7138 58.3125 61.6726L58.5239 70.2555C61.8768 68.6329 64.8799 66.4082 67.4165 63.7284C65.7619 68.3979 62.6714 72.392 58.6624 75.1526L58.8738 83.7354C62.3652 82.0468 65.4776 79.7047 68.0725 76.878L68.5755 97.7073L76.4622 97.5164L75.952 76.6357C78.7 79.3522 81.9363 81.5549 85.5298 83.082L85.5371 83.0893Z" fill="white"/>
    <path d="M69.1502 42.4593C79.6027 42.3492 80.0547 22.7753 67.8382 22.9662C57.7137 23.1278 57.6627 42.5841 69.1502 42.4593ZM67.2332 37.2538C63.6762 36.6371 63.6616 28.5609 67.9913 28.5609C72.321 28.5609 70.9871 37.8999 67.2332 37.2538Z"/>
    <path d="M31.8611 25.191C29.6889 26.7035 27.9614 28.4436 26.1537 30.2057C26.0152 23.8181 25.6289 20.1764 25.2863 18.106C25.0385 16.6229 23.7921 15.4775 22.2468 15.4775C20.7015 15.4775 19.3968 16.6743 19.2 18.2088C18.9303 20.3086 18.6825 21.6302 18.1576 23.1426C13.7769 20.9033 8.2737 20.4481 5.23417 25.0295C2.61011 28.9795 1.75729 35.5213 3.70347 39.9045C5.36537 43.6416 9.37435 43.6783 12.1515 41.4243C15.8106 38.4508 18.216 33.0323 20.1403 28.8327C20.1403 28.8327 20.5193 34.0602 20.3954 35.8443C11.9182 44.7062 9.25772 49.0967 10.5479 54.5371C10.5479 54.5665 10.7228 55.1465 10.7593 55.242C11.5319 57.5694 13.6895 59.2507 16.2552 59.2507C18.3909 59.2507 20.1476 58.0246 21.2482 56.358C21.4669 56.0202 21.773 55.5944 22.1593 54.8896C22.4655 54.3463 23.2746 52.5328 23.3037 52.474C23.7046 51.5122 24.018 50.5798 24.2513 49.7868C25.5342 45.3669 26.0517 40.6093 26.161 35.9618C26.9045 35.2423 27.699 34.4787 28.5591 33.6344C28.5154 38.627 30.5782 43.759 37.0581 43.4507C45.2875 43.0542 47.1025 28.6491 41.4826 24.3981C39.2886 22.7388 36.1908 22.2028 31.8683 25.2057L31.8611 25.191ZM9.75338 36.8942C7.70515 36.8942 8.78393 31.63 9.82627 29.4788C11.1602 26.7255 13.6895 25.7123 16.4593 26.9752C15.5773 28.7593 12.5232 36.8942 9.75338 36.8942ZM20.3006 41.74C20.2204 42.9367 20.1621 44.1408 19.9216 45.2642C19.0906 49.0306 17.4725 51.9748 15.9199 52.7457C14.7537 50.0291 16.5905 46.5784 20.3079 41.74H20.3006ZM34.8423 37.8414C31.0593 37.4449 32.0724 29.2071 35.2723 28.4656C40.4694 27.2542 40.1487 38.3994 34.8423 37.8414Z"/>
    <path d="M74.0663 53.3545C70.7935 50.8656 70.7206 47.4956 69.5981 45.6895C69.1025 44.8892 68.4173 44.5735 67.7467 44.5882C67.7248 44.5882 67.703 44.5882 67.6811 44.5882C66.4711 44.5882 65.458 45.572 65.4944 46.7908C65.5236 47.7232 65.8661 48.6997 66.821 50.917C61.3688 46.2842 58.2272 40.4105 57.6951 32.0847C57.3817 27.2316 58.1981 21.9967 59.029 17.8485C59.0655 17.7604 59.0946 17.6649 59.1311 17.5695C65.0716 18.7956 69.8168 17.7163 71.5006 17.4153C74.2996 16.9234 74.3579 12.6136 71.5006 12.922C70.225 13.0615 68.9931 13.1276 67.7759 13.1349C65.334 13.0688 62.8339 12.6356 60.4722 12.0189C61.1647 9.72819 62.71 5.98376 63.5774 3.95736C63.7377 3.58291 63.8617 3.19378 63.8617 2.7606C63.8617 1.23346 62.6371 0 61.121 0C60.1297 0 59.2768 0.535968 58.7885 1.32157C57.5202 3.38468 55.9603 5.89565 54.5462 10.0512C50.5956 8.48005 48.4963 7.26861 48.4963 7.26861C46.2513 5.9911 44.0063 8.79575 45.7994 10.7928C46.4773 11.549 49.7646 14.2289 53.0666 15.5945C52.0169 20.7853 51.1714 27.2463 52.3085 34.9407C53.8246 45.1462 59.5757 50.8729 63.3806 54.5219C63.5336 54.7055 63.694 54.8817 63.8835 55.0065C62.8995 54.9404 61.9957 54.7716 61.2959 54.4705C61.2522 54.4485 61.2303 54.4485 61.1866 54.4338C61.1428 54.4191 61.0991 54.4045 61.0627 54.3898C60.9971 54.3677 60.9169 54.3384 60.8731 54.331C60.6982 54.287 60.5087 54.2503 60.3192 54.2503C59.0946 54.2503 58.1033 55.2488 58.1033 56.4823C58.1033 57.4881 58.7666 58.3251 59.6704 58.6041C59.685 58.6041 59.6923 58.6188 59.6996 58.6261C64.0366 60.1753 69.8532 59.5806 73.6363 56.9668C75.648 55.5792 75.7792 54.6467 74.0736 53.3472L74.0663 53.3545Z"/>
  </symbol>



</svg>
