<svg xmlns="http://www.w3.org/2000/svg">

<!-- header -->

  <!--  logo-->
  <symbol id="header-logo" viewBox="0 0 86 99">
      <path d="M0.437343 97.7087L0 48.3482L4.00169 48.2748C9.67257 48.1794 14.3157 49.1779 17.9238 51.2777C21.5318 53.3775 24.1413 56.285 25.7376 59.9927C27.0934 63.069 27.6765 66.483 27.4797 70.2422C27.3339 73.6122 26.605 77.0262 25.3003 80.499C23.3104 85.4769 20.4312 89.6178 16.6482 92.9144C12.8652 96.2109 8.76872 97.8335 4.35885 97.7821L0.430054 97.7087H0.437343ZM8.14187 56.6227L8.43343 88.7C10.3723 87.819 12.1508 86.3799 13.7763 84.3756C15.4018 82.3712 16.7211 80.0805 17.7415 77.4888C18.711 74.9557 19.265 72.4154 19.418 69.8751C19.5128 67.3861 19.1483 65.1908 18.3247 63.2819C16.6773 59.5228 13.2806 57.2982 8.14916 56.6153L8.14187 56.6227Z" fill="white"/>
      <path d="M31.2133 48.6924L39.2822 48.9861L37.1028 97.9794L28.9609 97.6123L31.2133 48.6924Z" fill="white"/>
      <path d="M42.1165 47.5918L50.1855 47.6652L49.821 90.6528L63.6338 90.8731V99.0007L41.6719 98.7804L42.1092 47.5918H42.1165Z" fill="white"/>
      <path d="M85.5371 83.0893L85.3257 74.5065C81.2147 71.9588 77.9492 68.1556 76.0613 63.6036C78.7073 66.1146 81.7832 68.163 85.1799 69.602L84.9685 61.0192C80.5295 58.2733 77.0818 54.0663 75.2814 49.037V48.6846L67.5186 48.8755H67.3947V49.2279C65.8567 54.3379 62.613 58.7138 58.3125 61.6726L58.5239 70.2555C61.8768 68.6329 64.8799 66.4082 67.4165 63.7284C65.7619 68.3979 62.6714 72.392 58.6624 75.1526L58.8738 83.7354C62.3652 82.0468 65.4776 79.7047 68.0725 76.878L68.5755 97.7073L76.4622 97.5164L75.952 76.6357C78.7 79.3522 81.9363 81.5549 85.5298 83.082L85.5371 83.0893Z" fill="white"/>
      <path d="M69.1502 42.4593C79.6027 42.3492 80.0547 22.7753 67.8382 22.9662C57.7137 23.1278 57.6627 42.5841 69.1502 42.4593ZM67.2332 37.2538C63.6762 36.6371 63.6616 28.5609 67.9913 28.5609C72.321 28.5609 70.9871 37.8999 67.2332 37.2538Z" />
      <path d="M31.8611 25.191C29.6889 26.7035 27.9614 28.4436 26.1537 30.2057C26.0152 23.8181 25.6289 20.1764 25.2863 18.106C25.0385 16.6229 23.7921 15.4775 22.2468 15.4775C20.7015 15.4775 19.3968 16.6743 19.2 18.2088C18.9303 20.3086 18.6825 21.6302 18.1576 23.1426C13.7769 20.9033 8.2737 20.4481 5.23417 25.0295C2.61011 28.9795 1.75729 35.5213 3.70347 39.9045C5.36537 43.6416 9.37435 43.6783 12.1515 41.4243C15.8106 38.4508 18.216 33.0323 20.1403 28.8327C20.1403 28.8327 20.5193 34.0602 20.3954 35.8443C11.9182 44.7062 9.25772 49.0967 10.5479 54.5371C10.5479 54.5665 10.7228 55.1465 10.7593 55.242C11.5319 57.5694 13.6895 59.2507 16.2552 59.2507C18.3909 59.2507 20.1476 58.0246 21.2482 56.358C21.4669 56.0202 21.773 55.5944 22.1593 54.8896C22.4655 54.3463 23.2746 52.5328 23.3037 52.474C23.7046 51.5122 24.018 50.5798 24.2513 49.7868C25.5342 45.3669 26.0517 40.6093 26.161 35.9618C26.9045 35.2423 27.699 34.4787 28.5591 33.6344C28.5154 38.627 30.5782 43.759 37.0581 43.4507C45.2875 43.0542 47.1025 28.6491 41.4826 24.3981C39.2886 22.7388 36.1908 22.2028 31.8683 25.2057L31.8611 25.191ZM9.75338 36.8942C7.70515 36.8942 8.78393 31.63 9.82627 29.4788C11.1602 26.7255 13.6895 25.7123 16.4593 26.9752C15.5773 28.7593 12.5232 36.8942 9.75338 36.8942ZM20.3006 41.74C20.2204 42.9367 20.1621 44.1408 19.9216 45.2642C19.0906 49.0306 17.4725 51.9748 15.9199 52.7457C14.7537 50.0291 16.5905 46.5784 20.3079 41.74H20.3006ZM34.8423 37.8414C31.0593 37.4449 32.0724 29.2071 35.2723 28.4656C40.4694 27.2542 40.1487 38.3994 34.8423 37.8414Z"/>
      <path d="M74.0663 53.3545C70.7935 50.8656 70.7206 47.4956 69.5981 45.6895C69.1025 44.8892 68.4173 44.5735 67.7467 44.5882C67.7248 44.5882 67.703 44.5882 67.6811 44.5882C66.4711 44.5882 65.458 45.572 65.4944 46.7908C65.5236 47.7232 65.8661 48.6997 66.821 50.917C61.3688 46.2842 58.2272 40.4105 57.6951 32.0847C57.3817 27.2316 58.1981 21.9967 59.029 17.8485C59.0655 17.7604 59.0946 17.6649 59.1311 17.5695C65.0716 18.7956 69.8168 17.7163 71.5006 17.4153C74.2996 16.9234 74.3579 12.6136 71.5006 12.922C70.225 13.0615 68.9931 13.1276 67.7759 13.1349C65.334 13.0688 62.8339 12.6356 60.4722 12.0189C61.1647 9.72819 62.71 5.98376 63.5774 3.95736C63.7377 3.58291 63.8617 3.19378 63.8617 2.7606C63.8617 1.23346 62.6371 0 61.121 0C60.1297 0 59.2768 0.535968 58.7885 1.32157C57.5202 3.38468 55.9603 5.89565 54.5462 10.0512C50.5956 8.48005 48.4963 7.26861 48.4963 7.26861C46.2513 5.9911 44.0063 8.79575 45.7994 10.7928C46.4773 11.549 49.7646 14.2289 53.0666 15.5945C52.0169 20.7853 51.1714 27.2463 52.3085 34.9407C53.8246 45.1462 59.5757 50.8729 63.3806 54.5219C63.5336 54.7055 63.694 54.8817 63.8835 55.0065C62.8995 54.9404 61.9957 54.7716 61.2959 54.4705C61.2522 54.4485 61.2303 54.4485 61.1866 54.4338C61.1428 54.4191 61.0991 54.4045 61.0627 54.3898C60.9971 54.3677 60.9169 54.3384 60.8731 54.331C60.6982 54.287 60.5087 54.2503 60.3192 54.2503C59.0946 54.2503 58.1033 55.2488 58.1033 56.4823C58.1033 57.4881 58.7666 58.3251 59.6704 58.6041C59.685 58.6041 59.6923 58.6188 59.6996 58.6261C64.0366 60.1753 69.8532 59.5806 73.6363 56.9668C75.648 55.5792 75.7792 54.6467 74.0736 53.3472L74.0663 53.3545Z"/>
  </symbol>>

  <!--  phone-->
  <symbol id="header-phone" viewBox="0 0 17 20">
      <path d="M3.33807 0.98078L0.3727 6.10906C0.304077 6.22793 0.272608 6.36463 0.282344 6.50154C0.292079 6.63845 0.342575 6.76932 0.427328 6.87729L10.0459 19.1185C10.1308 19.2263 10.246 19.3064 10.3767 19.3482C10.5074 19.3901 10.6477 19.3918 10.7794 19.3533L16.4636 17.6851C16.5714 17.6535 16.6698 17.596 16.7502 17.5175C16.8307 17.4391 16.8907 17.3422 16.9249 17.2352C16.9592 17.1282 16.9668 17.0144 16.9469 16.9039C16.9271 16.7933 16.8804 16.6893 16.8111 16.6009L14.2038 13.2843C14.1146 13.1711 13.992 13.0887 13.8533 13.049C13.7147 13.0092 13.5671 13.0141 13.4313 13.0629L10.4879 14.1181L5.39167 7.63075L7.11187 5.02033C7.19137 4.89999 7.231 4.75771 7.22518 4.61361C7.21935 4.46951 7.16836 4.33089 7.07941 4.21737L4.47233 0.899439C4.40282 0.811443 4.31284 0.741786 4.21024 0.69654C4.10763 0.651295 3.99552 0.631834 3.88367 0.639855C3.77182 0.647876 3.66363 0.683136 3.56853 0.742559C3.47343 0.801982 3.39431 0.883766 3.33807 0.98078Z" />
  </symbol>>

  <!-- instagram -->
  <symbol id="header-instagram" viewBox="0 0 30 30">
      <circle cx="15" cy="15" r="15" fill="white" fill-opacity="0.3"/>
      <g opacity="0.8">
      <path d="M21.878 12.1579C21.8702 11.5753 21.7612 10.9985 21.5557 10.4533C21.3775 9.99339 21.1053 9.57573 20.7566 9.22699C20.4079 8.87824 19.9902 8.60608 19.5303 8.42788C18.9921 8.22585 18.4235 8.11661 17.8488 8.10481C17.1088 8.07173 16.8742 8.0625 14.9957 8.0625C13.1172 8.0625 12.8765 8.0625 12.1419 8.10481C11.5674 8.1167 10.999 8.22594 10.4611 8.42788C10.0011 8.60595 9.58341 8.87807 9.23465 9.22683C8.88589 9.57559 8.61377 9.99331 8.4357 10.4533C8.23326 10.9911 8.12425 11.5595 8.11339 12.134C8.08031 12.8748 8.07031 13.1094 8.07031 14.9879C8.07031 16.8663 8.07031 17.1063 8.11339 17.8417C8.12493 18.4171 8.23339 18.9848 8.4357 19.524C8.61406 19.9839 8.88639 20.4014 9.23526 20.75C9.58414 21.0986 10.0019 21.3706 10.4619 21.5487C10.9983 21.7588 11.5668 21.8759 12.1426 21.8948C12.8834 21.9279 13.118 21.9379 14.9965 21.9379C16.8749 21.9379 17.1157 21.9379 17.8503 21.8948C18.425 21.8835 18.9937 21.7745 19.5319 21.5725C19.9916 21.3941 20.4092 21.1219 20.7579 20.7731C21.1066 20.4244 21.3788 20.0069 21.5572 19.5471C21.7595 19.0087 21.868 18.441 21.8795 17.8648C21.9126 17.1248 21.9226 16.8902 21.9226 15.011C21.9211 13.1325 21.9211 12.894 21.878 12.1579V12.1579ZM14.9911 18.5402C13.0265 18.5402 11.4349 16.9487 11.4349 14.984C11.4349 13.0194 13.0265 11.4279 14.9911 11.4279C15.9342 11.4279 16.8388 11.8026 17.5057 12.4695C18.1726 13.1364 18.5472 14.0409 18.5472 14.984C18.5472 15.9272 18.1726 16.8317 17.5057 17.4986C16.8388 18.1655 15.9342 18.5402 14.9911 18.5402V18.5402ZM18.6888 12.1256C18.5799 12.1257 18.472 12.1043 18.3713 12.0627C18.2707 12.021 18.1792 11.9599 18.1022 11.8829C18.0252 11.8059 17.9641 11.7145 17.9225 11.6138C17.8808 11.5131 17.8594 11.4053 17.8595 11.2963C17.8595 11.1875 17.881 11.0797 17.9226 10.9792C17.9643 10.8786 18.0253 10.7872 18.1023 10.7103C18.1793 10.6333 18.2706 10.5722 18.3712 10.5306C18.4718 10.4889 18.5795 10.4675 18.6884 10.4675C18.7972 10.4675 18.905 10.4889 19.0056 10.5306C19.1061 10.5722 19.1975 10.6333 19.2745 10.7103C19.3514 10.7872 19.4125 10.8786 19.4541 10.9792C19.4958 11.0797 19.5172 11.1875 19.5172 11.2963C19.5172 11.7548 19.1465 12.1256 18.6888 12.1256Z" fill="white"/>
      <path d="M14.9897 17.2938C16.2655 17.2938 17.2997 16.2596 17.2997 14.9838C17.2997 13.7081 16.2655 12.6738 14.9897 12.6738C13.7139 12.6738 12.6797 13.7081 12.6797 14.9838C12.6797 16.2596 13.7139 17.2938 14.9897 17.2938Z" fill="white"/>
      </g>
  </symbol>

  <!-- vk -->
  <symbol id="header-vk" viewBox="0 0 30 30">
      <circle cx="15" cy="15" r="15" fill="white" fill-opacity="0.3" />
      <g opacity="0.8" clip-path="url(#clip0_302_4038)">
      <path d="M16.3485 20.7693C10.4352 20.7693 7.06241 16.8712 6.92188 10.3848H9.88394C9.98124 15.1456 12.1649 17.1623 13.8946 17.5781V10.3848H16.6838V14.4908C18.3918 14.314 20.1862 12.443 20.7915 10.3848H23.5807C23.1158 12.9211 21.17 14.7922 19.7862 15.5614C21.17 16.1851 23.3862 17.8171 24.2294 20.7693H21.1591C20.4997 18.7943 18.8567 17.2662 16.6838 17.0583V20.7693H16.3485Z" fill="white"/>
      </g>
      <defs>
      <clipPath id="clip0_302_4038">
      <rect width="18.4614" height="18.4614" fill="white" transform="translate(5.76562 5.76953)"/>
      </clipPath>
      </defs>
  </symbol>

  <!-- facebook -->
  <symbol id="header-facebook" viewBox="0 0 30 30">
      <circle cx="15" cy="15" r="15" fill="white" fill-opacity="0.3" />
      <g opacity="0.8">
      <path d="M13.883 21.8578H16.2375V15.6007H18.2063L18.5036 13.1664H16.2375V11.6064C16.2375 10.9036 16.4223 10.4236 17.3705 10.4236H18.5839V8.23784C18.375 8.21213 17.6598 8.14355 16.8241 8.14355C15.0723 8.14355 13.883 9.28355 13.883 11.3664V13.1664H11.9062V15.6007H13.883V21.8578Z" fill="#F7F7F7"/>
      </g>
  </symbol>


<!-- footer -->

  <!-- instagram -->
  <symbol id="footer-instagram" viewBox="0 0 34 34" fill="none">
      <circle cx="17" cy="17" r="17" fill="white" fill-opacity="0.19"/>
      <path d="M24.7972 13.7782C24.7884 13.1179 24.6648 12.4642 24.4319 11.8463C24.2299 11.3251 23.9215 10.8517 23.5262 10.4565C23.131 10.0612 22.6576 9.75277 22.1364 9.55082C21.5265 9.32185 20.8821 9.19804 20.2307 9.18467C19.392 9.14718 19.1261 9.13672 16.9972 9.13672C14.8683 9.13672 14.5954 9.13672 13.7628 9.18467C13.1118 9.19814 12.4677 9.32195 11.858 9.55082C11.3367 9.75263 10.8633 10.061 10.468 10.4563C10.0728 10.8516 9.76435 11.325 9.56254 11.8463C9.33311 12.4558 9.20957 13.1 9.19726 13.7511C9.15977 14.5907 9.14844 14.8566 9.14844 16.9855C9.14844 19.1144 9.14844 19.3864 9.19726 20.2198C9.21033 20.872 9.33326 21.5153 9.56254 22.1265C9.76469 22.6476 10.0733 23.1208 10.4687 23.5159C10.8641 23.911 11.3376 24.2193 11.8588 24.421C12.4669 24.6592 13.1111 24.7919 13.7637 24.8133C14.6033 24.8508 14.8692 24.8622 16.9981 24.8622C19.127 24.8622 19.3999 24.8622 20.2324 24.8133C20.8838 24.8005 21.5282 24.677 22.1382 24.4481C22.6592 24.2459 23.1325 23.9373 23.5277 23.5421C23.9229 23.1469 24.2314 22.6737 24.4336 22.1526C24.6629 21.5424 24.7858 20.899 24.7989 20.246C24.8364 19.4073 24.8477 19.1414 24.8477 17.0116C24.846 14.8827 24.846 14.6125 24.7972 13.7782ZM16.992 21.0114C14.7654 21.0114 12.9617 19.2077 12.9617 16.9811C12.9617 14.7546 14.7654 12.9508 16.992 12.9508C18.0609 12.9508 19.086 13.3754 19.8418 14.1313C20.5977 14.8871 21.0223 15.9122 21.0223 16.9811C21.0223 18.05 20.5977 19.0752 19.8418 19.831C19.086 20.5868 18.0609 21.0114 16.992 21.0114ZM21.1827 13.7415C21.0592 13.7417 20.937 13.7174 20.8229 13.6702C20.7088 13.623 20.6052 13.5538 20.5179 13.4665C20.4306 13.3792 20.3614 13.2756 20.3142 13.1615C20.267 13.0475 20.2428 12.9252 20.2429 12.8017C20.2429 12.6784 20.2672 12.5562 20.3144 12.4423C20.3616 12.3283 20.4308 12.2247 20.518 12.1375C20.6053 12.0503 20.7088 11.9811 20.8228 11.9339C20.9368 11.8867 21.0589 11.8624 21.1823 11.8624C21.3056 11.8624 21.4278 11.8867 21.5417 11.9339C21.6557 11.9811 21.7593 12.0503 21.8465 12.1375C21.9337 12.2247 22.0029 12.3283 22.0501 12.4423C22.0973 12.5562 22.1216 12.6784 22.1216 12.8017C22.1216 13.3213 21.7014 13.7415 21.1827 13.7415Z" fill="white"/>
      <path d="M16.993 19.5993C18.4389 19.5993 19.611 18.4272 19.611 16.9813C19.611 15.5354 18.4389 14.3633 16.993 14.3633C15.5471 14.3633 14.375 15.5354 14.375 16.9813C14.375 18.4272 15.5471 19.5993 16.993 19.5993Z" fill="white"/>
  </symbol>

  <!-- vk -->
  <symbol id="footer-vk" viewBox="0 0 34 34" fill="none">
      <circle cx="17" cy="17" r="17" fill="white" fill-opacity="0.19"/>
      <g clip-path="url(#clip0_203_5142)">
      <path d="M18.5273 23.5387C11.8255 23.5387 8.00302 19.1208 7.84375 11.7695H11.2008C11.311 17.1652 13.7858 19.4507 15.7461 19.9219V11.7695H18.9072V16.423C20.843 16.2227 22.8766 14.1022 23.5627 11.7695H26.7237C26.1969 14.6441 23.9916 16.7646 22.4233 17.6364C23.9916 18.3433 26.5033 20.1929 27.459 23.5387H23.9793C23.232 21.3003 21.3699 19.5685 18.9072 19.3329V23.5387H18.5273Z" fill="white"/>
      </g>
      <defs>
      <clipPath id="clip0_203_5142">
      <rect width="20.9229" height="20.9229" fill="white" transform="translate(6.53906 6.53906)"/>
      </clipPath>
      </defs>
  </symbol>

  <!-- facebook -->
  <symbol id="footer-facebook" viewBox="0 0 34 34" fill="none">
      <circle cx="17" cy="17" r="17" fill="white" fill-opacity="0.19"/>
      <path d="M15.7404 24.7714H18.4088V17.6799H20.64L20.977 14.9211H18.4088V13.1531C18.4088 12.3565 18.6182 11.8125 19.6929 11.8125H21.068V9.33537C20.8313 9.30623 20.0207 9.22852 19.0736 9.22852C17.0882 9.22852 15.7404 10.5205 15.7404 12.8811V14.9211H13.5V17.6799H15.7404V24.7714Z" fill="white"/>
  </symbol>

</svg>
