<svg width="6" height="9" viewBox="0 0 6 9" fill="#242424" xmlns="http://www.w3.org/2000/svg">
<path opacity="0.4" d="M6 6.31631L5.95341 4.7406C5.04739 4.27288 4.32771 3.57466 3.91165 2.73895C4.49478 3.19994 5.17269 3.57601 5.92129 3.8402L5.8747 2.26449C4.89639 1.76037 4.13655 0.988019 3.73976 0.0647002V0L2.02892 0.035046H2.00161V0.0997461C1.66265 1.03789 0.947791 1.84125 0 2.38445L0.0465865 3.96016C0.785542 3.66227 1.44739 3.25386 2.00643 2.76187C1.64177 3.61914 0.960643 4.3524 0.077109 4.85922L0.123694 6.43493C0.893172 6.12491 1.57912 5.69492 2.151 5.17598L2.26185 9L4 8.96495L3.88755 5.1315C4.49317 5.63022 5.20643 6.0346 5.99839 6.31496L6 6.31631Z"/>
</svg>
