<svg width="2044" height="106" viewBox="0 0 2044 106" fill="none" xmlns="http://www.w3.org/2000/svg">
<path d="M61.538 57.7419C73.9981 61.7728 86.4217 65.7919 97.8449 69.2806C142.973 83.0625 251.828 110.212 304.083 73.7622C359.594 35.0417 433.542 44.2487 482.802 50.3819C490.377 51.3251 497.368 52.1956 503.619 52.8079C562.675 58.5929 626.858 33.4024 686.431 8.93747C730.297 -9.07658 781.016 4.10181 835.688 18.3075C875.115 28.5518 916.598 39.3304 959.049 39.3304C1045.82 39.3304 1101.6 33.7721 1179.74 12.3753C1270.66 -12.5198 1311.3 7.15933 1341.02 21.5489C1342.28 22.1625 1343.53 22.7665 1344.76 23.357C1361.57 32.545 1429.66 49.3387 1463.63 49.3387C1472.85 49.3387 1485.88 45.9528 1501.35 41.9352C1542.92 31.1354 1602.07 15.7709 1651.8 49.3387C1701.38 82.8092 1769.09 75.7696 1800.69 60.7946C1807.47 57.5835 1813.77 54.5611 1819.67 51.7284C1871.88 26.6863 1893.18 16.4684 1938.49 21.7747C1970.48 25.5202 2019.06 50.5423 2044 69.5827V106H0V39.0066C16.986 43.3291 39.3201 50.5543 61.538 57.7419Z" fill="#F4F6E9"/>
</svg>
