<svg width="567" height="137" viewBox="0 0 567 137" fill="none" xmlns="http://www.w3.org/2000/svg">
<path d="M193.039 79.6334H182.819V77.3689H190.768V58.8758H169.193V77.3689H177.52V79.6334H166.922V56.9888H193.039V79.6334Z" fill="#8CB110"/>
<path d="M169.193 97.3721H148.375L154.809 74.3501H168.057V76.6146H156.323L151.403 95.1077H169.193V97.3721Z" fill="#8CB110"/>
<path d="M211.584 97.3719H191.523V95.1074H208.935L203.636 76.6143H191.902V74.3499H205.528L211.584 97.3719Z" fill="#8CB110"/>
<path d="M193.039 126.433H166.922V89.8237H169.193V124.168H190.768V89.8237H193.039V126.433Z" fill="#8CB110"/>
<path d="M195.686 59.2535H164.648L180.167 30.1929L195.686 59.2535ZM168.055 56.989H191.901L179.789 34.7218L168.055 56.989Z" fill="#8CB110"/>
<path d="M193.037 92.8432L180.168 77.3693L167.299 92.8432L165.406 91.3335L180.168 73.9727L194.551 91.3335L193.037 92.8432Z" fill="#8CB110"/>
<path d="M233.526 126.282H2.33582V124.033H230.437V109.041H233.526V126.282Z" fill="#8CB110"/>
<path d="M233.917 110.581L218.02 103.033L208.557 108.694L207.422 106.807L218.02 100.769L234.674 108.694L233.917 110.581Z" fill="#8CB110"/>
<path d="M184.709 27.1733H175.625V29.4378H184.709V27.1733Z" fill="#8CB110"/>
<path d="M183.197 77.7467H180.926V64.1599C180.926 63.4051 179.412 63.4051 179.412 64.1599V77.7467H177.141V64.1599C177.141 62.6503 178.276 61.1406 180.169 61.1406C181.683 61.1406 183.197 62.2729 183.197 64.1599V77.7467V77.7467Z" fill="#8CB110"/>
<path d="M176.381 79.6337H170.703V64.1599C170.703 62.6503 171.839 61.1406 173.731 61.1406C175.245 61.1406 176.759 62.2729 176.759 64.1599V79.6337H176.381ZM172.974 77.3693H174.488V64.1599C174.488 63.4051 172.974 63.4051 172.974 64.1599V77.3693Z" fill="#8CB110"/>
<path d="M189.631 79.6337H183.953V64.1599C183.953 62.6503 185.089 61.1406 186.981 61.1406C188.495 61.1406 190.009 62.2729 190.009 64.1599V79.6337H189.631ZM185.846 77.3693H187.36V64.1599C187.36 63.4051 185.846 63.4051 185.846 64.1599V77.3693Z" fill="#8CB110"/>
<path d="M169.188 87.9365H151.398V90.201H169.188V87.9365Z" fill="#8CB110"/>
<path d="M208.18 87.9365H190.391V90.201H208.18V87.9365Z" fill="#8CB110"/>
<path d="M152.919 95.4849H150.648V125.3H152.919V95.4849Z" fill="#8CB110"/>
<path d="M209.693 95.4849H207.422V125.3H209.693V95.4849Z" fill="#8CB110"/>
<path d="M175.624 97.7492H171.461V95.4847H173.353V90.9558H176.76V87.9365H180.166V90.201H179.031V93.2203H175.624V97.7492Z" fill="#8CB110"/>
<path d="M181.302 95.8623H179.031V100.769H181.302V95.8623Z" fill="#8CB110"/>
<path d="M219.154 109.827H216.883V114.733H219.154V109.827Z" fill="#8CB110"/>
<path d="M228.997 118.129H226.726V124.923H228.997V118.129Z" fill="#8CB110"/>
<path d="M182.436 102.656H177.516V104.92H182.436V102.656Z" fill="#8CB110"/>
<path d="M188.499 97.7492H184.335V93.2203H180.929V90.201H180.172V87.9365H183.2V90.9558H186.606V95.4847H188.499V97.7492Z" fill="#8CB110"/>
<path d="M174.115 58.1212L171.844 57.7438L179.035 32.8347V23.7769H181.306L180.928 33.2121L174.115 58.1212Z" fill="#8CB110"/>
<path d="M181.302 32.8345H179.031V57.7436H181.302V32.8345Z" fill="#8CB110"/>
<path d="M186.223 58.1214L179.031 33.2123L180.924 32.4575L188.115 57.744L186.223 58.1214Z" fill="#8CB110"/>
<path d="M400.08 126.432H379.641V81.8979H381.533V124.168H397.809V87.5591H400.08V126.432Z" fill="#8CB110"/>
<path d="M432.63 89.0688H430.359V125.678H432.63V89.0688Z" fill="#8CB110"/>
<path d="M407.271 87.5591H405V102.278H407.271V87.5591Z" fill="#8CB110"/>
<path d="M494.325 87.5591H492.054V102.278H494.325V87.5591Z" fill="#8CB110"/>
<path d="M415.216 87.5591H412.945V102.278H415.216V87.5591Z" fill="#8CB110"/>
<path d="M447.013 85.6719H444.742V125.3H447.013V85.6719Z" fill="#8CB110"/>
<path d="M462.529 85.6719H460.258V125.3H462.529V85.6719Z" fill="#8CB110"/>
<path d="M477.669 88.6914H475.398V125.3H477.669V88.6914Z" fill="#8CB110"/>
<path d="M395.537 93.5977H393.266V99.2588H395.537V93.5977Z" fill="#8CB110"/>
<path d="M395.537 104.92H393.266V110.581H395.537V104.92Z" fill="#8CB110"/>
<path d="M391.748 104.92H389.477V110.581H391.748V104.92Z" fill="#8CB110"/>
<path d="M391.748 114.733H389.477V125.3H391.748V114.733Z" fill="#8CB110"/>
<path d="M391.748 93.5977H389.477V99.2588H391.748V93.5977Z" fill="#8CB110"/>
<path d="M409.163 89.0686C403.486 89.0686 398.944 87.5589 393.266 86.0493C388.346 84.5396 382.668 82.6526 375.477 81.8978L375.855 79.6333C383.425 80.7655 388.724 82.2752 394.023 83.7848C399.701 85.6719 404.621 87.1815 409.921 86.8041C422.79 86.4267 431.874 83.03 431.874 83.03L432.631 84.917C432.252 84.917 423.168 88.3137 409.921 88.6912C409.921 89.0686 409.542 89.0686 409.163 89.0686Z" fill="#8CB110"/>
<path d="M498.486 89.0686C498.108 89.0686 497.729 89.0686 497.351 89.0686C484.103 88.6912 475.019 85.2945 474.641 85.2945L475.398 83.4074C475.398 83.4074 484.482 86.8041 497.351 87.1815C503.028 87.559 507.949 85.6719 513.248 84.1623C518.169 82.6526 523.846 80.7656 531.416 80.0107L531.795 82.2752C524.603 83.4074 518.926 84.9171 514.005 86.4267C508.706 87.5589 503.785 89.0686 498.486 89.0686Z" fill="#8CB110"/>
<path d="M528.767 126.432H508.328V86.8043H510.599V124.168H526.875V81.8979H528.767V126.432Z" fill="#8CB110"/>
<path d="M515.146 93.5977H512.875V99.2588H515.146V93.5977Z" fill="#8CB110"/>
<path d="M515.146 104.92H512.875V110.581H515.146V104.92Z" fill="#8CB110"/>
<path d="M519.31 104.92H517.039V110.581H519.31V104.92Z" fill="#8CB110"/>
<path d="M519.31 114.733H517.039V125.3H519.31V114.733Z" fill="#8CB110"/>
<path d="M519.31 93.5977H517.039V99.2588H519.31V93.5977Z" fill="#8CB110"/>
<path d="M560.943 104.92H558.672V110.581H560.943V104.92Z" fill="#8CB110"/>
<path d="M560.943 93.5977H558.672V99.2588H560.943V93.5977Z" fill="#8CB110"/>
<path d="M555.646 93.5977H553.375V99.2588H555.646V93.5977Z" fill="#8CB110"/>
<path d="M429.601 90.5786L428.844 88.6915C429.222 88.6915 454.582 78.5014 478.806 88.6915L478.049 90.5786C454.204 80.7659 429.601 90.5786 429.601 90.5786Z" fill="#8CB110"/>
<path d="M508.33 101.523H400.078V103.788H508.33V101.523Z" fill="#8CB110"/>
<path d="M541.259 88.6914H527.633V90.9559H541.259V88.6914Z" fill="#8CB110"/>
<path d="M508.33 110.581H400.078V112.846H508.33V110.581Z" fill="#8CB110"/>
<path d="M551.101 124.168H362.984V126.432H551.101V124.168Z" fill="#8CB110"/>
<path d="M566.998 126.432H539.367V76.2368H566.998V126.432ZM541.26 124.168H564.727V78.5013H541.26V124.168Z" fill="#8CB110"/>
<path d="M362.987 130.207C358.066 130.207 355.795 129.074 353.146 128.319C350.875 127.565 348.604 126.432 344.44 126.432C339.898 126.432 338.006 127.187 335.735 128.319C333.463 129.452 330.814 130.207 325.893 130.207C320.973 130.207 318.702 129.074 316.052 128.319C313.781 127.565 311.51 126.432 307.347 126.432C302.805 126.432 300.912 127.187 298.641 128.319C296.37 129.452 293.721 130.207 288.8 130.207C283.879 130.207 281.608 129.074 278.959 128.319C276.688 127.565 274.417 126.432 270.253 126.432C266.09 126.432 263.44 127.187 261.169 128.319C258.898 129.452 256.249 130.207 251.328 130.207C246.407 130.207 244.136 129.074 241.487 128.319C239.216 127.565 236.945 126.432 232.781 126.432V124.168C237.702 124.168 239.973 125.3 242.622 126.055C244.893 126.81 247.164 127.942 251.328 127.942C255.87 127.942 257.763 127.187 260.034 126.055C262.305 124.923 264.954 124.168 269.875 124.168C274.795 124.168 277.066 125.3 279.716 126.055C281.987 126.81 284.258 127.942 288.421 127.942C292.585 127.942 294.856 127.187 297.127 126.055C299.398 124.923 302.048 124.168 306.968 124.168C311.889 124.168 314.16 125.3 316.809 126.055C319.08 126.81 321.351 127.942 325.515 127.942C330.057 127.942 331.949 127.187 334.221 126.055C336.492 124.923 339.141 124.168 344.062 124.168C348.982 124.168 351.253 125.3 353.903 126.055C356.174 126.81 358.445 127.942 362.608 127.942V130.207H362.987Z" fill="#8CB110"/>
<path d="M291.068 92.4658H288.797V129.075H291.068V92.4658Z" fill="#8CB110"/>
<path d="M260.412 91.3335H258.141V126.81H260.412V91.3335Z" fill="#8CB110"/>
<path d="M275.169 91.3335H272.898V111.336H275.169V91.3335Z" fill="#8CB110"/>
<path d="M247.919 104.165H245.648V129.074H247.919V104.165Z" fill="#8CB110"/>
<path d="M305.451 91.3335H303.18V111.336H305.451V91.3335Z" fill="#8CB110"/>
<path d="M335.732 91.3335H333.461V111.336H335.732V91.3335Z" fill="#8CB110"/>
<path d="M350.115 91.3335H347.844V126.81H350.115V91.3335Z" fill="#8CB110"/>
<path d="M319.834 92.4658H317.562V127.942H319.834V92.4658Z" fill="#8CB110"/>
<path d="M319.076 93.5978L304.315 80.7659L289.174 93.5978L274.413 80.7659L260.03 93.2204L258.516 91.3334L274.413 78.124L289.174 90.956L304.315 78.124L319.076 90.956L334.217 78.124L349.735 91.3334L348.221 93.2204L334.217 80.7659L319.076 93.5978Z" fill="#8CB110"/>
<path d="M348.979 110.204H259.273V112.469H348.979V110.204Z" fill="#8CB110"/>
<path d="M348.979 106.43H259.273V108.694H348.979V106.43Z" fill="#8CB110"/>
<path d="M348.979 95.8623H259.273V98.1268H348.979V95.8623Z" fill="#8CB110"/>
<path d="M259.65 107.939H246.781V110.204H259.65V107.939Z" fill="#8CB110"/>
<path d="M259.65 104.166H246.781V106.43H259.65V104.166Z" fill="#8CB110"/>
<path d="M259.65 112.091H246.781V114.355H259.65V112.091Z" fill="#8CB110"/>
<path d="M259.65 115.865H246.781V118.13H259.65V115.865Z" fill="#8CB110"/>
<path d="M259.65 119.639H246.781V121.904H259.65V119.639Z" fill="#8CB110"/>
<path d="M362.982 104.166H360.711V129.075H362.982V104.166Z" fill="#8CB110"/>
<path d="M361.846 107.939H348.977V110.204H361.846V107.939Z" fill="#8CB110"/>
<path d="M361.846 104.166H348.977V106.43H361.846V104.166Z" fill="#8CB110"/>
<path d="M361.846 112.091H348.977V114.355H361.846V112.091Z" fill="#8CB110"/>
<path d="M361.846 115.865H348.977V118.13H361.846V115.865Z" fill="#8CB110"/>
<path d="M361.846 119.639H348.977V121.904H361.846V119.639Z" fill="#8CB110"/>
<path d="M361.846 123.413H348.977V125.678H361.846V123.413Z" fill="#8CB110"/>
<path d="M259.65 123.413H246.781V125.678H259.65V123.413Z" fill="#8CB110"/>
<path d="M348.979 91.3335H259.273V93.598H348.979V91.3335Z" fill="#8CB110"/>
<path d="M264.193 107.562H261.922V110.959H264.193V107.562Z" fill="#8CB110"/>
<path d="M269.873 107.562H267.602V110.959H269.873V107.562Z" fill="#8CB110"/>
<path d="M275.169 107.562H272.898V110.959H275.169V107.562Z" fill="#8CB110"/>
<path d="M280.474 107.562H278.203V110.959H280.474V107.562Z" fill="#8CB110"/>
<path d="M286.146 107.562H283.875V110.959H286.146V107.562Z" fill="#8CB110"/>
<path d="M295.232 107.562H292.961V110.959H295.232V107.562Z" fill="#8CB110"/>
<path d="M300.154 107.562H297.883V110.959H300.154V107.562Z" fill="#8CB110"/>
<path d="M314.912 107.562H312.641V110.959H314.912V107.562Z" fill="#8CB110"/>
<path d="M310.373 107.562H308.102V110.959H310.373V107.562Z" fill="#8CB110"/>
<path d="M323.998 107.562H321.727V110.959H323.998V107.562Z" fill="#8CB110"/>
<path d="M329.677 107.562H327.406V110.959H329.677V107.562Z" fill="#8CB110"/>
<path d="M334.974 107.562H332.703V110.959H334.974V107.562Z" fill="#8CB110"/>
<path d="M340.654 107.562H338.383V110.959H340.654V107.562Z" fill="#8CB110"/>
<path d="M345.951 107.562H343.68V110.959H345.951V107.562Z" fill="#8CB110"/>
<path d="M353.147 106.43L351.633 105.298L364.502 85.2949H356.553L368.287 66.8018H360.717L376.236 43.4023L391.376 66.8018H383.806L394.404 83.4079L392.511 84.5401L379.642 64.9147H387.591L376.236 47.1764L364.502 64.9147H372.451L360.717 83.0304H368.666L353.147 106.43Z" fill="#8CB110"/>
<path d="M392.131 80.0112L390.617 78.879L401.215 62.2729H394.781L404.622 46.7991H398.187L411.435 26.4189L424.683 46.7991H418.248L426.954 60.3859L425.061 61.8955L414.084 44.5346H420.519L411.435 30.193L401.972 44.5346H408.785L398.566 60.0085H405.379L392.131 80.0112Z" fill="#8CB110"/>
<path d="M336.869 72.8403L334.977 71.7081L345.953 55.102H339.14L349.36 39.6282H342.547L356.173 19.248L369.42 39.6282H362.607L371.692 53.5924L369.799 54.7246L358.822 37.7412H365.257L356.173 23.3996L346.71 37.7412H353.523L343.304 52.8376H350.117L336.869 72.8403Z" fill="#8CB110"/>
<path d="M439.066 76.6143C431.118 76.6143 424.305 70.1983 424.305 61.8953C424.305 53.9697 430.739 47.1763 439.066 47.1763C447.393 47.1763 453.828 53.5922 453.828 61.8953C453.828 70.1983 447.393 76.6143 439.066 76.6143ZM439.066 49.4407C432.253 49.4407 426.576 55.1019 426.576 61.8953C426.576 68.6887 432.253 74.3498 439.066 74.3498C445.879 74.3498 451.557 68.6887 451.557 61.8953C451.557 55.1019 445.879 49.4407 439.066 49.4407Z" fill="#8CB110"/>
<path d="M440.201 58.4985H437.93V87.9365H440.201V58.4985Z" fill="#8CB110"/>
<path d="M439.826 67.934L438.312 66.4244L443.233 61.5181L444.747 63.0277L439.826 67.934Z" fill="#8CB110"/>
<path d="M438.311 71.3306L433.391 66.8016L435.283 65.292L439.825 69.8209L438.311 71.3306Z" fill="#8CB110"/>
<path d="M108.255 70.1982H105.984V125.678H108.255V70.1982Z" fill="#8CB110"/>
<path d="M110.636 77.0726L106.086 81.6094L107.692 83.2106L112.242 78.6738L110.636 77.0726Z" fill="#8CB110"/>
<path d="M113.555 95.4847C111.284 95.4847 109.013 94.7299 107.121 93.5977C105.228 94.7299 102.957 95.4847 100.686 95.4847C93.8729 95.4847 88.1953 89.8236 88.1953 83.0302C88.1953 79.2561 90.0878 75.482 93.1159 73.2175C93.1159 72.8401 93.1159 72.4627 93.1159 72.0853C93.1159 64.5371 99.1719 58.1211 107.121 58.1211C114.691 58.1211 121.125 64.1597 121.125 72.0853C121.125 72.4627 121.125 72.8401 121.125 73.2175C124.153 75.482 126.046 79.2561 126.046 83.0302H123.775C123.775 79.6335 121.882 76.2368 119.233 74.3497L118.476 73.9723V73.2175C118.476 72.8401 118.476 72.0853 118.476 71.7079C118.476 65.2919 113.177 60.0081 106.742 60.0081C100.307 60.0081 95.0084 65.2919 95.0084 71.7079C95.0084 72.0853 95.0084 72.8401 95.0084 73.2175V73.9723L94.2514 74.3497C91.2234 76.2368 89.7093 79.2561 89.7093 83.0302C89.7093 88.6913 94.2514 93.2203 99.929 93.2203C102.2 93.2203 104.093 92.4655 105.985 91.3332L106.742 90.9558L107.499 91.3332C109.392 92.4655 111.284 93.2203 113.555 93.2203V95.4847V95.4847Z" fill="#8CB110"/>
<path d="M239.974 53.2151H237.703V127.188H239.974V53.2151Z" fill="#8CB110"/>
<path d="M239.592 66.4243L238.078 64.9147L242.999 60.3857L244.513 61.8954L239.592 66.4243Z" fill="#8CB110"/>
<path d="M234.926 73.0204L233.32 74.6216L238.138 79.4252L239.744 77.824L234.926 73.0204Z" fill="#8CB110"/>
<path d="M238.839 92.0883C232.026 92.0883 226.727 86.4271 226.727 80.0111V49.0635C226.727 42.2701 232.404 36.9863 238.839 36.9863C245.652 36.9863 250.951 42.6475 250.951 49.0635V79.6337C250.951 86.4271 245.652 92.0883 238.839 92.0883ZM238.839 39.2508C233.161 39.2508 228.619 43.7797 228.619 49.4409V80.0111C228.619 85.6723 233.161 90.2012 238.839 90.2012C244.516 90.2012 249.058 85.6723 249.058 80.0111V49.0635C249.058 43.7797 244.516 39.2508 238.839 39.2508Z" fill="#8CB110"/>
<path d="M457.994 81.898L456.102 81.1432C458.751 75.1046 473.134 73.2176 489.031 70.9531C503.036 69.0661 518.933 66.8016 520.447 61.5179C520.447 60.763 520.447 60.3856 520.069 60.0082C517.798 56.9889 507.578 56.2341 498.116 55.4793C486.382 54.3471 475.027 53.5922 471.62 49.0633C470.863 47.9311 470.485 46.4214 470.863 44.9118C472.756 36.9862 488.653 35.8539 502.279 34.7217C508.335 34.3443 517.419 33.5895 517.798 32.0798V31.7024C516.662 30.1928 510.985 29.0606 506.443 27.9283C500.387 26.7961 495.466 25.6639 493.952 23.022C493.574 22.2672 493.573 21.5123 493.573 20.7575C494.709 16.606 500.765 15.8512 507.957 14.3415C512.499 13.5867 517.041 12.8319 520.826 11.3223L521.583 13.2093C517.419 14.719 512.877 15.4738 508.335 16.2286C502.279 17.3608 496.223 18.1157 495.845 20.7575V21.1349C496.98 22.6446 502.658 23.7768 507.2 24.909C513.256 26.0413 518.176 27.1735 519.69 29.8154C520.069 30.5702 520.069 31.325 520.069 32.0798C519.312 35.0991 513.634 35.4765 502.658 36.2314C490.924 36.9862 475.027 38.4958 473.134 44.9118C472.756 46.044 473.134 46.7989 473.513 47.5537C476.162 51.3278 487.896 52.0826 498.116 53.2148C509.092 53.9696 518.933 55.1019 521.583 58.4986C522.34 59.6308 522.34 60.763 522.34 61.8953C520.826 68.6887 505.307 70.5757 489.41 72.8402C475.405 74.7272 459.887 76.9917 457.994 81.898Z" fill="#8CB110"/>
<path d="M490.919 85.2949L489.783 83.4079C494.325 80.0112 502.274 77.7467 510.601 75.1048C522.335 71.3307 535.961 67.1792 535.204 61.1406C534.447 54.3473 514.008 52.4602 498.867 50.9506C485.998 49.8183 478.807 49.0635 477.293 46.4216C476.914 45.6668 476.914 45.2894 476.914 44.5346C478.05 40.3831 486.377 40.0057 496.975 39.2508C507.573 38.496 520.442 37.7412 522.713 32.08C523.092 31.3252 523.092 30.193 522.713 29.4382C520.821 26.0415 513.251 24.5318 507.573 23.3996C502.652 22.2674 500.381 21.89 499.624 20.7577L501.517 19.6255C501.895 20.0029 505.302 20.7577 507.951 21.5125C514.386 23.0222 522.335 24.5318 524.606 28.6833C525.363 29.8156 525.363 31.3252 524.984 32.8349C522.713 39.6282 509.844 40.3831 497.353 41.5153C489.405 42.2701 479.942 42.6475 479.185 45.2894C479.942 46.799 490.919 47.9313 499.246 48.6861C516.657 50.5731 536.718 52.4602 537.475 60.7632C538.232 68.6888 524.984 72.8404 511.358 76.9919C503.409 80.0112 495.461 82.2756 490.919 85.2949Z" fill="#8CB110"/>
<path d="M297.123 1.13232H294.852V85.6723H297.123V1.13232Z" fill="#8CB110"/>
<path d="M300.154 1.13232H297.883V82.653H300.154V1.13232Z" fill="#8CB110"/>
<path d="M299.394 34.7217H250.946L244.133 26.0413L250.946 17.3608H299.394V34.7217ZM252.081 32.4573H297.123V20.0027H252.081L246.782 26.4187L252.081 32.4573Z" fill="#8CB110"/>
<path d="M338.758 16.9835H294.852V0H338.758L345.571 8.68044L338.758 16.9835ZM297.123 15.0964H337.623L342.922 8.68044L337.623 2.26446H297.123V15.0964Z" fill="#8CB110"/>
<path d="M306.966 10.19V11.3223H304.695V5.28369H306.966V6.41592H308.102V10.19H306.966V6.41592H305.831V10.19H306.966Z" fill="#8CB110"/>
<path d="M309.992 11.3223V5.28369H311.128V11.3223H309.992Z" fill="#8CB110"/>
<path d="M312.641 11.3223V5.28369H313.776V10.19H316.047V11.3223H312.641Z" fill="#8CB110"/>
<path d="M317.562 11.3223V5.28369H318.698V11.3223H317.562Z" fill="#8CB110"/>
<path d="M320.211 11.3223V9.0578H321.346V10.19H322.482V6.41592H320.211V5.28369H323.996V11.3223H320.211Z" fill="#8CB110"/>
<path d="M327.787 11.3223V9.0578H326.651V11.3223H325.516V5.28369H329.301V11.3223H327.787ZM327.787 6.79333H326.651V7.92556H327.787V6.79333Z" fill="#8CB110"/>
<path d="M334.219 11.3223V9.0578H333.084V7.92556H331.948V11.6997H330.812V5.28369H331.948V6.41592H333.084V7.54815H334.219V5.28369H335.355V11.3223H334.219Z" fill="#8CB110"/>
<path d="M255.87 29.438V27.1735H254.734V23.3994H255.87V25.6639H257.005V23.3994H258.141V27.1735H257.005V29.438H255.87Z" fill="#8CB110"/>
<path d="M259.656 29.438V23.3994H263.441V24.5316H260.792V25.6639H261.927V26.7961H260.792V27.9283H263.441V29.0606H259.656V29.438Z" fill="#8CB110"/>
<path d="M267.224 29.438V27.1735H266.089V29.438H264.953V23.3994H268.738V25.6639H267.603V24.5316H266.467V25.6639H267.603V26.7961H268.738V29.0606H267.224V29.438Z" fill="#8CB110"/>
<path d="M269.875 29.438V23.3994H273.66V24.5316H271.01V25.6639H272.525V26.7961H271.389V27.9283H274.039V29.0606H269.875V29.438Z" fill="#8CB110"/>
<path d="M276.307 29.438V28.3058H275.172V23.3994H276.307V27.1735H277.443V23.3994H278.578V28.3058H277.443V29.438H276.307Z" fill="#8CB110"/>
<path d="M282.365 29.438V27.1735H281.229V29.438H280.094V23.3994H283.879V29.438H282.365V29.438ZM282.365 24.5316H281.229V25.6639H282.365V24.5316Z" fill="#8CB110"/>
<path d="M288.797 29.438V27.1735H287.662V25.6639H286.526V29.438H285.391V23.3994H286.526V24.5316H287.662V25.6639H288.797V23.3994H289.933V29.438H288.797V29.438Z" fill="#8CB110"/>
<path d="M57.9116 72.4629H26.1172V74.7273H57.9116V72.4629Z" fill="#8CB110"/>
<path d="M20.0601 84.9175H17.7891V111.714H20.0601V84.9175Z" fill="#8CB110"/>
<path d="M84.5369 112.769H2.33594V91.7993H4.60878V110.896H82.2641V91.7993H84.5369V112.769Z" fill="#8CB110"/>
<path d="M56.016 72.4629H41.6328V74.7273H56.016V72.4629Z" fill="#8CB110"/>
<path d="M65.482 80.3887H63.2109V125.678H65.482V80.3887Z" fill="#8CB110"/>
<path d="M64.3424 83.7852H18.9219V86.0496H64.3424V83.7852Z" fill="#8CB110"/>
<path d="M43.146 73.5952H40.875V112.091H43.146V73.5952Z" fill="#8CB110"/>
<path d="M32.9273 73.5952H30.6562V92.0883H32.9273V73.5952Z" fill="#8CB110"/>
<path d="M53.3726 73.5952H51.1016V92.0883H53.3726V73.5952Z" fill="#8CB110"/>
<path d="M38.232 76.9917H35.9609V82.6529H38.232V76.9917Z" fill="#8CB110"/>
<path d="M27.6304 76.9917H25.3594V82.6529H27.6304V76.9917Z" fill="#8CB110"/>
<path d="M49.5846 85.6721H47.3136V79.2562H46.9351V84.5399H44.6641V76.9917H49.5846V85.6721Z" fill="#8CB110"/>
<path d="M31.7932 76.9918C31.7932 76.9918 31.4147 76.9918 31.7932 76.9918V74.7273V75.8596V74.7273C31.7932 74.7273 32.1717 74.7274 32.1717 74.3499C32.1717 73.9725 32.1717 73.5951 32.5502 73.2177L32.9287 72.8403H33.6857H34.0643C34.4428 72.8403 34.4428 72.8403 34.4428 72.4629L35.9568 73.9725C35.5783 74.7274 34.8213 74.7273 34.4428 74.7273C34.0643 75.4822 34.0643 75.8596 33.6857 76.237C32.9287 76.9918 31.7932 76.9918 31.7932 76.9918Z" fill="#8CB110"/>
<path d="M42.0116 76.9918C41.6331 76.9918 40.8761 76.9918 40.1191 75.8596C39.7406 75.4822 39.7406 75.1048 39.7406 74.7273C39.3621 74.7273 38.6051 74.3499 38.2266 73.9725L39.7406 72.4629C40.1191 72.8403 40.1191 72.8403 40.1191 72.8403H40.4976C40.8761 72.8403 41.2546 72.8403 41.2546 73.2177C41.6331 73.5951 41.6331 73.9725 41.6331 74.3499C42.0116 74.7274 42.0116 74.7273 42.0116 74.7273V76.9918Z" fill="#8CB110"/>
<path d="M42.0156 76.9918V74.7273V75.8596V74.7273C42.0156 74.7273 42.3941 74.7274 42.3941 74.3499C42.3941 73.9725 42.3941 73.5951 42.7726 73.2177L43.1511 72.8403H43.9081H44.2867C44.6652 72.8403 44.6652 72.8403 44.6652 72.4629L46.1792 73.9725C45.8007 74.7274 45.0437 74.7273 44.6652 74.7273C44.6652 75.1048 44.2867 75.4822 44.2867 75.8596C43.1511 76.9918 42.0156 76.9918 42.0156 76.9918Z" fill="#8CB110"/>
<path d="M52.2304 76.9918C51.8519 76.9918 51.0948 76.9918 50.3378 75.8596C49.9593 75.4822 49.9593 75.1048 49.9593 74.7273C49.5808 74.7273 48.8238 74.3499 48.4453 73.9725L49.9593 72.4629C50.3378 72.8403 50.3378 72.8403 50.3378 72.8403H50.7163C51.0948 72.8403 51.4734 72.8403 51.4734 73.2177C51.8519 73.5951 51.8519 73.9725 51.8519 74.3499C52.2304 74.7274 52.2304 74.7273 52.2304 74.7273V76.9918Z" fill="#8CB110"/>
<path d="M34.4443 112.846H26.1172V99.6362H28.3882V110.959H32.1733V99.6362H34.4443V112.846Z" fill="#8CB110"/>
<path d="M34.4478 100.769H32.9338C31.0413 100.391 29.1487 100.391 27.2562 100.769H26.8777H26.1207L25.7422 96.2398L26.4992 95.8624C29.1487 94.7301 32.1768 94.7301 34.4478 95.8624L35.2048 96.2398L34.4478 100.769ZM28.0132 97.7494V98.5042C29.5272 98.1268 31.0413 98.1268 32.5553 98.5042V97.7494C31.4198 96.9946 29.5272 96.9946 28.0132 97.7494Z" fill="#8CB110"/>
<path d="M82.1382 112.091H79.8672V126.055H82.1382V112.091Z" fill="#8CB110"/>
<path d="M4.60697 112.091H2.33594V126.055H4.60697V112.091Z" fill="#8CB110"/>
<path d="M87.0561 92.843H0L27.6308 70.5758L42.3925 53.5923L57.1542 70.5758L64.7243 79.6336L87.0561 92.843ZM6.05607 90.5785H79.1075L63.2103 81.1432L54.1262 70.5758V72.4628H51.8551V68.3113L51.0981 67.1791V72.4628H49.2056V64.5372L48.4486 63.405V72.4628H46.1776V61.1405L45.4206 60.0083V72.4628H43.1495V57.3664L42.3925 56.6116L42.014 56.989V72.0854H39.743V59.2534L38.986 60.3857V72.0854H36.715V63.0275L35.9579 64.1598V72.4628H33.6869V66.8017L32.5514 67.9339V72.4628H30.6589V70.1983L29.1449 71.708L6.05607 90.5785Z" fill="#8CB110"/>
<path d="M10.5992 87.1819H8.32812V92.0882H10.5992V87.1819Z" fill="#8CB110"/>
<path d="M13.6304 84.54H11.3594V92.0882H13.6304V84.54Z" fill="#8CB110"/>
<path d="M16.6538 81.1436H14.3828V92.0885H16.6538V81.1436Z" fill="#8CB110"/>
<path d="M20.0601 79.6338H17.7891V85.6724H20.0601V79.6338Z" fill="#8CB110"/>
<path d="M24.2243 84.9175H21.9532V90.956H24.2243V84.9175Z" fill="#8CB110"/>
<path d="M28.3882 84.9175H26.1172V90.956H28.3882V84.9175Z" fill="#8CB110"/>
<path d="M35.9585 84.9175H33.6875V90.956H35.9585V84.9175Z" fill="#8CB110"/>
<path d="M39.7398 84.9175H37.4688V90.956H39.7398V84.9175Z" fill="#8CB110"/>
<path d="M83.269 104.166H64.3438V106.43H83.269V104.166Z" fill="#8CB110"/>
<path d="M69.646 105.297H67.375V111.336H69.646V105.297Z" fill="#8CB110"/>
<path d="M73.0523 105.297H70.7812V111.336H73.0523V105.297Z" fill="#8CB110"/>
<path d="M76.8335 105.297H74.5625V111.336H76.8335V105.297Z" fill="#8CB110"/>
<path d="M80.6226 105.297H78.3516V111.336H80.6226V105.297Z" fill="#8CB110"/>
<path d="M46.5523 84.9175H44.2812V90.956H46.5523V84.9175Z" fill="#8CB110"/>
<path d="M49.9663 84.9175H47.6953V90.956H49.9663V84.9175Z" fill="#8CB110"/>
<path d="M57.1538 84.9175H54.8828V90.956H57.1538V84.9175Z" fill="#8CB110"/>
<path d="M61.6929 84.9175H59.4219V90.956H61.6929V84.9175Z" fill="#8CB110"/>
<path d="M51.0992 97.7495H48.8281V103.411H51.0992V97.7495Z" fill="#8CB110"/>
<path d="M57.5288 97.7495H55.2578V103.411H57.5288V97.7495Z" fill="#8CB110"/>
<path d="M135.508 51.3278C135.508 47.5537 132.48 44.5344 128.695 44.157L129.074 41.8926C133.994 42.27 137.779 46.4215 138.158 51.3278H135.508Z" fill="#8CB110"/>
<path d="M137.779 50.9504H135.508C135.886 46.0441 139.671 42.27 144.592 41.5151L144.97 43.7796C140.807 44.157 137.779 47.1763 137.779 50.9504Z" fill="#8CB110"/>
<path d="M118.469 38.1184C118.469 34.3443 115.441 31.325 111.656 30.9476L112.035 28.6831C116.955 29.0605 120.74 33.212 121.119 38.1184H118.469Z" fill="#8CB110"/>
<path d="M120.74 37.7409H118.469C118.847 32.8346 122.632 29.0605 127.553 28.3057L127.931 30.5701C123.768 30.9475 120.74 33.9668 120.74 37.7409Z" fill="#8CB110"/>
<path d="M126.418 110.581C118.469 110.581 111.656 104.165 111.656 95.8621C111.656 87.559 118.091 81.1431 126.418 81.1431C134.745 81.1431 141.18 87.559 141.18 95.8621C141.18 104.165 134.367 110.581 126.418 110.581ZM126.418 83.4075C119.605 83.4075 113.927 89.0687 113.927 95.8621C113.927 102.655 119.605 108.317 126.418 108.317C133.231 108.317 138.909 102.655 138.909 95.8621C138.909 89.0687 133.231 83.4075 126.418 83.4075Z" fill="#8CB110"/>
<path d="M127.552 92.0879H125.281V124.923H127.552V92.0879Z" fill="#8CB110"/>
<path d="M130.034 95.64L125.484 100.177L127.09 101.778L131.64 97.2412L130.034 95.64Z" fill="#8CB110"/>
<path d="M122.645 98.9296L121.039 100.531L125.857 105.334L127.462 103.733L122.645 98.9296Z" fill="#8CB110"/>
</svg>
