<svg width="40" height="40" viewBox="0 0 40 40" fill="none" xmlns="http://www.w3.org/2000/svg">
<circle cx="20" cy="20" r="20" fill="#8CB110"/>
<path d="M33 25.5503L27.867 19.8725L20.0558 9L12.2446 19.8725L7 25.5503L8.33906 27L11.4635 23.4966V26.8792H16.3734C18.0472 26.1544 19.2747 24.8255 20.0558 23.3758C20.8369 24.7047 22.0644 26.0336 23.7382 26.8792H28.6481V23.4966L31.7725 26.8792L33 25.5503ZM25.8584 24.1007H24.2961C23.2918 23.4966 22.6223 22.5302 22.2876 22.047L20.0558 18.1812L17.824 22.047C17.4893 22.5302 16.8197 23.4966 15.8155 24.1007H14.1416V21.9262L19.9442 13.8322L25.7468 21.9262V24.1007H25.8584Z" fill="white"/>
</svg>
