<svg width="40" height="40" viewBox="0 0 40 40" fill="none" xmlns="http://www.w3.org/2000/svg">
<circle cx="20" cy="20" r="20" fill="#8CB110"/>
<g clip-path="url(#clip0_477_2887)">
<path d="M18.7154 13.6435C19.9778 13.6435 21.0011 12.604 21.0011 11.3218C21.0011 10.0395 19.9778 9 18.7154 9C17.453 9 16.4297 10.0395 16.4297 11.3218C16.4297 12.604 17.453 13.6435 18.7154 13.6435Z" fill="white"/>
<path d="M16.2298 16.4823L13.7081 15.8766L13 18.9429L16.8137 19.864L19.1615 18.2867L19.7081 21.0627L16.2547 22.64L14.4658 27.9776L17.3975 28.9996L18.7516 24.9618L20.3416 24.2299L21.236 28.7599L24.2795 28.1416L21.2981 13.1006L16.2298 16.4823Z" fill="white"/>
<path d="M25.2946 12.2111L22.25 12.833L23.9643 21.4925L27.0089 20.8706L25.2946 12.2111Z" fill="white"/>
</g>
<defs>
<clipPath id="clip0_477_2887">
<rect width="14" height="20" fill="white" transform="translate(13 9)"/>
</clipPath>
</defs>
</svg>
