<svg width="2057" height="337" viewBox="0 0 2057 337" fill="none" xmlns="http://www.w3.org/2000/svg">
<path d="M627.853 19.6674C626.454 21.0862 623.864 24.0774 622.654 25.631C611.119 40.4539 588.514 101.465 684.107 105.573C686.207 105.712 689.462 105.91 690.104 105.752C692.461 110.883 695.805 116.977 701.645 122.872C709.387 130.687 718.01 131.951 723.579 132.687C723.819 132.757 724.069 132.789 724.319 132.781C723.528 133.313 722.656 133.712 721.738 133.965L721.482 134.004C721.413 134.023 721.346 134.046 721.279 134.073C720.69 134.292 720.213 134.736 719.951 135.308C719.69 135.879 719.666 136.531 719.885 137.12C720.104 137.709 720.548 138.187 721.119 138.448C721.691 138.71 722.343 138.734 722.932 138.515L722.974 138.508C727.707 137.084 732.372 132.883 734 128.232C734.863 125.759 734.395 124.87 732.098 124.838C729.065 124.807 727.084 123.439 725.454 122.314C724.716 121.805 724.05 121.345 723.391 121.082C723.023 120.908 722.616 120.838 722.212 120.879C721.807 120.919 721.422 121.068 721.096 121.311L721.032 121.32C720.779 121.5 720.565 121.729 720.402 121.994C720.239 122.258 720.13 122.552 720.083 122.859C720.036 123.165 720.05 123.479 720.126 123.78C720.201 124.081 720.336 124.364 720.523 124.612C721.138 125.391 722.051 126.016 724.273 127.315C716.641 126.785 709.525 123.916 703.718 117.16C693.129 104.876 692.354 94.7593 692.036 90.6069C691.98 89.8801 691.939 89.3359 691.861 88.995C691.775 88.5609 691.601 88.1491 691.349 87.785C690.972 87.266 690.435 86.885 689.82 86.7003C689.206 86.5157 688.547 86.5376 687.946 86.7627C687.345 86.9879 686.835 87.4038 686.493 87.9468C686.151 88.4897 685.996 89.1299 686.053 89.7691C686.234 93.2317 686.849 96.6579 687.882 99.9678L687.268 100.127C685.697 100.202 684.401 100.224 683.387 100.226C657.336 98.7908 639.151 97.4747 625.8 80.7287C615.201 67.4384 604.645 51.0204 633.282 22.465C640.214 15.5504 663.334 1.02273 692.716 4.4884C717.989 7.44947 740.334 16.8144 741.451 51.6055C742.24 76.0242 716.038 90.2401 706.495 95.4128C705.971 95.7217 705.442 96.0149 704.91 96.2923C704.459 96.5025 704.103 96.8736 703.911 97.3327C703.719 97.7918 703.706 98.306 703.874 98.7744L703.962 99.0284C704.287 99.8312 704.914 100.474 705.708 100.819C706.503 101.163 707.401 101.182 708.209 100.871C725.036 93.3626 743.341 78.7815 745.824 53.9907C749.949 12.9404 710.399 3.8291 694.671 1.08632C667.677 -3.61551 639.634 7.75371 627.853 19.6674Z" fill="#F4F6E9"/>
<path d="M626.772 58.6224L634.148 57.0951L634.778 60.1386L627.402 61.6659L626.772 58.6224Z" fill="#F4F6E9"/>
<path fill-rule="evenodd" clip-rule="evenodd" d="M650.359 61.1726C650.785 61.8469 651.203 62.5323 651.614 63.2288L655.343 62.4566C654.21 60.5753 653.137 58.8436 652.123 57.2617C651.127 55.676 650.16 54.1797 649.22 52.773C648.299 51.3625 647.393 50.0251 646.502 48.7608C645.611 47.4965 644.706 46.2543 643.786 45.0341L640.523 45.7098C640.164 47.1949 639.826 48.6945 639.511 50.2086C639.195 51.7227 638.885 53.3118 638.582 54.9759C638.297 56.6363 638.012 58.3918 637.728 60.2425C637.444 62.0932 637.156 64.1068 636.863 66.2834L640.455 65.5396L640.768 63.1872C640.887 62.3809 640.995 61.5675 641.092 60.7468L649.098 59.0889C649.513 59.8036 649.934 60.4982 650.359 61.1726ZM642.126 52.8981C642.387 51.3953 642.627 50.116 642.847 49.0602C643.442 49.9091 644.16 50.9806 645 52.2745C645.839 53.5684 646.72 54.9682 647.642 56.4739L641.391 57.7684C641.639 56.0205 641.884 54.397 642.126 52.8981Z" fill="#F4F6E9"/>
<path d="M665.97 45.3013C665.618 51.055 664.922 56.3461 663.882 61.1746C663.686 62.0728 663.457 62.8542 663.195 63.5186C662.932 64.183 662.603 64.7563 662.207 65.2386C661.811 65.7209 661.338 66.1048 660.787 66.3905C660.24 66.6944 659.583 66.9258 658.815 67.0848C658.303 67.1908 657.78 67.2419 657.245 67.2382C656.729 67.2308 656.33 67.1895 656.047 67.1146L656.1 64.3301C656.811 64.4497 657.486 64.4433 658.126 64.3108C658.985 64.1329 659.609 63.7846 659.997 63.2657C660.407 62.7614 660.706 62.0418 660.894 61.107C659.436 59.3121 657.976 57.3268 656.515 55.1512C655.073 52.9717 653.7 50.6253 652.398 48.1117L655.935 47.3793C656.277 48.1092 656.669 48.8954 657.11 49.7381C657.57 50.577 658.051 51.4304 658.555 52.2983C659.055 53.1479 659.573 53.9937 660.11 54.8357C660.646 55.6777 661.17 56.4558 661.68 57.1699C661.928 55.4219 662.119 53.581 662.252 51.6471C662.381 49.695 662.478 47.8163 662.543 46.011L665.97 45.3013Z" fill="#F4F6E9"/>
<path d="M675.409 48.5509L668.033 50.0782L668.664 53.1216L676.039 51.5943L675.409 48.5509Z" fill="#F4F6E9"/>
<path d="M688.837 40.5662C688.484 46.3199 687.788 51.611 686.748 56.4395C686.553 57.3377 686.324 58.1191 686.061 58.7835C685.798 59.4479 685.469 60.0212 685.073 60.5035C684.678 60.9858 684.204 61.3697 683.653 61.6554C683.106 61.9593 682.449 62.1907 681.681 62.3497C681.169 62.4557 680.646 62.5068 680.112 62.5031C679.596 62.4957 679.196 62.4544 678.914 62.3795L678.966 59.595C679.677 59.7146 680.353 59.7082 680.992 59.5757C681.852 59.3978 682.475 59.0495 682.863 58.5306C683.274 58.0263 683.573 57.3067 683.76 56.3719C682.302 54.577 680.843 52.5917 679.382 50.4161C677.939 48.2366 676.567 45.8902 675.265 43.3766L678.802 42.6442C679.143 43.3741 679.535 44.1604 679.976 45.003C680.436 45.8419 680.918 46.6953 681.422 47.5632C681.922 48.4128 682.44 49.2586 682.976 50.1006C683.513 50.9426 684.036 51.7207 684.546 52.4348C684.794 50.6868 684.985 48.8459 685.118 46.912C685.248 44.9599 685.345 43.0812 685.409 41.2759L688.837 40.5662Z" fill="#F4F6E9"/>
<path d="M696.002 43.8862C695.851 42.6022 695.618 41.2017 695.304 39.6845L694.248 34.5847L690.711 35.3171L691.767 40.4169C692.077 41.9158 692.42 43.2936 692.794 44.5504C693.165 45.789 693.575 47.0291 694.022 48.2708L696.38 47.7825C696.28 46.4689 696.154 45.1701 696.002 43.8862Z" fill="#F4F6E9"/>
<path d="M698.219 51.6908C698.352 52.3306 698.249 52.8951 697.912 53.3843C697.575 53.8734 697.096 54.1824 696.474 54.3111C695.871 54.436 695.308 54.3428 694.786 54.0315C694.283 53.7164 693.965 53.239 693.832 52.5993C693.7 51.9595 693.802 51.395 694.139 50.9058C694.491 50.3946 694.968 50.0765 695.571 49.9516C696.193 49.8229 696.757 49.9252 697.265 50.2586C697.768 50.5736 698.087 51.0511 698.219 51.6908Z" fill="#F4F6E9"/>
<path fill-rule="evenodd" clip-rule="evenodd" d="M818.538 194.509L818.579 213.285C810.737 209.754 803.687 204.769 797.722 198.663V242.104L795.352 241.644C810.526 244.872 826.108 248.94 842.026 253.096L842.027 253.096C881.33 263.358 922.682 274.154 965 274.154C1051.5 274.154 1107.1 268.586 1185 247.154C1275.63 222.217 1316.15 241.929 1345.77 256.343C1346.47 256.684 1347.16 257.022 1347.85 257.356C1348.18 257.516 1348.51 257.674 1348.83 257.832L1349.5 258.154C1366.26 267.357 1434.13 284.179 1468 284.179C1477.18 284.179 1490.18 280.787 1505.6 276.763C1547.04 265.945 1606 250.555 1655.57 284.179C1660.7 287.656 1666.02 290.697 1671.48 293.338V266.726C1667.4 270.901 1662.55 274.304 1657.14 276.735L1657.09 263.81C1663.33 259.777 1668.18 253.887 1670.9 246.909C1666.91 250.855 1662.23 254.115 1657.03 256.432L1657 243.506C1663.67 239.188 1668.82 232.725 1671.36 225.09V224.546H1671.56L1683.47 224.518V225.061C1686.04 232.697 1691.18 239.159 1697.88 243.449L1697.91 256.374C1692.77 254.087 1688.12 250.884 1684.16 247.023C1686.9 253.915 1691.76 259.777 1697.97 263.752L1698 276.678C1692.57 274.247 1687.68 270.816 1683.55 266.612V298.473C1693.93 302.314 1704.62 304.879 1715.24 306.398V286.588C1712.36 289.661 1708.92 292.166 1705.1 293.956L1705.06 284.441C1709.48 281.473 1712.91 277.136 1714.83 272C1712.01 274.905 1708.7 277.305 1705.02 279.01L1705 269.495C1709.72 266.317 1713.36 261.559 1715.16 255.939V255.539H1715.3L1723.72 255.518V255.918C1725.54 261.538 1729.18 266.296 1733.92 269.453L1733.94 278.968C1730.3 277.284 1727.01 274.926 1724.21 272.084C1726.15 277.158 1729.59 281.473 1733.98 284.399L1734 293.914C1730.16 292.124 1726.7 289.598 1723.78 286.504V307.389L1715.44 306.427C1750.23 311.36 1784.22 305.075 1804 295.654C1810.75 292.438 1817.04 289.41 1822.92 286.573C1874.96 261.489 1896.2 251.254 1941.37 256.569C1978.68 260.96 2038.66 294.542 2057 313.547V336.518H0V271.713C17.5054 275.432 43.9878 284.041 70.3062 292.596C82.7275 296.634 95.1123 300.66 106.5 304.154C151.486 317.959 260 345.154 312.091 308.643C367.427 269.858 441.143 279.08 490.248 285.224L490.257 285.225C497.805 286.169 504.771 287.041 511 287.654C569.871 293.449 633.852 268.216 693.238 243.711C703.907 239.308 714.983 236.765 726.423 235.644L725.1 235.723V204.322C721.097 208.474 716.328 211.858 711.019 214.275L710.962 201.421C717.094 197.411 721.864 191.553 724.533 184.614C720.615 188.538 716.016 191.78 710.905 194.084L710.877 181.23C717.435 176.936 722.488 170.509 724.987 162.916V162.375H725.185L736.882 162.347V162.887C739.409 170.48 744.462 176.907 751.049 181.173L751.077 194.027C746.024 191.752 741.453 188.567 737.563 184.728C740.261 191.581 745.03 197.411 751.134 201.364L751.162 214.218C745.825 211.801 741.027 208.388 736.967 204.208V235.003C750.926 234.647 765.389 236.137 780.284 238.719V198.829C774.402 204.894 767.394 209.837 759.593 213.368L759.51 194.592C768.521 188.735 775.529 180.178 779.45 170.043C773.693 175.775 766.935 180.51 759.427 183.875L759.385 165.1C769.021 158.827 776.447 149.44 780.118 138.349V137.559H780.41L797.596 137.518V138.307C801.309 149.398 808.735 158.786 818.413 165.017L818.454 183.792C811.029 180.469 804.313 175.817 798.598 170.209C802.561 180.22 809.569 188.735 818.538 194.509ZM1671.9 293.541L1682.72 298.16C1679.06 296.783 1675.45 295.247 1671.9 293.541Z" fill="#F4F6E9"/>
<path fill-rule="evenodd" clip-rule="evenodd" d="M266.592 257.22C270.046 257.317 286.454 255.74 288.232 254.409C289.425 253.517 281.085 246.113 278.572 244.113C275.977 242.048 268.727 234.864 268.143 233.102C267.425 230.927 268.56 230.274 270.019 230.208C271.133 230.159 271.906 230.774 272.429 231.19C272.771 231.462 273.006 231.649 273.157 231.506C273.265 231.403 273.205 231.154 273.124 230.816C272.95 230.084 272.676 228.936 273.777 227.953C274.718 227.115 276.109 227.944 277.078 228.522C277.597 228.831 277.995 229.068 278.137 228.938C278.254 228.83 278.154 228.538 278.024 228.158C277.783 227.455 277.44 226.452 278.177 225.759C279.115 224.877 280.334 225.679 281.211 226.257C281.688 226.571 282.063 226.818 282.238 226.692C282.439 226.547 282.301 226.346 282.105 226.062C281.848 225.689 281.493 225.174 281.678 224.456C281.961 223.359 283.373 223.003 284.66 223.403C286.326 223.921 289.615 225.716 293.396 229.249C293.644 229.481 293.891 229.711 294.138 229.941L294.14 229.943C295.911 231.591 297.63 233.191 299.232 235.031C299.931 235.834 300.496 236.571 300.993 237.219C302.471 239.149 303.345 240.29 305.36 240.039C305.916 239.97 306.214 239.746 306.726 239.363C307.365 238.884 308.334 238.157 310.548 237.173C313.079 236.046 315.79 235.577 319.083 235.523C323.457 235.451 324.367 236.057 324.077 236.281C323.473 236.745 322.782 237.152 322.047 237.585C320.704 238.375 319.214 239.252 317.841 240.728C315.697 243.033 315.245 245.259 316.389 247.373C316.941 248.392 317.871 249.097 318.92 249.891C319.838 250.586 320.847 251.35 321.774 252.454C324.13 255.263 326.688 259.767 321.826 266.621C317.517 272.695 299.653 281.167 296.681 282.284C293.668 283.416 290.58 284.439 287.375 284.858L287.352 284.861C286.5 284.973 284.74 285.203 284.752 283.827C284.757 283.289 285.299 282.951 285.738 282.676C285.997 282.514 286.22 282.375 286.277 282.23C286.421 281.865 286.224 281.636 286.034 281.414C285.905 281.263 285.778 281.115 285.765 280.93C285.701 280.026 286.369 279.76 286.925 279.538C287.322 279.379 287.661 279.243 287.634 278.915C287.6 278.499 287.471 278.264 287.35 278.045C287.23 277.828 287.119 277.627 287.116 277.279C287.109 276.509 287.856 276.055 288.493 275.668C288.972 275.377 289.389 275.124 289.38 274.801C289.373 274.498 289.227 274.379 289.052 274.237C288.962 274.164 288.864 274.084 288.773 273.97C288.461 273.574 288.48 273.048 288.59 272.593C288.748 271.938 289.408 271.137 289.965 270.462C290.389 269.947 290.753 269.505 290.789 269.257C290.825 269.012 290.707 268.931 290.55 268.822C290.337 268.675 290.052 268.477 289.969 267.758C289.901 267.167 290.882 266.34 291.888 265.49C293.014 264.54 294.171 263.563 293.931 262.859C293.077 260.354 290.039 261.673 286.699 263.123C286.146 263.363 285.585 263.607 285.024 263.838C284.516 264.046 283.699 264.396 282.733 264.81C279.762 266.083 275.39 267.955 274.343 268.145C273.429 268.31 272.427 268.315 271.513 268.165C270.649 268.024 269.472 267.695 269.642 266.54C269.699 266.154 270.044 266.021 270.34 265.907C270.594 265.809 270.812 265.725 270.781 265.508C270.767 265.412 270.479 265.39 270.094 265.361C269.397 265.308 268.384 265.231 268.115 264.644C267.93 264.241 268.298 263.858 268.583 263.561C268.751 263.386 268.891 263.24 268.871 263.138C268.844 263 268.632 262.997 268.347 262.994C267.85 262.988 267.127 262.979 266.762 262.239C266.505 261.716 266.864 261.291 267.165 260.936C267.343 260.725 267.5 260.539 267.497 260.371C267.487 259.9 266.987 259.843 266.392 259.774C265.92 259.72 265.387 259.659 264.989 259.378C263.752 258.505 264.245 257.154 266.592 257.22ZM315.605 238.933C315.872 239.235 316.417 239.293 316.759 239.08C317.096 238.87 317.243 238.452 317.174 238.084C317.069 237.528 316.047 236.971 315.53 237.859C315.341 238.184 315.343 238.636 315.605 238.933Z" fill="#F4F6E9"/>
<path fill-rule="evenodd" clip-rule="evenodd" d="M366.768 206.305C368.139 207.609 375.396 212.971 376.606 213.08C377.418 213.153 376.732 207.087 376.441 205.353C376.14 203.563 375.817 197.986 376.225 197.055C376.728 195.907 377.429 196.056 378.047 196.563C378.518 196.951 378.608 197.484 378.669 197.845C378.708 198.081 378.736 198.242 378.85 198.24C378.931 198.237 378.998 198.114 379.089 197.947C379.285 197.585 379.594 197.017 380.402 197.02C381.091 197.023 381.355 197.87 381.538 198.46C381.636 198.776 381.711 199.018 381.817 199.016C381.904 199.015 381.97 198.86 382.056 198.657C382.215 198.283 382.442 197.749 382.996 197.737C383.701 197.721 383.903 198.494 384.049 199.05C384.128 199.352 384.191 199.59 384.308 199.603C384.443 199.617 384.46 199.485 384.484 199.298C384.516 199.052 384.56 198.712 384.898 198.488C385.414 198.144 386.12 198.516 386.497 199.15C386.986 199.971 387.668 201.905 387.914 204.726C387.931 204.912 387.947 205.096 387.963 205.28C388.081 206.6 388.196 207.88 388.175 209.216C388.165 209.798 388.126 210.305 388.091 210.75C387.987 212.077 387.925 212.862 388.837 213.497C389.088 213.672 389.292 213.69 389.641 213.721C390.076 213.76 390.736 213.819 391.998 214.228C393.44 214.696 394.716 215.497 396.076 216.679C397.883 218.251 398.031 218.83 397.832 218.815C397.416 218.784 396.986 218.696 396.528 218.603C395.692 218.434 394.765 218.246 393.666 218.344C391.95 218.498 390.951 219.239 390.643 220.517C390.495 221.134 390.616 221.761 390.752 222.469C390.872 223.088 391.003 223.768 390.976 224.557C390.908 226.562 390.301 229.331 385.813 230.343C381.837 231.239 371.465 228.151 369.846 227.518C368.205 226.877 366.574 226.163 365.116 225.161L365.106 225.155C364.718 224.888 363.917 224.338 364.425 223.782C364.624 223.565 364.969 223.625 365.248 223.674C365.413 223.703 365.554 223.728 365.63 223.69C365.823 223.594 365.827 223.429 365.83 223.269C365.833 223.16 365.836 223.053 365.898 222.973C366.202 222.582 366.572 222.718 366.88 222.831C367.099 222.912 367.287 222.981 367.396 222.837C367.534 222.655 367.568 222.512 367.599 222.379C367.629 222.247 367.658 222.124 367.784 221.981C368.063 221.665 368.533 221.754 368.934 221.829C369.235 221.886 369.498 221.936 369.612 221.801C369.72 221.675 369.704 221.573 369.685 221.451C369.675 221.388 369.664 221.32 369.669 221.241C369.687 220.965 369.887 220.758 370.099 220.613C370.403 220.404 370.964 220.32 371.438 220.248C371.799 220.194 372.109 220.147 372.214 220.059C372.319 219.973 372.301 219.897 372.276 219.795C372.243 219.657 372.199 219.472 372.429 219.149C372.617 218.884 373.32 218.906 374.04 218.928C374.846 218.953 375.674 218.979 375.834 218.605C376.403 217.272 374.684 216.698 372.794 216.066C372.481 215.961 372.163 215.855 371.85 215.744C371.568 215.643 371.107 215.487 370.564 215.302L370.562 215.302C368.887 214.733 366.422 213.895 365.926 213.589C365.493 213.322 365.084 212.957 364.766 212.562C364.467 212.188 364.107 211.624 364.6 211.216C364.764 211.08 364.953 211.152 365.116 211.214C365.255 211.267 365.374 211.312 365.441 211.212C365.47 211.168 365.361 211.054 365.215 210.901C364.951 210.625 364.566 210.223 364.672 209.885C364.744 209.653 365.034 209.632 365.258 209.616C365.391 209.606 365.501 209.598 365.53 209.549C365.57 209.482 365.485 209.404 365.37 209.298C365.17 209.114 364.879 208.846 365.001 208.411C365.087 208.104 365.389 208.063 365.642 208.028C365.791 208.007 365.924 207.989 365.983 207.919C366.152 207.724 365.969 207.518 365.752 207.272C365.58 207.077 365.385 206.857 365.326 206.598C365.142 205.79 365.837 205.42 366.768 206.305ZM393.412 216.795C393.41 217.016 393.611 217.239 393.828 217.277C394.042 217.315 394.255 217.199 394.362 217.023C394.522 216.759 394.31 216.158 393.775 216.33C393.579 216.394 393.414 216.578 393.412 216.795Z" fill="#F4F6E9"/>
</svg>
