<svg width="2054" height="216" viewBox="0 0 2054 216" fill="none" xmlns="http://www.w3.org/2000/svg">
<path d="M0 6.30322C11.5729 26.1272 74.875 71.1022 114.483 78.7031C154.45 86.3729 177.087 71.1937 217.397 44.1643C227.278 37.5388 238.22 30.2013 250.74 22.3137C301.618 -9.73877 344.836 5.45874 401.582 67.9023C451.938 123.313 524.826 125.829 564.371 127.194L564.383 127.194L564.388 127.194L564.396 127.194C569.541 127.372 574.121 127.53 578.013 127.784C611.814 129.981 665.62 134.826 681.708 145.694C683.559 146.802 685.554 148.019 687.688 149.321L687.697 149.326C718.928 168.38 779.916 205.588 852.83 183.537C930.735 159.977 1034.89 156.787 1077.24 158.137C1091.93 160.2 1109.58 163.275 1128.88 166.637L1128.88 166.638C1207.36 180.309 1313.17 198.742 1359.09 173.348C1416.31 141.707 1501.46 118.365 1530.37 122.35C1540.77 124.127 1554.29 128.219 1569.68 132.876C1622.88 148.975 1698.36 171.818 1743.93 129.068C1812.09 65.1086 1880.99 93.6187 1925.67 112.106C1929.12 113.532 1932.42 114.898 1935.56 116.158C1953.23 123.229 1976.64 139.719 1998.76 155.296L1998.76 155.297L1998.76 155.298L1998.76 155.299C2020.66 170.722 2041.29 185.251 2053.81 188.858L2052.57 215.558C2052.3 215.722 2052.01 215.845 2051.69 215.919H1V216H2051C2051.24 216 2051.47 215.972 2051.69 215.919H2052.55L2052.57 215.558C2053.43 215.031 2054 214.082 2054 213V0H0V6.30322Z" fill="#F2F4E7"/>
</svg>
