<svg width="1920" height="262" viewBox="0 0 1920 262" fill="none" xmlns="http://www.w3.org/2000/svg">
<path d="M99.2866 19.2412C63.2977 30.2851 2.1548 74.8963 -23.4255 80.1553L-25.4062 180.913L-25.4062 261.137H2029.09L2038.09 33.9495C2025.74 51.6987 1959.18 90.3526 1918.96 95.0857C1868.68 101.002 1847.51 75.3643 1786.65 33.9495C1737.96 0.817581 1693.85 12.4244 1633.17 67.4758C1572.3 122.696 1487.1 112.835 1453.22 112.835C1419.35 112.835 1377.36 129.269 1360.6 138.473C1330.61 152.935 1251.58 175.154 1175.37 148.333C1099.16 121.512 995.424 112.178 953.084 110.863C878.107 116.122 725.874 141.076 670.832 107.944C615.79 74.8126 532.332 47.7544 503.223 49.7265C456.473 54.3282 344.726 98.2315 289.685 43.0117C220.882 -26.013 144.273 5.43623 99.2866 19.2412Z" fill="#EBEDE4"/>
<path d="M1409.4 43.4783L1408.22 49.0087C1408.22 49.0087 1401.29 44.5999 1401.43 43.8647C1401.59 42.9917 1405.63 43.4111 1409.4 43.4783Z" fill="#EBEDE4"/>
<path d="M1411.93 40.8142C1422.93 39.5228 1422.17 50.8442 1428.69 48.7793C1435.21 46.7144 1435.79 38.5051 1440.39 31.4742C1446.54 22.0671 1476.2 8.287 1479.54 14.3604C1481.66 18.2184 1476.52 20.965 1476.52 20.965C1476.52 20.965 1481.55 21.4014 1481.33 25.3631C1481.16 28.5887 1476.46 30.0347 1476.46 30.0347C1476.46 30.0347 1480.9 31.3693 1479.33 36.0337C1478.45 38.6729 1473.43 39.5472 1473.43 39.5472C1473.43 39.5472 1477.76 39.5448 1476.02 43.7738C1474.75 46.8696 1462.64 49.4288 1454.77 51.8217C1450.46 53.1315 1447.95 55.3519 1447.95 55.3519C1447.95 55.3519 1456.14 56.1663 1470.13 55.6872C1482.04 55.2794 1490.93 52.4268 1492.63 55.3546C1495.02 59.4781 1490.19 61.061 1490.19 61.061C1490.19 61.061 1496.46 62.3124 1494.51 66.4414C1492.79 70.0607 1488.63 67.9723 1488.63 67.9723C1488.63 67.9723 1492.73 72.4893 1489.01 75.5297C1486.32 77.7351 1480.06 74.197 1475.03 71.1831C1470 68.1691 1461.13 65.0537 1461.13 65.0537C1461.13 65.0537 1449.32 78.0612 1437.63 76.6635C1425.94 75.2659 1419.5 67.485 1416.18 60.4201C1413.49 54.7103 1410.33 56.3505 1407.2 51.6355C1404.37 47.3635 1406.51 41.4514 1411.93 40.815L1411.93 40.8142ZM1411.85 48.8997C1412.39 49.4173 1413.4 49.4312 1413.99 48.9755C1414.57 48.526 1414.76 47.7193 1414.56 47.0453C1414.26 46.0269 1412.28 45.1628 1411.5 46.9081C1411.22 47.5475 1411.31 48.3907 1411.85 48.8997Z" fill="#EBEDE4"/>
<path d="M1289 148.908L1288.98 141.003C1285.5 138.572 1282.78 134.987 1281.24 130.772C1283.46 133.133 1286.07 135.092 1288.95 136.491L1288.94 128.586C1285.17 125.962 1282.29 122.01 1280.85 117.34V117.008L1274.17 117.025H1274.06V117.358C1272.63 122.027 1269.74 125.98 1266 128.621L1266.02 136.526C1268.93 135.109 1271.56 133.115 1273.8 130.702C1272.27 134.969 1269.55 138.572 1266.05 141.038L1266.08 148.943C1269.11 147.457 1271.84 145.375 1274.12 142.822L1274.14 162.008L1280.91 161.99L1280.9 142.752C1283.21 145.323 1285.95 147.422 1289 148.908Z" fill="#EBEDE4"/>
<path d="M1368 130.275L1367.99 125.005C1365.72 123.384 1363.94 120.994 1362.94 118.184C1364.38 119.758 1366.09 121.064 1367.97 121.997L1367.96 116.726C1365.51 114.977 1363.62 112.342 1362.68 109.229V109.008L1358.33 109.019H1358.25V109.241C1357.32 112.354 1355.44 114.989 1353 116.75L1353.01 122.02C1354.91 121.075 1356.63 119.746 1358.08 118.137C1357.09 120.982 1355.32 123.384 1353.03 125.028L1353.05 130.298C1355.03 129.307 1356.81 127.92 1358.3 126.217L1358.31 139.008L1362.73 138.996L1362.71 126.171C1364.23 127.885 1366.01 129.284 1368 130.275Z" fill="#EBEDE4"/>
<path d="M1260 144.795L1259.98 133.201C1254.82 129.635 1250.8 124.377 1248.52 118.195C1251.81 121.658 1255.66 124.531 1259.93 126.583L1259.9 114.989C1254.35 111.141 1250.08 105.344 1247.95 98.4952V98.0078L1238.08 98.0335H1237.91V98.5208C1235.8 105.37 1231.53 111.167 1226 115.04L1226.02 126.634C1230.34 124.557 1234.22 121.632 1237.53 118.093C1235.27 124.351 1231.25 129.635 1226.07 133.252L1226.12 144.847C1230.6 142.666 1234.63 139.614 1238 135.869L1238.03 164.008L1248.04 163.982L1248.02 135.766C1251.45 139.537 1255.5 142.615 1260 144.795Z" fill="#EBEDE4"/>
</svg>
