<svg width="16" height="29" viewBox="0 0 16 29" fill="8BB01A">
<path d="M16 20.5579L15.9887 15.4634C13.5645 13.8968 11.6702 11.5862 10.599 8.86995C12.1438 10.3915 13.9591 11.6539 15.9662 12.5555L15.9549 7.46108C13.339 5.77045 11.3319 3.22323 10.3284 0.213903V-0.000244141L5.68288 0.0110268H5.60395V0.225174C4.6117 3.2345 2.60465 5.78172 0 7.48363L0.0112756 12.5781C2.04087 11.6651 3.86751 10.3802 5.42354 8.82486C4.36364 11.575 2.46934 13.8968 0.0338268 15.486L0.0563777 20.5804C2.1649 19.6224 4.0592 18.2811 5.64905 16.6356L5.66032 28.9998L10.3735 28.9885L10.3622 16.5905C11.9746 18.2473 13.8802 19.5998 16 20.5579Z" />
</svg>
