<svg width="40" height="40" viewBox="0 0 40 40" fill="none" xmlns="http://www.w3.org/2000/svg">
<circle cx="20" cy="20" r="20" fill="#8CB110"/>
<path fill-rule="evenodd" clip-rule="evenodd" d="M18.8432 10.0583C17.8525 10.2674 16.9855 10.9887 16.5919 11.931C15.8583 13.6878 16.878 15.7044 18.7369 16.1728C19.1776 16.2838 19.822 16.2838 20.2627 16.1728C21.3649 15.895 22.2299 15.0481 22.5421 13.9409C22.6126 13.6907 22.6337 13.5076 22.6338 13.1455C22.6339 12.562 22.5576 12.2317 22.3045 11.721C21.9844 11.0751 21.3205 10.4615 20.6648 10.2057C20.1463 10.0034 19.3922 9.94236 18.8432 10.0583ZM11.6465 12.1467C10.9172 12.3227 10.27 12.9655 10.1056 13.6773C9.98778 14.1873 10.0886 14.8351 10.3508 15.2523C11.078 16.4093 12.6596 16.6078 13.6104 15.6614C14.6331 14.6435 14.3622 12.9334 13.0797 12.3115C12.6012 12.0795 12.1434 12.0268 11.6465 12.1467ZM26.3674 12.1399C25.6156 12.3217 24.9552 12.9996 24.798 13.7509C24.6546 14.4361 24.8773 15.1565 25.3885 15.6614C25.7956 16.0634 26.2696 16.2532 26.8689 16.2541C27.4063 16.2548 27.8466 16.0886 28.2398 15.7365C28.6965 15.3276 28.9389 14.7923 28.938 14.1946C28.9372 13.5939 28.7475 13.1223 28.3435 12.7157C27.8252 12.1942 27.0623 11.9719 26.3674 12.1399ZM9.77356 17.3564C9.49159 17.4419 9.23868 17.6551 9.09102 17.9318C9.01855 18.0676 9.01399 18.2502 9.00275 21.4705C8.9945 23.8331 9.0046 24.9219 9.03595 25.05C9.13198 25.4427 9.44185 25.7225 9.84452 25.7799L10.0406 25.8078L10.0512 27.9039L10.0618 30H12.1544H14.2469V28.5356V27.0712L14.0227 26.8072C13.5774 26.2828 13.2937 25.66 13.2176 25.0395C13.1919 24.8293 13.1814 23.4307 13.1898 21.3273C13.2032 17.9785 13.204 17.95 13.2942 17.6562C13.3442 17.4934 13.3851 17.3507 13.3851 17.3392C13.3851 17.3054 9.88666 17.3221 9.77356 17.3564ZM15.9796 17.3783C15.7246 17.4577 15.5423 17.6138 15.4207 17.8569L15.3139 18.0706V21.5249C15.3139 24.1275 15.3263 25.0207 15.3641 25.1475C15.4301 25.3689 15.7327 25.6706 15.9548 25.7364C16.0564 25.7664 16.3792 25.7864 16.7653 25.7864H17.4069V27.8932V30H19.4998H21.5927V27.8932V25.7864H22.2343C22.6204 25.7864 22.9432 25.7664 23.0448 25.7364C23.2669 25.6706 23.5695 25.3689 23.6355 25.1475C23.6733 25.0207 23.6857 24.1318 23.6857 21.5453V18.1115L23.5794 17.8989C23.5209 17.7819 23.4065 17.6315 23.3252 17.5647C23.0156 17.3103 23.1353 17.3179 19.4822 17.3209C16.8275 17.3231 16.1197 17.3347 15.9796 17.3783ZM25.6144 17.3375C25.6144 17.35 25.6553 17.4934 25.7053 17.6562C25.7955 17.9499 25.7964 17.9786 25.8097 21.3213C25.8178 23.3319 25.8071 24.833 25.7833 25.0441C25.7036 25.7503 25.4432 26.3355 24.9886 26.8306L24.7526 27.0876V28.5438V30H26.8452H28.9378L28.9484 27.9046L28.959 25.8091L29.1377 25.7787C29.5204 25.7135 29.8582 25.4109 29.9602 25.0417C29.9963 24.9112 30.0057 23.9917 29.9969 21.4705C29.9856 18.2503 29.981 18.0676 29.9086 17.9318C29.8019 17.7319 29.6039 17.5314 29.4104 17.4271C29.2503 17.3408 29.2023 17.3384 27.4304 17.3268C26.4316 17.3203 25.6144 17.3251 25.6144 17.3375Z" fill="white"/>
</svg>
