<svg width="40" height="40" viewBox="0 0 40 40" fill="none" xmlns="http://www.w3.org/2000/svg">
<circle cx="20" cy="20" r="20" fill="#8CB110"/>
<path fill-rule="evenodd" clip-rule="evenodd" d="M19.6376 8.04258C19.5645 8.07829 19.2521 8.4705 18.9158 8.94894C18.5897 9.41277 18.2881 9.82413 18.2456 9.86297C18.2031 9.90187 17.7043 10.0577 17.1372 10.2092C16.5701 10.3608 16.052 10.5174 15.9858 10.5571C15.8294 10.6511 15.7049 10.9364 15.7448 11.1089C15.762 11.1831 16.0792 11.5931 16.4496 12.02C16.8201 12.4469 17.1433 12.846 17.1679 12.9069C17.1937 12.9708 17.1882 13.46 17.1549 14.0635C17.0997 15.0634 17.1016 15.1165 17.1969 15.272C17.2628 15.3793 17.366 15.4575 17.5005 15.502C17.7018 15.5685 17.7174 15.5645 18.7771 15.1722C19.3671 14.9538 19.874 14.775 19.9036 14.775C19.9332 14.775 20.4362 14.9539 21.0215 15.1726C22.0746 15.5659 22.0877 15.5693 22.2898 15.5024C22.4257 15.4573 22.5279 15.3793 22.5955 15.2691C22.693 15.1103 22.6948 15.0616 22.6411 14.0519C22.6103 13.4734 22.6042 12.9542 22.6276 12.8981C22.651 12.842 22.973 12.448 23.3433 12.0225C23.7981 11.5 24.027 11.1966 24.0485 11.0879C24.0857 10.8999 23.9741 10.6595 23.7995 10.552C23.7363 10.513 23.3018 10.3802 22.8339 10.2568C21.4525 9.89258 21.6311 10.009 20.9314 9.01661C20.5971 8.54237 20.2862 8.12495 20.2404 8.08894C20.1205 7.99469 19.7879 7.96909 19.6376 8.04258ZM10.41 10.3421C10.2792 10.4077 10.149 10.5226 10.0925 10.6223C9.97844 10.824 9.96828 11.162 10.0708 11.345C10.16 11.504 13.4807 14.6442 13.641 14.721C13.7997 14.7971 14.1513 14.7881 14.3239 14.7035C14.5415 14.5968 14.7258 14.3632 14.7648 14.1448C14.8308 13.7743 14.7254 13.6495 12.8771 11.9112C11.1242 10.2625 11.0838 10.231 10.7203 10.231C10.6716 10.231 10.532 10.281 10.41 10.3421ZM28.9689 10.2664C28.8849 10.2808 28.2342 10.8606 27.1001 11.9316C25.2427 13.6855 25.154 13.7912 25.2271 14.1607C25.2666 14.3605 25.4645 14.6013 25.673 14.7035C25.859 14.7947 26.2013 14.7953 26.3809 14.705C26.5486 14.6205 29.8619 11.4733 29.943 11.3214C29.9744 11.2626 30 11.1194 30 11.003C30 10.4884 29.5498 10.1668 28.9689 10.2664ZM11.6845 17.1707C11.1608 17.2953 10.704 17.6517 10.4808 18.1099C10.3335 18.4123 10.332 18.425 10.3147 19.4863C10.2957 20.6542 10.3523 21.4088 10.5185 22.2018C10.9193 24.1145 12.1188 26.0405 13.666 27.2559C13.9305 27.4637 14.1875 27.6923 14.237 27.7639C14.3194 27.8831 14.3269 28.0912 14.3274 30.2394C14.3278 32.497 14.3317 32.5906 14.4308 32.7447C14.4874 32.8327 14.5932 32.9262 14.666 32.9524C14.7486 32.9822 16.7119 33 19.9038 33H25.0095L25.1848 32.8339L25.3601 32.6677L25.3619 30.3053C25.3633 28.545 25.3797 27.9163 25.4264 27.8382C25.4608 27.7806 25.6746 27.5913 25.9014 27.4175C27.8946 25.8905 29.1803 23.5965 29.4365 21.1101C29.4677 20.8069 29.4845 20.0655 29.4737 19.4626C29.4559 18.4701 29.4436 18.3447 29.344 18.1381C28.9342 17.2888 27.9127 16.9145 27.0294 17.2901C26.4987 17.5157 26.1424 17.9525 26.0348 18.5096C26.004 18.6691 25.9788 19.2873 25.9788 19.8835C25.9788 20.6426 25.9548 21.0975 25.899 21.4012C25.465 23.7596 23.5146 25.6323 21.0199 26.0859C20.5108 26.1785 19.466 26.1897 18.9158 26.1085C17.0192 25.8286 15.2347 24.5644 14.4094 22.9162C13.9329 21.9646 13.8591 21.5827 13.8186 19.8565C13.7852 18.4358 13.7827 18.4112 13.6496 18.1405C13.463 17.7614 13.1877 17.4898 12.8139 17.3162C12.4627 17.1531 12.0057 17.0942 11.6845 17.1707ZM19.2251 17.7307C17.8642 18.022 16.9052 19.1464 16.9052 20.4505C16.9052 21.5928 17.5141 22.5213 18.5807 23.0057C20.1923 23.7375 22.0999 22.9631 22.6719 21.3449C23.1911 19.8758 22.2829 18.2505 20.6769 17.7748C20.3155 17.6677 19.6184 17.6466 19.2251 17.7307Z" fill="white"/>
</svg>
