<svg width="1920" height="870" viewBox="0 0 1920 870" fill="none" xmlns="http://www.w3.org/2000/svg">
<path d="M0 323H1920V738L0 700.939L0 323Z" fill="#EBEDE4"/>
<path d="M1810.43 779.627C1847.48 772.952 1969.01 727.974 1994.34 721.628L1928.11 612.778L1924.68 532.627L-127.943 620.369L-127.232 847.733C-115.652 829.473 -138.652 793.074 -98.668 786.627C-48.688 778.569 -65.8188 777.76 50.332 808.627C107.251 823.753 217.621 854.537 275.893 796.944C334.343 739.175 380.335 743.942 419.835 743.942C453.707 743.942 505.798 758.842 555.835 743.942C617.335 725.627 660.548 720.4 737.835 743.942C815.123 767.483 877.835 782.127 953.835 766.421C1027.44 751.209 1057.84 695.627 1235.84 743.942C1297.84 760.77 1376.57 769.634 1405.56 766.421C1457.84 766.421 1520.83 726.627 1619.19 764.01C1710.3 798.633 1743.83 791.627 1810.43 779.627Z" fill="#EBEDE4"/>
<path d="M1874.82 14.2734C1978.98 97.414 2005.02 38.2919 2050 93.7188V260C1609.68 258.152 991.494 257.758 999.069 232.632C1006.64 207.505 1119.88 160.515 1210.62 164.211C1307.68 166.674 1331.77 206.051 1413.2 189.792C1514.99 169.469 1503.16 117.737 1543.4 112.195C1583.64 106.652 1600.22 123.28 1723.31 54.9199C1842.69 -11.3732 1847.49 -7.53929 1874.55 14.059L1874.82 14.2734Z" fill="#8CB110"/>
<path d="M68.1541 16.1636C171.524 98.6646 197.366 39.9973 242 94.9979V260C-194.964 258.167 -808.449 257.776 -800.931 232.842C-793.414 207.908 -681.043 161.281 -590.987 164.947C-494.667 167.392 -470.768 206.466 -389.953 190.332C-288.935 170.166 -300.681 118.832 -260.743 113.332C-220.806 107.832 -204.361 124.331 -82.1991 56.4974C36.2698 -9.28575 41.0362 -5.4813 67.8875 15.9508L68.1541 16.1636Z" fill="#8CB110"/>
<path d="M102.401 48.2879C66.4122 59.3319 6.25437 72.6109 -19.3259 77.87L-24 264.276V344.5H1920.37L1968 135.062C1955.65 152.811 1960.59 173.716 1920.37 178.449C1870.09 184.365 1848.92 158.728 1788.06 117.313C1739.36 84.1808 1695.25 95.7877 1634.57 150.839C1573.71 206.059 1488.5 196.198 1454.63 196.198C1420.76 196.198 1378.77 212.633 1362.01 221.836C1332.02 236.298 1252.99 258.518 1176.77 231.697C1100.56 204.876 996.83 195.541 954.49 194.226C879.513 199.485 715.799 201.72 660.758 168.588C605.716 135.456 533.738 131.118 504.629 133.09C457.879 137.691 350.618 133.09 295.577 77.87C226.774 8.8452 147.387 34.483 102.401 48.2879Z" fill="#EBEDE4"/>
<path d="M1096.79 71.6749L1094.26 75.639C1094.26 75.639 1090.15 70.1809 1090.47 69.647C1090.84 69.013 1093.87 70.5213 1096.79 71.6749Z" fill="#EBEDE4"/>
<path d="M1099.54 70.3356C1108.5 72.5428 1104.6 81.1424 1110.28 81.4374C1115.97 81.7325 1118.81 75.5033 1124.45 71.367C1131.99 65.8327 1159.13 63.7554 1159.95 69.4624C1160.48 73.0878 1155.67 73.7281 1155.67 73.7281C1155.67 73.7281 1159.47 75.537 1158.14 78.562C1157.07 81.025 1152.98 80.7775 1152.98 80.7775C1152.98 80.7775 1156.05 83.1154 1153.47 86.293C1152.01 88.0908 1147.84 87.3085 1147.84 87.3085C1147.84 87.3085 1151.21 88.5682 1148.63 91.3581C1146.74 93.4002 1136.55 91.8569 1129.71 91.4222C1125.97 91.1843 1123.37 92.1824 1123.37 92.1824C1123.37 92.1824 1129.51 95.2079 1140.56 98.922C1149.96 102.083 1157.72 102.453 1158.18 105.231C1158.84 109.143 1154.62 108.967 1154.62 108.967C1154.62 108.967 1159.14 111.772 1156.41 114.42C1154.02 116.74 1151.39 113.897 1151.39 113.897C1151.39 113.897 1153.26 118.613 1149.48 119.898C1146.74 120.831 1142.89 116.245 1139.85 112.427C1136.81 108.609 1130.81 103.592 1130.81 103.592C1130.81 103.592 1117.81 110.281 1109.1 105.777C1100.4 101.273 1097.66 93.3318 1097.13 86.8555C1096.71 81.6215 1093.76 81.9747 1092.7 77.3883C1091.74 73.2326 1095.13 69.2486 1099.54 70.3361L1099.54 70.3356ZM1097.12 76.6127C1097.39 77.1756 1098.18 77.4812 1098.77 77.2974C1099.35 77.1159 1099.73 76.5422 1099.77 75.9594C1099.84 75.0788 1098.55 73.8276 1097.43 74.9607C1097.03 75.3759 1096.85 76.059 1097.12 76.6127Z" fill="#EBEDE4"/>
<path d="M1051.03 117.335C1049.25 118.722 1040.03 124.242 1038.58 124.232C1037.61 124.225 1039.12 117.113 1039.67 115.091C1040.23 113.004 1041.26 106.429 1040.88 105.278C1040.42 103.859 1039.57 103.956 1038.78 104.486C1037.78 105.155 1037.97 106.422 1037.63 106.38C1037.33 106.342 1037.33 104.887 1035.93 104.756C1034.68 104.639 1034.38 106.998 1034.03 106.959C1033.73 106.927 1033.78 105.427 1032.77 105.306C1031.49 105.152 1031.4 107.363 1031 107.367C1030.63 107.371 1031.09 106.515 1030.43 105.977C1029.86 105.511 1028.98 105.87 1028.46 106.578C1027.79 107.495 1026.76 109.709 1026.14 113.025C1025.81 114.81 1025.46 116.511 1025.31 118.317C1025.09 121.07 1025.58 122.451 1024.03 123.316C1023.32 123.718 1022.98 123.207 1020.2 123.819C1018.44 124.207 1016.83 125.01 1015.09 126.255C1012.76 127.91 1012.52 128.58 1012.76 128.585C1014.16 128.614 1015.75 128.13 1017.75 128.506C1019.77 128.887 1020.87 129.88 1021.08 131.431C1021.28 132.835 1020.35 134.171 1020.22 136.181C1020.07 138.567 1020.47 141.92 1025.68 143.636C1030.29 145.157 1042.94 142.692 1044.93 142.128C1046.95 141.557 1048.97 140.899 1050.81 139.879C1051.3 139.611 1052.33 139.047 1051.79 138.324C1051.45 137.878 1050.6 138.221 1050.37 138.075C1050.01 137.846 1050.3 137.447 1050.14 137.195C1049.59 136.339 1048.65 137.3 1048.38 136.861C1048.09 136.4 1048.28 136.171 1048.01 135.802C1047.5 135.089 1046.15 135.78 1045.87 135.377C1045.7 135.131 1045.86 134.985 1045.86 134.706C1045.88 134.378 1045.66 134.109 1045.43 133.913C1044.84 133.415 1043.25 133.282 1042.98 133.013C1042.72 132.743 1043.24 132.622 1042.83 131.909C1042.43 131.196 1039.14 131.747 1038.86 130.871C1038.25 128.953 1041.21 128.614 1043.91 127.938C1045.33 127.584 1050.36 126.472 1051.18 126.067C1051.73 125.8 1052.26 125.415 1052.68 124.983C1053.08 124.575 1053.57 123.947 1053.03 123.406C1052.7 123.071 1052.18 123.578 1052.03 123.305C1051.95 123.148 1053.23 122.46 1053.1 121.82C1053 121.37 1052.2 121.488 1052.12 121.323C1052.01 121.094 1053.03 120.868 1052.88 120.035C1052.77 119.44 1051.94 119.579 1051.77 119.339C1051.45 118.889 1052.48 118.528 1052.7 117.848C1053.01 116.911 1052.23 116.392 1051.02 117.335L1051.03 117.335ZM1018.23 126.699C1018.21 126.961 1017.94 127.202 1017.68 127.223C1017.42 127.243 1017.18 127.08 1017.08 126.861C1016.92 126.528 1017.24 125.84 1017.85 126.106C1018.08 126.204 1018.25 126.442 1018.23 126.699Z" fill="#EBEDE4"/>
<path d="M54.3313 113.996C29.4235 128.474 -50.934 157.321 -87.9992 169.934V214.356C43.2117 194.613 69.501 263 215.001 234C327.192 211.639 445.008 268.5 503.001 268.5C596.405 268.5 710.644 269.581 765.501 263C787.741 260.332 783.832 247 739.297 247C668.13 247 565.269 248.469 503.001 220.5C464.744 203.316 430.838 159.081 353.001 152.5C275.164 145.919 250.036 155.127 194.438 113.996C138.84 72.8648 85.4661 95.8982 54.3313 113.996Z" fill="#F3F4EC"/>
<path d="M1959.51 180.594C1926.51 146.594 1892.17 176.78 1888.06 166.863C1872.34 128.971 1845.75 129.057 1849.07 129.425C1821.29 126.352 1813.08 144.077 1787.51 146.594C1761.93 149.111 1720.79 120.041 1679.51 192.094C1671.05 206.851 1627.17 219.579 1615.5 224.068C1575.53 239.448 1517.5 257.351 1548.5 264.568C1579.5 271.786 1691 242.5 1809 236.068C1865.79 232.973 2065.42 292.292 2021.5 285.068C2021.5 285.068 1992.51 214.594 1959.51 180.594Z" fill="#F3F4EC"/>
<path d="M1665 75.1434L1664.96 56.5224C1656.17 50.796 1649.3 42.3506 1645.42 32.4221C1651.02 37.9837 1657.6 42.5977 1664.88 45.8935L1664.84 27.2724C1655.35 21.0929 1648.08 11.7824 1644.44 0.782744V0L1627.6 0.0411972H1627.31V0.823941C1623.72 11.8236 1616.44 21.1341 1607 27.3548L1607.04 45.9759C1614.4 42.6389 1621.02 37.9425 1626.66 32.2573C1622.82 42.3094 1615.95 50.796 1607.12 56.6047L1607.2 75.2258C1614.85 71.7241 1621.71 66.8216 1627.48 60.8068L1627.52 106L1644.6 105.959L1644.56 60.6421C1650.41 66.698 1657.32 71.6417 1665 75.1434Z" fill="#8BB01A"/>
<path d="M383 98.5476L382.967 83.7913C375.846 79.2534 370.281 72.5608 367.135 64.693C371.672 69.1003 377.005 72.7567 382.901 75.3684L382.868 60.6121C375.183 55.7151 369.288 48.337 366.34 39.6203V39L352.693 39.0326H352.462V39.6529C349.547 48.3696 343.651 55.7478 336 60.6774L336.033 75.4337C341.995 72.7893 347.361 69.0676 351.932 64.5624C348.818 72.5282 343.254 79.2534 336.099 83.8566L336.166 98.6129C342.359 95.8379 347.924 91.953 352.594 87.1866L352.627 123L366.472 122.967L366.439 87.056C371.175 91.855 376.773 95.7726 383 98.5476Z" fill="#EBEDE4"/>
<path d="M429 115.205L428.973 103.26C423.216 99.5861 418.717 94.1683 416.173 87.7991C419.841 91.3669 424.153 94.3269 428.92 96.4411L428.893 84.4955C422.68 80.5313 417.913 74.5585 415.53 67.5021V67L404.497 67.0264H404.309V67.5286C401.953 74.5849 397.186 80.5577 391 84.5484L391.027 96.494C395.847 94.3533 400.185 91.3405 403.881 87.6934C401.364 94.1419 396.865 99.5861 391.08 103.312L391.134 115.258C396.142 113.012 400.641 109.867 404.416 106.008L404.443 135L415.637 134.974L415.61 105.902C419.44 109.787 423.965 112.959 429 115.205Z" fill="#EBEDE4"/>
<path d="M1276 236.698L1275.98 226.861C1271.28 223.836 1267.61 219.374 1265.54 214.129C1268.53 217.067 1272.05 219.504 1275.93 221.246L1275.91 211.408C1270.84 208.143 1266.96 203.225 1265.01 197.414V197L1256.01 197.022H1255.86V197.435C1253.94 203.246 1250.05 208.165 1245 211.452L1245.02 221.289C1248.95 219.526 1252.49 217.045 1255.51 214.042C1253.45 219.352 1249.78 223.836 1245.07 226.904L1245.11 236.742C1249.19 234.892 1252.86 232.302 1255.95 229.124L1255.97 253L1265.1 252.978L1265.08 229.037C1268.2 232.237 1271.89 234.848 1276 236.698Z" fill="#EBEDE4"/>
<path d="M1597 100.092L1596.97 84.4574C1589.54 79.6494 1583.74 72.5585 1580.46 64.2223C1585.19 68.892 1590.75 72.766 1596.9 75.5332L1596.86 59.8986C1588.85 54.7101 1582.7 46.8927 1579.63 37.6572V37L1565.4 37.0346H1565.16V37.6918C1562.12 46.9273 1555.98 54.7447 1548 59.9677L1548.03 75.6024C1554.25 72.8006 1559.84 68.8574 1564.61 64.0839C1561.36 72.5239 1555.56 79.6494 1548.1 84.5266L1548.17 100.161C1554.63 97.2211 1560.43 93.1049 1565.3 88.0548L1565.33 126L1579.77 125.965L1579.73 87.9164C1584.67 93.0012 1590.51 97.152 1597 100.092Z" fill="#8BB01A"/>
<path d="M1308 233.647L1307.98 226.796C1304.65 224.689 1302.05 221.582 1300.57 217.929C1302.7 219.975 1305.19 221.673 1307.95 222.885L1307.94 216.034C1304.34 213.761 1301.58 210.335 1300.2 206.288V206L1293.81 206.015H1293.71V206.303C1292.34 210.35 1289.58 213.776 1286 216.065L1286.02 222.916C1288.81 221.688 1291.32 219.96 1293.46 217.868C1292 221.567 1289.4 224.689 1286.05 226.826L1286.08 233.677C1288.98 232.389 1291.58 230.585 1293.77 228.372L1293.78 245L1300.26 244.985L1300.25 228.312C1302.47 230.54 1305.09 232.359 1308 233.647Z" fill="#EBEDE4"/>
<path d="M1235 236.558L1234.99 231.464C1232.56 229.897 1230.67 227.586 1229.6 224.87C1231.14 226.392 1232.96 227.654 1234.97 228.556L1234.95 223.461C1232.34 221.771 1230.33 219.223 1229.33 216.214V216L1224.68 216.011H1224.6V216.225C1223.61 219.235 1221.6 221.782 1219 223.484L1219.01 228.578C1221.04 227.665 1222.87 226.38 1224.42 224.825C1223.36 227.575 1221.47 229.897 1219.03 231.486L1219.06 236.581C1221.16 235.623 1223.06 234.281 1224.65 232.636L1224.66 245L1229.37 244.989L1229.36 232.591C1230.97 234.248 1232.88 235.6 1235 236.558Z" fill="#EBEDE4"/>
<path d="M1556 188.558L1555.99 183.464C1553.56 181.897 1551.67 179.586 1550.6 176.87C1552.14 178.392 1553.96 179.654 1555.97 180.556L1555.95 175.461C1553.34 173.771 1551.33 171.223 1550.33 168.214V168L1545.68 168.011H1545.6V168.225C1544.61 171.235 1542.6 173.782 1540 175.484L1540.01 180.578C1542.04 179.665 1543.87 178.38 1545.42 176.825C1544.36 179.575 1542.47 181.897 1540.03 183.486L1540.06 188.581C1542.16 187.623 1544.06 186.281 1545.65 184.636L1545.66 197L1550.37 196.989L1550.36 184.591C1551.97 186.248 1553.88 187.6 1556 188.558Z" fill="#EBEDE4"/>
</svg>
